%TF.GenerationSoftware,KiCad,Pcbnew,7.0.11-7.0.11~ubuntu22.04.1*%
%TF.CreationDate,2024-03-24T21:54:49+08:00*%
%TF.ProjectId,motor-controller-pcb,6d6f746f-722d-4636-9f6e-74726f6c6c65,2.1b2*%
%TF.SameCoordinates,Original*%
%TF.FileFunction,Soldermask,Bot*%
%TF.FilePolarity,Negative*%
%FSLAX46Y46*%
G04 Gerber Fmt 4.6, Leading zero omitted, Abs format (unit mm)*
G04 Created by KiCad (PCBNEW 7.0.11-7.0.11~ubuntu22.04.1) date 2024-03-24 21:54:49*
%MOMM*%
%LPD*%
G01*
G04 APERTURE LIST*
%ADD10R,1.700000X1.700000*%
%ADD11O,1.700000X1.700000*%
%ADD12C,3.200000*%
%ADD13R,1.000000X1.000000*%
%ADD14C,0.650000*%
%ADD15O,1.000000X2.100000*%
%ADD16O,1.000000X1.600000*%
G04 APERTURE END LIST*
D10*
%TO.C,J5*%
X150270000Y-69420000D03*
D11*
X150270000Y-71960000D03*
X150270000Y-74500000D03*
%TD*%
D12*
%TO.C,H5*%
X127860000Y-101020000D03*
%TD*%
D13*
%TO.C,TP3*%
X114580000Y-128080000D03*
%TD*%
%TO.C,TP1*%
X112850000Y-123310000D03*
%TD*%
D14*
%TO.C,J1*%
X144090000Y-65140000D03*
X138310000Y-65140000D03*
D15*
X145520000Y-65670000D03*
D16*
X145520000Y-61490000D03*
D15*
X136880000Y-65670000D03*
D16*
X136880000Y-61490000D03*
%TD*%
D13*
%TO.C,TP5*%
X143870000Y-73490000D03*
%TD*%
D10*
%TO.C,J2*%
X150420000Y-115710000D03*
D11*
X150420000Y-113170000D03*
X150420000Y-110630000D03*
X150420000Y-108090000D03*
%TD*%
D12*
%TO.C,H3*%
X107950000Y-125760000D03*
%TD*%
D13*
%TO.C,TP7*%
X135170000Y-80300000D03*
%TD*%
%TO.C,TP8*%
X133600000Y-72380000D03*
%TD*%
D12*
%TO.C,H1*%
X150328000Y-63385000D03*
%TD*%
%TO.C,H4*%
X150290000Y-125780000D03*
%TD*%
D10*
%TO.C,J6*%
X107940000Y-85010000D03*
D11*
X107940000Y-82470000D03*
X107940000Y-79930000D03*
X107940000Y-77390000D03*
X107940000Y-74850000D03*
X107940000Y-72310000D03*
X107940000Y-69770000D03*
%TD*%
D10*
%TO.C,U1*%
X114340000Y-62130000D03*
D11*
X114340000Y-64670000D03*
X114340000Y-67210000D03*
X114340000Y-69750000D03*
X114340000Y-72290000D03*
X114340000Y-74830000D03*
X114300000Y-77380000D03*
X129590000Y-77370000D03*
X129590000Y-74830000D03*
X129590000Y-72290000D03*
X129590000Y-69750000D03*
X129590000Y-67210000D03*
X129590000Y-64670000D03*
D10*
X129590000Y-62130000D03*
%TD*%
D13*
%TO.C,TP9*%
X126790000Y-93090000D03*
%TD*%
%TO.C,TP6*%
X133620000Y-69890000D03*
%TD*%
D12*
%TO.C,H6*%
X127820000Y-122460000D03*
%TD*%
%TO.C,H2*%
X107948000Y-63385000D03*
%TD*%
D10*
%TO.C,J4*%
X111690000Y-90680000D03*
D11*
X111690000Y-93220000D03*
X111690000Y-95760000D03*
X111690000Y-98300000D03*
%TD*%
D10*
%TO.C,J8*%
X111655000Y-112310000D03*
D11*
X111655000Y-114850000D03*
X111655000Y-117390000D03*
X111655000Y-119930000D03*
%TD*%
D13*
%TO.C,TP2*%
X105130000Y-67310000D03*
%TD*%
M02*
