%TF.GenerationSoftware,KiCad,Pcbnew,7.0.11-7.0.11~ubuntu22.04.1*%
%TF.CreationDate,2024-03-24T21:54:49+08:00*%
%TF.ProjectId,motor-controller-pcb,6d6f746f-722d-4636-9f6e-74726f6c6c65,2.1b2*%
%TF.SameCoordinates,Original*%
%TF.FileFunction,Paste,Top*%
%TF.FilePolarity,Positive*%
%FSLAX46Y46*%
G04 Gerber Fmt 4.6, Leading zero omitted, Abs format (unit mm)*
G04 Created by KiCad (PCBNEW 7.0.11-7.0.11~ubuntu22.04.1) date 2024-03-24 21:54:49*
%MOMM*%
%LPD*%
G01*
G04 APERTURE LIST*
G04 Aperture macros list*
%AMRoundRect*
0 Rectangle with rounded corners*
0 $1 Rounding radius*
0 $2 $3 $4 $5 $6 $7 $8 $9 X,Y pos of 4 corners*
0 Add a 4 corners polygon primitive as box body*
4,1,4,$2,$3,$4,$5,$6,$7,$8,$9,$2,$3,0*
0 Add four circle primitives for the rounded corners*
1,1,$1+$1,$2,$3*
1,1,$1+$1,$4,$5*
1,1,$1+$1,$6,$7*
1,1,$1+$1,$8,$9*
0 Add four rect primitives between the rounded corners*
20,1,$1+$1,$2,$3,$4,$5,0*
20,1,$1+$1,$4,$5,$6,$7,0*
20,1,$1+$1,$6,$7,$8,$9,0*
20,1,$1+$1,$8,$9,$2,$3,0*%
%AMFreePoly0*
4,1,14,0.885355,0.885355,0.900000,0.850000,0.900000,-0.850000,0.885355,-0.885355,0.850000,-0.900000,-0.500000,-0.900000,-0.535355,-0.885356,-0.885355,-0.535355,-0.900000,-0.500000,-0.900000,0.850000,-0.885355,0.885355,-0.850000,0.900000,0.850000,0.900000,0.885355,0.885355,0.885355,0.885355,$1*%
G04 Aperture macros list end*
%ADD10RoundRect,0.225000X-0.250000X0.225000X-0.250000X-0.225000X0.250000X-0.225000X0.250000X0.225000X0*%
%ADD11R,2.000000X1.200000*%
%ADD12R,1.300000X0.800000*%
%ADD13R,3.000000X2.100000*%
%ADD14RoundRect,0.225000X0.225000X0.250000X-0.225000X0.250000X-0.225000X-0.250000X0.225000X-0.250000X0*%
%ADD15RoundRect,0.200000X-0.200000X-0.275000X0.200000X-0.275000X0.200000X0.275000X-0.200000X0.275000X0*%
%ADD16R,0.800000X0.280000*%
%ADD17R,0.280000X0.800000*%
%ADD18FreePoly0,270.000000*%
%ADD19RoundRect,0.200000X0.275000X-0.200000X0.275000X0.200000X-0.275000X0.200000X-0.275000X-0.200000X0*%
%ADD20R,2.400000X1.300000*%
%ADD21RoundRect,0.225000X-0.225000X-0.250000X0.225000X-0.250000X0.225000X0.250000X-0.225000X0.250000X0*%
%ADD22R,3.500000X1.200000*%
%ADD23RoundRect,0.218750X-0.218750X-0.256250X0.218750X-0.256250X0.218750X0.256250X-0.218750X0.256250X0*%
%ADD24R,0.600000X1.450000*%
%ADD25R,0.300000X1.450000*%
%ADD26RoundRect,0.200000X0.200000X0.275000X-0.200000X0.275000X-0.200000X-0.275000X0.200000X-0.275000X0*%
%ADD27R,0.600000X1.100000*%
%ADD28RoundRect,0.250000X-1.000000X-0.650000X1.000000X-0.650000X1.000000X0.650000X-1.000000X0.650000X0*%
%ADD29R,0.920000X0.520000*%
%ADD30R,2.120000X1.400000*%
%ADD31RoundRect,0.250000X0.650000X-1.000000X0.650000X1.000000X-0.650000X1.000000X-0.650000X-1.000000X0*%
%ADD32RoundRect,0.225000X0.250000X-0.225000X0.250000X0.225000X-0.250000X0.225000X-0.250000X-0.225000X0*%
%ADD33RoundRect,0.200000X-0.275000X0.200000X-0.275000X-0.200000X0.275000X-0.200000X0.275000X0.200000X0*%
%ADD34RoundRect,0.150000X-0.512500X-0.150000X0.512500X-0.150000X0.512500X0.150000X-0.512500X0.150000X0*%
%ADD35RoundRect,0.243750X-0.243750X-0.456250X0.243750X-0.456250X0.243750X0.456250X-0.243750X0.456250X0*%
G04 APERTURE END LIST*
D10*
%TO.C,C17*%
X133155000Y-82730000D03*
X133155000Y-84280000D03*
%TD*%
D11*
%TO.C,SW1*%
X152650000Y-82650000D03*
X152650000Y-85150000D03*
X152650000Y-87650000D03*
X146950000Y-82650000D03*
X146950000Y-85150000D03*
X146950000Y-87650000D03*
%TD*%
D12*
%TO.C,J3*%
X109020000Y-92850000D03*
X109020000Y-94110000D03*
X109020000Y-95350000D03*
X109020000Y-96600000D03*
D13*
X106280000Y-99160000D03*
X106280000Y-90300000D03*
%TD*%
D14*
%TO.C,C9*%
X142450000Y-85120000D03*
X140900000Y-85120000D03*
%TD*%
D15*
%TO.C,R7*%
X143835000Y-70930000D03*
X145485000Y-70930000D03*
%TD*%
D16*
%TO.C,U5*%
X115805000Y-115840000D03*
X115805000Y-116340000D03*
X115805000Y-116840000D03*
X115805000Y-117340000D03*
D17*
X116555000Y-118090000D03*
X117055000Y-118090000D03*
X117555000Y-118090000D03*
X118055000Y-118090000D03*
D16*
X118805000Y-117340000D03*
X118805000Y-116840000D03*
X118805000Y-116340000D03*
X118805000Y-115840000D03*
D17*
X118055000Y-115090000D03*
X117555000Y-115090000D03*
X117055000Y-115090000D03*
X116555000Y-115090000D03*
D18*
X117305000Y-116590000D03*
%TD*%
D19*
%TO.C,R15*%
X142670000Y-92010000D03*
X142670000Y-90360000D03*
%TD*%
D12*
%TO.C,J7*%
X108990000Y-114460000D03*
X108990000Y-115720000D03*
X108990000Y-116960000D03*
X108990000Y-118210000D03*
D13*
X106250000Y-120770000D03*
X106250000Y-111910000D03*
%TD*%
D20*
%TO.C,SW2*%
X151710000Y-95370000D03*
X151710000Y-99870000D03*
%TD*%
D15*
%TO.C,R18*%
X110840000Y-83850000D03*
X112490000Y-83850000D03*
%TD*%
D21*
%TO.C,C8*%
X140910000Y-83600000D03*
X142460000Y-83600000D03*
%TD*%
%TO.C,C3*%
X143870000Y-69370000D03*
X145420000Y-69370000D03*
%TD*%
D22*
%TO.C,C16*%
X120025000Y-108700000D03*
X114685000Y-108700000D03*
%TD*%
D23*
%TO.C,D5*%
X110875000Y-85470000D03*
X112450000Y-85470000D03*
%TD*%
D10*
%TO.C,C4*%
X121740000Y-96190000D03*
X121740000Y-97740000D03*
%TD*%
%TO.C,C11*%
X121225000Y-116470000D03*
X121225000Y-118020000D03*
%TD*%
D24*
%TO.C,J1*%
X144450000Y-66585000D03*
X143650000Y-66585000D03*
D25*
X142450000Y-66585000D03*
X141450000Y-66585000D03*
X140950000Y-66585000D03*
X139950000Y-66585000D03*
D24*
X138750000Y-66585000D03*
X137950000Y-66585000D03*
X137950000Y-66585000D03*
X138750000Y-66585000D03*
D25*
X139450000Y-66585000D03*
X140450000Y-66585000D03*
X141950000Y-66585000D03*
X142950000Y-66585000D03*
D24*
X143650000Y-66585000D03*
X144450000Y-66585000D03*
%TD*%
D26*
%TO.C,R1*%
X138970000Y-80790000D03*
X137320000Y-80790000D03*
%TD*%
D27*
%TO.C,U3*%
X139320000Y-89532500D03*
X140270000Y-89532500D03*
X141220000Y-89532500D03*
X141220000Y-86832500D03*
X140270000Y-86832500D03*
X139320000Y-86832500D03*
%TD*%
D26*
%TO.C,R10*%
X110085000Y-103590000D03*
X108435000Y-103590000D03*
%TD*%
D23*
%TO.C,D3*%
X105485000Y-107110000D03*
X107060000Y-107110000D03*
%TD*%
D21*
%TO.C,C1*%
X125286300Y-108432200D03*
X126836300Y-108432200D03*
%TD*%
D19*
%TO.C,R12*%
X142790000Y-88980000D03*
X142790000Y-87330000D03*
%TD*%
D28*
%TO.C,D6*%
X136620000Y-75000000D03*
X140620000Y-75000000D03*
%TD*%
D21*
%TO.C,C13*%
X141450000Y-95270000D03*
X143000000Y-95270000D03*
%TD*%
D23*
%TO.C,D4*%
X137470000Y-79250000D03*
X139045000Y-79250000D03*
%TD*%
D29*
%TO.C,Q2*%
X143920000Y-78447500D03*
X143920000Y-77147500D03*
X142020000Y-77797500D03*
%TD*%
D30*
%TO.C,L2*%
X135990000Y-86180000D03*
X135990000Y-90240000D03*
%TD*%
D31*
%TO.C,D1*%
X137620000Y-96590000D03*
X137620000Y-92590000D03*
%TD*%
D14*
%TO.C,C14*%
X143000000Y-93730000D03*
X141450000Y-93730000D03*
%TD*%
D16*
%TO.C,U2*%
X116060000Y-94170000D03*
X116060000Y-94670000D03*
X116060000Y-95170000D03*
X116060000Y-95670000D03*
D17*
X116810000Y-96420000D03*
X117310000Y-96420000D03*
X117810000Y-96420000D03*
X118310000Y-96420000D03*
D16*
X119060000Y-95670000D03*
X119060000Y-95170000D03*
X119060000Y-94670000D03*
X119060000Y-94170000D03*
D17*
X118310000Y-93420000D03*
X117810000Y-93420000D03*
X117310000Y-93420000D03*
X116810000Y-93420000D03*
D18*
X117560000Y-94920000D03*
%TD*%
D26*
%TO.C,R11*%
X110065000Y-107110000D03*
X108415000Y-107110000D03*
%TD*%
D32*
%TO.C,C10*%
X149120000Y-99860000D03*
X149120000Y-98310000D03*
%TD*%
D14*
%TO.C,C15*%
X118025000Y-113100000D03*
X116475000Y-113100000D03*
%TD*%
D19*
%TO.C,R13*%
X149130000Y-96910000D03*
X149130000Y-95260000D03*
%TD*%
D32*
%TO.C,C18*%
X127405000Y-84290000D03*
X127405000Y-82740000D03*
%TD*%
D27*
%TO.C,Q1*%
X138535000Y-72375000D03*
X139485000Y-72375000D03*
X140435000Y-72375000D03*
X140435000Y-69675000D03*
X139485000Y-69675000D03*
X138535000Y-69675000D03*
%TD*%
D10*
%TO.C,C2*%
X147700000Y-71870000D03*
X147700000Y-73420000D03*
%TD*%
D14*
%TO.C,C6*%
X117680000Y-91390000D03*
X116130000Y-91390000D03*
%TD*%
D33*
%TO.C,R6*%
X121740000Y-93100000D03*
X121740000Y-94750000D03*
%TD*%
D26*
%TO.C,R17*%
X120045000Y-119850000D03*
X118395000Y-119850000D03*
%TD*%
D33*
%TO.C,R8*%
X145380000Y-76860000D03*
X145380000Y-78510000D03*
%TD*%
%TO.C,R2*%
X133050000Y-61142500D03*
X133050000Y-62792500D03*
%TD*%
D26*
%TO.C,R4*%
X146682500Y-113230000D03*
X145032500Y-113230000D03*
%TD*%
D23*
%TO.C,L1*%
X125305000Y-106480000D03*
X126880000Y-106480000D03*
%TD*%
D22*
%TO.C,C7*%
X120460000Y-86940000D03*
X115120000Y-86940000D03*
%TD*%
D34*
%TO.C,U7*%
X129142500Y-82600000D03*
X129142500Y-83550000D03*
X129142500Y-84500000D03*
X131417500Y-84500000D03*
X131417500Y-82600000D03*
%TD*%
D14*
%TO.C,C5*%
X116860000Y-98440000D03*
X115310000Y-98440000D03*
%TD*%
D33*
%TO.C,R14*%
X121255000Y-113400000D03*
X121255000Y-115050000D03*
%TD*%
D14*
%TO.C,C12*%
X116455000Y-119850000D03*
X114905000Y-119850000D03*
%TD*%
D23*
%TO.C,D2*%
X105497500Y-103590000D03*
X107072500Y-103590000D03*
%TD*%
D19*
%TO.C,R3*%
X134560000Y-62797500D03*
X134560000Y-61147500D03*
%TD*%
D35*
%TO.C,F1*%
X140670000Y-80010000D03*
X142545000Y-80010000D03*
%TD*%
D26*
%TO.C,R9*%
X120280000Y-98460000D03*
X118630000Y-98460000D03*
%TD*%
D15*
%TO.C,R5*%
X145012500Y-115660000D03*
X146662500Y-115660000D03*
%TD*%
D33*
%TO.C,R16*%
X144170000Y-90360000D03*
X144170000Y-92010000D03*
%TD*%
M02*
