%TF.GenerationSoftware,KiCad,Pcbnew,7.0.11-7.0.11~ubuntu22.04.1*%
%TF.CreationDate,2024-03-24T21:54:49+08:00*%
%TF.ProjectId,motor-controller-pcb,6d6f746f-722d-4636-9f6e-74726f6c6c65,2.1b2*%
%TF.SameCoordinates,Original*%
%TF.FileFunction,Copper,L4,Bot*%
%TF.FilePolarity,Positive*%
%FSLAX46Y46*%
G04 Gerber Fmt 4.6, Leading zero omitted, Abs format (unit mm)*
G04 Created by KiCad (PCBNEW 7.0.11-7.0.11~ubuntu22.04.1) date 2024-03-24 21:54:49*
%MOMM*%
%LPD*%
G01*
G04 APERTURE LIST*
%TA.AperFunction,ComponentPad*%
%ADD10R,1.700000X1.700000*%
%TD*%
%TA.AperFunction,ComponentPad*%
%ADD11O,1.700000X1.700000*%
%TD*%
%TA.AperFunction,ComponentPad*%
%ADD12R,1.000000X1.000000*%
%TD*%
%TA.AperFunction,ComponentPad*%
%ADD13O,1.000000X2.100000*%
%TD*%
%TA.AperFunction,ComponentPad*%
%ADD14O,1.000000X1.600000*%
%TD*%
%TA.AperFunction,ViaPad*%
%ADD15C,0.800000*%
%TD*%
%TA.AperFunction,ViaPad*%
%ADD16C,0.650000*%
%TD*%
%TA.AperFunction,Conductor*%
%ADD17C,0.600000*%
%TD*%
%TA.AperFunction,Conductor*%
%ADD18C,0.400000*%
%TD*%
%TA.AperFunction,Conductor*%
%ADD19C,0.300000*%
%TD*%
G04 APERTURE END LIST*
D10*
%TO.P,J5,1,Pin_1*%
%TO.N,/A6*%
X150270000Y-69420000D03*
D11*
%TO.P,J5,2,Pin_2*%
%TO.N,+5VA*%
X150270000Y-71960000D03*
%TO.P,J5,3,Pin_3*%
%TO.N,GND*%
X150270000Y-74500000D03*
%TD*%
D12*
%TO.P,TP3,1,1*%
%TO.N,GND*%
X114580000Y-128080000D03*
%TD*%
%TO.P,TP1,1,1*%
%TO.N,Vref1*%
X112850000Y-123310000D03*
%TD*%
D13*
%TO.P,J1,S1,SHIELD*%
%TO.N,GND*%
X145520000Y-65670000D03*
D14*
X145520000Y-61490000D03*
D13*
X136880000Y-65670000D03*
D14*
X136880000Y-61490000D03*
%TD*%
D12*
%TO.P,TP5,1,1*%
%TO.N,VBUS*%
X143870000Y-73490000D03*
%TD*%
D10*
%TO.P,J2,1,Pin_1*%
%TO.N,/SDA*%
X150420000Y-115710000D03*
D11*
%TO.P,J2,2,Pin_2*%
%TO.N,/SCL*%
X150420000Y-113170000D03*
%TO.P,J2,3,Pin_3*%
%TO.N,+3V3*%
X150420000Y-110630000D03*
%TO.P,J2,4,Pin_4*%
%TO.N,GND*%
X150420000Y-108090000D03*
%TD*%
D12*
%TO.P,TP7,1,1*%
%TO.N,+5VA*%
X135170000Y-80300000D03*
%TD*%
%TO.P,TP8,1,1*%
%TO.N,+3V3*%
X133600000Y-72380000D03*
%TD*%
D10*
%TO.P,J6,1,Pin_1*%
%TO.N,GND*%
X107940000Y-85010000D03*
D11*
%TO.P,J6,2,Pin_2*%
%TO.N,/SCL*%
X107940000Y-82470000D03*
%TO.P,J6,3,Pin_3*%
%TO.N,/SDA*%
X107940000Y-79930000D03*
%TO.P,J6,4,Pin_4*%
%TO.N,/A3*%
X107940000Y-77390000D03*
%TO.P,J6,5,Pin_5*%
%TO.N,/A2*%
X107940000Y-74850000D03*
%TO.P,J6,6,Pin_6*%
%TO.N,/DAC*%
X107940000Y-72310000D03*
%TO.P,J6,7,Pin_7*%
%TO.N,+5VA*%
X107940000Y-69770000D03*
%TD*%
D10*
%TO.P,U1,0,IO2*%
%TO.N,/DAC*%
X114340000Y-62130000D03*
D11*
%TO.P,U1,1,IO3*%
%TO.N,/ENABLE*%
X114340000Y-64670000D03*
%TO.P,U1,2,IO4*%
%TO.N,/A2*%
X114340000Y-67210000D03*
%TO.P,U1,3,IO5*%
%TO.N,/A3*%
X114340000Y-69750000D03*
%TO.P,U1,4,IO6*%
%TO.N,/SDA*%
X114340000Y-72290000D03*
%TO.P,U1,5,IO7*%
%TO.N,/SCL*%
X114340000Y-74830000D03*
%TO.P,U1,6,IO21*%
%TO.N,/A6*%
X114300000Y-77380000D03*
%TO.P,U1,7,IO20*%
%TO.N,/A7*%
X129590000Y-77370000D03*
%TO.P,U1,8,IO8*%
%TO.N,/A8*%
X129590000Y-74830000D03*
%TO.P,U1,9,IO9*%
%TO.N,/A9*%
X129590000Y-72290000D03*
%TO.P,U1,10,IO10*%
%TO.N,/A10*%
X129590000Y-69750000D03*
%TO.P,U1,11,3V3*%
%TO.N,unconnected-(U1-3V3-Pad11)*%
X129590000Y-67210000D03*
%TO.P,U1,12,GND*%
%TO.N,GND*%
X129590000Y-64670000D03*
D10*
%TO.P,U1,13,5V*%
%TO.N,+5V*%
X129590000Y-62130000D03*
%TD*%
D12*
%TO.P,TP9,1,1*%
%TO.N,VMEM*%
X126790000Y-93090000D03*
%TD*%
%TO.P,TP6,1,1*%
%TO.N,+5V*%
X133620000Y-69890000D03*
%TD*%
D10*
%TO.P,J4,1,Pin_1*%
%TO.N,M1A1*%
X111690000Y-90680000D03*
D11*
%TO.P,J4,2,Pin_2*%
%TO.N,M1A2*%
X111690000Y-93220000D03*
%TO.P,J4,3,Pin_3*%
%TO.N,M1B2*%
X111690000Y-95760000D03*
%TO.P,J4,4,Pin_4*%
%TO.N,M1B1*%
X111690000Y-98300000D03*
%TD*%
D10*
%TO.P,J8,1,Pin_1*%
%TO.N,M2A1*%
X111655000Y-112310000D03*
D11*
%TO.P,J8,2,Pin_2*%
%TO.N,M2A2*%
X111655000Y-114850000D03*
%TO.P,J8,3,Pin_3*%
%TO.N,M2B2*%
X111655000Y-117390000D03*
%TO.P,J8,4,Pin_4*%
%TO.N,M2B1*%
X111655000Y-119930000D03*
%TD*%
D12*
%TO.P,TP2,1,1*%
%TO.N,GND*%
X105130000Y-67310000D03*
%TD*%
D15*
%TO.N,GND*%
X144030000Y-89040000D03*
D16*
X137450000Y-87410000D03*
D15*
X146100000Y-72300000D03*
D16*
X114930000Y-120650000D03*
X117980000Y-94500000D03*
D15*
X144690000Y-95380000D03*
X127010000Y-80160000D03*
X144600000Y-94330000D03*
D16*
X118130000Y-95490000D03*
D15*
X147160000Y-109610000D03*
X132620000Y-80100000D03*
X130760000Y-71010000D03*
X116560000Y-78410000D03*
X114610000Y-110140000D03*
D16*
X105470000Y-105810000D03*
D15*
X149780000Y-86970000D03*
X127940000Y-109180000D03*
X111045000Y-105300000D03*
D16*
X138220000Y-87260000D03*
X138220000Y-88200000D03*
D15*
X116810000Y-88510000D03*
X120830000Y-76350000D03*
X130280000Y-79580000D03*
X142550000Y-74840000D03*
X117420000Y-107080000D03*
X152010000Y-127680000D03*
X120550000Y-79830000D03*
X118960000Y-61560000D03*
D16*
X116990000Y-95510000D03*
D15*
X138230000Y-82540000D03*
X114620000Y-111060000D03*
X130500000Y-99110000D03*
X124450000Y-87080000D03*
X134160000Y-89570000D03*
X106040000Y-116410000D03*
X132350000Y-93540000D03*
X134630000Y-93760000D03*
X132930000Y-103530000D03*
D16*
X121230000Y-118840000D03*
D15*
X120730000Y-122620000D03*
X118220000Y-82810000D03*
X124980000Y-91590000D03*
X144470000Y-96310000D03*
X146080000Y-97000000D03*
X132490000Y-87080000D03*
X115060000Y-89390000D03*
X140510000Y-106340000D03*
X140960000Y-103420000D03*
X152010000Y-61560000D03*
D16*
X117090000Y-94480000D03*
D15*
X119790000Y-118200000D03*
D16*
X116740000Y-117160000D03*
D15*
X117680000Y-85160000D03*
X142880000Y-86570000D03*
X116780000Y-72070000D03*
D16*
X117860000Y-116040000D03*
D15*
X127580000Y-69820000D03*
D16*
X120780000Y-119860000D03*
D15*
X115260000Y-91370000D03*
X106240000Y-127580000D03*
X135250000Y-65480000D03*
X144170000Y-87760000D03*
D16*
X116840000Y-116120000D03*
D15*
X149810000Y-85170000D03*
X115220000Y-99360000D03*
X128020000Y-83720000D03*
X129710000Y-127650000D03*
X123580000Y-108810000D03*
X148370000Y-106580000D03*
X146490000Y-68240000D03*
D16*
X140410000Y-90610000D03*
D15*
X132750000Y-98410000D03*
X130370000Y-83350000D03*
X124060000Y-79600000D03*
X130370000Y-94510000D03*
X136610000Y-71370000D03*
D16*
X141000000Y-91160000D03*
X139360000Y-88100000D03*
X151750000Y-98810000D03*
D15*
X128200000Y-87460000D03*
X110940000Y-81080000D03*
X128400000Y-98610000D03*
X121560000Y-125100000D03*
X117080000Y-103230000D03*
X142150000Y-86020000D03*
X120270000Y-96830000D03*
X145120000Y-92680000D03*
X130500000Y-89640000D03*
D16*
X117880000Y-117160000D03*
D15*
X140620000Y-99380000D03*
D16*
X140510000Y-88360000D03*
D15*
X121730000Y-98520000D03*
X118010000Y-80100000D03*
X125290000Y-112090000D03*
X109920000Y-98310000D03*
X105490000Y-94670000D03*
X135680000Y-77100000D03*
D16*
X137350000Y-88220000D03*
D15*
X117400000Y-110280000D03*
X115080000Y-88430000D03*
X110180000Y-67460000D03*
D16*
X141240000Y-88360000D03*
D15*
X117060000Y-76270000D03*
X118830000Y-74670000D03*
X120200000Y-100550000D03*
X141010000Y-61520000D03*
X149800000Y-81150000D03*
X125870000Y-103100000D03*
X142950000Y-84370000D03*
X106290000Y-61520000D03*
X109460000Y-91130000D03*
X124840000Y-61560000D03*
X145490000Y-81300000D03*
%TO.N,VMEM*%
X120050000Y-111050000D03*
X139500000Y-93960000D03*
X140250000Y-93350000D03*
D16*
X110835000Y-103610000D03*
D15*
X119450000Y-88060000D03*
X140950000Y-92590000D03*
X140230000Y-94670000D03*
X118780000Y-88710000D03*
X120070000Y-110030000D03*
D16*
%TO.N,VBUS*%
X138760000Y-67590000D03*
X144450000Y-68380000D03*
%TO.N,+5VA*%
X143170000Y-81480000D03*
D15*
X139160000Y-84420000D03*
X139830000Y-83580000D03*
D16*
X144210000Y-81500000D03*
D15*
X139830000Y-85150000D03*
D16*
X144180000Y-80430000D03*
X128390000Y-81500000D03*
X127490000Y-81420000D03*
D15*
%TO.N,+3V3*%
X135080000Y-82910000D03*
D16*
X120570000Y-95170000D03*
X144275000Y-114910000D03*
D15*
X118340000Y-92370000D03*
D16*
X118270000Y-114120000D03*
D15*
X134130000Y-82880000D03*
D16*
X120110000Y-116840000D03*
X144045000Y-113220000D03*
X110845000Y-107120000D03*
X149140000Y-94520000D03*
D15*
%TO.N,/DAC*%
X123290000Y-105250000D03*
D16*
%TO.N,Vref1*%
X117750000Y-101070000D03*
X123940000Y-103310000D03*
%TO.N,/A10*%
X120150000Y-94230000D03*
%TO.N,/A9*%
X119810000Y-93210000D03*
%TO.N,Net-(U3-OC)*%
X142770000Y-88270000D03*
X138850000Y-86175000D03*
%TO.N,/A8*%
X119077298Y-115257298D03*
%TO.N,/A7*%
X119770000Y-115900000D03*
%TD*%
D17*
%TO.N,VBUS*%
X143940000Y-67870000D02*
X144450000Y-68380000D01*
X138750000Y-67870000D02*
X143940000Y-67870000D01*
%TO.N,+5VA*%
X151060000Y-76980000D02*
X149060000Y-78980000D01*
X144180000Y-80430000D02*
X145630000Y-78980000D01*
X151060000Y-76980000D02*
X151060000Y-76970000D01*
X145630000Y-78980000D02*
X149060000Y-78980000D01*
X151730000Y-76300000D02*
X151730000Y-73420000D01*
X151060000Y-76970000D02*
X151730000Y-76300000D01*
X151730000Y-73420000D02*
X150270000Y-71960000D01*
D18*
%TO.N,/SDA*%
X114260000Y-72290000D02*
X114280000Y-72290000D01*
X114280000Y-72290000D02*
X114290000Y-72280000D01*
X107940000Y-79930000D02*
X109190000Y-78680000D01*
X114260000Y-72310000D02*
X114260000Y-72290000D01*
X109190000Y-77380000D02*
X114260000Y-72310000D01*
X109190000Y-78680000D02*
X109190000Y-77380000D01*
%TO.N,/SCL*%
X107940000Y-81912233D02*
X114290000Y-75562233D01*
X107940000Y-82470000D02*
X107940000Y-81912233D01*
X114290000Y-75562233D02*
X114280000Y-74820000D01*
X114280000Y-74820000D02*
X114290000Y-74820000D01*
%TO.N,/A3*%
X109190000Y-76140000D02*
X109190000Y-74840000D01*
X107940000Y-77390000D02*
X109190000Y-76140000D01*
X109190000Y-74840000D02*
X114290000Y-69740000D01*
%TO.N,/A2*%
X114290000Y-67972233D02*
X114280000Y-67210000D01*
X107940000Y-74850000D02*
X107940000Y-74322233D01*
X107940000Y-74322233D02*
X114290000Y-67972233D01*
X114280000Y-67210000D02*
X114290000Y-67200000D01*
D19*
%TO.N,/DAC*%
X107940000Y-71490000D02*
X113090000Y-66340000D01*
X106740000Y-73510000D02*
X107940000Y-72310000D01*
X123280000Y-105260000D02*
X123290000Y-105250000D01*
X108700000Y-100250000D02*
X106740000Y-98290000D01*
X121250000Y-105260000D02*
X114850000Y-105260000D01*
X113090000Y-66340000D02*
X113090000Y-63320000D01*
X113090000Y-63320000D02*
X114290000Y-62120000D01*
X109840000Y-100250000D02*
X108700000Y-100250000D01*
X114850000Y-105260000D02*
X109840000Y-100250000D01*
X121250000Y-105260000D02*
X123280000Y-105260000D01*
X106740000Y-98290000D02*
X106740000Y-73510000D01*
X107940000Y-72310000D02*
X107940000Y-71490000D01*
D18*
%TO.N,/A6*%
X135460000Y-68490000D02*
X136390000Y-69420000D01*
X123130000Y-68490000D02*
X135460000Y-68490000D01*
X136390000Y-69420000D02*
X150270000Y-69420000D01*
X114250000Y-77370000D02*
X123130000Y-68490000D01*
%TO.N,Vref1*%
X123940000Y-103310000D02*
X119970000Y-103310000D01*
X119970000Y-103310000D02*
X117790000Y-101130000D01*
X117790000Y-101130000D02*
X117750000Y-101130000D01*
%TO.N,/A10*%
X119804695Y-94230000D02*
X119085000Y-93510305D01*
X120150000Y-94230000D02*
X119804695Y-94230000D01*
X121675000Y-90305000D02*
X121675000Y-77605000D01*
X119085000Y-92895000D02*
X119100000Y-92880000D01*
X119085000Y-93510305D02*
X119085000Y-92895000D01*
X121675000Y-77605000D02*
X129540000Y-69740000D01*
X119100000Y-92880000D02*
X121675000Y-90305000D01*
%TO.N,/A9*%
X119830000Y-93210000D02*
X122890000Y-90150000D01*
X119810000Y-93210000D02*
X119830000Y-93210000D01*
X122890000Y-78930000D02*
X129540000Y-72280000D01*
X122890000Y-90150000D02*
X122890000Y-78930000D01*
%TO.N,Net-(U3-OC)*%
X138850000Y-86175000D02*
X140915000Y-86175000D01*
X142770000Y-88030000D02*
X142770000Y-88270000D01*
X140915000Y-86175000D02*
X142770000Y-88030000D01*
%TO.N,/A8*%
X128350000Y-76080000D02*
X128340000Y-76090000D01*
X129600000Y-74830000D02*
X128350000Y-76080000D01*
X129910000Y-104424596D02*
X129317298Y-105017298D01*
X128350000Y-79610000D02*
X128865000Y-80125000D01*
X128340000Y-79600000D02*
X128340000Y-76090000D01*
X128340000Y-79600000D02*
X128605000Y-79865000D01*
X129540000Y-85460000D02*
X129540000Y-99590000D01*
X128340000Y-76090000D02*
X128565000Y-75865000D01*
X129540000Y-80800000D02*
X129540000Y-82940000D01*
X129540000Y-99590000D02*
X129910000Y-99960000D01*
X129470000Y-85390000D02*
X129540000Y-85460000D01*
X128865000Y-80125000D02*
X129540000Y-80800000D01*
X129540000Y-104794596D02*
X119077298Y-115257298D01*
X129540000Y-82940000D02*
X129470000Y-83010000D01*
X129470000Y-83010000D02*
X129470000Y-85390000D01*
X128865000Y-80125000D02*
X128340000Y-79600000D01*
X129910000Y-99960000D02*
X129910000Y-104424596D01*
D19*
%TO.N,/A7*%
X131360000Y-79130000D02*
X131360000Y-79440000D01*
X130495000Y-78265000D02*
X129600000Y-77370000D01*
X131360000Y-104310000D02*
X131360000Y-79440000D01*
X119770000Y-115900000D02*
X131360000Y-104310000D01*
X130630000Y-78400000D02*
X130495000Y-78265000D01*
X130495000Y-78265000D02*
X131360000Y-79130000D01*
%TD*%
%TA.AperFunction,Conductor*%
%TO.N,GND*%
G36*
X129196593Y-78662728D02*
G01*
X129204972Y-78664973D01*
X129354592Y-78705063D01*
X129542918Y-78721539D01*
X129589999Y-78725659D01*
X129590000Y-78725659D01*
X129590001Y-78725659D01*
X129629234Y-78722226D01*
X129825408Y-78705063D01*
X129905878Y-78683501D01*
X129975723Y-78685164D01*
X130025649Y-78715595D01*
X130673181Y-79363126D01*
X130706666Y-79424449D01*
X130709500Y-79450807D01*
X130709500Y-99485297D01*
X130689815Y-99552336D01*
X130637011Y-99598091D01*
X130567853Y-99608035D01*
X130504297Y-99579010D01*
X130487890Y-99561771D01*
X130476786Y-99547598D01*
X130472354Y-99541577D01*
X130438183Y-99492071D01*
X130393153Y-99452178D01*
X130387715Y-99447058D01*
X130276819Y-99336162D01*
X130243334Y-99274839D01*
X130240500Y-99248481D01*
X130240500Y-85484920D01*
X130240726Y-85477432D01*
X130244358Y-85417394D01*
X130233514Y-85358221D01*
X130232387Y-85350815D01*
X130230775Y-85337539D01*
X130225140Y-85291128D01*
X130221548Y-85281656D01*
X130215521Y-85260034D01*
X130213695Y-85250071D01*
X130213693Y-85250063D01*
X130189012Y-85195226D01*
X130186144Y-85188304D01*
X130178557Y-85168298D01*
X130170500Y-85124328D01*
X130170500Y-83275670D01*
X130178556Y-83231704D01*
X130186147Y-83211685D01*
X130189010Y-83204776D01*
X130213693Y-83149936D01*
X130213693Y-83149934D01*
X130213695Y-83149931D01*
X130215522Y-83139959D01*
X130221546Y-83118347D01*
X130225140Y-83108872D01*
X130232387Y-83049184D01*
X130233514Y-83041777D01*
X130236143Y-83027432D01*
X130244358Y-82982606D01*
X130240726Y-82922565D01*
X130240500Y-82915078D01*
X130240500Y-80824908D01*
X130240726Y-80817421D01*
X130244357Y-80757394D01*
X130244356Y-80757391D01*
X130233516Y-80698235D01*
X130232389Y-80690830D01*
X130225140Y-80631129D01*
X130225139Y-80631125D01*
X130221546Y-80621651D01*
X130215519Y-80600029D01*
X130214506Y-80594500D01*
X130213694Y-80590068D01*
X130189010Y-80535223D01*
X130186149Y-80528317D01*
X130164818Y-80472070D01*
X130159058Y-80463726D01*
X130148035Y-80444180D01*
X130143878Y-80434943D01*
X130106763Y-80387569D01*
X130102345Y-80381563D01*
X130068185Y-80332073D01*
X130068183Y-80332071D01*
X130023153Y-80292178D01*
X130017715Y-80287058D01*
X129076819Y-79346162D01*
X129043334Y-79284839D01*
X129040500Y-79258481D01*
X129040500Y-78782503D01*
X129060185Y-78715464D01*
X129112989Y-78669709D01*
X129182147Y-78659765D01*
X129196593Y-78662728D01*
G37*
%TD.AperFunction*%
%TA.AperFunction,Conductor*%
G36*
X150331032Y-59875648D02*
G01*
X150665909Y-59892100D01*
X150678018Y-59893293D01*
X151006642Y-59942040D01*
X151018576Y-59944414D01*
X151179293Y-59984671D01*
X151340858Y-60025141D01*
X151352486Y-60028669D01*
X151665290Y-60140591D01*
X151676519Y-60145242D01*
X151976877Y-60287300D01*
X151987585Y-60293024D01*
X152268618Y-60461469D01*
X152272544Y-60463822D01*
X152282662Y-60470582D01*
X152549514Y-60668494D01*
X152558920Y-60676214D01*
X152805084Y-60899324D01*
X152813675Y-60907915D01*
X152969417Y-61079750D01*
X153036785Y-61154079D01*
X153044505Y-61163485D01*
X153242417Y-61430337D01*
X153249177Y-61440455D01*
X153418473Y-61722909D01*
X153419968Y-61725402D01*
X153425703Y-61736130D01*
X153440283Y-61766957D01*
X153567754Y-62036473D01*
X153572410Y-62047716D01*
X153684327Y-62360503D01*
X153687860Y-62372148D01*
X153768585Y-62694423D01*
X153770959Y-62706357D01*
X153819706Y-63034981D01*
X153820899Y-63047091D01*
X153837351Y-63381966D01*
X153837500Y-63388051D01*
X153837500Y-125761948D01*
X153837351Y-125768033D01*
X153820899Y-126102908D01*
X153819706Y-126115018D01*
X153770959Y-126443642D01*
X153768585Y-126455576D01*
X153687860Y-126777851D01*
X153684327Y-126789496D01*
X153572410Y-127102283D01*
X153567754Y-127113526D01*
X153425705Y-127413865D01*
X153419968Y-127424597D01*
X153249177Y-127709544D01*
X153242417Y-127719662D01*
X153044505Y-127986514D01*
X153036785Y-127995920D01*
X152813682Y-128242077D01*
X152805077Y-128250682D01*
X152558920Y-128473785D01*
X152549514Y-128481505D01*
X152282662Y-128679417D01*
X152272544Y-128686177D01*
X151987597Y-128856968D01*
X151976865Y-128862705D01*
X151676526Y-129004754D01*
X151665283Y-129009410D01*
X151352496Y-129121327D01*
X151340851Y-129124860D01*
X151018576Y-129205585D01*
X151006642Y-129207959D01*
X150678018Y-129256706D01*
X150665908Y-129257899D01*
X150349645Y-129273436D01*
X150331032Y-129274351D01*
X150324949Y-129274500D01*
X115336025Y-129274500D01*
X115268986Y-129254815D01*
X115223231Y-129202011D01*
X115213287Y-129132853D01*
X115242312Y-129069297D01*
X115292691Y-129034318D01*
X115322088Y-129023353D01*
X115322093Y-129023350D01*
X115437187Y-128937190D01*
X115437190Y-128937187D01*
X115523350Y-128822093D01*
X115523354Y-128822086D01*
X115573596Y-128687379D01*
X115573598Y-128687372D01*
X115579999Y-128627844D01*
X115580000Y-128627827D01*
X115580000Y-128330000D01*
X114604624Y-128330000D01*
X114677545Y-128315495D01*
X114760240Y-128260240D01*
X114815495Y-128177545D01*
X114834898Y-128080000D01*
X114815495Y-127982455D01*
X114760240Y-127899760D01*
X114677545Y-127844505D01*
X114604624Y-127830000D01*
X114555376Y-127830000D01*
X114482455Y-127844505D01*
X114399760Y-127899760D01*
X114344505Y-127982455D01*
X114325102Y-128080000D01*
X114344505Y-128177545D01*
X114399760Y-128260240D01*
X114482455Y-128315495D01*
X114555376Y-128330000D01*
X113580000Y-128330000D01*
X113580000Y-128627844D01*
X113586401Y-128687372D01*
X113586403Y-128687379D01*
X113636645Y-128822086D01*
X113636649Y-128822093D01*
X113722809Y-128937187D01*
X113722812Y-128937190D01*
X113837906Y-129023350D01*
X113837911Y-129023353D01*
X113867309Y-129034318D01*
X113923242Y-129076190D01*
X113947659Y-129141654D01*
X113932807Y-129209927D01*
X113883402Y-129259332D01*
X113823975Y-129274500D01*
X107951051Y-129274500D01*
X107944967Y-129274351D01*
X107925259Y-129273382D01*
X107610091Y-129257899D01*
X107597981Y-129256706D01*
X107269357Y-129207959D01*
X107257423Y-129205585D01*
X106935148Y-129124860D01*
X106923503Y-129121327D01*
X106610716Y-129009410D01*
X106599473Y-129004754D01*
X106299134Y-128862705D01*
X106288407Y-128856970D01*
X106003455Y-128686177D01*
X105993337Y-128679417D01*
X105726485Y-128481505D01*
X105717079Y-128473785D01*
X105628812Y-128393785D01*
X105470915Y-128250675D01*
X105462324Y-128242084D01*
X105239214Y-127995920D01*
X105231494Y-127986514D01*
X105167153Y-127899760D01*
X105115415Y-127830000D01*
X113580000Y-127830000D01*
X114330000Y-127830000D01*
X114330000Y-127080000D01*
X114830000Y-127080000D01*
X114830000Y-127830000D01*
X115580000Y-127830000D01*
X115580000Y-127532172D01*
X115579999Y-127532155D01*
X115573598Y-127472627D01*
X115573596Y-127472620D01*
X115523354Y-127337913D01*
X115523350Y-127337906D01*
X115437190Y-127222812D01*
X115437187Y-127222809D01*
X115322093Y-127136649D01*
X115322086Y-127136645D01*
X115187379Y-127086403D01*
X115187372Y-127086401D01*
X115127844Y-127080000D01*
X114830000Y-127080000D01*
X114330000Y-127080000D01*
X114032155Y-127080000D01*
X113972627Y-127086401D01*
X113972620Y-127086403D01*
X113837913Y-127136645D01*
X113837906Y-127136649D01*
X113722812Y-127222809D01*
X113722809Y-127222812D01*
X113636649Y-127337906D01*
X113636645Y-127337913D01*
X113586403Y-127472620D01*
X113586401Y-127472627D01*
X113580000Y-127532155D01*
X113580000Y-127830000D01*
X105115415Y-127830000D01*
X105033580Y-127719659D01*
X105026822Y-127709544D01*
X104979445Y-127630500D01*
X104856024Y-127424585D01*
X104850300Y-127413877D01*
X104708242Y-127113519D01*
X104703589Y-127102283D01*
X104697907Y-127086403D01*
X104591669Y-126789486D01*
X104588139Y-126777851D01*
X104575296Y-126726580D01*
X104514953Y-126485675D01*
X104507414Y-126455576D01*
X104505040Y-126443642D01*
X104456293Y-126115018D01*
X104455100Y-126102907D01*
X104454810Y-126097013D01*
X104441583Y-125827763D01*
X106095787Y-125827763D01*
X106125413Y-126097013D01*
X106125415Y-126097024D01*
X106193926Y-126359082D01*
X106193928Y-126359088D01*
X106299870Y-126608390D01*
X106410398Y-126789496D01*
X106440979Y-126839605D01*
X106440986Y-126839615D01*
X106614253Y-127047819D01*
X106614259Y-127047824D01*
X106681451Y-127108028D01*
X106815998Y-127228582D01*
X107041910Y-127378044D01*
X107287176Y-127493020D01*
X107287183Y-127493022D01*
X107287185Y-127493023D01*
X107546557Y-127571057D01*
X107546564Y-127571058D01*
X107546569Y-127571060D01*
X107814561Y-127610500D01*
X107814566Y-127610500D01*
X108017629Y-127610500D01*
X108017631Y-127610500D01*
X108017636Y-127610499D01*
X108017648Y-127610499D01*
X108055191Y-127607750D01*
X108220156Y-127595677D01*
X108332758Y-127570593D01*
X108484546Y-127536782D01*
X108484548Y-127536781D01*
X108484553Y-127536780D01*
X108737558Y-127440014D01*
X108973777Y-127307441D01*
X109188177Y-127141888D01*
X109376186Y-126946881D01*
X109533799Y-126726579D01*
X109647366Y-126505690D01*
X109657649Y-126485690D01*
X109657651Y-126485684D01*
X109657656Y-126485675D01*
X109745118Y-126229305D01*
X109794319Y-125962933D01*
X109798528Y-125847763D01*
X148435787Y-125847763D01*
X148465413Y-126117013D01*
X148465415Y-126117024D01*
X148528699Y-126359088D01*
X148533928Y-126379088D01*
X148639870Y-126628390D01*
X148699792Y-126726575D01*
X148780979Y-126859605D01*
X148780986Y-126859615D01*
X148954253Y-127067819D01*
X148954259Y-127067824D01*
X149031073Y-127136649D01*
X149155998Y-127248582D01*
X149381910Y-127398044D01*
X149627176Y-127513020D01*
X149627183Y-127513022D01*
X149627185Y-127513023D01*
X149886557Y-127591057D01*
X149886564Y-127591058D01*
X149886569Y-127591060D01*
X150154561Y-127630500D01*
X150154566Y-127630500D01*
X150357629Y-127630500D01*
X150357631Y-127630500D01*
X150357636Y-127630499D01*
X150357648Y-127630499D01*
X150395191Y-127627750D01*
X150560156Y-127615677D01*
X150672758Y-127590593D01*
X150824546Y-127556782D01*
X150824548Y-127556781D01*
X150824553Y-127556780D01*
X151077558Y-127460014D01*
X151313777Y-127327441D01*
X151528177Y-127161888D01*
X151716186Y-126966881D01*
X151873799Y-126746579D01*
X151947787Y-126602669D01*
X151997649Y-126505690D01*
X151997651Y-126505684D01*
X151997656Y-126505675D01*
X152085118Y-126249305D01*
X152134319Y-125982933D01*
X152144212Y-125712235D01*
X152114586Y-125442982D01*
X152046072Y-125180912D01*
X151940130Y-124931610D01*
X151799018Y-124700390D01*
X151709747Y-124593119D01*
X151625746Y-124492180D01*
X151625740Y-124492175D01*
X151424002Y-124311418D01*
X151198092Y-124161957D01*
X151151279Y-124140012D01*
X150952824Y-124046980D01*
X150952819Y-124046978D01*
X150952814Y-124046976D01*
X150693442Y-123968942D01*
X150693428Y-123968939D01*
X150577791Y-123951921D01*
X150425439Y-123929500D01*
X150222369Y-123929500D01*
X150222351Y-123929500D01*
X150019844Y-123944323D01*
X150019831Y-123944325D01*
X149755453Y-124003217D01*
X149755446Y-124003220D01*
X149502439Y-124099987D01*
X149266226Y-124232557D01*
X149051822Y-124398112D01*
X148863822Y-124593109D01*
X148863816Y-124593116D01*
X148706202Y-124813419D01*
X148706199Y-124813424D01*
X148582350Y-125054309D01*
X148582343Y-125054327D01*
X148494884Y-125310685D01*
X148494881Y-125310699D01*
X148445681Y-125577068D01*
X148445680Y-125577075D01*
X148435787Y-125847763D01*
X109798528Y-125847763D01*
X109804212Y-125692235D01*
X109774586Y-125422982D01*
X109706072Y-125160912D01*
X109600130Y-124911610D01*
X109459018Y-124680390D01*
X109386391Y-124593119D01*
X109285746Y-124472180D01*
X109285740Y-124472175D01*
X109084002Y-124291418D01*
X108858092Y-124141957D01*
X108853943Y-124140012D01*
X108612824Y-124026980D01*
X108612819Y-124026978D01*
X108612814Y-124026976D01*
X108353442Y-123948942D01*
X108353428Y-123948939D01*
X108237791Y-123931921D01*
X108085439Y-123909500D01*
X107882369Y-123909500D01*
X107882351Y-123909500D01*
X107679844Y-123924323D01*
X107679831Y-123924325D01*
X107415453Y-123983217D01*
X107415446Y-123983220D01*
X107162439Y-124079987D01*
X106926226Y-124212557D01*
X106711822Y-124378112D01*
X106523822Y-124573109D01*
X106523816Y-124573116D01*
X106366202Y-124793419D01*
X106366199Y-124793424D01*
X106242350Y-125034309D01*
X106242343Y-125034327D01*
X106154884Y-125290685D01*
X106154881Y-125290699D01*
X106105681Y-125557068D01*
X106105680Y-125557075D01*
X106095787Y-125827763D01*
X104441583Y-125827763D01*
X104438649Y-125768032D01*
X104438500Y-125761948D01*
X104438500Y-123857870D01*
X111849500Y-123857870D01*
X111849501Y-123857876D01*
X111855908Y-123917483D01*
X111906202Y-124052328D01*
X111906206Y-124052335D01*
X111992452Y-124167544D01*
X111992455Y-124167547D01*
X112107664Y-124253793D01*
X112107671Y-124253797D01*
X112242517Y-124304091D01*
X112242516Y-124304091D01*
X112249444Y-124304835D01*
X112302127Y-124310500D01*
X113397872Y-124310499D01*
X113457483Y-124304091D01*
X113592331Y-124253796D01*
X113707546Y-124167546D01*
X113793796Y-124052331D01*
X113844091Y-123917483D01*
X113850500Y-123857873D01*
X113850499Y-122762128D01*
X113844091Y-122702517D01*
X113829326Y-122662931D01*
X113793797Y-122567671D01*
X113793793Y-122567664D01*
X113763923Y-122527763D01*
X125965787Y-122527763D01*
X125995413Y-122797013D01*
X125995415Y-122797024D01*
X126063926Y-123059082D01*
X126063928Y-123059088D01*
X126169870Y-123308390D01*
X126241998Y-123426575D01*
X126310979Y-123539605D01*
X126310986Y-123539615D01*
X126484253Y-123747819D01*
X126484259Y-123747824D01*
X126685998Y-123928582D01*
X126911910Y-124078044D01*
X127157176Y-124193020D01*
X127157183Y-124193022D01*
X127157185Y-124193023D01*
X127416557Y-124271057D01*
X127416564Y-124271058D01*
X127416569Y-124271060D01*
X127684561Y-124310500D01*
X127684566Y-124310500D01*
X127887629Y-124310500D01*
X127887631Y-124310500D01*
X127887636Y-124310499D01*
X127887648Y-124310499D01*
X127925191Y-124307750D01*
X128090156Y-124295677D01*
X128202758Y-124270593D01*
X128354546Y-124236782D01*
X128354548Y-124236781D01*
X128354553Y-124236780D01*
X128607558Y-124140014D01*
X128843777Y-124007441D01*
X129058177Y-123841888D01*
X129246186Y-123646881D01*
X129403799Y-123426579D01*
X129477787Y-123282669D01*
X129527649Y-123185690D01*
X129527651Y-123185684D01*
X129527656Y-123185675D01*
X129615118Y-122929305D01*
X129664319Y-122662933D01*
X129674212Y-122392235D01*
X129644586Y-122122982D01*
X129576072Y-121860912D01*
X129470130Y-121611610D01*
X129329018Y-121380390D01*
X129239747Y-121273119D01*
X129155746Y-121172180D01*
X129155740Y-121172175D01*
X128954002Y-120991418D01*
X128728092Y-120841957D01*
X128641578Y-120801401D01*
X128482824Y-120726980D01*
X128482819Y-120726978D01*
X128482814Y-120726976D01*
X128223442Y-120648942D01*
X128223428Y-120648939D01*
X128107791Y-120631921D01*
X127955439Y-120609500D01*
X127752369Y-120609500D01*
X127752351Y-120609500D01*
X127549844Y-120624323D01*
X127549831Y-120624325D01*
X127285453Y-120683217D01*
X127285446Y-120683220D01*
X127032439Y-120779987D01*
X126796226Y-120912557D01*
X126581822Y-121078112D01*
X126393822Y-121273109D01*
X126393816Y-121273116D01*
X126236202Y-121493419D01*
X126236199Y-121493424D01*
X126112350Y-121734309D01*
X126112343Y-121734327D01*
X126024884Y-121990685D01*
X126024881Y-121990699D01*
X125975681Y-122257068D01*
X125975680Y-122257075D01*
X125965787Y-122527763D01*
X113763923Y-122527763D01*
X113707547Y-122452455D01*
X113707544Y-122452452D01*
X113592335Y-122366206D01*
X113592328Y-122366202D01*
X113457482Y-122315908D01*
X113457483Y-122315908D01*
X113397883Y-122309501D01*
X113397881Y-122309500D01*
X113397873Y-122309500D01*
X113397864Y-122309500D01*
X112302129Y-122309500D01*
X112302123Y-122309501D01*
X112242516Y-122315908D01*
X112107671Y-122366202D01*
X112107664Y-122366206D01*
X111992455Y-122452452D01*
X111992452Y-122452455D01*
X111906206Y-122567664D01*
X111906202Y-122567671D01*
X111855908Y-122702517D01*
X111849501Y-122762116D01*
X111849501Y-122762123D01*
X111849500Y-122762135D01*
X111849500Y-123857870D01*
X104438500Y-123857870D01*
X104438500Y-119930000D01*
X110299341Y-119930000D01*
X110319936Y-120165403D01*
X110319938Y-120165413D01*
X110381094Y-120393655D01*
X110381096Y-120393659D01*
X110381097Y-120393663D01*
X110480965Y-120607830D01*
X110480967Y-120607834D01*
X110564392Y-120726976D01*
X110616505Y-120801401D01*
X110783599Y-120968495D01*
X110880384Y-121036265D01*
X110977165Y-121104032D01*
X110977167Y-121104033D01*
X110977170Y-121104035D01*
X111191337Y-121203903D01*
X111419592Y-121265063D01*
X111607918Y-121281539D01*
X111654999Y-121285659D01*
X111655000Y-121285659D01*
X111655001Y-121285659D01*
X111694234Y-121282226D01*
X111890408Y-121265063D01*
X112118663Y-121203903D01*
X112332830Y-121104035D01*
X112526401Y-120968495D01*
X112693495Y-120801401D01*
X112829035Y-120607830D01*
X112928903Y-120393663D01*
X112990063Y-120165408D01*
X113010659Y-119930000D01*
X112990063Y-119694592D01*
X112928903Y-119466337D01*
X112829035Y-119252171D01*
X112693495Y-119058599D01*
X112693494Y-119058597D01*
X112526402Y-118891506D01*
X112526396Y-118891501D01*
X112340842Y-118761575D01*
X112297217Y-118706998D01*
X112290023Y-118637500D01*
X112321546Y-118575145D01*
X112340842Y-118558425D01*
X112363026Y-118542891D01*
X112526401Y-118428495D01*
X112693495Y-118261401D01*
X112829035Y-118067830D01*
X112928903Y-117853663D01*
X112990063Y-117625408D01*
X113010659Y-117390000D01*
X112990063Y-117154592D01*
X112928903Y-116926337D01*
X112829035Y-116712171D01*
X112797745Y-116667483D01*
X112693494Y-116518597D01*
X112526402Y-116351506D01*
X112526396Y-116351501D01*
X112340842Y-116221575D01*
X112297217Y-116166998D01*
X112290023Y-116097500D01*
X112321546Y-116035145D01*
X112340842Y-116018425D01*
X112410847Y-115969407D01*
X112526401Y-115888495D01*
X112693495Y-115721401D01*
X112829035Y-115527830D01*
X112928903Y-115313663D01*
X112990063Y-115085408D01*
X113010659Y-114850000D01*
X112990063Y-114614592D01*
X112938489Y-114422112D01*
X112928905Y-114386344D01*
X112928904Y-114386343D01*
X112928903Y-114386337D01*
X112829035Y-114172171D01*
X112792909Y-114120578D01*
X112693496Y-113978600D01*
X112653735Y-113938839D01*
X112571567Y-113856671D01*
X112538084Y-113795351D01*
X112543068Y-113725659D01*
X112584939Y-113669725D01*
X112615915Y-113652810D01*
X112747331Y-113603796D01*
X112862546Y-113517546D01*
X112948796Y-113402331D01*
X112999091Y-113267483D01*
X113005500Y-113207873D01*
X113005499Y-111412128D01*
X112999091Y-111352517D01*
X112982425Y-111307834D01*
X112948797Y-111217671D01*
X112948793Y-111217664D01*
X112862547Y-111102455D01*
X112862544Y-111102452D01*
X112792478Y-111050000D01*
X119144540Y-111050000D01*
X119164326Y-111238256D01*
X119164327Y-111238259D01*
X119222818Y-111418277D01*
X119222821Y-111418284D01*
X119317467Y-111582216D01*
X119395153Y-111668495D01*
X119444129Y-111722888D01*
X119597265Y-111834148D01*
X119597270Y-111834151D01*
X119770192Y-111911142D01*
X119770197Y-111911144D01*
X119955354Y-111950500D01*
X119955355Y-111950500D01*
X120144644Y-111950500D01*
X120144646Y-111950500D01*
X120329803Y-111911144D01*
X120502730Y-111834151D01*
X120655871Y-111722888D01*
X120782533Y-111582216D01*
X120877179Y-111418284D01*
X120935674Y-111238256D01*
X120955460Y-111050000D01*
X120935674Y-110861744D01*
X120877179Y-110681716D01*
X120841153Y-110619317D01*
X120824681Y-110551420D01*
X120841152Y-110495324D01*
X120897179Y-110398284D01*
X120955674Y-110218256D01*
X120975460Y-110030000D01*
X120955674Y-109841744D01*
X120897179Y-109661716D01*
X120802533Y-109497784D01*
X120675871Y-109357112D01*
X120648455Y-109337193D01*
X120522734Y-109245851D01*
X120522729Y-109245848D01*
X120349807Y-109168857D01*
X120349802Y-109168855D01*
X120204001Y-109137865D01*
X120164646Y-109129500D01*
X119975354Y-109129500D01*
X119942897Y-109136398D01*
X119790197Y-109168855D01*
X119790192Y-109168857D01*
X119617270Y-109245848D01*
X119617265Y-109245851D01*
X119464129Y-109357111D01*
X119337466Y-109497785D01*
X119242821Y-109661715D01*
X119242818Y-109661722D01*
X119184327Y-109841740D01*
X119184326Y-109841744D01*
X119164540Y-110030000D01*
X119184326Y-110218256D01*
X119184327Y-110218259D01*
X119242821Y-110398285D01*
X119278844Y-110460679D01*
X119295317Y-110528579D01*
X119278844Y-110584678D01*
X119222822Y-110681711D01*
X119222821Y-110681713D01*
X119164327Y-110861740D01*
X119164326Y-110861744D01*
X119144540Y-111050000D01*
X112792478Y-111050000D01*
X112747335Y-111016206D01*
X112747328Y-111016202D01*
X112612482Y-110965908D01*
X112612483Y-110965908D01*
X112552883Y-110959501D01*
X112552881Y-110959500D01*
X112552873Y-110959500D01*
X112552864Y-110959500D01*
X110757129Y-110959500D01*
X110757123Y-110959501D01*
X110697516Y-110965908D01*
X110562671Y-111016202D01*
X110562664Y-111016206D01*
X110447455Y-111102452D01*
X110447452Y-111102455D01*
X110361206Y-111217664D01*
X110361202Y-111217671D01*
X110310908Y-111352517D01*
X110304501Y-111412116D01*
X110304501Y-111412123D01*
X110304500Y-111412135D01*
X110304500Y-113207870D01*
X110304501Y-113207876D01*
X110310908Y-113267483D01*
X110361202Y-113402328D01*
X110361206Y-113402335D01*
X110447452Y-113517544D01*
X110447455Y-113517547D01*
X110562664Y-113603793D01*
X110562671Y-113603797D01*
X110694081Y-113652810D01*
X110750015Y-113694681D01*
X110774432Y-113760145D01*
X110759580Y-113828418D01*
X110738430Y-113856673D01*
X110616503Y-113978600D01*
X110480965Y-114172169D01*
X110480964Y-114172171D01*
X110381098Y-114386335D01*
X110381094Y-114386344D01*
X110319938Y-114614586D01*
X110319936Y-114614596D01*
X110299341Y-114849999D01*
X110299341Y-114850000D01*
X110319936Y-115085403D01*
X110319938Y-115085413D01*
X110381094Y-115313655D01*
X110381096Y-115313659D01*
X110381097Y-115313663D01*
X110435287Y-115429874D01*
X110480965Y-115527830D01*
X110480967Y-115527834D01*
X110616501Y-115721395D01*
X110616506Y-115721402D01*
X110783597Y-115888493D01*
X110783603Y-115888498D01*
X110969158Y-116018425D01*
X111012783Y-116073002D01*
X111019977Y-116142500D01*
X110988454Y-116204855D01*
X110969158Y-116221575D01*
X110783597Y-116351505D01*
X110616505Y-116518597D01*
X110480965Y-116712169D01*
X110480964Y-116712171D01*
X110381098Y-116926335D01*
X110381094Y-116926344D01*
X110319938Y-117154586D01*
X110319936Y-117154596D01*
X110299341Y-117389999D01*
X110299341Y-117390000D01*
X110319936Y-117625403D01*
X110319938Y-117625413D01*
X110381094Y-117853655D01*
X110381096Y-117853659D01*
X110381097Y-117853663D01*
X110480965Y-118067830D01*
X110480967Y-118067834D01*
X110616501Y-118261395D01*
X110616506Y-118261402D01*
X110783597Y-118428493D01*
X110783603Y-118428498D01*
X110969158Y-118558425D01*
X111012783Y-118613002D01*
X111019977Y-118682500D01*
X110988454Y-118744855D01*
X110969158Y-118761575D01*
X110783597Y-118891505D01*
X110616505Y-119058597D01*
X110480965Y-119252169D01*
X110480964Y-119252171D01*
X110381098Y-119466335D01*
X110381094Y-119466344D01*
X110319938Y-119694586D01*
X110319936Y-119694596D01*
X110299341Y-119929999D01*
X110299341Y-119930000D01*
X104438500Y-119930000D01*
X104438500Y-107120000D01*
X110014953Y-107120000D01*
X110033092Y-107292576D01*
X110033093Y-107292579D01*
X110086712Y-107457608D01*
X110173477Y-107607887D01*
X110173476Y-107607887D01*
X110190242Y-107626507D01*
X110289590Y-107736845D01*
X110320362Y-107759202D01*
X110429976Y-107838842D01*
X110588495Y-107909420D01*
X110588501Y-107909422D01*
X110758236Y-107945500D01*
X110758237Y-107945500D01*
X110931762Y-107945500D01*
X110931764Y-107945500D01*
X111101499Y-107909422D01*
X111101501Y-107909420D01*
X111101504Y-107909420D01*
X111167231Y-107880156D01*
X111260024Y-107838842D01*
X111400410Y-107736845D01*
X111516522Y-107607889D01*
X111603286Y-107457611D01*
X111656908Y-107292576D01*
X111675047Y-107120000D01*
X111656908Y-106947424D01*
X111603286Y-106782389D01*
X111516522Y-106632111D01*
X111400410Y-106503155D01*
X111260024Y-106401158D01*
X111260023Y-106401157D01*
X111101504Y-106330579D01*
X111101498Y-106330577D01*
X110967841Y-106302168D01*
X110931764Y-106294500D01*
X110758236Y-106294500D01*
X110728483Y-106300824D01*
X110588501Y-106330577D01*
X110588496Y-106330579D01*
X110429977Y-106401157D01*
X110429972Y-106401160D01*
X110289591Y-106503153D01*
X110289589Y-106503155D01*
X110173477Y-106632112D01*
X110086712Y-106782391D01*
X110043172Y-106916399D01*
X110033092Y-106947424D01*
X110014953Y-107120000D01*
X104438500Y-107120000D01*
X104438500Y-73489403D01*
X106084653Y-73489403D01*
X106088950Y-73534858D01*
X106089500Y-73546528D01*
X106089500Y-98204494D01*
X106087732Y-98220505D01*
X106087974Y-98220528D01*
X106087240Y-98228294D01*
X106089439Y-98298262D01*
X106089500Y-98302157D01*
X106089500Y-98330920D01*
X106089501Y-98330938D01*
X106090053Y-98335311D01*
X106090968Y-98346941D01*
X106092402Y-98392567D01*
X106092403Y-98392570D01*
X106098323Y-98412948D01*
X106102268Y-98431996D01*
X106104928Y-98453054D01*
X106104931Y-98453065D01*
X106121737Y-98495514D01*
X106125520Y-98506563D01*
X106138254Y-98550395D01*
X106138255Y-98550397D01*
X106149060Y-98568666D01*
X106157617Y-98586134D01*
X106163226Y-98600300D01*
X106165432Y-98605872D01*
X106192266Y-98642806D01*
X106198678Y-98652568D01*
X106221919Y-98691865D01*
X106221923Y-98691869D01*
X106236925Y-98706871D01*
X106249563Y-98721669D01*
X106262033Y-98738833D01*
X106262036Y-98738837D01*
X106297213Y-98767937D01*
X106305854Y-98775800D01*
X108179564Y-100649510D01*
X108189635Y-100662080D01*
X108189822Y-100661926D01*
X108194795Y-100667937D01*
X108245832Y-100715864D01*
X108248629Y-100718575D01*
X108268968Y-100738914D01*
X108272451Y-100741616D01*
X108281327Y-100749197D01*
X108293846Y-100760953D01*
X108314607Y-100780448D01*
X108333198Y-100790668D01*
X108349463Y-100801352D01*
X108366234Y-100814361D01*
X108366237Y-100814363D01*
X108408144Y-100832497D01*
X108418618Y-100837628D01*
X108458632Y-100859627D01*
X108479193Y-100864905D01*
X108497597Y-100871207D01*
X108517074Y-100879636D01*
X108562178Y-100886779D01*
X108573597Y-100889144D01*
X108617823Y-100900500D01*
X108639045Y-100900500D01*
X108658442Y-100902026D01*
X108679405Y-100905347D01*
X108724863Y-100901049D01*
X108736531Y-100900500D01*
X109519192Y-100900500D01*
X109586231Y-100920185D01*
X109606873Y-100936819D01*
X111337869Y-102667815D01*
X111371354Y-102729138D01*
X111366370Y-102798830D01*
X111324498Y-102854763D01*
X111259034Y-102879180D01*
X111199754Y-102868776D01*
X111091499Y-102820578D01*
X111091497Y-102820577D01*
X111091498Y-102820577D01*
X110957841Y-102792168D01*
X110921764Y-102784500D01*
X110748236Y-102784500D01*
X110718483Y-102790824D01*
X110578501Y-102820577D01*
X110578496Y-102820579D01*
X110419977Y-102891157D01*
X110419972Y-102891160D01*
X110279591Y-102993153D01*
X110279589Y-102993155D01*
X110163477Y-103122112D01*
X110076712Y-103272391D01*
X110023093Y-103437420D01*
X110023092Y-103437424D01*
X110004953Y-103610000D01*
X110023092Y-103782576D01*
X110023093Y-103782579D01*
X110076712Y-103947608D01*
X110163477Y-104097887D01*
X110163476Y-104097887D01*
X110196388Y-104134439D01*
X110279590Y-104226845D01*
X110419976Y-104328842D01*
X110578495Y-104399420D01*
X110578501Y-104399422D01*
X110748236Y-104435500D01*
X110748237Y-104435500D01*
X110921762Y-104435500D01*
X110921764Y-104435500D01*
X111091499Y-104399422D01*
X111091501Y-104399420D01*
X111091504Y-104399420D01*
X111203625Y-104349500D01*
X111250024Y-104328842D01*
X111390410Y-104226845D01*
X111506522Y-104097889D01*
X111593286Y-103947611D01*
X111646908Y-103782576D01*
X111665047Y-103610000D01*
X111646908Y-103437424D01*
X111593286Y-103272389D01*
X111587263Y-103261957D01*
X111570790Y-103194060D01*
X111593641Y-103128033D01*
X111648562Y-103084841D01*
X111718115Y-103078198D01*
X111780218Y-103110214D01*
X111782331Y-103112277D01*
X114329564Y-105659510D01*
X114339635Y-105672080D01*
X114339822Y-105671926D01*
X114344795Y-105677937D01*
X114395832Y-105725864D01*
X114398629Y-105728575D01*
X114418967Y-105748913D01*
X114422450Y-105751615D01*
X114431326Y-105759196D01*
X114455839Y-105782214D01*
X114464607Y-105790448D01*
X114464610Y-105790450D01*
X114464612Y-105790451D01*
X114483207Y-105800674D01*
X114499468Y-105811356D01*
X114516232Y-105824359D01*
X114516236Y-105824362D01*
X114558138Y-105842494D01*
X114568612Y-105847625D01*
X114608632Y-105869627D01*
X114629204Y-105874908D01*
X114647594Y-105881205D01*
X114667074Y-105889635D01*
X114712175Y-105896777D01*
X114723586Y-105899141D01*
X114767823Y-105910500D01*
X114789045Y-105910500D01*
X114808444Y-105912026D01*
X114829405Y-105915347D01*
X114874860Y-105911050D01*
X114886530Y-105910500D01*
X121167823Y-105910500D01*
X122626789Y-105910500D01*
X122693828Y-105930185D01*
X122699674Y-105934182D01*
X122837265Y-106034148D01*
X122837270Y-106034151D01*
X123010192Y-106111142D01*
X123010197Y-106111144D01*
X123195354Y-106150500D01*
X123195355Y-106150500D01*
X123384644Y-106150500D01*
X123384646Y-106150500D01*
X123569803Y-106111144D01*
X123742730Y-106034151D01*
X123895871Y-105922888D01*
X124022533Y-105782216D01*
X124117179Y-105618284D01*
X124175674Y-105438256D01*
X124195460Y-105250000D01*
X124175674Y-105061744D01*
X124117179Y-104881716D01*
X124022533Y-104717784D01*
X123895871Y-104577112D01*
X123895863Y-104577106D01*
X123742734Y-104465851D01*
X123742729Y-104465848D01*
X123569807Y-104388857D01*
X123569802Y-104388855D01*
X123424001Y-104357865D01*
X123384646Y-104349500D01*
X123195354Y-104349500D01*
X123162897Y-104356398D01*
X123010197Y-104388855D01*
X123010192Y-104388857D01*
X122837270Y-104465848D01*
X122837265Y-104465851D01*
X122684135Y-104577106D01*
X122683536Y-104577647D01*
X122683112Y-104577850D01*
X122678871Y-104580932D01*
X122678307Y-104580156D01*
X122620546Y-104607879D01*
X122600560Y-104609500D01*
X115170808Y-104609500D01*
X115103769Y-104589815D01*
X115083127Y-104573181D01*
X111579946Y-101070000D01*
X116919953Y-101070000D01*
X116938092Y-101242576D01*
X116938093Y-101242579D01*
X116991712Y-101407608D01*
X117078477Y-101557887D01*
X117078476Y-101557887D01*
X117133582Y-101619088D01*
X117194590Y-101686845D01*
X117334976Y-101788842D01*
X117493501Y-101859422D01*
X117502350Y-101861302D01*
X117563832Y-101894491D01*
X117564256Y-101894913D01*
X119457051Y-103787707D01*
X119462171Y-103793145D01*
X119502071Y-103838183D01*
X119551574Y-103872352D01*
X119557603Y-103876788D01*
X119604944Y-103913878D01*
X119604946Y-103913879D01*
X119604949Y-103913881D01*
X119614177Y-103918034D01*
X119633731Y-103929062D01*
X119642070Y-103934818D01*
X119698331Y-103956154D01*
X119705208Y-103959003D01*
X119726563Y-103968615D01*
X119760063Y-103983693D01*
X119760066Y-103983693D01*
X119760069Y-103983695D01*
X119770034Y-103985521D01*
X119791656Y-103991548D01*
X119794777Y-103992731D01*
X119801128Y-103995140D01*
X119858689Y-104002128D01*
X119860815Y-104002387D01*
X119868222Y-104003514D01*
X119927394Y-104014358D01*
X119987433Y-104010725D01*
X119994921Y-104010500D01*
X123459982Y-104010500D01*
X123518990Y-104026311D01*
X123519040Y-104026199D01*
X123519747Y-104026514D01*
X123521983Y-104027113D01*
X123524966Y-104028834D01*
X123524976Y-104028842D01*
X123604238Y-104064132D01*
X123683495Y-104099420D01*
X123683501Y-104099422D01*
X123853236Y-104135500D01*
X123853237Y-104135500D01*
X124026762Y-104135500D01*
X124026764Y-104135500D01*
X124196499Y-104099422D01*
X124196501Y-104099420D01*
X124196504Y-104099420D01*
X124328718Y-104040554D01*
X124355024Y-104028842D01*
X124495410Y-103926845D01*
X124611522Y-103797889D01*
X124698286Y-103647611D01*
X124751908Y-103482576D01*
X124770047Y-103310000D01*
X124751908Y-103137424D01*
X124705033Y-102993155D01*
X124698287Y-102972391D01*
X124651388Y-102891160D01*
X124611522Y-102822111D01*
X124549313Y-102753020D01*
X124495411Y-102693156D01*
X124460532Y-102667815D01*
X124419554Y-102638042D01*
X124355023Y-102591157D01*
X124196504Y-102520579D01*
X124196498Y-102520577D01*
X124045968Y-102488582D01*
X124026764Y-102484500D01*
X123853236Y-102484500D01*
X123834032Y-102488582D01*
X123683501Y-102520577D01*
X123683496Y-102520579D01*
X123524983Y-102591155D01*
X123524980Y-102591156D01*
X123524977Y-102591158D01*
X123524973Y-102591160D01*
X123521984Y-102592887D01*
X123519748Y-102593485D01*
X123519041Y-102593801D01*
X123518991Y-102593688D01*
X123459983Y-102609500D01*
X120311518Y-102609500D01*
X120244479Y-102589815D01*
X120223837Y-102573181D01*
X118589613Y-100938956D01*
X118559363Y-100889592D01*
X118559218Y-100889147D01*
X118510406Y-100738914D01*
X118508287Y-100732391D01*
X118471074Y-100667937D01*
X118421522Y-100582111D01*
X118305410Y-100453155D01*
X118165024Y-100351158D01*
X118165023Y-100351157D01*
X118006504Y-100280579D01*
X118006498Y-100280577D01*
X117872841Y-100252168D01*
X117836764Y-100244500D01*
X117663236Y-100244500D01*
X117633483Y-100250824D01*
X117493501Y-100280577D01*
X117493496Y-100280579D01*
X117334977Y-100351157D01*
X117334972Y-100351160D01*
X117194591Y-100453153D01*
X117194589Y-100453155D01*
X117078477Y-100582112D01*
X116991712Y-100732391D01*
X116938093Y-100897420D01*
X116938092Y-100897424D01*
X116919953Y-101070000D01*
X111579946Y-101070000D01*
X110360434Y-99850488D01*
X110350361Y-99837914D01*
X110350174Y-99838070D01*
X110345198Y-99832054D01*
X110294167Y-99784134D01*
X110291369Y-99781423D01*
X110271035Y-99761089D01*
X110267548Y-99758384D01*
X110258669Y-99750800D01*
X110225396Y-99719554D01*
X110225388Y-99719548D01*
X110206792Y-99709325D01*
X110190531Y-99698644D01*
X110173763Y-99685637D01*
X110157409Y-99678560D01*
X110131853Y-99667501D01*
X110121394Y-99662377D01*
X110081368Y-99640373D01*
X110081365Y-99640372D01*
X110060801Y-99635092D01*
X110042396Y-99628790D01*
X110022927Y-99620365D01*
X110022921Y-99620363D01*
X109977837Y-99613223D01*
X109966398Y-99610854D01*
X109922180Y-99599500D01*
X109922177Y-99599500D01*
X109900955Y-99599500D01*
X109881555Y-99597973D01*
X109860596Y-99594653D01*
X109860595Y-99594653D01*
X109825475Y-99597973D01*
X109815140Y-99598950D01*
X109803470Y-99599500D01*
X109020808Y-99599500D01*
X108953769Y-99579815D01*
X108933127Y-99563181D01*
X107669946Y-98300000D01*
X110334341Y-98300000D01*
X110354936Y-98535403D01*
X110354938Y-98535413D01*
X110416094Y-98763655D01*
X110416096Y-98763659D01*
X110416097Y-98763663D01*
X110421757Y-98775800D01*
X110515965Y-98977830D01*
X110515967Y-98977834D01*
X110624281Y-99132521D01*
X110651505Y-99171401D01*
X110818599Y-99338495D01*
X110909231Y-99401956D01*
X111012165Y-99474032D01*
X111012167Y-99474033D01*
X111012170Y-99474035D01*
X111226337Y-99573903D01*
X111454592Y-99635063D01*
X111642918Y-99651539D01*
X111689999Y-99655659D01*
X111690000Y-99655659D01*
X111690001Y-99655659D01*
X111729234Y-99652226D01*
X111925408Y-99635063D01*
X112153663Y-99573903D01*
X112367830Y-99474035D01*
X112561401Y-99338495D01*
X112728495Y-99171401D01*
X112864035Y-98977830D01*
X112963903Y-98763663D01*
X113025063Y-98535408D01*
X113045659Y-98300000D01*
X113025063Y-98064592D01*
X112963903Y-97836337D01*
X112864035Y-97622171D01*
X112728495Y-97428599D01*
X112728494Y-97428597D01*
X112561402Y-97261506D01*
X112561396Y-97261501D01*
X112375842Y-97131575D01*
X112332217Y-97076998D01*
X112325023Y-97007500D01*
X112356546Y-96945145D01*
X112375842Y-96928425D01*
X112398026Y-96912891D01*
X112561401Y-96798495D01*
X112728495Y-96631401D01*
X112864035Y-96437830D01*
X112963903Y-96223663D01*
X113025063Y-95995408D01*
X113045659Y-95760000D01*
X113025063Y-95524592D01*
X112963903Y-95296337D01*
X112864035Y-95082171D01*
X112833306Y-95038284D01*
X112728494Y-94888597D01*
X112561402Y-94721506D01*
X112561396Y-94721501D01*
X112375842Y-94591575D01*
X112332217Y-94536998D01*
X112325023Y-94467500D01*
X112356546Y-94405145D01*
X112375842Y-94388425D01*
X112461742Y-94328277D01*
X112561401Y-94258495D01*
X112728495Y-94091401D01*
X112864035Y-93897830D01*
X112963903Y-93683663D01*
X113025063Y-93455408D01*
X113045659Y-93220000D01*
X113025063Y-92984592D01*
X112963903Y-92756337D01*
X112864035Y-92542171D01*
X112864004Y-92542127D01*
X112728496Y-92348600D01*
X112727560Y-92347664D01*
X112606567Y-92226671D01*
X112573084Y-92165351D01*
X112578068Y-92095659D01*
X112619939Y-92039725D01*
X112650915Y-92022810D01*
X112782331Y-91973796D01*
X112897546Y-91887546D01*
X112983796Y-91772331D01*
X113034091Y-91637483D01*
X113040500Y-91577873D01*
X113040499Y-89782128D01*
X113034091Y-89722517D01*
X112992311Y-89610500D01*
X112983797Y-89587671D01*
X112983793Y-89587664D01*
X112897547Y-89472455D01*
X112897544Y-89472452D01*
X112782335Y-89386206D01*
X112782328Y-89386202D01*
X112647482Y-89335908D01*
X112647483Y-89335908D01*
X112587883Y-89329501D01*
X112587881Y-89329500D01*
X112587873Y-89329500D01*
X112587864Y-89329500D01*
X110792129Y-89329500D01*
X110792123Y-89329501D01*
X110732516Y-89335908D01*
X110597671Y-89386202D01*
X110597664Y-89386206D01*
X110482455Y-89472452D01*
X110482452Y-89472455D01*
X110396206Y-89587664D01*
X110396202Y-89587671D01*
X110345908Y-89722517D01*
X110339501Y-89782116D01*
X110339501Y-89782123D01*
X110339500Y-89782135D01*
X110339500Y-91577870D01*
X110339501Y-91577876D01*
X110345908Y-91637483D01*
X110396202Y-91772328D01*
X110396206Y-91772335D01*
X110482452Y-91887544D01*
X110482455Y-91887547D01*
X110597664Y-91973793D01*
X110597671Y-91973797D01*
X110729081Y-92022810D01*
X110785015Y-92064681D01*
X110809432Y-92130145D01*
X110794580Y-92198418D01*
X110773430Y-92226673D01*
X110651503Y-92348600D01*
X110515965Y-92542169D01*
X110515964Y-92542171D01*
X110416098Y-92756335D01*
X110416094Y-92756344D01*
X110354938Y-92984586D01*
X110354936Y-92984596D01*
X110334341Y-93219999D01*
X110334341Y-93220000D01*
X110354936Y-93455403D01*
X110354938Y-93455413D01*
X110416094Y-93683655D01*
X110416096Y-93683659D01*
X110416097Y-93683663D01*
X110496388Y-93855847D01*
X110515965Y-93897830D01*
X110515967Y-93897834D01*
X110611170Y-94033797D01*
X110650873Y-94090499D01*
X110651501Y-94091395D01*
X110651506Y-94091402D01*
X110818597Y-94258493D01*
X110818603Y-94258498D01*
X111004158Y-94388425D01*
X111047783Y-94443002D01*
X111054977Y-94512500D01*
X111023454Y-94574855D01*
X111004158Y-94591575D01*
X110818597Y-94721505D01*
X110651505Y-94888597D01*
X110515965Y-95082169D01*
X110515964Y-95082171D01*
X110416098Y-95296335D01*
X110416094Y-95296344D01*
X110354938Y-95524586D01*
X110354936Y-95524596D01*
X110334341Y-95759999D01*
X110334341Y-95760000D01*
X110354936Y-95995403D01*
X110354938Y-95995413D01*
X110416094Y-96223655D01*
X110416096Y-96223659D01*
X110416097Y-96223663D01*
X110515965Y-96437830D01*
X110515967Y-96437834D01*
X110651501Y-96631395D01*
X110651506Y-96631402D01*
X110818597Y-96798493D01*
X110818603Y-96798498D01*
X111004158Y-96928425D01*
X111047783Y-96983002D01*
X111054977Y-97052500D01*
X111023454Y-97114855D01*
X111004158Y-97131575D01*
X110818597Y-97261505D01*
X110651505Y-97428597D01*
X110515965Y-97622169D01*
X110515964Y-97622171D01*
X110416098Y-97836335D01*
X110416094Y-97836344D01*
X110354938Y-98064586D01*
X110354936Y-98064596D01*
X110334341Y-98299999D01*
X110334341Y-98300000D01*
X107669946Y-98300000D01*
X107426819Y-98056873D01*
X107393334Y-97995550D01*
X107390500Y-97969192D01*
X107390500Y-88710000D01*
X117874540Y-88710000D01*
X117894326Y-88898256D01*
X117894327Y-88898259D01*
X117952818Y-89078277D01*
X117952821Y-89078283D01*
X117952821Y-89078284D01*
X118047467Y-89242216D01*
X118126058Y-89329500D01*
X118174129Y-89382888D01*
X118327265Y-89494148D01*
X118327270Y-89494151D01*
X118500192Y-89571142D01*
X118500197Y-89571144D01*
X118685354Y-89610500D01*
X118685355Y-89610500D01*
X118874644Y-89610500D01*
X118874646Y-89610500D01*
X119059803Y-89571144D01*
X119232730Y-89494151D01*
X119385871Y-89382888D01*
X119512533Y-89242216D01*
X119607179Y-89078284D01*
X119630804Y-89005571D01*
X119670240Y-88947896D01*
X119722956Y-88922599D01*
X119729803Y-88921144D01*
X119902730Y-88844151D01*
X120055871Y-88732888D01*
X120182533Y-88592216D01*
X120277179Y-88428284D01*
X120335674Y-88248256D01*
X120355460Y-88060000D01*
X120335674Y-87871744D01*
X120277179Y-87691716D01*
X120182533Y-87527784D01*
X120055871Y-87387112D01*
X120055870Y-87387111D01*
X119902734Y-87275851D01*
X119902729Y-87275848D01*
X119729807Y-87198857D01*
X119729802Y-87198855D01*
X119584001Y-87167865D01*
X119544646Y-87159500D01*
X119355354Y-87159500D01*
X119322897Y-87166398D01*
X119170197Y-87198855D01*
X119170192Y-87198857D01*
X118997270Y-87275848D01*
X118997265Y-87275851D01*
X118844129Y-87387111D01*
X118717466Y-87527785D01*
X118622821Y-87691715D01*
X118622817Y-87691725D01*
X118599193Y-87764429D01*
X118559755Y-87822104D01*
X118507055Y-87847397D01*
X118500200Y-87848854D01*
X118500194Y-87848856D01*
X118327270Y-87925848D01*
X118327265Y-87925851D01*
X118174129Y-88037111D01*
X118047466Y-88177785D01*
X117952821Y-88341715D01*
X117952818Y-88341722D01*
X117920049Y-88442576D01*
X117894326Y-88521744D01*
X117874540Y-88710000D01*
X107390500Y-88710000D01*
X107390500Y-86484000D01*
X107410185Y-86416961D01*
X107462989Y-86371206D01*
X107514500Y-86360000D01*
X107690000Y-86360000D01*
X107690000Y-85445501D01*
X107797685Y-85494680D01*
X107904237Y-85510000D01*
X107975763Y-85510000D01*
X108082315Y-85494680D01*
X108190000Y-85445501D01*
X108190000Y-86360000D01*
X108837828Y-86360000D01*
X108837844Y-86359999D01*
X108897372Y-86353598D01*
X108897379Y-86353596D01*
X109032086Y-86303354D01*
X109032093Y-86303350D01*
X109147187Y-86217190D01*
X109147190Y-86217187D01*
X109233350Y-86102093D01*
X109233354Y-86102086D01*
X109283596Y-85967379D01*
X109283598Y-85967372D01*
X109289999Y-85907844D01*
X109290000Y-85907827D01*
X109290000Y-85260000D01*
X108373686Y-85260000D01*
X108399493Y-85219844D01*
X108440000Y-85081889D01*
X108440000Y-84938111D01*
X108399493Y-84800156D01*
X108373686Y-84760000D01*
X109290000Y-84760000D01*
X109290000Y-84112172D01*
X109289999Y-84112155D01*
X109283598Y-84052627D01*
X109283596Y-84052620D01*
X109233354Y-83917913D01*
X109233350Y-83917906D01*
X109147190Y-83802812D01*
X109147187Y-83802809D01*
X109032093Y-83716649D01*
X109032088Y-83716646D01*
X108900528Y-83667577D01*
X108844595Y-83625705D01*
X108820178Y-83560241D01*
X108835030Y-83491968D01*
X108856175Y-83463720D01*
X108978495Y-83341401D01*
X109114035Y-83147830D01*
X109213903Y-82933663D01*
X109275063Y-82705408D01*
X109295659Y-82470000D01*
X109275063Y-82234592D01*
X109225296Y-82048855D01*
X109213905Y-82006344D01*
X109213902Y-82006335D01*
X109205300Y-81987889D01*
X109130592Y-81827679D01*
X109120101Y-81758603D01*
X109148621Y-81694819D01*
X109155281Y-81687607D01*
X112892332Y-77950556D01*
X112953653Y-77917073D01*
X113023345Y-77922057D01*
X113079278Y-77963929D01*
X113092393Y-77985834D01*
X113125965Y-78057830D01*
X113125967Y-78057834D01*
X113185728Y-78143181D01*
X113261505Y-78251401D01*
X113428599Y-78418495D01*
X113513207Y-78477738D01*
X113622165Y-78554032D01*
X113622167Y-78554033D01*
X113622170Y-78554035D01*
X113836337Y-78653903D01*
X113836343Y-78653904D01*
X113836344Y-78653905D01*
X113868638Y-78662558D01*
X114064592Y-78715063D01*
X114252918Y-78731539D01*
X114299999Y-78735659D01*
X114300000Y-78735659D01*
X114300001Y-78735659D01*
X114339234Y-78732226D01*
X114535408Y-78715063D01*
X114763663Y-78653903D01*
X114977830Y-78554035D01*
X115171401Y-78418495D01*
X115338495Y-78251401D01*
X115474035Y-78057830D01*
X115573903Y-77843663D01*
X115635063Y-77615408D01*
X115655659Y-77380000D01*
X115635063Y-77144592D01*
X115617878Y-77080457D01*
X115619541Y-77010608D01*
X115649970Y-76960685D01*
X123383838Y-69226819D01*
X123445161Y-69193334D01*
X123471519Y-69190500D01*
X128180176Y-69190500D01*
X128247215Y-69210185D01*
X128292970Y-69262989D01*
X128302914Y-69332147D01*
X128299951Y-69346593D01*
X128254938Y-69514586D01*
X128254936Y-69514596D01*
X128234341Y-69749999D01*
X128234341Y-69750000D01*
X128253839Y-69972860D01*
X128240072Y-70041360D01*
X128217992Y-70071349D01*
X121197290Y-77092051D01*
X121191838Y-77097183D01*
X121146819Y-77137068D01*
X121112649Y-77186569D01*
X121108213Y-77192597D01*
X121071124Y-77239938D01*
X121071119Y-77239948D01*
X121066960Y-77249188D01*
X121055942Y-77268723D01*
X121050187Y-77277061D01*
X121050179Y-77277076D01*
X121028853Y-77333305D01*
X121025989Y-77340220D01*
X121001305Y-77395068D01*
X120999477Y-77405042D01*
X120993453Y-77426653D01*
X120989860Y-77436127D01*
X120989860Y-77436128D01*
X120982610Y-77495827D01*
X120981483Y-77503227D01*
X120970642Y-77562389D01*
X120970642Y-77562395D01*
X120974274Y-77622432D01*
X120974500Y-77629920D01*
X120974500Y-89963480D01*
X120954815Y-90030519D01*
X120938181Y-90051161D01*
X119202371Y-91786970D01*
X119141048Y-91820455D01*
X119071356Y-91815471D01*
X119022541Y-91782263D01*
X118945871Y-91697112D01*
X118935394Y-91689500D01*
X118792734Y-91585851D01*
X118792729Y-91585848D01*
X118619807Y-91508857D01*
X118619802Y-91508855D01*
X118474001Y-91477865D01*
X118434646Y-91469500D01*
X118245354Y-91469500D01*
X118212897Y-91476398D01*
X118060197Y-91508855D01*
X118060192Y-91508857D01*
X117887270Y-91585848D01*
X117887265Y-91585851D01*
X117734129Y-91697111D01*
X117607466Y-91837785D01*
X117512821Y-92001715D01*
X117512818Y-92001722D01*
X117454327Y-92181740D01*
X117454326Y-92181744D01*
X117434540Y-92370000D01*
X117454326Y-92558256D01*
X117454327Y-92558259D01*
X117512818Y-92738277D01*
X117512821Y-92738284D01*
X117607467Y-92902216D01*
X117734129Y-93042888D01*
X117887265Y-93154148D01*
X117887270Y-93154151D01*
X118060192Y-93231142D01*
X118060197Y-93231144D01*
X118245354Y-93270500D01*
X118260500Y-93270500D01*
X118327539Y-93290185D01*
X118373294Y-93342989D01*
X118384500Y-93394500D01*
X118384500Y-93485383D01*
X118384274Y-93492871D01*
X118380642Y-93552908D01*
X118380642Y-93552910D01*
X118391483Y-93612075D01*
X118392610Y-93619476D01*
X118399859Y-93679176D01*
X118399860Y-93679179D01*
X118403451Y-93688648D01*
X118409474Y-93710251D01*
X118411304Y-93720235D01*
X118417478Y-93733955D01*
X118434484Y-93771740D01*
X118435991Y-93775087D01*
X118438854Y-93781999D01*
X118460182Y-93838235D01*
X118460183Y-93838236D01*
X118465936Y-93846571D01*
X118476961Y-93866118D01*
X118481120Y-93875360D01*
X118481124Y-93875365D01*
X118518215Y-93922708D01*
X118522655Y-93928743D01*
X118556812Y-93978229D01*
X118556816Y-93978234D01*
X118601828Y-94018110D01*
X118607283Y-94023245D01*
X119291753Y-94707715D01*
X119296873Y-94713153D01*
X119336766Y-94758183D01*
X119379713Y-94787827D01*
X119386264Y-94792349D01*
X119392296Y-94796788D01*
X119439633Y-94833874D01*
X119439638Y-94833877D01*
X119448869Y-94838031D01*
X119468422Y-94849059D01*
X119476765Y-94854818D01*
X119533017Y-94876151D01*
X119539923Y-94879012D01*
X119594758Y-94903692D01*
X119594759Y-94903692D01*
X119594763Y-94903694D01*
X119604392Y-94905458D01*
X119604723Y-94905519D01*
X119626347Y-94911546D01*
X119635823Y-94915140D01*
X119643960Y-94916128D01*
X119708138Y-94943749D01*
X119747195Y-95001682D01*
X119752336Y-95052185D01*
X119749184Y-95082171D01*
X119739953Y-95170000D01*
X119758092Y-95342576D01*
X119758093Y-95342579D01*
X119811712Y-95507608D01*
X119898477Y-95657887D01*
X119898476Y-95657887D01*
X119898478Y-95657889D01*
X120014590Y-95786845D01*
X120154976Y-95888842D01*
X120313495Y-95959420D01*
X120313501Y-95959422D01*
X120483236Y-95995500D01*
X120483237Y-95995500D01*
X120656762Y-95995500D01*
X120656764Y-95995500D01*
X120826499Y-95959422D01*
X120826501Y-95959420D01*
X120826504Y-95959420D01*
X120879899Y-95935646D01*
X120985024Y-95888842D01*
X121125410Y-95786845D01*
X121241522Y-95657889D01*
X121328286Y-95507611D01*
X121381908Y-95342576D01*
X121400047Y-95170000D01*
X121381908Y-94997424D01*
X121338894Y-94865038D01*
X121328287Y-94832391D01*
X121327972Y-94831846D01*
X121241522Y-94682111D01*
X121125410Y-94553155D01*
X121016719Y-94474186D01*
X120974056Y-94418858D01*
X120966286Y-94360914D01*
X120980047Y-94230000D01*
X120961908Y-94057424D01*
X120918137Y-93922708D01*
X120908287Y-93892391D01*
X120908286Y-93892389D01*
X120821522Y-93742111D01*
X120727663Y-93637870D01*
X125789500Y-93637870D01*
X125789501Y-93637876D01*
X125795908Y-93697483D01*
X125846202Y-93832328D01*
X125846206Y-93832335D01*
X125932452Y-93947544D01*
X125932455Y-93947547D01*
X126047664Y-94033793D01*
X126047671Y-94033797D01*
X126182517Y-94084091D01*
X126182516Y-94084091D01*
X126189444Y-94084835D01*
X126242127Y-94090500D01*
X127337872Y-94090499D01*
X127397483Y-94084091D01*
X127532331Y-94033796D01*
X127647546Y-93947546D01*
X127733796Y-93832331D01*
X127784091Y-93697483D01*
X127790500Y-93637873D01*
X127790499Y-92542128D01*
X127784091Y-92482517D01*
X127733796Y-92347669D01*
X127733795Y-92347668D01*
X127733793Y-92347664D01*
X127647547Y-92232455D01*
X127647544Y-92232452D01*
X127532335Y-92146206D01*
X127532328Y-92146202D01*
X127397482Y-92095908D01*
X127397483Y-92095908D01*
X127337883Y-92089501D01*
X127337881Y-92089500D01*
X127337873Y-92089500D01*
X127337864Y-92089500D01*
X126242129Y-92089500D01*
X126242123Y-92089501D01*
X126182516Y-92095908D01*
X126047671Y-92146202D01*
X126047664Y-92146206D01*
X125932455Y-92232452D01*
X125932452Y-92232455D01*
X125846206Y-92347664D01*
X125846202Y-92347671D01*
X125795908Y-92482517D01*
X125789501Y-92542116D01*
X125789501Y-92542123D01*
X125789500Y-92542135D01*
X125789500Y-93637870D01*
X120727663Y-93637870D01*
X120705410Y-93613155D01*
X120703924Y-93612075D01*
X120656111Y-93577336D01*
X120613446Y-93522005D01*
X120607468Y-93452392D01*
X120640075Y-93390597D01*
X120641244Y-93389411D01*
X123367723Y-90662931D01*
X123373125Y-90657845D01*
X123418183Y-90617929D01*
X123452349Y-90568430D01*
X123456790Y-90562394D01*
X123459647Y-90558747D01*
X123493878Y-90515056D01*
X123498037Y-90505813D01*
X123509061Y-90486268D01*
X123514818Y-90477930D01*
X123536145Y-90421694D01*
X123539013Y-90414770D01*
X123563693Y-90359936D01*
X123563693Y-90359934D01*
X123563695Y-90359931D01*
X123565522Y-90349959D01*
X123571546Y-90328347D01*
X123575140Y-90318872D01*
X123582387Y-90259184D01*
X123583514Y-90251777D01*
X123594358Y-90192606D01*
X123590726Y-90132565D01*
X123590500Y-90125078D01*
X123590500Y-79271518D01*
X123610185Y-79204479D01*
X123626814Y-79183842D01*
X128025901Y-74784754D01*
X128087222Y-74751271D01*
X128156914Y-74756255D01*
X128212847Y-74798127D01*
X128237108Y-74861629D01*
X128254936Y-75065402D01*
X128254936Y-75065405D01*
X128254937Y-75065408D01*
X128254939Y-75065415D01*
X128261555Y-75090108D01*
X128259892Y-75159958D01*
X128229463Y-75209879D01*
X128099633Y-75339710D01*
X127906299Y-75533043D01*
X127862290Y-75577052D01*
X127856838Y-75582183D01*
X127811819Y-75622068D01*
X127777649Y-75671569D01*
X127773213Y-75677597D01*
X127736124Y-75724938D01*
X127736119Y-75724948D01*
X127731960Y-75734188D01*
X127720942Y-75753723D01*
X127715187Y-75762061D01*
X127715179Y-75762076D01*
X127693853Y-75818305D01*
X127690989Y-75825220D01*
X127666305Y-75880068D01*
X127664477Y-75890042D01*
X127658453Y-75911653D01*
X127654860Y-75921127D01*
X127654860Y-75921128D01*
X127647610Y-75980827D01*
X127646483Y-75988227D01*
X127635642Y-76047389D01*
X127635642Y-76047395D01*
X127639274Y-76107432D01*
X127639500Y-76114920D01*
X127639500Y-79575078D01*
X127639274Y-79582566D01*
X127635642Y-79642603D01*
X127635642Y-79642605D01*
X127646483Y-79701770D01*
X127647610Y-79709171D01*
X127654859Y-79768871D01*
X127654860Y-79768874D01*
X127658451Y-79778343D01*
X127664474Y-79799946D01*
X127666304Y-79809930D01*
X127690991Y-79864782D01*
X127693854Y-79871694D01*
X127715182Y-79927930D01*
X127715183Y-79927931D01*
X127720936Y-79936266D01*
X127731961Y-79955813D01*
X127736120Y-79965055D01*
X127736124Y-79965060D01*
X127773215Y-80012403D01*
X127777655Y-80018438D01*
X127811812Y-80067924D01*
X127811816Y-80067929D01*
X127856828Y-80107805D01*
X127862283Y-80112940D01*
X128241212Y-80491869D01*
X128274697Y-80553192D01*
X128269713Y-80622884D01*
X128227841Y-80678817D01*
X128179313Y-80700840D01*
X128133501Y-80710578D01*
X128065277Y-80740953D01*
X127996026Y-80750237D01*
X127941956Y-80727991D01*
X127905023Y-80701157D01*
X127746504Y-80630579D01*
X127746498Y-80630577D01*
X127602776Y-80600029D01*
X127576764Y-80594500D01*
X127403236Y-80594500D01*
X127377224Y-80600029D01*
X127233501Y-80630577D01*
X127233496Y-80630579D01*
X127074977Y-80701157D01*
X127074972Y-80701160D01*
X126934591Y-80803153D01*
X126934589Y-80803155D01*
X126818477Y-80932112D01*
X126731712Y-81082391D01*
X126679270Y-81243797D01*
X126678092Y-81247424D01*
X126659953Y-81420000D01*
X126678092Y-81592576D01*
X126678093Y-81592579D01*
X126731712Y-81757608D01*
X126818477Y-81907887D01*
X126818476Y-81907887D01*
X126918394Y-82018857D01*
X126934590Y-82036845D01*
X127019186Y-82098308D01*
X127074976Y-82138842D01*
X127233495Y-82209420D01*
X127233501Y-82209422D01*
X127403236Y-82245500D01*
X127403237Y-82245500D01*
X127576762Y-82245500D01*
X127576764Y-82245500D01*
X127746499Y-82209422D01*
X127814721Y-82179046D01*
X127883970Y-82169761D01*
X127938043Y-82192008D01*
X127974976Y-82218842D01*
X128133495Y-82289420D01*
X128133501Y-82289422D01*
X128303236Y-82325500D01*
X128303237Y-82325500D01*
X128476762Y-82325500D01*
X128476764Y-82325500D01*
X128646499Y-82289422D01*
X128665063Y-82281156D01*
X128734310Y-82271870D01*
X128797588Y-82301497D01*
X128834803Y-82360630D01*
X128839500Y-82394435D01*
X128839500Y-82674327D01*
X128831440Y-82718303D01*
X128823856Y-82738298D01*
X128820993Y-82745211D01*
X128796305Y-82800068D01*
X128794477Y-82810042D01*
X128788453Y-82831653D01*
X128784860Y-82841127D01*
X128784860Y-82841128D01*
X128777610Y-82900827D01*
X128776483Y-82908227D01*
X128765642Y-82967389D01*
X128765642Y-82967395D01*
X128769274Y-83027432D01*
X128769500Y-83034920D01*
X128769500Y-85365078D01*
X128769274Y-85372566D01*
X128765642Y-85432603D01*
X128765642Y-85432605D01*
X128776483Y-85491770D01*
X128777610Y-85499171D01*
X128784859Y-85558871D01*
X128784860Y-85558874D01*
X128788451Y-85568343D01*
X128794474Y-85589946D01*
X128796304Y-85599930D01*
X128796305Y-85599933D01*
X128820995Y-85654793D01*
X128823860Y-85661709D01*
X128831441Y-85681697D01*
X128839500Y-85725671D01*
X128839500Y-99240354D01*
X128819815Y-99307393D01*
X128767011Y-99353148D01*
X128697853Y-99363092D01*
X128662868Y-99352630D01*
X128522820Y-99286978D01*
X128522813Y-99286976D01*
X128263442Y-99208942D01*
X128263428Y-99208939D01*
X128147791Y-99191921D01*
X127995439Y-99169500D01*
X127792369Y-99169500D01*
X127792351Y-99169500D01*
X127589844Y-99184323D01*
X127589831Y-99184325D01*
X127325453Y-99243217D01*
X127325446Y-99243220D01*
X127072439Y-99339987D01*
X126836226Y-99472557D01*
X126836224Y-99472558D01*
X126836223Y-99472559D01*
X126834313Y-99474034D01*
X126621822Y-99638112D01*
X126433822Y-99833109D01*
X126433816Y-99833116D01*
X126276202Y-100053419D01*
X126276199Y-100053424D01*
X126152350Y-100294309D01*
X126152343Y-100294327D01*
X126064884Y-100550685D01*
X126064882Y-100550695D01*
X126016181Y-100814363D01*
X126015681Y-100817068D01*
X126015680Y-100817075D01*
X126005787Y-101087763D01*
X126035413Y-101357013D01*
X126035415Y-101357024D01*
X126103926Y-101619082D01*
X126103928Y-101619088D01*
X126209870Y-101868390D01*
X126226057Y-101894913D01*
X126350979Y-102099605D01*
X126350986Y-102099615D01*
X126524253Y-102307819D01*
X126524259Y-102307824D01*
X126725998Y-102488582D01*
X126951910Y-102638044D01*
X127197176Y-102753020D01*
X127197183Y-102753022D01*
X127197185Y-102753023D01*
X127456557Y-102831057D01*
X127456564Y-102831058D01*
X127456569Y-102831060D01*
X127724561Y-102870500D01*
X127724566Y-102870500D01*
X127927629Y-102870500D01*
X127927631Y-102870500D01*
X127927636Y-102870499D01*
X127927648Y-102870499D01*
X127965191Y-102867750D01*
X128130156Y-102855677D01*
X128242758Y-102830593D01*
X128394546Y-102796782D01*
X128394548Y-102796781D01*
X128394553Y-102796780D01*
X128647558Y-102700014D01*
X128883777Y-102567441D01*
X129009716Y-102470194D01*
X129074807Y-102444803D01*
X129143294Y-102458633D01*
X129193432Y-102507295D01*
X129209500Y-102568341D01*
X129209500Y-104083077D01*
X129189815Y-104150116D01*
X129173181Y-104170758D01*
X129074633Y-104269306D01*
X119295656Y-114048281D01*
X119234333Y-114081766D01*
X119164641Y-114076782D01*
X119108708Y-114034910D01*
X119084655Y-113973563D01*
X119081908Y-113947424D01*
X119045980Y-113836846D01*
X119028287Y-113782391D01*
X119015443Y-113760145D01*
X118941522Y-113632111D01*
X118916025Y-113603793D01*
X118825411Y-113503156D01*
X118685023Y-113401157D01*
X118526504Y-113330579D01*
X118526498Y-113330577D01*
X118392841Y-113302168D01*
X118356764Y-113294500D01*
X118183236Y-113294500D01*
X118153483Y-113300824D01*
X118013501Y-113330577D01*
X118013496Y-113330579D01*
X117854977Y-113401157D01*
X117854972Y-113401160D01*
X117714591Y-113503153D01*
X117714589Y-113503155D01*
X117598477Y-113632112D01*
X117511712Y-113782391D01*
X117458093Y-113947420D01*
X117458092Y-113947424D01*
X117439953Y-114120000D01*
X117458092Y-114292576D01*
X117458093Y-114292579D01*
X117511712Y-114457608D01*
X117598477Y-114607887D01*
X117598476Y-114607887D01*
X117598478Y-114607889D01*
X117714590Y-114736845D01*
X117736161Y-114752517D01*
X117854976Y-114838842D01*
X118013495Y-114909420D01*
X118013498Y-114909420D01*
X118013501Y-114909422D01*
X118168862Y-114942444D01*
X118230343Y-114975636D01*
X118264120Y-115036799D01*
X118264319Y-115078075D01*
X118266070Y-115078259D01*
X118265390Y-115084718D01*
X118265390Y-115084722D01*
X118247251Y-115257298D01*
X118265390Y-115429874D01*
X118265391Y-115429877D01*
X118319010Y-115594906D01*
X118405775Y-115745185D01*
X118405774Y-115745185D01*
X118405776Y-115745187D01*
X118521888Y-115874143D01*
X118541642Y-115888495D01*
X118662274Y-115976140D01*
X118820794Y-116046718D01*
X118820795Y-116046718D01*
X118820799Y-116046720D01*
X118878834Y-116059055D01*
X118889223Y-116061264D01*
X118950705Y-116094456D01*
X118981374Y-116144236D01*
X119011711Y-116237604D01*
X119011714Y-116237611D01*
X119077471Y-116351505D01*
X119098477Y-116387887D01*
X119098476Y-116387887D01*
X119214589Y-116516844D01*
X119214591Y-116516846D01*
X119249499Y-116542208D01*
X119292165Y-116597538D01*
X119297601Y-116660838D01*
X119298772Y-116660961D01*
X119298133Y-116667032D01*
X119298144Y-116667151D01*
X119298098Y-116667372D01*
X119298093Y-116667420D01*
X119298092Y-116667424D01*
X119279953Y-116840000D01*
X119298092Y-117012576D01*
X119298093Y-117012579D01*
X119351712Y-117177608D01*
X119438477Y-117327887D01*
X119438476Y-117327887D01*
X119438478Y-117327889D01*
X119554590Y-117456845D01*
X119694976Y-117558842D01*
X119853495Y-117629420D01*
X119853501Y-117629422D01*
X120023236Y-117665500D01*
X120023237Y-117665500D01*
X120196762Y-117665500D01*
X120196764Y-117665500D01*
X120366499Y-117629422D01*
X120366501Y-117629420D01*
X120366504Y-117629420D01*
X120419899Y-117605646D01*
X120525024Y-117558842D01*
X120665410Y-117456845D01*
X120781522Y-117327889D01*
X120868286Y-117177611D01*
X120921908Y-117012576D01*
X120940047Y-116840000D01*
X120921908Y-116667424D01*
X120873552Y-116518597D01*
X120868287Y-116502391D01*
X120868286Y-116502389D01*
X120781522Y-116352111D01*
X120665410Y-116223155D01*
X120630498Y-116197789D01*
X120587834Y-116142461D01*
X120582397Y-116079163D01*
X120581228Y-116079041D01*
X120581865Y-116072972D01*
X120581855Y-116072847D01*
X120581903Y-116072614D01*
X120581906Y-116072580D01*
X120581908Y-116072576D01*
X120584898Y-116044124D01*
X120611480Y-115979513D01*
X120620528Y-115969416D01*
X123369944Y-113220000D01*
X143214953Y-113220000D01*
X143233092Y-113392576D01*
X143233093Y-113392579D01*
X143286712Y-113557608D01*
X143330623Y-113633663D01*
X143355046Y-113675965D01*
X143373477Y-113707887D01*
X143373476Y-113707887D01*
X143440560Y-113782391D01*
X143489590Y-113836845D01*
X143629976Y-113938842D01*
X143788501Y-114009422D01*
X143788504Y-114009422D01*
X143791708Y-114010849D01*
X143844945Y-114056100D01*
X143865266Y-114122949D01*
X143846221Y-114190173D01*
X143814158Y-114224447D01*
X143719588Y-114293156D01*
X143603477Y-114422112D01*
X143516712Y-114572391D01*
X143463280Y-114736845D01*
X143463092Y-114737424D01*
X143444953Y-114910000D01*
X143463092Y-115082576D01*
X143463093Y-115082579D01*
X143516712Y-115247608D01*
X143603477Y-115397887D01*
X143603476Y-115397887D01*
X143603478Y-115397889D01*
X143719590Y-115526845D01*
X143813272Y-115594909D01*
X143859976Y-115628842D01*
X144018495Y-115699420D01*
X144018501Y-115699422D01*
X144188236Y-115735500D01*
X144188237Y-115735500D01*
X144361762Y-115735500D01*
X144361764Y-115735500D01*
X144531499Y-115699422D01*
X144531501Y-115699420D01*
X144531504Y-115699420D01*
X144584899Y-115675646D01*
X144690024Y-115628842D01*
X144830410Y-115526845D01*
X144946522Y-115397889D01*
X145033286Y-115247611D01*
X145086908Y-115082576D01*
X145105047Y-114910000D01*
X145086908Y-114737424D01*
X145046996Y-114614586D01*
X145033287Y-114572391D01*
X144992909Y-114502455D01*
X144946522Y-114422111D01*
X144941203Y-114416203D01*
X144830411Y-114293156D01*
X144690023Y-114191157D01*
X144528292Y-114119149D01*
X144475055Y-114073899D01*
X144454734Y-114007050D01*
X144473780Y-113939826D01*
X144505843Y-113905552D01*
X144600410Y-113836845D01*
X144716522Y-113707889D01*
X144803286Y-113557611D01*
X144856908Y-113392576D01*
X144875047Y-113220000D01*
X144869792Y-113170000D01*
X149064341Y-113170000D01*
X149084936Y-113405403D01*
X149084938Y-113405413D01*
X149146094Y-113633655D01*
X149146096Y-113633659D01*
X149146097Y-113633663D01*
X149188996Y-113725659D01*
X149245965Y-113847830D01*
X149245967Y-113847834D01*
X149337531Y-113978600D01*
X149381501Y-114041396D01*
X149381506Y-114041402D01*
X149503430Y-114163326D01*
X149536915Y-114224649D01*
X149531931Y-114294341D01*
X149490059Y-114350274D01*
X149459083Y-114367189D01*
X149327669Y-114416203D01*
X149327664Y-114416206D01*
X149212455Y-114502452D01*
X149212452Y-114502455D01*
X149126206Y-114617664D01*
X149126202Y-114617671D01*
X149075908Y-114752517D01*
X149069501Y-114812116D01*
X149069501Y-114812123D01*
X149069500Y-114812135D01*
X149069500Y-116607870D01*
X149069501Y-116607876D01*
X149075908Y-116667483D01*
X149126202Y-116802328D01*
X149126206Y-116802335D01*
X149212452Y-116917544D01*
X149212455Y-116917547D01*
X149327664Y-117003793D01*
X149327671Y-117003797D01*
X149462517Y-117054091D01*
X149462516Y-117054091D01*
X149469444Y-117054835D01*
X149522127Y-117060500D01*
X151317872Y-117060499D01*
X151377483Y-117054091D01*
X151512331Y-117003796D01*
X151627546Y-116917546D01*
X151713796Y-116802331D01*
X151764091Y-116667483D01*
X151770500Y-116607873D01*
X151770499Y-114812128D01*
X151764091Y-114752517D01*
X151758460Y-114737420D01*
X151713797Y-114617671D01*
X151713793Y-114617664D01*
X151627547Y-114502455D01*
X151627544Y-114502452D01*
X151512335Y-114416206D01*
X151512328Y-114416202D01*
X151380917Y-114367189D01*
X151324983Y-114325318D01*
X151300566Y-114259853D01*
X151315418Y-114191580D01*
X151336563Y-114163332D01*
X151458495Y-114041401D01*
X151594035Y-113847830D01*
X151693903Y-113633663D01*
X151755063Y-113405408D01*
X151775659Y-113170000D01*
X151755063Y-112934592D01*
X151693903Y-112706337D01*
X151594035Y-112492171D01*
X151550908Y-112430578D01*
X151458494Y-112298597D01*
X151291402Y-112131506D01*
X151291396Y-112131501D01*
X151105842Y-112001575D01*
X151062217Y-111946998D01*
X151055023Y-111877500D01*
X151086546Y-111815145D01*
X151105842Y-111798425D01*
X151128026Y-111782891D01*
X151291401Y-111668495D01*
X151458495Y-111501401D01*
X151594035Y-111307830D01*
X151693903Y-111093663D01*
X151755063Y-110865408D01*
X151775659Y-110630000D01*
X151755063Y-110394592D01*
X151693903Y-110166337D01*
X151594035Y-109952171D01*
X151458495Y-109758599D01*
X151458494Y-109758597D01*
X151291402Y-109591506D01*
X151291401Y-109591505D01*
X151105405Y-109461269D01*
X151061781Y-109406692D01*
X151054588Y-109337193D01*
X151086110Y-109274839D01*
X151105405Y-109258119D01*
X151291082Y-109128105D01*
X151458105Y-108961082D01*
X151593600Y-108767578D01*
X151693429Y-108553492D01*
X151693432Y-108553486D01*
X151750636Y-108340000D01*
X150853686Y-108340000D01*
X150879493Y-108299844D01*
X150920000Y-108161889D01*
X150920000Y-108018111D01*
X150879493Y-107880156D01*
X150853686Y-107840000D01*
X151750636Y-107840000D01*
X151750635Y-107839999D01*
X151693432Y-107626513D01*
X151693429Y-107626507D01*
X151593600Y-107412422D01*
X151593599Y-107412420D01*
X151458113Y-107218926D01*
X151458108Y-107218920D01*
X151291082Y-107051894D01*
X151097578Y-106916399D01*
X150883492Y-106816570D01*
X150883486Y-106816567D01*
X150670000Y-106759364D01*
X150670000Y-107654498D01*
X150562315Y-107605320D01*
X150455763Y-107590000D01*
X150384237Y-107590000D01*
X150277685Y-107605320D01*
X150170000Y-107654498D01*
X150170000Y-106759364D01*
X150169999Y-106759364D01*
X149956513Y-106816567D01*
X149956507Y-106816570D01*
X149742422Y-106916399D01*
X149742420Y-106916400D01*
X149548926Y-107051886D01*
X149548920Y-107051891D01*
X149381891Y-107218920D01*
X149381886Y-107218926D01*
X149246400Y-107412420D01*
X149246399Y-107412422D01*
X149146570Y-107626507D01*
X149146567Y-107626513D01*
X149089364Y-107839999D01*
X149089364Y-107840000D01*
X149986314Y-107840000D01*
X149960507Y-107880156D01*
X149920000Y-108018111D01*
X149920000Y-108161889D01*
X149960507Y-108299844D01*
X149986314Y-108340000D01*
X149089364Y-108340000D01*
X149146567Y-108553486D01*
X149146570Y-108553492D01*
X149246399Y-108767578D01*
X149381894Y-108961082D01*
X149548917Y-109128105D01*
X149734595Y-109258119D01*
X149778219Y-109312696D01*
X149785412Y-109382195D01*
X149753890Y-109444549D01*
X149734595Y-109461269D01*
X149548594Y-109591508D01*
X149381505Y-109758597D01*
X149245965Y-109952169D01*
X149245964Y-109952171D01*
X149146098Y-110166335D01*
X149146094Y-110166344D01*
X149084938Y-110394586D01*
X149084936Y-110394596D01*
X149064341Y-110629999D01*
X149064341Y-110630000D01*
X149084936Y-110865403D01*
X149084938Y-110865413D01*
X149146094Y-111093655D01*
X149146096Y-111093659D01*
X149146097Y-111093663D01*
X149245965Y-111307830D01*
X149245967Y-111307834D01*
X149381501Y-111501395D01*
X149381506Y-111501402D01*
X149548597Y-111668493D01*
X149548603Y-111668498D01*
X149734158Y-111798425D01*
X149777783Y-111853002D01*
X149784977Y-111922500D01*
X149753454Y-111984855D01*
X149734158Y-112001575D01*
X149548597Y-112131505D01*
X149381505Y-112298597D01*
X149245965Y-112492169D01*
X149245964Y-112492171D01*
X149146098Y-112706335D01*
X149146094Y-112706344D01*
X149084938Y-112934586D01*
X149084936Y-112934596D01*
X149064341Y-113169999D01*
X149064341Y-113170000D01*
X144869792Y-113170000D01*
X144856908Y-113047424D01*
X144803286Y-112882389D01*
X144716522Y-112732111D01*
X144600410Y-112603155D01*
X144460024Y-112501158D01*
X144460023Y-112501157D01*
X144301504Y-112430579D01*
X144301498Y-112430577D01*
X144167841Y-112402168D01*
X144131764Y-112394500D01*
X143958236Y-112394500D01*
X143928483Y-112400824D01*
X143788501Y-112430577D01*
X143788496Y-112430579D01*
X143629977Y-112501157D01*
X143629972Y-112501160D01*
X143489591Y-112603153D01*
X143489589Y-112603155D01*
X143373477Y-112732112D01*
X143286712Y-112882391D01*
X143233093Y-113047420D01*
X143233092Y-113047424D01*
X143214953Y-113220000D01*
X123369944Y-113220000D01*
X131759513Y-104830431D01*
X131772079Y-104820365D01*
X131771925Y-104820178D01*
X131777933Y-104815205D01*
X131777940Y-104815202D01*
X131801227Y-104790402D01*
X131825865Y-104764167D01*
X131828578Y-104761367D01*
X131848911Y-104741035D01*
X131851606Y-104737560D01*
X131859199Y-104728669D01*
X131869421Y-104717784D01*
X131890448Y-104695393D01*
X131900674Y-104676790D01*
X131911353Y-104660533D01*
X131924362Y-104643764D01*
X131942491Y-104601866D01*
X131947620Y-104591395D01*
X131969627Y-104551368D01*
X131974905Y-104530806D01*
X131981207Y-104512399D01*
X131989635Y-104492927D01*
X131996777Y-104447825D01*
X131999140Y-104436418D01*
X132010500Y-104392177D01*
X132010500Y-104370949D01*
X132012027Y-104351549D01*
X132015346Y-104330595D01*
X132011050Y-104285147D01*
X132010500Y-104273478D01*
X132010500Y-93960000D01*
X138594540Y-93960000D01*
X138614326Y-94148256D01*
X138614327Y-94148259D01*
X138672818Y-94328277D01*
X138672821Y-94328284D01*
X138767467Y-94492216D01*
X138822337Y-94553155D01*
X138894129Y-94632888D01*
X139047265Y-94744148D01*
X139047270Y-94744151D01*
X139220192Y-94821142D01*
X139220193Y-94821142D01*
X139220197Y-94821144D01*
X139270555Y-94831848D01*
X139332035Y-94865038D01*
X139362704Y-94914819D01*
X139402818Y-95038277D01*
X139402821Y-95038284D01*
X139497467Y-95202216D01*
X139593994Y-95309420D01*
X139624129Y-95342888D01*
X139777265Y-95454148D01*
X139777270Y-95454151D01*
X139950192Y-95531142D01*
X139950197Y-95531144D01*
X140135354Y-95570500D01*
X140135355Y-95570500D01*
X140324644Y-95570500D01*
X140324646Y-95570500D01*
X140509803Y-95531144D01*
X140682730Y-95454151D01*
X140835871Y-95342888D01*
X140962533Y-95202216D01*
X141057179Y-95038284D01*
X141115674Y-94858256D01*
X141135460Y-94670000D01*
X141119695Y-94520000D01*
X148309953Y-94520000D01*
X148328092Y-94692576D01*
X148328093Y-94692579D01*
X148381712Y-94857608D01*
X148468477Y-95007887D01*
X148468476Y-95007887D01*
X148535362Y-95082171D01*
X148584590Y-95136845D01*
X148630224Y-95170000D01*
X148724976Y-95238842D01*
X148883495Y-95309420D01*
X148883501Y-95309422D01*
X149053236Y-95345500D01*
X149053237Y-95345500D01*
X149226762Y-95345500D01*
X149226764Y-95345500D01*
X149396499Y-95309422D01*
X149396501Y-95309420D01*
X149396504Y-95309420D01*
X149449899Y-95285646D01*
X149555024Y-95238842D01*
X149695410Y-95136845D01*
X149811522Y-95007889D01*
X149898286Y-94857611D01*
X149951908Y-94692576D01*
X149970047Y-94520000D01*
X149951908Y-94347424D01*
X149898286Y-94182389D01*
X149811522Y-94032111D01*
X149798916Y-94018110D01*
X149695411Y-93903156D01*
X149688080Y-93897830D01*
X149606056Y-93838235D01*
X149555023Y-93801157D01*
X149396504Y-93730579D01*
X149396498Y-93730577D01*
X149262841Y-93702168D01*
X149226764Y-93694500D01*
X149053236Y-93694500D01*
X149023483Y-93700824D01*
X148883501Y-93730577D01*
X148883496Y-93730579D01*
X148724977Y-93801157D01*
X148724972Y-93801160D01*
X148584591Y-93903153D01*
X148584589Y-93903155D01*
X148468477Y-94032112D01*
X148381712Y-94182391D01*
X148328093Y-94347420D01*
X148328092Y-94347424D01*
X148309953Y-94520000D01*
X141119695Y-94520000D01*
X141115674Y-94481744D01*
X141057179Y-94301716D01*
X140962533Y-94137784D01*
X140932183Y-94104077D01*
X140901954Y-94041088D01*
X140910578Y-93971753D01*
X140932182Y-93938135D01*
X140982533Y-93882216D01*
X141077179Y-93718284D01*
X141135674Y-93538256D01*
X141135674Y-93538251D01*
X141136971Y-93534261D01*
X141176408Y-93476585D01*
X141223846Y-93453822D01*
X141223628Y-93453150D01*
X141228644Y-93451520D01*
X141229131Y-93451286D01*
X141229803Y-93451144D01*
X141402730Y-93374151D01*
X141555871Y-93262888D01*
X141682533Y-93122216D01*
X141777179Y-92958284D01*
X141835674Y-92778256D01*
X141855460Y-92590000D01*
X141835674Y-92401744D01*
X141777179Y-92221716D01*
X141682533Y-92057784D01*
X141555871Y-91917112D01*
X141555870Y-91917111D01*
X141402734Y-91805851D01*
X141402729Y-91805848D01*
X141229807Y-91728857D01*
X141229802Y-91728855D01*
X141080444Y-91697109D01*
X141044646Y-91689500D01*
X140855354Y-91689500D01*
X140822897Y-91696398D01*
X140670197Y-91728855D01*
X140670192Y-91728857D01*
X140497270Y-91805848D01*
X140497265Y-91805851D01*
X140344129Y-91917111D01*
X140217466Y-92057785D01*
X140122821Y-92221715D01*
X140122819Y-92221719D01*
X140063027Y-92405739D01*
X140023589Y-92463414D01*
X139976157Y-92486181D01*
X139976374Y-92486849D01*
X139971397Y-92488465D01*
X139970897Y-92488706D01*
X139970205Y-92488853D01*
X139970192Y-92488857D01*
X139797270Y-92565848D01*
X139797265Y-92565851D01*
X139644129Y-92677111D01*
X139517466Y-92817785D01*
X139422821Y-92981715D01*
X139422819Y-92981720D01*
X139419088Y-92993202D01*
X139379646Y-93050875D01*
X139326941Y-93076166D01*
X139220196Y-93098856D01*
X139220192Y-93098857D01*
X139047270Y-93175848D01*
X139047265Y-93175851D01*
X138894129Y-93287111D01*
X138767466Y-93427785D01*
X138672821Y-93591715D01*
X138672818Y-93591722D01*
X138627701Y-93730579D01*
X138614326Y-93771744D01*
X138594540Y-93960000D01*
X132010500Y-93960000D01*
X132010500Y-86175000D01*
X138019953Y-86175000D01*
X138038092Y-86347576D01*
X138038093Y-86347579D01*
X138091712Y-86512608D01*
X138178477Y-86662887D01*
X138178476Y-86662887D01*
X138178478Y-86662889D01*
X138294590Y-86791845D01*
X138409731Y-86875500D01*
X138434976Y-86893842D01*
X138593495Y-86964420D01*
X138593501Y-86964422D01*
X138763236Y-87000500D01*
X138763237Y-87000500D01*
X138936762Y-87000500D01*
X138936764Y-87000500D01*
X139106499Y-86964422D01*
X139106501Y-86964420D01*
X139106504Y-86964420D01*
X139133200Y-86952533D01*
X139265024Y-86893842D01*
X139265037Y-86893832D01*
X139268017Y-86892113D01*
X139270252Y-86891514D01*
X139270960Y-86891199D01*
X139271009Y-86891311D01*
X139330018Y-86875500D01*
X140573481Y-86875500D01*
X140640520Y-86895185D01*
X140661162Y-86911819D01*
X141905681Y-88156338D01*
X141939166Y-88217661D01*
X141941321Y-88256976D01*
X141939953Y-88269996D01*
X141939953Y-88270000D01*
X141958092Y-88442576D01*
X141958093Y-88442579D01*
X142011712Y-88607608D01*
X142098477Y-88757887D01*
X142098476Y-88757887D01*
X142176146Y-88844148D01*
X142214590Y-88886845D01*
X142298619Y-88947896D01*
X142354976Y-88988842D01*
X142513495Y-89059420D01*
X142513501Y-89059422D01*
X142683236Y-89095500D01*
X142683237Y-89095500D01*
X142856762Y-89095500D01*
X142856764Y-89095500D01*
X143026499Y-89059422D01*
X143026501Y-89059420D01*
X143026504Y-89059420D01*
X143079899Y-89035646D01*
X143185024Y-88988842D01*
X143325410Y-88886845D01*
X143441522Y-88757889D01*
X143528286Y-88607611D01*
X143581908Y-88442576D01*
X143600047Y-88270000D01*
X143581908Y-88097424D01*
X143528286Y-87932389D01*
X143441522Y-87782111D01*
X143428826Y-87768010D01*
X143405036Y-87729013D01*
X143394818Y-87702070D01*
X143389058Y-87693726D01*
X143378035Y-87674180D01*
X143373878Y-87664943D01*
X143336763Y-87617569D01*
X143332345Y-87611563D01*
X143298185Y-87562073D01*
X143298183Y-87562071D01*
X143253153Y-87522178D01*
X143247715Y-87517058D01*
X141427940Y-85697283D01*
X141422805Y-85691828D01*
X141382929Y-85646816D01*
X141382924Y-85646812D01*
X141333438Y-85612655D01*
X141327403Y-85608215D01*
X141280060Y-85571124D01*
X141280055Y-85571120D01*
X141270813Y-85566961D01*
X141251266Y-85555936D01*
X141242931Y-85550183D01*
X141242932Y-85550183D01*
X141242930Y-85550182D01*
X141186694Y-85528854D01*
X141179790Y-85525994D01*
X141124932Y-85501305D01*
X141124930Y-85501304D01*
X141114946Y-85499474D01*
X141093343Y-85493451D01*
X141083874Y-85489860D01*
X141083871Y-85489859D01*
X141024171Y-85482610D01*
X141016770Y-85481483D01*
X140957609Y-85470642D01*
X140957603Y-85470642D01*
X140897567Y-85474274D01*
X140890079Y-85474500D01*
X140839070Y-85474500D01*
X140772031Y-85454815D01*
X140726276Y-85402011D01*
X140715749Y-85337539D01*
X140721056Y-85287044D01*
X140735460Y-85150000D01*
X140715674Y-84961744D01*
X140657179Y-84781716D01*
X140562533Y-84617784D01*
X140435871Y-84477112D01*
X140419638Y-84465318D01*
X140376972Y-84409989D01*
X140370993Y-84340375D01*
X140403598Y-84278580D01*
X140419638Y-84264682D01*
X140421298Y-84263475D01*
X140435871Y-84252888D01*
X140562533Y-84112216D01*
X140657179Y-83948284D01*
X140715674Y-83768256D01*
X140735460Y-83580000D01*
X140715674Y-83391744D01*
X140657179Y-83211716D01*
X140562533Y-83047784D01*
X140435871Y-82907112D01*
X140432327Y-82904537D01*
X140282734Y-82795851D01*
X140282729Y-82795848D01*
X140109807Y-82718857D01*
X140109802Y-82718855D01*
X139964001Y-82687865D01*
X139924646Y-82679500D01*
X139735354Y-82679500D01*
X139702897Y-82686398D01*
X139550197Y-82718855D01*
X139550192Y-82718857D01*
X139377270Y-82795848D01*
X139377265Y-82795851D01*
X139224129Y-82907111D01*
X139097466Y-83047785D01*
X139002821Y-83211715D01*
X139002818Y-83211722D01*
X138944327Y-83391740D01*
X138944326Y-83391744D01*
X138939021Y-83442216D01*
X138936531Y-83465908D01*
X138909946Y-83530522D01*
X138863647Y-83566224D01*
X138707267Y-83635850D01*
X138707265Y-83635851D01*
X138554129Y-83747111D01*
X138427466Y-83887785D01*
X138332821Y-84051715D01*
X138332818Y-84051722D01*
X138274327Y-84231740D01*
X138274326Y-84231744D01*
X138254540Y-84420000D01*
X138274326Y-84608256D01*
X138274327Y-84608259D01*
X138332818Y-84788277D01*
X138332821Y-84788284D01*
X138427467Y-84952216D01*
X138544225Y-85081889D01*
X138554129Y-85092888D01*
X138649393Y-85162101D01*
X138692059Y-85217430D01*
X138698038Y-85287044D01*
X138665433Y-85348839D01*
X138604594Y-85383196D01*
X138602295Y-85383708D01*
X138593502Y-85385577D01*
X138593496Y-85385579D01*
X138434977Y-85456157D01*
X138434972Y-85456160D01*
X138294591Y-85558153D01*
X138294589Y-85558155D01*
X138178477Y-85687112D01*
X138091712Y-85837391D01*
X138038093Y-86002420D01*
X138038092Y-86002424D01*
X138019953Y-86175000D01*
X132010500Y-86175000D01*
X132010500Y-82880000D01*
X133224540Y-82880000D01*
X133244326Y-83068256D01*
X133244327Y-83068259D01*
X133302818Y-83248277D01*
X133302821Y-83248284D01*
X133397467Y-83412216D01*
X133503991Y-83530522D01*
X133524129Y-83552888D01*
X133677265Y-83664148D01*
X133677270Y-83664151D01*
X133850192Y-83741142D01*
X133850197Y-83741144D01*
X134035354Y-83780500D01*
X134035355Y-83780500D01*
X134224644Y-83780500D01*
X134224646Y-83780500D01*
X134409803Y-83741144D01*
X134520875Y-83691690D01*
X134590123Y-83682405D01*
X134621746Y-83691691D01*
X134627268Y-83694149D01*
X134627270Y-83694151D01*
X134800197Y-83771144D01*
X134985354Y-83810500D01*
X134985355Y-83810500D01*
X135174644Y-83810500D01*
X135174646Y-83810500D01*
X135359803Y-83771144D01*
X135532730Y-83694151D01*
X135685871Y-83582888D01*
X135812533Y-83442216D01*
X135907179Y-83278284D01*
X135965674Y-83098256D01*
X135985460Y-82910000D01*
X135965674Y-82721744D01*
X135907179Y-82541716D01*
X135812533Y-82377784D01*
X135685871Y-82237112D01*
X135682403Y-82234592D01*
X135532734Y-82125851D01*
X135532729Y-82125848D01*
X135359807Y-82048857D01*
X135359802Y-82048855D01*
X135214001Y-82017865D01*
X135174646Y-82009500D01*
X134985354Y-82009500D01*
X134952897Y-82016398D01*
X134800197Y-82048855D01*
X134800192Y-82048857D01*
X134689126Y-82098308D01*
X134619876Y-82107593D01*
X134588254Y-82098308D01*
X134409807Y-82018857D01*
X134409802Y-82018855D01*
X134264001Y-81987865D01*
X134224646Y-81979500D01*
X134035354Y-81979500D01*
X134002897Y-81986398D01*
X133850197Y-82018855D01*
X133850192Y-82018857D01*
X133677270Y-82095848D01*
X133677265Y-82095851D01*
X133524129Y-82207111D01*
X133397466Y-82347785D01*
X133302821Y-82511715D01*
X133302818Y-82511722D01*
X133249985Y-82674327D01*
X133244326Y-82691744D01*
X133224540Y-82880000D01*
X132010500Y-82880000D01*
X132010500Y-80847870D01*
X134169500Y-80847870D01*
X134169501Y-80847876D01*
X134175908Y-80907483D01*
X134226202Y-81042328D01*
X134226206Y-81042335D01*
X134312452Y-81157544D01*
X134312455Y-81157547D01*
X134427664Y-81243793D01*
X134427671Y-81243797D01*
X134562517Y-81294091D01*
X134562516Y-81294091D01*
X134569444Y-81294835D01*
X134622127Y-81300500D01*
X135717872Y-81300499D01*
X135777483Y-81294091D01*
X135912331Y-81243796D01*
X136027546Y-81157546D01*
X136113796Y-81042331D01*
X136164091Y-80907483D01*
X136170500Y-80847873D01*
X136170499Y-79752128D01*
X136164091Y-79692517D01*
X136161446Y-79685426D01*
X136113797Y-79557671D01*
X136113793Y-79557664D01*
X136027547Y-79442455D01*
X136027544Y-79442452D01*
X135912335Y-79356206D01*
X135912328Y-79356202D01*
X135777482Y-79305908D01*
X135777483Y-79305908D01*
X135717883Y-79299501D01*
X135717881Y-79299500D01*
X135717873Y-79299500D01*
X135717864Y-79299500D01*
X134622129Y-79299500D01*
X134622123Y-79299501D01*
X134562516Y-79305908D01*
X134427671Y-79356202D01*
X134427664Y-79356206D01*
X134312455Y-79442452D01*
X134312452Y-79442455D01*
X134226206Y-79557664D01*
X134226202Y-79557671D01*
X134175908Y-79692517D01*
X134169683Y-79750427D01*
X134169501Y-79752123D01*
X134169500Y-79752135D01*
X134169500Y-80847870D01*
X132010500Y-80847870D01*
X132010500Y-79215503D01*
X132012268Y-79199491D01*
X132012026Y-79199469D01*
X132012760Y-79191706D01*
X132010561Y-79121722D01*
X132010500Y-79117828D01*
X132010500Y-79089078D01*
X132010499Y-79089071D01*
X132009950Y-79084725D01*
X132009031Y-79073062D01*
X132007598Y-79027431D01*
X132001676Y-79007050D01*
X131997731Y-78987995D01*
X131995072Y-78966949D01*
X131995071Y-78966947D01*
X131995071Y-78966942D01*
X131978267Y-78924501D01*
X131974484Y-78913452D01*
X131961745Y-78869602D01*
X131961142Y-78868583D01*
X131950936Y-78851324D01*
X131942378Y-78833855D01*
X131934568Y-78814129D01*
X131907721Y-78777179D01*
X131901331Y-78767449D01*
X131878081Y-78728135D01*
X131863075Y-78713129D01*
X131850435Y-78698330D01*
X131837961Y-78681160D01*
X131802780Y-78652056D01*
X131794140Y-78644194D01*
X130939822Y-77789876D01*
X130906337Y-77728553D01*
X130907728Y-77670101D01*
X130917445Y-77633837D01*
X130925063Y-77605408D01*
X130945659Y-77370000D01*
X130925063Y-77134592D01*
X130863903Y-76906337D01*
X130764035Y-76692171D01*
X130756863Y-76681927D01*
X130628494Y-76498597D01*
X130461402Y-76331506D01*
X130461396Y-76331501D01*
X130275842Y-76201575D01*
X130232217Y-76146998D01*
X130225023Y-76077500D01*
X130256546Y-76015145D01*
X130275842Y-75998425D01*
X130300974Y-75980827D01*
X130461401Y-75868495D01*
X130628495Y-75701401D01*
X130764035Y-75507830D01*
X130863903Y-75293663D01*
X130925063Y-75065408D01*
X130945659Y-74830000D01*
X130925063Y-74594592D01*
X130863903Y-74366337D01*
X130764035Y-74152171D01*
X130725743Y-74097483D01*
X130684002Y-74037870D01*
X142869500Y-74037870D01*
X142869501Y-74037876D01*
X142875908Y-74097483D01*
X142926202Y-74232328D01*
X142926206Y-74232335D01*
X143012452Y-74347544D01*
X143012455Y-74347547D01*
X143127664Y-74433793D01*
X143127671Y-74433797D01*
X143262517Y-74484091D01*
X143262516Y-74484091D01*
X143269444Y-74484835D01*
X143322127Y-74490500D01*
X144417872Y-74490499D01*
X144477483Y-74484091D01*
X144612331Y-74433796D01*
X144727546Y-74347546D01*
X144813796Y-74232331D01*
X144864091Y-74097483D01*
X144870500Y-74037873D01*
X144870499Y-72942128D01*
X144864091Y-72882517D01*
X144845026Y-72831402D01*
X144813797Y-72747671D01*
X144813793Y-72747664D01*
X144727547Y-72632455D01*
X144727544Y-72632452D01*
X144612335Y-72546206D01*
X144612328Y-72546202D01*
X144477482Y-72495908D01*
X144477483Y-72495908D01*
X144417883Y-72489501D01*
X144417881Y-72489500D01*
X144417873Y-72489500D01*
X144417864Y-72489500D01*
X143322129Y-72489500D01*
X143322123Y-72489501D01*
X143262516Y-72495908D01*
X143127671Y-72546202D01*
X143127664Y-72546206D01*
X143012455Y-72632452D01*
X143012452Y-72632455D01*
X142926206Y-72747664D01*
X142926202Y-72747671D01*
X142875908Y-72882517D01*
X142871032Y-72927876D01*
X142869501Y-72942123D01*
X142869500Y-72942135D01*
X142869500Y-74037870D01*
X130684002Y-74037870D01*
X130628494Y-73958597D01*
X130461402Y-73791506D01*
X130461396Y-73791501D01*
X130275842Y-73661575D01*
X130232217Y-73606998D01*
X130225023Y-73537500D01*
X130256546Y-73475145D01*
X130275842Y-73458425D01*
X130387130Y-73380500D01*
X130461401Y-73328495D01*
X130628495Y-73161401D01*
X130764035Y-72967830D01*
X130782669Y-72927870D01*
X132599500Y-72927870D01*
X132599501Y-72927876D01*
X132605908Y-72987483D01*
X132656202Y-73122328D01*
X132656206Y-73122335D01*
X132742452Y-73237544D01*
X132742455Y-73237547D01*
X132857664Y-73323793D01*
X132857671Y-73323797D01*
X132992517Y-73374091D01*
X132992516Y-73374091D01*
X132999444Y-73374835D01*
X133052127Y-73380500D01*
X134147872Y-73380499D01*
X134207483Y-73374091D01*
X134342331Y-73323796D01*
X134457546Y-73237546D01*
X134543796Y-73122331D01*
X134594091Y-72987483D01*
X134600500Y-72927873D01*
X134600499Y-71832128D01*
X134594091Y-71772517D01*
X134543796Y-71637669D01*
X134543795Y-71637668D01*
X134543793Y-71637664D01*
X134457547Y-71522455D01*
X134457544Y-71522452D01*
X134342335Y-71436206D01*
X134342328Y-71436202D01*
X134207482Y-71385908D01*
X134207483Y-71385908D01*
X134147883Y-71379501D01*
X134147881Y-71379500D01*
X134147873Y-71379500D01*
X134147864Y-71379500D01*
X133052129Y-71379500D01*
X133052123Y-71379501D01*
X132992516Y-71385908D01*
X132857671Y-71436202D01*
X132857664Y-71436206D01*
X132742455Y-71522452D01*
X132742452Y-71522455D01*
X132656206Y-71637664D01*
X132656202Y-71637671D01*
X132605908Y-71772517D01*
X132600122Y-71826344D01*
X132599501Y-71832123D01*
X132599500Y-71832135D01*
X132599500Y-72927870D01*
X130782669Y-72927870D01*
X130863903Y-72753663D01*
X130925063Y-72525408D01*
X130945659Y-72290000D01*
X130925063Y-72054592D01*
X130865455Y-71832128D01*
X130863905Y-71826344D01*
X130863904Y-71826343D01*
X130863903Y-71826337D01*
X130764035Y-71612171D01*
X130701216Y-71522455D01*
X130628494Y-71418597D01*
X130461402Y-71251506D01*
X130461396Y-71251501D01*
X130275842Y-71121575D01*
X130232217Y-71066998D01*
X130225023Y-70997500D01*
X130256546Y-70935145D01*
X130275842Y-70918425D01*
X130344793Y-70870145D01*
X130461401Y-70788495D01*
X130628495Y-70621401D01*
X130764035Y-70427830D01*
X130863903Y-70213663D01*
X130925063Y-69985408D01*
X130945659Y-69750000D01*
X130925063Y-69514592D01*
X130908111Y-69451329D01*
X130880049Y-69346593D01*
X130881712Y-69276743D01*
X130920875Y-69218881D01*
X130985104Y-69191377D01*
X130999824Y-69190500D01*
X132497756Y-69190500D01*
X132564795Y-69210185D01*
X132610550Y-69262989D01*
X132621045Y-69327752D01*
X132619500Y-69342127D01*
X132619500Y-69342133D01*
X132619500Y-69342134D01*
X132619500Y-70437870D01*
X132619501Y-70437876D01*
X132625908Y-70497483D01*
X132676202Y-70632328D01*
X132676206Y-70632335D01*
X132762452Y-70747544D01*
X132762455Y-70747547D01*
X132877664Y-70833793D01*
X132877671Y-70833797D01*
X133012517Y-70884091D01*
X133012516Y-70884091D01*
X133019444Y-70884835D01*
X133072127Y-70890500D01*
X134167872Y-70890499D01*
X134227483Y-70884091D01*
X134362331Y-70833796D01*
X134477546Y-70747546D01*
X134563796Y-70632331D01*
X134614091Y-70497483D01*
X134620500Y-70437873D01*
X134620499Y-69342128D01*
X134618954Y-69327752D01*
X134631361Y-69258993D01*
X134678973Y-69207857D01*
X134742244Y-69190500D01*
X135118481Y-69190500D01*
X135185520Y-69210185D01*
X135206162Y-69226819D01*
X135877051Y-69897707D01*
X135882171Y-69903145D01*
X135922071Y-69948183D01*
X135971574Y-69982352D01*
X135977603Y-69986788D01*
X136024944Y-70023878D01*
X136024946Y-70023879D01*
X136024949Y-70023881D01*
X136034177Y-70028034D01*
X136053731Y-70039062D01*
X136062070Y-70044818D01*
X136118331Y-70066154D01*
X136125208Y-70069003D01*
X136146563Y-70078615D01*
X136180063Y-70093693D01*
X136180066Y-70093693D01*
X136180069Y-70093695D01*
X136190034Y-70095521D01*
X136211656Y-70101548D01*
X136214777Y-70102731D01*
X136221128Y-70105140D01*
X136278689Y-70112128D01*
X136280815Y-70112387D01*
X136288222Y-70113514D01*
X136347394Y-70124358D01*
X136407433Y-70120725D01*
X136414921Y-70120500D01*
X148795501Y-70120500D01*
X148862540Y-70140185D01*
X148908295Y-70192989D01*
X148919501Y-70244500D01*
X148919501Y-70317876D01*
X148925908Y-70377483D01*
X148976202Y-70512328D01*
X148976206Y-70512335D01*
X149062452Y-70627544D01*
X149062455Y-70627547D01*
X149177664Y-70713793D01*
X149177671Y-70713797D01*
X149309081Y-70762810D01*
X149365015Y-70804681D01*
X149389432Y-70870145D01*
X149374580Y-70938418D01*
X149353430Y-70966673D01*
X149231503Y-71088600D01*
X149095965Y-71282169D01*
X149095964Y-71282171D01*
X148996098Y-71496335D01*
X148996094Y-71496344D01*
X148934938Y-71724586D01*
X148934936Y-71724596D01*
X148914341Y-71959999D01*
X148914341Y-71960000D01*
X148934936Y-72195403D01*
X148934938Y-72195413D01*
X148996094Y-72423655D01*
X148996096Y-72423659D01*
X148996097Y-72423663D01*
X149052868Y-72545408D01*
X149095965Y-72637830D01*
X149095967Y-72637834D01*
X149231501Y-72831395D01*
X149231506Y-72831402D01*
X149398597Y-72998493D01*
X149398603Y-72998498D01*
X149455114Y-73038067D01*
X149578705Y-73124607D01*
X149584594Y-73128730D01*
X149628219Y-73183307D01*
X149635413Y-73252805D01*
X149603890Y-73315160D01*
X149584595Y-73331880D01*
X149398922Y-73461890D01*
X149398920Y-73461891D01*
X149231891Y-73628920D01*
X149231886Y-73628926D01*
X149096400Y-73822420D01*
X149096399Y-73822422D01*
X148996570Y-74036507D01*
X148996567Y-74036513D01*
X148939364Y-74249999D01*
X148939364Y-74250000D01*
X149836314Y-74250000D01*
X149810507Y-74290156D01*
X149770000Y-74428111D01*
X149770000Y-74571889D01*
X149810507Y-74709844D01*
X149836314Y-74750000D01*
X148939364Y-74750000D01*
X148996567Y-74963486D01*
X148996570Y-74963492D01*
X149096399Y-75177578D01*
X149231894Y-75371082D01*
X149398917Y-75538105D01*
X149592421Y-75673600D01*
X149806507Y-75773429D01*
X149806516Y-75773433D01*
X150020000Y-75830634D01*
X150020000Y-74935501D01*
X150127685Y-74984680D01*
X150234237Y-75000000D01*
X150305763Y-75000000D01*
X150412315Y-74984680D01*
X150520000Y-74935501D01*
X150520000Y-75830633D01*
X150733483Y-75773433D01*
X150733487Y-75773431D01*
X150753094Y-75764289D01*
X150822171Y-75753797D01*
X150885956Y-75782316D01*
X150924196Y-75840792D01*
X150929500Y-75876671D01*
X150929500Y-75917060D01*
X150909815Y-75984099D01*
X150893181Y-76004741D01*
X150557738Y-76340184D01*
X150507729Y-76390193D01*
X150430183Y-76467738D01*
X150420709Y-76482816D01*
X150403398Y-76504522D01*
X148764741Y-78143181D01*
X148703418Y-78176666D01*
X148677060Y-78179500D01*
X145720195Y-78179500D01*
X145539806Y-78179500D01*
X145532334Y-78181205D01*
X145502478Y-78188018D01*
X145488781Y-78190345D01*
X145450743Y-78194632D01*
X145414621Y-78207271D01*
X145401269Y-78211118D01*
X145363935Y-78219641D01*
X145329440Y-78236251D01*
X145316605Y-78241568D01*
X145280480Y-78254210D01*
X145280476Y-78254212D01*
X145248067Y-78274575D01*
X145235903Y-78281297D01*
X145201417Y-78297905D01*
X145201412Y-78297908D01*
X145171486Y-78321773D01*
X145160151Y-78329816D01*
X145127738Y-78350183D01*
X145063961Y-78413960D01*
X145000184Y-78477738D01*
X145000182Y-78477740D01*
X143778412Y-79699508D01*
X143763617Y-79712145D01*
X143624588Y-79813156D01*
X143508477Y-79942112D01*
X143421712Y-80092391D01*
X143368093Y-80257420D01*
X143368092Y-80257424D01*
X143349953Y-80430000D01*
X143353498Y-80463732D01*
X143359154Y-80517538D01*
X143346585Y-80586268D01*
X143298853Y-80637292D01*
X143235833Y-80654500D01*
X143083236Y-80654500D01*
X143053483Y-80660824D01*
X142913501Y-80690577D01*
X142913496Y-80690579D01*
X142754977Y-80761157D01*
X142754972Y-80761160D01*
X142614591Y-80863153D01*
X142614589Y-80863155D01*
X142498477Y-80992112D01*
X142411712Y-81142391D01*
X142358093Y-81307420D01*
X142358092Y-81307424D01*
X142339953Y-81480000D01*
X142358092Y-81652576D01*
X142358093Y-81652579D01*
X142411712Y-81817608D01*
X142498477Y-81967887D01*
X142498476Y-81967887D01*
X142571382Y-82048857D01*
X142614590Y-82096845D01*
X142663764Y-82132572D01*
X142754976Y-82198842D01*
X142913495Y-82269420D01*
X142913501Y-82269422D01*
X143083236Y-82305500D01*
X143083237Y-82305500D01*
X143256762Y-82305500D01*
X143256764Y-82305500D01*
X143426499Y-82269422D01*
X143426501Y-82269420D01*
X143426504Y-82269420D01*
X143458608Y-82255125D01*
X143585024Y-82198842D01*
X143603350Y-82185526D01*
X143669153Y-82162046D01*
X143737207Y-82177869D01*
X143749114Y-82185521D01*
X143794976Y-82218842D01*
X143854851Y-82245500D01*
X143953495Y-82289420D01*
X143953501Y-82289422D01*
X144123236Y-82325500D01*
X144123237Y-82325500D01*
X144296762Y-82325500D01*
X144296764Y-82325500D01*
X144466499Y-82289422D01*
X144466501Y-82289420D01*
X144466504Y-82289420D01*
X144565149Y-82245500D01*
X144625024Y-82218842D01*
X144765410Y-82116845D01*
X144881522Y-81987889D01*
X144968286Y-81837611D01*
X145021908Y-81672576D01*
X145040047Y-81500000D01*
X145021908Y-81327424D01*
X144968286Y-81162389D01*
X144922099Y-81082391D01*
X144878273Y-81006483D01*
X144879428Y-81005815D01*
X144858346Y-80946714D01*
X144874175Y-80878661D01*
X144874630Y-80877863D01*
X144880703Y-80867345D01*
X144900400Y-80841676D01*
X145925258Y-79816819D01*
X145986581Y-79783334D01*
X146012939Y-79780500D01*
X149150194Y-79780500D01*
X149187517Y-79771981D01*
X149201211Y-79769654D01*
X149239255Y-79765368D01*
X149275392Y-79752722D01*
X149288726Y-79748881D01*
X149326061Y-79740360D01*
X149360561Y-79723745D01*
X149373398Y-79718429D01*
X149398279Y-79709723D01*
X149409522Y-79705789D01*
X149441939Y-79685419D01*
X149454103Y-79678697D01*
X149488587Y-79662091D01*
X149518515Y-79638222D01*
X149529847Y-79630182D01*
X149562262Y-79609816D01*
X149689816Y-79482262D01*
X151657826Y-77514252D01*
X151689816Y-77482262D01*
X151699290Y-77467182D01*
X151716599Y-77445478D01*
X152327826Y-76834252D01*
X152359816Y-76802262D01*
X152380182Y-76769847D01*
X152388222Y-76758515D01*
X152412091Y-76728587D01*
X152428698Y-76694100D01*
X152435419Y-76681939D01*
X152455789Y-76649522D01*
X152468429Y-76613397D01*
X152473745Y-76600561D01*
X152490360Y-76566061D01*
X152498881Y-76528726D01*
X152502722Y-76515392D01*
X152515368Y-76479255D01*
X152519654Y-76441211D01*
X152521982Y-76427512D01*
X152530500Y-76390194D01*
X152530500Y-76209806D01*
X152530500Y-73375046D01*
X152530500Y-73329806D01*
X152521980Y-73292479D01*
X152519654Y-73278790D01*
X152515368Y-73240745D01*
X152511125Y-73228619D01*
X152502725Y-73204612D01*
X152498876Y-73191249D01*
X152490360Y-73153939D01*
X152473748Y-73119442D01*
X152468433Y-73106613D01*
X152455789Y-73070478D01*
X152455786Y-73070473D01*
X152455785Y-73070470D01*
X152435425Y-73038067D01*
X152428699Y-73025899D01*
X152412092Y-72991414D01*
X152408956Y-72987482D01*
X152388224Y-72961483D01*
X152380178Y-72950143D01*
X152359819Y-72917742D01*
X152359817Y-72917739D01*
X151648557Y-72206479D01*
X151615072Y-72145156D01*
X151612710Y-72107995D01*
X151625659Y-71960000D01*
X151605063Y-71724592D01*
X151543903Y-71496337D01*
X151444035Y-71282171D01*
X151422563Y-71251506D01*
X151308496Y-71088600D01*
X151259896Y-71040000D01*
X151186567Y-70966671D01*
X151153084Y-70905351D01*
X151158068Y-70835659D01*
X151199939Y-70779725D01*
X151230915Y-70762810D01*
X151362331Y-70713796D01*
X151477546Y-70627546D01*
X151563796Y-70512331D01*
X151614091Y-70377483D01*
X151620500Y-70317873D01*
X151620499Y-68522128D01*
X151614091Y-68462517D01*
X151603804Y-68434937D01*
X151563797Y-68327671D01*
X151563793Y-68327664D01*
X151477547Y-68212455D01*
X151477544Y-68212452D01*
X151362335Y-68126206D01*
X151362328Y-68126202D01*
X151227482Y-68075908D01*
X151227483Y-68075908D01*
X151167883Y-68069501D01*
X151167881Y-68069500D01*
X151167873Y-68069500D01*
X151167864Y-68069500D01*
X149372129Y-68069500D01*
X149372123Y-68069501D01*
X149312516Y-68075908D01*
X149177671Y-68126202D01*
X149177664Y-68126206D01*
X149062455Y-68212452D01*
X149062452Y-68212455D01*
X148976206Y-68327664D01*
X148976202Y-68327671D01*
X148925908Y-68462517D01*
X148919501Y-68522116D01*
X148919501Y-68522123D01*
X148919500Y-68522135D01*
X148919500Y-68595500D01*
X148899815Y-68662539D01*
X148847011Y-68708294D01*
X148795500Y-68719500D01*
X145378342Y-68719500D01*
X145311303Y-68699815D01*
X145265548Y-68647011D01*
X145255604Y-68577853D01*
X145260409Y-68557189D01*
X145261908Y-68552576D01*
X145280047Y-68380000D01*
X145261908Y-68207424D01*
X145208286Y-68042389D01*
X145121522Y-67892111D01*
X145116131Y-67886123D01*
X145005411Y-67763156D01*
X145002607Y-67761119D01*
X144866377Y-67662141D01*
X144851582Y-67649504D01*
X144442262Y-67240184D01*
X144442259Y-67240182D01*
X144409849Y-67219817D01*
X144398510Y-67211771D01*
X144368589Y-67187910D01*
X144334093Y-67171296D01*
X144321927Y-67164572D01*
X144289524Y-67144212D01*
X144289525Y-67144212D01*
X144282652Y-67141807D01*
X144253393Y-67131568D01*
X144240554Y-67126250D01*
X144206061Y-67109639D01*
X144168735Y-67101119D01*
X144155380Y-67097271D01*
X144119260Y-67084633D01*
X144119256Y-67084632D01*
X144119255Y-67084632D01*
X144101139Y-67082590D01*
X144081217Y-67080345D01*
X144067518Y-67078017D01*
X144030200Y-67069501D01*
X144030196Y-67069500D01*
X144030194Y-67069500D01*
X144030191Y-67069500D01*
X139457367Y-67069500D01*
X139390328Y-67049815D01*
X139365217Y-67028472D01*
X139315411Y-66973156D01*
X139175023Y-66871157D01*
X139016504Y-66800579D01*
X139016498Y-66800577D01*
X138882841Y-66772168D01*
X138846764Y-66764500D01*
X138673236Y-66764500D01*
X138643483Y-66770824D01*
X138503501Y-66800577D01*
X138503496Y-66800579D01*
X138344977Y-66871157D01*
X138344972Y-66871160D01*
X138204591Y-66973153D01*
X138204589Y-66973155D01*
X138088477Y-67102112D01*
X138001712Y-67252391D01*
X137948093Y-67417420D01*
X137948092Y-67417424D01*
X137929953Y-67590000D01*
X137937281Y-67659723D01*
X137948093Y-67762582D01*
X137949432Y-67768883D01*
X137951359Y-67808533D01*
X137945807Y-67857827D01*
X137944435Y-67870004D01*
X137964630Y-68049249D01*
X137964631Y-68049254D01*
X138024211Y-68219523D01*
X138120184Y-68372262D01*
X138252662Y-68504740D01*
X138251390Y-68506011D01*
X138286295Y-68555740D01*
X138289145Y-68625552D01*
X138253800Y-68685822D01*
X138191482Y-68717416D01*
X138168842Y-68719500D01*
X136731518Y-68719500D01*
X136664479Y-68699815D01*
X136643837Y-68683181D01*
X135972940Y-68012283D01*
X135967805Y-68006828D01*
X135927929Y-67961816D01*
X135927924Y-67961812D01*
X135878438Y-67927655D01*
X135872403Y-67923215D01*
X135825060Y-67886124D01*
X135825055Y-67886120D01*
X135815813Y-67881961D01*
X135796266Y-67870936D01*
X135787931Y-67865183D01*
X135787932Y-67865183D01*
X135787930Y-67865182D01*
X135731694Y-67843854D01*
X135724790Y-67840994D01*
X135669932Y-67816305D01*
X135669930Y-67816304D01*
X135659946Y-67814474D01*
X135638343Y-67808451D01*
X135628874Y-67804860D01*
X135628871Y-67804859D01*
X135569171Y-67797610D01*
X135561770Y-67796483D01*
X135502609Y-67785642D01*
X135502603Y-67785642D01*
X135442567Y-67789274D01*
X135435079Y-67789500D01*
X130994465Y-67789500D01*
X130927426Y-67769815D01*
X130881671Y-67717011D01*
X130871727Y-67647853D01*
X130874690Y-67633407D01*
X130913224Y-67489592D01*
X130925063Y-67445408D01*
X130945659Y-67210000D01*
X130925063Y-66974592D01*
X130863903Y-66746337D01*
X130764035Y-66532171D01*
X130758241Y-66523895D01*
X130628494Y-66338597D01*
X130560610Y-66270713D01*
X135880000Y-66270713D01*
X135895418Y-66422338D01*
X135956299Y-66616381D01*
X135956304Y-66616391D01*
X136055005Y-66794215D01*
X136055005Y-66794216D01*
X136187478Y-66948530D01*
X136187479Y-66948531D01*
X136348304Y-67073018D01*
X136530907Y-67162589D01*
X136630000Y-67188244D01*
X136630000Y-66386110D01*
X136654457Y-66425610D01*
X136743962Y-66493201D01*
X136851840Y-66523895D01*
X136963521Y-66513546D01*
X137063922Y-66463552D01*
X137130000Y-66391069D01*
X137130000Y-67193366D01*
X137131944Y-67193069D01*
X137131945Y-67193069D01*
X137322660Y-67122436D01*
X137322664Y-67122434D01*
X137495267Y-67014850D01*
X137642668Y-66874735D01*
X137642669Y-66874733D01*
X137758856Y-66707804D01*
X137839059Y-66520907D01*
X137880000Y-66321690D01*
X137880000Y-65770384D01*
X137899685Y-65703345D01*
X137952489Y-65657590D01*
X138021647Y-65647646D01*
X138051454Y-65655823D01*
X138159764Y-65700687D01*
X138272280Y-65715500D01*
X138272287Y-65715500D01*
X138347713Y-65715500D01*
X138347720Y-65715500D01*
X138460236Y-65700687D01*
X138600233Y-65642698D01*
X138720451Y-65550451D01*
X138812698Y-65430233D01*
X138870687Y-65290236D01*
X138890466Y-65140000D01*
X143509534Y-65140000D01*
X143529312Y-65290234D01*
X143529313Y-65290236D01*
X143587302Y-65430233D01*
X143679549Y-65550451D01*
X143799767Y-65642698D01*
X143939764Y-65700687D01*
X144052280Y-65715500D01*
X144052287Y-65715500D01*
X144127713Y-65715500D01*
X144127720Y-65715500D01*
X144240236Y-65700687D01*
X144348547Y-65655823D01*
X144418017Y-65648354D01*
X144480496Y-65679629D01*
X144516148Y-65739718D01*
X144520000Y-65770384D01*
X144520000Y-66270713D01*
X144535418Y-66422338D01*
X144596299Y-66616381D01*
X144596304Y-66616391D01*
X144695005Y-66794215D01*
X144695005Y-66794216D01*
X144827478Y-66948530D01*
X144827479Y-66948531D01*
X144988304Y-67073018D01*
X145170907Y-67162589D01*
X145270000Y-67188244D01*
X145270000Y-66386110D01*
X145294457Y-66425610D01*
X145383962Y-66493201D01*
X145491840Y-66523895D01*
X145603521Y-66513546D01*
X145703922Y-66463552D01*
X145770000Y-66391069D01*
X145770000Y-67193366D01*
X145771944Y-67193069D01*
X145771945Y-67193069D01*
X145962660Y-67122436D01*
X145962664Y-67122434D01*
X146135267Y-67014850D01*
X146282668Y-66874735D01*
X146282669Y-66874733D01*
X146398856Y-66707804D01*
X146479059Y-66520907D01*
X146520000Y-66321690D01*
X146520000Y-65920000D01*
X145820000Y-65920000D01*
X145820000Y-65420000D01*
X146520000Y-65420000D01*
X146520000Y-65069286D01*
X146504581Y-64917661D01*
X146443700Y-64723618D01*
X146443695Y-64723608D01*
X146344994Y-64545784D01*
X146344994Y-64545783D01*
X146212521Y-64391469D01*
X146212520Y-64391468D01*
X146051695Y-64266981D01*
X145869093Y-64177411D01*
X145770000Y-64151753D01*
X145770000Y-64953889D01*
X145745543Y-64914390D01*
X145656038Y-64846799D01*
X145548160Y-64816105D01*
X145436479Y-64826454D01*
X145336078Y-64876448D01*
X145270000Y-64948930D01*
X145270000Y-64146633D01*
X145268053Y-64146931D01*
X145268047Y-64146933D01*
X145077342Y-64217562D01*
X145077335Y-64217565D01*
X144904732Y-64325149D01*
X144757331Y-64465264D01*
X144757330Y-64465266D01*
X144641142Y-64632197D01*
X144641140Y-64632200D01*
X144637760Y-64640078D01*
X144593232Y-64693921D01*
X144526663Y-64715142D01*
X144459189Y-64697005D01*
X144448332Y-64689556D01*
X144380233Y-64637302D01*
X144380232Y-64637301D01*
X144380230Y-64637300D01*
X144285618Y-64598111D01*
X144240236Y-64579313D01*
X144226171Y-64577461D01*
X144127727Y-64564500D01*
X144127720Y-64564500D01*
X144052280Y-64564500D01*
X144052272Y-64564500D01*
X143939764Y-64579313D01*
X143939763Y-64579313D01*
X143799770Y-64637300D01*
X143799767Y-64637301D01*
X143799767Y-64637302D01*
X143679549Y-64729549D01*
X143589580Y-64846799D01*
X143587300Y-64849770D01*
X143529313Y-64989763D01*
X143529312Y-64989765D01*
X143509534Y-65139999D01*
X143509534Y-65140000D01*
X138890466Y-65140000D01*
X138889608Y-65133486D01*
X138870687Y-64989765D01*
X138870687Y-64989764D01*
X138812698Y-64849767D01*
X138720451Y-64729549D01*
X138600233Y-64637302D01*
X138600229Y-64637300D01*
X138505618Y-64598111D01*
X138460236Y-64579313D01*
X138446171Y-64577461D01*
X138347727Y-64564500D01*
X138347720Y-64564500D01*
X138272280Y-64564500D01*
X138272272Y-64564500D01*
X138159764Y-64579313D01*
X138159763Y-64579313D01*
X138019769Y-64637300D01*
X137997821Y-64654142D01*
X137948743Y-64691800D01*
X137883575Y-64716994D01*
X137815131Y-64702956D01*
X137765141Y-64654142D01*
X137764839Y-64653602D01*
X137704994Y-64545784D01*
X137704994Y-64545783D01*
X137572521Y-64391469D01*
X137572520Y-64391468D01*
X137411695Y-64266981D01*
X137229093Y-64177411D01*
X137130000Y-64151753D01*
X137130000Y-64953889D01*
X137105543Y-64914390D01*
X137016038Y-64846799D01*
X136908160Y-64816105D01*
X136796479Y-64826454D01*
X136696078Y-64876448D01*
X136630000Y-64948930D01*
X136630000Y-64146633D01*
X136628053Y-64146931D01*
X136628047Y-64146933D01*
X136437342Y-64217562D01*
X136437335Y-64217565D01*
X136264732Y-64325149D01*
X136117331Y-64465264D01*
X136117330Y-64465266D01*
X136001143Y-64632195D01*
X135920940Y-64819092D01*
X135880000Y-65018309D01*
X135880000Y-65420000D01*
X136580000Y-65420000D01*
X136580000Y-65920000D01*
X135880000Y-65920000D01*
X135880000Y-66270713D01*
X130560610Y-66270713D01*
X130461402Y-66171506D01*
X130461401Y-66171505D01*
X130275405Y-66041269D01*
X130231781Y-65986692D01*
X130224588Y-65917193D01*
X130256110Y-65854839D01*
X130275405Y-65838119D01*
X130461082Y-65708105D01*
X130628105Y-65541082D01*
X130763600Y-65347578D01*
X130863429Y-65133492D01*
X130863432Y-65133486D01*
X130920636Y-64920000D01*
X130023686Y-64920000D01*
X130049493Y-64879844D01*
X130090000Y-64741889D01*
X130090000Y-64598111D01*
X130049493Y-64460156D01*
X130023686Y-64420000D01*
X130920636Y-64420000D01*
X130920635Y-64419999D01*
X130863432Y-64206513D01*
X130863429Y-64206507D01*
X130763600Y-63992422D01*
X130763599Y-63992420D01*
X130628113Y-63798926D01*
X130628108Y-63798920D01*
X130506053Y-63676865D01*
X130472568Y-63615542D01*
X130477552Y-63545850D01*
X130519424Y-63489917D01*
X130550400Y-63473002D01*
X130604665Y-63452763D01*
X148473787Y-63452763D01*
X148503413Y-63722013D01*
X148503415Y-63722024D01*
X148571926Y-63984082D01*
X148571928Y-63984088D01*
X148677870Y-64233390D01*
X148749998Y-64351575D01*
X148818979Y-64464605D01*
X148818986Y-64464615D01*
X148992253Y-64672819D01*
X148992259Y-64672824D01*
X149069341Y-64741889D01*
X149193998Y-64853582D01*
X149419910Y-65003044D01*
X149665176Y-65118020D01*
X149665183Y-65118022D01*
X149665185Y-65118023D01*
X149924557Y-65196057D01*
X149924564Y-65196058D01*
X149924569Y-65196060D01*
X150192561Y-65235500D01*
X150192566Y-65235500D01*
X150395629Y-65235500D01*
X150395631Y-65235500D01*
X150395636Y-65235499D01*
X150395648Y-65235499D01*
X150433191Y-65232750D01*
X150598156Y-65220677D01*
X150710758Y-65195593D01*
X150862546Y-65161782D01*
X150862548Y-65161781D01*
X150862553Y-65161780D01*
X151115558Y-65065014D01*
X151351777Y-64932441D01*
X151566177Y-64766888D01*
X151754186Y-64571881D01*
X151911799Y-64351579D01*
X151986474Y-64206335D01*
X152035649Y-64110690D01*
X152035651Y-64110684D01*
X152035656Y-64110675D01*
X152123118Y-63854305D01*
X152172319Y-63587933D01*
X152182212Y-63317235D01*
X152152586Y-63047982D01*
X152084072Y-62785912D01*
X151978130Y-62536610D01*
X151837018Y-62305390D01*
X151747747Y-62198119D01*
X151663746Y-62097180D01*
X151663740Y-62097175D01*
X151462002Y-61916418D01*
X151236092Y-61766957D01*
X151236090Y-61766956D01*
X150990824Y-61651980D01*
X150990819Y-61651978D01*
X150990814Y-61651976D01*
X150731442Y-61573942D01*
X150731428Y-61573939D01*
X150615791Y-61556921D01*
X150463439Y-61534500D01*
X150260369Y-61534500D01*
X150260351Y-61534500D01*
X150057844Y-61549323D01*
X150057831Y-61549325D01*
X149793453Y-61608217D01*
X149793446Y-61608220D01*
X149540439Y-61704987D01*
X149304226Y-61837557D01*
X149304224Y-61837558D01*
X149304223Y-61837559D01*
X149293188Y-61846080D01*
X149089822Y-62003112D01*
X148901822Y-62198109D01*
X148901816Y-62198116D01*
X148744202Y-62418419D01*
X148744199Y-62418424D01*
X148620350Y-62659309D01*
X148620343Y-62659327D01*
X148532884Y-62915685D01*
X148532881Y-62915699D01*
X148483681Y-63182068D01*
X148483680Y-63182075D01*
X148473787Y-63452763D01*
X130604665Y-63452763D01*
X130682331Y-63423796D01*
X130797546Y-63337546D01*
X130883796Y-63222331D01*
X130934091Y-63087483D01*
X130940500Y-63027873D01*
X130940499Y-61840713D01*
X135880000Y-61840713D01*
X135895418Y-61992338D01*
X135956299Y-62186381D01*
X135956304Y-62186391D01*
X136055005Y-62364215D01*
X136055005Y-62364216D01*
X136187478Y-62518530D01*
X136187479Y-62518531D01*
X136348304Y-62643018D01*
X136530907Y-62732589D01*
X136630000Y-62758244D01*
X136630000Y-61956110D01*
X136654457Y-61995610D01*
X136743962Y-62063201D01*
X136851840Y-62093895D01*
X136963521Y-62083546D01*
X137063922Y-62033552D01*
X137130000Y-61961069D01*
X137130000Y-62763365D01*
X137131944Y-62763069D01*
X137131945Y-62763069D01*
X137322660Y-62692436D01*
X137322664Y-62692434D01*
X137495267Y-62584850D01*
X137642668Y-62444735D01*
X137642669Y-62444733D01*
X137758856Y-62277804D01*
X137839059Y-62090907D01*
X137880000Y-61891690D01*
X137880000Y-61840713D01*
X144520000Y-61840713D01*
X144535418Y-61992338D01*
X144596299Y-62186381D01*
X144596304Y-62186391D01*
X144695005Y-62364215D01*
X144695005Y-62364216D01*
X144827478Y-62518530D01*
X144827479Y-62518531D01*
X144988304Y-62643018D01*
X145170907Y-62732589D01*
X145270000Y-62758244D01*
X145270000Y-61956110D01*
X145294457Y-61995610D01*
X145383962Y-62063201D01*
X145491840Y-62093895D01*
X145603521Y-62083546D01*
X145703922Y-62033552D01*
X145770000Y-61961069D01*
X145770000Y-62763366D01*
X145771944Y-62763069D01*
X145771945Y-62763069D01*
X145962660Y-62692436D01*
X145962664Y-62692434D01*
X146135267Y-62584850D01*
X146282668Y-62444735D01*
X146282669Y-62444733D01*
X146398856Y-62277804D01*
X146479059Y-62090907D01*
X146520000Y-61891690D01*
X146520000Y-61740000D01*
X145820000Y-61740000D01*
X145820000Y-61240000D01*
X146520000Y-61240000D01*
X146520000Y-61139286D01*
X146504581Y-60987661D01*
X146443700Y-60793618D01*
X146443695Y-60793608D01*
X146344994Y-60615784D01*
X146344994Y-60615783D01*
X146212521Y-60461469D01*
X146212520Y-60461468D01*
X146051695Y-60336981D01*
X145869093Y-60247411D01*
X145770000Y-60221753D01*
X145770000Y-61023889D01*
X145745543Y-60984390D01*
X145656038Y-60916799D01*
X145548160Y-60886105D01*
X145436479Y-60896454D01*
X145336078Y-60946448D01*
X145270000Y-61018930D01*
X145270000Y-60216633D01*
X145268053Y-60216931D01*
X145268047Y-60216933D01*
X145077342Y-60287562D01*
X145077335Y-60287565D01*
X144904732Y-60395149D01*
X144757331Y-60535264D01*
X144757330Y-60535266D01*
X144641143Y-60702195D01*
X144560940Y-60889092D01*
X144520000Y-61088309D01*
X144520000Y-61240000D01*
X145220000Y-61240000D01*
X145220000Y-61740000D01*
X144520000Y-61740000D01*
X144520000Y-61840713D01*
X137880000Y-61840713D01*
X137880000Y-61740000D01*
X137180000Y-61740000D01*
X137180000Y-61240000D01*
X137880000Y-61240000D01*
X137880000Y-61139286D01*
X137864581Y-60987661D01*
X137803700Y-60793618D01*
X137803695Y-60793608D01*
X137704994Y-60615784D01*
X137704994Y-60615783D01*
X137572521Y-60461469D01*
X137572520Y-60461468D01*
X137411695Y-60336981D01*
X137229093Y-60247411D01*
X137130000Y-60221753D01*
X137130000Y-61023889D01*
X137105543Y-60984390D01*
X137016038Y-60916799D01*
X136908160Y-60886105D01*
X136796479Y-60896454D01*
X136696078Y-60946448D01*
X136630000Y-61018930D01*
X136630000Y-60216633D01*
X136628053Y-60216931D01*
X136628047Y-60216933D01*
X136437342Y-60287562D01*
X136437335Y-60287565D01*
X136264732Y-60395149D01*
X136117331Y-60535264D01*
X136117330Y-60535266D01*
X136001143Y-60702195D01*
X135920940Y-60889092D01*
X135880000Y-61088309D01*
X135880000Y-61240000D01*
X136580000Y-61240000D01*
X136580000Y-61740000D01*
X135880000Y-61740000D01*
X135880000Y-61840713D01*
X130940499Y-61840713D01*
X130940499Y-61232128D01*
X130934091Y-61172517D01*
X130930722Y-61163485D01*
X130883797Y-61037671D01*
X130883793Y-61037664D01*
X130797547Y-60922455D01*
X130797544Y-60922452D01*
X130682335Y-60836206D01*
X130682328Y-60836202D01*
X130547482Y-60785908D01*
X130547483Y-60785908D01*
X130487883Y-60779501D01*
X130487881Y-60779500D01*
X130487873Y-60779500D01*
X130487864Y-60779500D01*
X128692129Y-60779500D01*
X128692123Y-60779501D01*
X128632516Y-60785908D01*
X128497671Y-60836202D01*
X128497664Y-60836206D01*
X128382455Y-60922452D01*
X128382452Y-60922455D01*
X128296206Y-61037664D01*
X128296202Y-61037671D01*
X128245908Y-61172517D01*
X128239501Y-61232116D01*
X128239501Y-61232123D01*
X128239500Y-61232135D01*
X128239500Y-63027870D01*
X128239501Y-63027876D01*
X128245908Y-63087483D01*
X128296202Y-63222328D01*
X128296206Y-63222335D01*
X128382452Y-63337544D01*
X128382455Y-63337547D01*
X128497664Y-63423793D01*
X128497671Y-63423797D01*
X128497674Y-63423798D01*
X128629598Y-63473002D01*
X128685531Y-63514873D01*
X128709949Y-63580337D01*
X128695098Y-63648610D01*
X128673947Y-63676865D01*
X128551886Y-63798926D01*
X128416400Y-63992420D01*
X128416399Y-63992422D01*
X128316570Y-64206507D01*
X128316567Y-64206513D01*
X128259364Y-64419999D01*
X128259364Y-64420000D01*
X129156314Y-64420000D01*
X129130507Y-64460156D01*
X129090000Y-64598111D01*
X129090000Y-64741889D01*
X129130507Y-64879844D01*
X129156314Y-64920000D01*
X128259364Y-64920000D01*
X128316567Y-65133486D01*
X128316570Y-65133492D01*
X128416399Y-65347578D01*
X128551894Y-65541082D01*
X128718917Y-65708105D01*
X128904595Y-65838119D01*
X128948219Y-65892696D01*
X128955412Y-65962195D01*
X128923890Y-66024549D01*
X128904595Y-66041269D01*
X128718594Y-66171508D01*
X128551505Y-66338597D01*
X128415965Y-66532169D01*
X128415964Y-66532171D01*
X128316098Y-66746335D01*
X128316094Y-66746344D01*
X128254938Y-66974586D01*
X128254936Y-66974596D01*
X128234341Y-67209999D01*
X128234341Y-67210000D01*
X128254936Y-67445403D01*
X128254938Y-67445413D01*
X128305310Y-67633407D01*
X128303647Y-67703257D01*
X128264484Y-67761119D01*
X128200255Y-67788623D01*
X128185535Y-67789500D01*
X123154909Y-67789500D01*
X123147422Y-67789274D01*
X123087396Y-67785643D01*
X123087389Y-67785643D01*
X123028243Y-67796481D01*
X123020843Y-67797608D01*
X122961125Y-67804860D01*
X122951642Y-67808456D01*
X122930038Y-67814478D01*
X122928535Y-67814754D01*
X122920065Y-67816306D01*
X122920063Y-67816307D01*
X122865234Y-67840983D01*
X122858319Y-67843848D01*
X122802068Y-67865182D01*
X122793724Y-67870942D01*
X122774183Y-67881964D01*
X122764944Y-67886122D01*
X122764939Y-67886125D01*
X122717594Y-67923216D01*
X122711566Y-67927652D01*
X122662072Y-67961816D01*
X122662064Y-67961823D01*
X122622183Y-68006838D01*
X122617051Y-68012290D01*
X115892032Y-74737309D01*
X115830709Y-74770794D01*
X115761017Y-74765810D01*
X115705084Y-74723938D01*
X115680823Y-74660437D01*
X115675063Y-74594592D01*
X115613903Y-74366337D01*
X115514035Y-74152171D01*
X115475743Y-74097483D01*
X115378494Y-73958597D01*
X115211402Y-73791506D01*
X115211396Y-73791501D01*
X115025842Y-73661575D01*
X114982217Y-73606998D01*
X114975023Y-73537500D01*
X115006546Y-73475145D01*
X115025842Y-73458425D01*
X115137130Y-73380500D01*
X115211401Y-73328495D01*
X115378495Y-73161401D01*
X115514035Y-72967830D01*
X115613903Y-72753663D01*
X115675063Y-72525408D01*
X115695659Y-72290000D01*
X115675063Y-72054592D01*
X115615455Y-71832128D01*
X115613905Y-71826344D01*
X115613904Y-71826343D01*
X115613903Y-71826337D01*
X115514035Y-71612171D01*
X115451216Y-71522455D01*
X115378494Y-71418597D01*
X115211402Y-71251506D01*
X115211396Y-71251501D01*
X115025842Y-71121575D01*
X114982217Y-71066998D01*
X114975023Y-70997500D01*
X115006546Y-70935145D01*
X115025842Y-70918425D01*
X115094793Y-70870145D01*
X115211401Y-70788495D01*
X115378495Y-70621401D01*
X115514035Y-70427830D01*
X115613903Y-70213663D01*
X115675063Y-69985408D01*
X115695659Y-69750000D01*
X115675063Y-69514592D01*
X115619261Y-69306335D01*
X115613905Y-69286344D01*
X115613904Y-69286343D01*
X115613903Y-69286337D01*
X115514035Y-69072171D01*
X115378495Y-68878599D01*
X115378494Y-68878597D01*
X115211402Y-68711506D01*
X115211396Y-68711501D01*
X115025842Y-68581575D01*
X114982217Y-68526998D01*
X114975023Y-68457500D01*
X115006546Y-68395145D01*
X115025842Y-68378425D01*
X115123564Y-68309999D01*
X115211401Y-68248495D01*
X115378495Y-68081401D01*
X115514035Y-67887830D01*
X115613903Y-67673663D01*
X115675063Y-67445408D01*
X115695659Y-67210000D01*
X115675063Y-66974592D01*
X115613903Y-66746337D01*
X115514035Y-66532171D01*
X115508241Y-66523895D01*
X115378494Y-66338597D01*
X115211402Y-66171506D01*
X115211396Y-66171501D01*
X115025842Y-66041575D01*
X114982217Y-65986998D01*
X114975023Y-65917500D01*
X115006546Y-65855145D01*
X115025842Y-65838425D01*
X115123014Y-65770384D01*
X115211401Y-65708495D01*
X115378495Y-65541401D01*
X115514035Y-65347830D01*
X115613903Y-65133663D01*
X115675063Y-64905408D01*
X115695659Y-64670000D01*
X115675063Y-64434592D01*
X115621152Y-64233390D01*
X115613905Y-64206344D01*
X115613904Y-64206343D01*
X115613903Y-64206337D01*
X115514035Y-63992171D01*
X115508375Y-63984088D01*
X115378496Y-63798600D01*
X115378495Y-63798599D01*
X115256567Y-63676671D01*
X115223084Y-63615351D01*
X115228068Y-63545659D01*
X115269939Y-63489725D01*
X115300915Y-63472810D01*
X115432331Y-63423796D01*
X115547546Y-63337546D01*
X115633796Y-63222331D01*
X115684091Y-63087483D01*
X115690500Y-63027873D01*
X115690499Y-61232128D01*
X115684091Y-61172517D01*
X115680722Y-61163485D01*
X115633797Y-61037671D01*
X115633793Y-61037664D01*
X115547547Y-60922455D01*
X115547544Y-60922452D01*
X115432335Y-60836206D01*
X115432328Y-60836202D01*
X115297482Y-60785908D01*
X115297483Y-60785908D01*
X115237883Y-60779501D01*
X115237881Y-60779500D01*
X115237873Y-60779500D01*
X115237864Y-60779500D01*
X113442129Y-60779500D01*
X113442123Y-60779501D01*
X113382516Y-60785908D01*
X113247671Y-60836202D01*
X113247664Y-60836206D01*
X113132455Y-60922452D01*
X113132452Y-60922455D01*
X113046206Y-61037664D01*
X113046202Y-61037671D01*
X112995908Y-61172517D01*
X112989501Y-61232116D01*
X112989501Y-61232123D01*
X112989500Y-61232135D01*
X112989500Y-62449191D01*
X112969815Y-62516230D01*
X112953181Y-62536872D01*
X112690483Y-62799569D01*
X112677910Y-62809643D01*
X112678065Y-62809830D01*
X112672058Y-62814799D01*
X112624133Y-62865833D01*
X112621427Y-62868625D01*
X112601090Y-62888963D01*
X112601077Y-62888978D01*
X112598373Y-62892463D01*
X112590806Y-62901322D01*
X112559552Y-62934607D01*
X112549322Y-62953213D01*
X112538646Y-62969464D01*
X112525640Y-62986232D01*
X112525636Y-62986238D01*
X112507508Y-63028130D01*
X112502369Y-63038619D01*
X112480372Y-63078630D01*
X112480372Y-63078631D01*
X112475091Y-63099199D01*
X112468791Y-63117601D01*
X112460364Y-63137073D01*
X112453223Y-63182162D01*
X112450854Y-63193600D01*
X112439500Y-63237817D01*
X112439500Y-63259044D01*
X112437973Y-63278443D01*
X112434653Y-63299405D01*
X112438259Y-63337546D01*
X112438950Y-63344858D01*
X112439500Y-63356528D01*
X112439500Y-66019191D01*
X112419815Y-66086230D01*
X112403181Y-66106872D01*
X109335884Y-69174168D01*
X109274561Y-69207653D01*
X109204869Y-69202669D01*
X109148936Y-69160797D01*
X109135821Y-69138892D01*
X109114035Y-69092172D01*
X109114034Y-69092170D01*
X109114033Y-69092169D01*
X108978495Y-68898599D01*
X108978494Y-68898597D01*
X108811402Y-68731506D01*
X108811395Y-68731501D01*
X108617834Y-68595967D01*
X108617830Y-68595965D01*
X108616833Y-68595500D01*
X108403663Y-68496097D01*
X108403659Y-68496096D01*
X108403655Y-68496094D01*
X108175413Y-68434938D01*
X108175403Y-68434936D01*
X107940001Y-68414341D01*
X107939999Y-68414341D01*
X107704596Y-68434936D01*
X107704586Y-68434938D01*
X107476344Y-68496094D01*
X107476335Y-68496098D01*
X107262171Y-68595964D01*
X107262169Y-68595965D01*
X107068597Y-68731505D01*
X106901505Y-68898597D01*
X106765965Y-69092169D01*
X106765964Y-69092171D01*
X106666098Y-69306335D01*
X106666094Y-69306344D01*
X106604938Y-69534586D01*
X106604936Y-69534596D01*
X106584341Y-69769999D01*
X106584341Y-69770000D01*
X106604936Y-70005403D01*
X106604938Y-70005413D01*
X106666094Y-70233655D01*
X106666096Y-70233659D01*
X106666097Y-70233663D01*
X106705370Y-70317883D01*
X106765962Y-70447824D01*
X106765967Y-70447834D01*
X106901501Y-70641395D01*
X106901506Y-70641402D01*
X107068597Y-70808493D01*
X107068603Y-70808498D01*
X107254158Y-70938425D01*
X107297783Y-70993002D01*
X107304977Y-71062500D01*
X107273454Y-71124855D01*
X107254158Y-71141575D01*
X107068597Y-71271505D01*
X106901505Y-71438597D01*
X106765965Y-71632169D01*
X106765964Y-71632171D01*
X106666098Y-71846335D01*
X106666094Y-71846344D01*
X106604938Y-72074586D01*
X106604936Y-72074596D01*
X106584341Y-72309999D01*
X106584341Y-72310000D01*
X106604936Y-72545403D01*
X106604939Y-72545416D01*
X106624384Y-72617989D01*
X106622721Y-72687839D01*
X106592290Y-72737762D01*
X106340483Y-72989569D01*
X106327910Y-72999643D01*
X106328065Y-72999830D01*
X106322058Y-73004799D01*
X106274133Y-73055833D01*
X106271427Y-73058625D01*
X106251090Y-73078963D01*
X106251077Y-73078978D01*
X106248373Y-73082463D01*
X106240806Y-73091322D01*
X106209552Y-73124607D01*
X106199322Y-73143213D01*
X106188646Y-73159464D01*
X106175640Y-73176232D01*
X106175636Y-73176238D01*
X106157508Y-73218130D01*
X106152369Y-73228619D01*
X106130372Y-73268630D01*
X106130372Y-73268631D01*
X106125091Y-73289199D01*
X106118791Y-73307601D01*
X106110364Y-73327073D01*
X106103223Y-73372162D01*
X106100854Y-73383600D01*
X106089500Y-73427817D01*
X106089500Y-73449044D01*
X106087973Y-73468444D01*
X106084653Y-73489403D01*
X104438500Y-73489403D01*
X104438500Y-68432600D01*
X104458185Y-68365561D01*
X104510989Y-68319806D01*
X104575756Y-68309311D01*
X104582155Y-68309999D01*
X104582172Y-68310000D01*
X104880000Y-68310000D01*
X104880000Y-67334623D01*
X104894505Y-67407545D01*
X104949760Y-67490240D01*
X105032455Y-67545495D01*
X105105376Y-67560000D01*
X105154624Y-67560000D01*
X105380000Y-67560000D01*
X105380000Y-68310000D01*
X105677828Y-68310000D01*
X105677844Y-68309999D01*
X105737372Y-68303598D01*
X105737379Y-68303596D01*
X105872086Y-68253354D01*
X105872093Y-68253350D01*
X105987187Y-68167190D01*
X105987190Y-68167187D01*
X106073350Y-68052093D01*
X106073354Y-68052086D01*
X106123596Y-67917379D01*
X106123598Y-67917372D01*
X106129999Y-67857844D01*
X106130000Y-67857827D01*
X106130000Y-67560000D01*
X105380000Y-67560000D01*
X105154624Y-67560000D01*
X105227545Y-67545495D01*
X105310240Y-67490240D01*
X105365495Y-67407545D01*
X105384898Y-67310000D01*
X105365495Y-67212455D01*
X105310240Y-67129760D01*
X105227545Y-67074505D01*
X105154624Y-67060000D01*
X105105376Y-67060000D01*
X105032455Y-67074505D01*
X104949760Y-67129760D01*
X104894505Y-67212455D01*
X104880000Y-67285376D01*
X104880000Y-66310000D01*
X105380000Y-66310000D01*
X105380000Y-67060000D01*
X106130000Y-67060000D01*
X106130000Y-66762172D01*
X106129999Y-66762155D01*
X106123598Y-66702627D01*
X106123596Y-66702620D01*
X106073354Y-66567913D01*
X106073350Y-66567906D01*
X105987190Y-66452812D01*
X105987187Y-66452809D01*
X105872093Y-66366649D01*
X105872086Y-66366645D01*
X105737379Y-66316403D01*
X105737372Y-66316401D01*
X105677844Y-66310000D01*
X105380000Y-66310000D01*
X104880000Y-66310000D01*
X104582155Y-66310000D01*
X104575756Y-66310689D01*
X104506997Y-66298284D01*
X104455859Y-66250675D01*
X104438500Y-66187400D01*
X104438500Y-63452763D01*
X106093787Y-63452763D01*
X106123413Y-63722013D01*
X106123415Y-63722024D01*
X106191926Y-63984082D01*
X106191928Y-63984088D01*
X106297870Y-64233390D01*
X106369998Y-64351575D01*
X106438979Y-64464605D01*
X106438986Y-64464615D01*
X106612253Y-64672819D01*
X106612259Y-64672824D01*
X106689341Y-64741889D01*
X106813998Y-64853582D01*
X107039910Y-65003044D01*
X107285176Y-65118020D01*
X107285183Y-65118022D01*
X107285185Y-65118023D01*
X107544557Y-65196057D01*
X107544564Y-65196058D01*
X107544569Y-65196060D01*
X107812561Y-65235500D01*
X107812566Y-65235500D01*
X108015629Y-65235500D01*
X108015631Y-65235500D01*
X108015636Y-65235499D01*
X108015648Y-65235499D01*
X108053191Y-65232750D01*
X108218156Y-65220677D01*
X108330758Y-65195593D01*
X108482546Y-65161782D01*
X108482548Y-65161781D01*
X108482553Y-65161780D01*
X108735558Y-65065014D01*
X108971777Y-64932441D01*
X109186177Y-64766888D01*
X109374186Y-64571881D01*
X109531799Y-64351579D01*
X109606474Y-64206335D01*
X109655649Y-64110690D01*
X109655651Y-64110684D01*
X109655656Y-64110675D01*
X109743118Y-63854305D01*
X109792319Y-63587933D01*
X109802212Y-63317235D01*
X109772586Y-63047982D01*
X109704072Y-62785912D01*
X109598130Y-62536610D01*
X109457018Y-62305390D01*
X109367747Y-62198119D01*
X109283746Y-62097180D01*
X109283740Y-62097175D01*
X109082002Y-61916418D01*
X108856092Y-61766957D01*
X108856090Y-61766956D01*
X108610824Y-61651980D01*
X108610819Y-61651978D01*
X108610814Y-61651976D01*
X108351442Y-61573942D01*
X108351428Y-61573939D01*
X108235791Y-61556921D01*
X108083439Y-61534500D01*
X107880369Y-61534500D01*
X107880351Y-61534500D01*
X107677844Y-61549323D01*
X107677831Y-61549325D01*
X107413453Y-61608217D01*
X107413446Y-61608220D01*
X107160439Y-61704987D01*
X106924226Y-61837557D01*
X106924224Y-61837558D01*
X106924223Y-61837559D01*
X106913188Y-61846080D01*
X106709822Y-62003112D01*
X106521822Y-62198109D01*
X106521816Y-62198116D01*
X106364202Y-62418419D01*
X106364199Y-62418424D01*
X106240350Y-62659309D01*
X106240343Y-62659327D01*
X106152884Y-62915685D01*
X106152881Y-62915699D01*
X106103681Y-63182068D01*
X106103680Y-63182075D01*
X106093787Y-63452763D01*
X104438500Y-63452763D01*
X104438500Y-63388051D01*
X104438649Y-63381967D01*
X104445730Y-63237823D01*
X104455100Y-63047088D01*
X104456293Y-63034981D01*
X104457348Y-63027873D01*
X104505040Y-62706354D01*
X104507414Y-62694423D01*
X104520592Y-62641810D01*
X104588142Y-62372136D01*
X104591667Y-62360519D01*
X104703594Y-62047702D01*
X104708239Y-62036487D01*
X104850304Y-61736114D01*
X104856019Y-61725422D01*
X105026830Y-61440442D01*
X105033573Y-61430349D01*
X105231502Y-61163474D01*
X105239205Y-61154089D01*
X105462334Y-60907904D01*
X105470904Y-60899334D01*
X105717089Y-60676205D01*
X105726474Y-60668502D01*
X105993349Y-60470573D01*
X106003442Y-60463830D01*
X106288422Y-60293019D01*
X106299114Y-60287304D01*
X106599487Y-60145239D01*
X106610702Y-60140594D01*
X106923519Y-60028667D01*
X106935136Y-60025142D01*
X107257423Y-59944414D01*
X107269354Y-59942040D01*
X107597984Y-59893292D01*
X107610088Y-59892100D01*
X107944967Y-59875648D01*
X107951051Y-59875500D01*
X107995595Y-59875500D01*
X150280405Y-59875500D01*
X150324949Y-59875500D01*
X150331032Y-59875648D01*
G37*
%TD.AperFunction*%
%TD*%
M02*
