%TF.GenerationSoftware,KiCad,Pcbnew,7.0.10-7.0.10~ubuntu22.04.1*%
%TF.CreationDate,2024-02-13T17:03:35+08:00*%
%TF.ProjectId,motor-controller-pcb,6d6f746f-722d-4636-9f6e-74726f6c6c65,2.1b1*%
%TF.SameCoordinates,Original*%
%TF.FileFunction,Legend,Bot*%
%TF.FilePolarity,Positive*%
%FSLAX46Y46*%
G04 Gerber Fmt 4.6, Leading zero omitted, Abs format (unit mm)*
G04 Created by KiCad (PCBNEW 7.0.10-7.0.10~ubuntu22.04.1) date 2024-02-13 17:03:35*
%MOMM*%
%LPD*%
G01*
G04 APERTURE LIST*
%ADD10C,0.150000*%
%ADD11C,0.300000*%
%ADD12C,0.250000*%
G04 APERTURE END LIST*
D10*
X148558458Y-109939819D02*
X147939411Y-109939819D01*
X147939411Y-109939819D02*
X148272744Y-110320771D01*
X148272744Y-110320771D02*
X148129887Y-110320771D01*
X148129887Y-110320771D02*
X148034649Y-110368390D01*
X148034649Y-110368390D02*
X147987030Y-110416009D01*
X147987030Y-110416009D02*
X147939411Y-110511247D01*
X147939411Y-110511247D02*
X147939411Y-110749342D01*
X147939411Y-110749342D02*
X147987030Y-110844580D01*
X147987030Y-110844580D02*
X148034649Y-110892200D01*
X148034649Y-110892200D02*
X148129887Y-110939819D01*
X148129887Y-110939819D02*
X148415601Y-110939819D01*
X148415601Y-110939819D02*
X148510839Y-110892200D01*
X148510839Y-110892200D02*
X148558458Y-110844580D01*
X147653696Y-109939819D02*
X147320363Y-110939819D01*
X147320363Y-110939819D02*
X146987030Y-109939819D01*
X146748934Y-109939819D02*
X146129887Y-109939819D01*
X146129887Y-109939819D02*
X146463220Y-110320771D01*
X146463220Y-110320771D02*
X146320363Y-110320771D01*
X146320363Y-110320771D02*
X146225125Y-110368390D01*
X146225125Y-110368390D02*
X146177506Y-110416009D01*
X146177506Y-110416009D02*
X146129887Y-110511247D01*
X146129887Y-110511247D02*
X146129887Y-110749342D01*
X146129887Y-110749342D02*
X146177506Y-110844580D01*
X146177506Y-110844580D02*
X146225125Y-110892200D01*
X146225125Y-110892200D02*
X146320363Y-110939819D01*
X146320363Y-110939819D02*
X146606077Y-110939819D01*
X146606077Y-110939819D02*
X146701315Y-110892200D01*
X146701315Y-110892200D02*
X146748934Y-110844580D01*
X117869411Y-127717438D02*
X117964649Y-127669819D01*
X117964649Y-127669819D02*
X118107506Y-127669819D01*
X118107506Y-127669819D02*
X118250363Y-127717438D01*
X118250363Y-127717438D02*
X118345601Y-127812676D01*
X118345601Y-127812676D02*
X118393220Y-127907914D01*
X118393220Y-127907914D02*
X118440839Y-128098390D01*
X118440839Y-128098390D02*
X118440839Y-128241247D01*
X118440839Y-128241247D02*
X118393220Y-128431723D01*
X118393220Y-128431723D02*
X118345601Y-128526961D01*
X118345601Y-128526961D02*
X118250363Y-128622200D01*
X118250363Y-128622200D02*
X118107506Y-128669819D01*
X118107506Y-128669819D02*
X118012268Y-128669819D01*
X118012268Y-128669819D02*
X117869411Y-128622200D01*
X117869411Y-128622200D02*
X117821792Y-128574580D01*
X117821792Y-128574580D02*
X117821792Y-128241247D01*
X117821792Y-128241247D02*
X118012268Y-128241247D01*
X117393220Y-128669819D02*
X117393220Y-127669819D01*
X117393220Y-127669819D02*
X116821792Y-128669819D01*
X116821792Y-128669819D02*
X116821792Y-127669819D01*
X116345601Y-128669819D02*
X116345601Y-127669819D01*
X116345601Y-127669819D02*
X116107506Y-127669819D01*
X116107506Y-127669819D02*
X115964649Y-127717438D01*
X115964649Y-127717438D02*
X115869411Y-127812676D01*
X115869411Y-127812676D02*
X115821792Y-127907914D01*
X115821792Y-127907914D02*
X115774173Y-128098390D01*
X115774173Y-128098390D02*
X115774173Y-128241247D01*
X115774173Y-128241247D02*
X115821792Y-128431723D01*
X115821792Y-128431723D02*
X115869411Y-128526961D01*
X115869411Y-128526961D02*
X115964649Y-128622200D01*
X115964649Y-128622200D02*
X116107506Y-128669819D01*
X116107506Y-128669819D02*
X116345601Y-128669819D01*
X111550839Y-77644104D02*
X111074649Y-77644104D01*
X111646077Y-77929819D02*
X111312744Y-76929819D01*
X111312744Y-76929819D02*
X110979411Y-77929819D01*
X110741315Y-76929819D02*
X110122268Y-76929819D01*
X110122268Y-76929819D02*
X110455601Y-77310771D01*
X110455601Y-77310771D02*
X110312744Y-77310771D01*
X110312744Y-77310771D02*
X110217506Y-77358390D01*
X110217506Y-77358390D02*
X110169887Y-77406009D01*
X110169887Y-77406009D02*
X110122268Y-77501247D01*
X110122268Y-77501247D02*
X110122268Y-77739342D01*
X110122268Y-77739342D02*
X110169887Y-77834580D01*
X110169887Y-77834580D02*
X110217506Y-77882200D01*
X110217506Y-77882200D02*
X110312744Y-77929819D01*
X110312744Y-77929819D02*
X110598458Y-77929819D01*
X110598458Y-77929819D02*
X110693696Y-77882200D01*
X110693696Y-77882200D02*
X110741315Y-77834580D01*
D11*
G36*
X122418821Y-85859638D02*
G01*
X121842326Y-85859638D01*
X121705294Y-85791122D01*
X121644480Y-85730307D01*
X121575964Y-85593275D01*
X121575964Y-85378381D01*
X121644480Y-85241349D01*
X121697468Y-85188361D01*
X121926494Y-85112019D01*
X122418821Y-85112019D01*
X122418821Y-85859638D01*
G37*
G36*
X122418821Y-84812019D02*
G01*
X121937565Y-84812019D01*
X121800531Y-84743501D01*
X121739718Y-84682688D01*
X121671202Y-84545656D01*
X121671202Y-84426000D01*
X121739718Y-84288968D01*
X121800532Y-84228154D01*
X121937564Y-84159638D01*
X122418821Y-84159638D01*
X122418821Y-84812019D01*
G37*
G36*
X135408327Y-85288209D02*
G01*
X134872174Y-85288209D01*
X135140250Y-84483979D01*
X135408327Y-85288209D01*
G37*
G36*
X138052155Y-86445352D02*
G01*
X120990250Y-86445352D01*
X120990250Y-85628685D01*
X121275964Y-85628685D01*
X121284887Y-85661986D01*
X121291800Y-85695767D01*
X121387038Y-85886243D01*
X121403060Y-85904311D01*
X121415135Y-85925226D01*
X121510374Y-86020466D01*
X121531288Y-86032540D01*
X121549358Y-86048564D01*
X121739834Y-86143802D01*
X121773612Y-86150714D01*
X121806916Y-86159638D01*
X122568821Y-86159638D01*
X122643821Y-86139542D01*
X122698725Y-86084638D01*
X122718821Y-86009638D01*
X122718821Y-85628685D01*
X123371202Y-85628685D01*
X123380125Y-85661986D01*
X123387038Y-85695767D01*
X123482276Y-85886243D01*
X123498298Y-85904311D01*
X123510373Y-85925226D01*
X123605612Y-86020466D01*
X123626526Y-86032540D01*
X123644596Y-86048564D01*
X123835072Y-86143802D01*
X123868850Y-86150714D01*
X123902154Y-86159638D01*
X124283107Y-86159638D01*
X124316408Y-86150714D01*
X124350189Y-86143802D01*
X124540665Y-86048564D01*
X124558733Y-86032541D01*
X124579650Y-86020465D01*
X124590477Y-86009638D01*
X125180726Y-86009638D01*
X125200822Y-86084638D01*
X125255726Y-86139542D01*
X125330726Y-86159638D01*
X126283107Y-86159638D01*
X126358107Y-86139542D01*
X126413011Y-86084638D01*
X126433107Y-86009638D01*
X126433107Y-85857983D01*
X126995361Y-85857983D01*
X127034183Y-85925226D01*
X127129422Y-86020466D01*
X127159284Y-86037707D01*
X127188054Y-86056702D01*
X127473768Y-86151940D01*
X127497873Y-86153387D01*
X127521202Y-86159638D01*
X127711678Y-86159638D01*
X127735003Y-86153388D01*
X127759112Y-86151941D01*
X128044827Y-86056703D01*
X128073602Y-86037703D01*
X128103459Y-86020466D01*
X128132229Y-85991696D01*
X130515137Y-85991696D01*
X130526118Y-86068561D01*
X130574060Y-86129638D01*
X130646118Y-86158561D01*
X130722983Y-86147580D01*
X130784060Y-86099638D01*
X131537431Y-85095141D01*
X131656917Y-85214627D01*
X131656917Y-86009638D01*
X131677013Y-86084638D01*
X131731917Y-86139542D01*
X131806917Y-86159638D01*
X131881917Y-86139542D01*
X131936821Y-86084638D01*
X131956917Y-86009638D01*
X131956917Y-85857983D01*
X132519171Y-85857983D01*
X132557993Y-85925226D01*
X132653232Y-86020466D01*
X132683094Y-86037707D01*
X132711864Y-86056702D01*
X132997578Y-86151940D01*
X133021683Y-86153387D01*
X133045012Y-86159638D01*
X133235488Y-86159638D01*
X133258813Y-86153388D01*
X133282922Y-86151941D01*
X133568637Y-86056703D01*
X133594372Y-86039710D01*
X134326629Y-86039710D01*
X134361353Y-86109159D01*
X134426150Y-86151940D01*
X134503656Y-86156593D01*
X134573105Y-86121869D01*
X134615886Y-86057072D01*
X134772174Y-85588209D01*
X135508327Y-85588209D01*
X135664615Y-86057072D01*
X135707396Y-86121869D01*
X135776845Y-86156593D01*
X135854351Y-86151941D01*
X135919148Y-86109159D01*
X135953872Y-86039710D01*
X135952067Y-86009638D01*
X136323584Y-86009638D01*
X136343680Y-86084638D01*
X136398584Y-86139542D01*
X136473584Y-86159638D01*
X136548584Y-86139542D01*
X136603488Y-86084638D01*
X136623584Y-86009638D01*
X136623584Y-85112019D01*
X137466441Y-85112019D01*
X137466441Y-86009638D01*
X137486537Y-86084638D01*
X137541441Y-86139542D01*
X137616441Y-86159638D01*
X137691441Y-86139542D01*
X137746345Y-86084638D01*
X137766441Y-86009638D01*
X137766441Y-84009638D01*
X137746345Y-83934638D01*
X137691441Y-83879734D01*
X137616441Y-83859638D01*
X137541441Y-83879734D01*
X137486537Y-83934638D01*
X137466441Y-84009638D01*
X137466441Y-84812019D01*
X136623584Y-84812019D01*
X136623584Y-84009638D01*
X136603488Y-83934638D01*
X136548584Y-83879734D01*
X136473584Y-83859638D01*
X136398584Y-83879734D01*
X136343680Y-83934638D01*
X136323584Y-84009638D01*
X136323584Y-86009638D01*
X135952067Y-86009638D01*
X135949220Y-85962204D01*
X135282554Y-83962204D01*
X135265952Y-83937059D01*
X135252481Y-83910118D01*
X135244827Y-83905064D01*
X135239772Y-83897408D01*
X135212821Y-83883932D01*
X135187685Y-83867336D01*
X135178529Y-83866786D01*
X135170323Y-83862683D01*
X135140247Y-83864488D01*
X135110179Y-83862683D01*
X135101974Y-83866785D01*
X135092817Y-83867335D01*
X135067674Y-83883935D01*
X135040730Y-83897408D01*
X135035675Y-83905062D01*
X135028021Y-83910117D01*
X135014548Y-83937061D01*
X134997948Y-83962204D01*
X134331282Y-85962204D01*
X134326629Y-86039710D01*
X133594372Y-86039710D01*
X133597412Y-86037703D01*
X133627269Y-86020466D01*
X133817745Y-85829989D01*
X133829819Y-85809074D01*
X133845843Y-85791005D01*
X133941081Y-85600529D01*
X133944401Y-85584304D01*
X133952438Y-85569827D01*
X134047676Y-85188876D01*
X134047364Y-85170372D01*
X134052155Y-85152495D01*
X134052155Y-84866780D01*
X134047364Y-84848902D01*
X134047676Y-84830399D01*
X133952438Y-84449448D01*
X133944401Y-84434970D01*
X133941081Y-84418746D01*
X133845843Y-84228270D01*
X133829819Y-84210200D01*
X133817745Y-84189286D01*
X133627269Y-83998810D01*
X133597412Y-83981572D01*
X133568637Y-83962573D01*
X133282922Y-83867335D01*
X133258813Y-83865887D01*
X133235488Y-83859638D01*
X133045012Y-83859638D01*
X133021683Y-83865888D01*
X132997578Y-83867336D01*
X132711864Y-83962574D01*
X132683094Y-83981568D01*
X132653232Y-83998810D01*
X132557994Y-84094048D01*
X132519171Y-84161291D01*
X132519171Y-84238937D01*
X132557994Y-84306180D01*
X132625237Y-84345003D01*
X132702883Y-84345003D01*
X132770126Y-84306180D01*
X132840326Y-84235980D01*
X133069352Y-84159638D01*
X133211145Y-84159638D01*
X133440176Y-84235981D01*
X133588401Y-84384206D01*
X133665390Y-84538184D01*
X133752155Y-84885244D01*
X133752155Y-85134031D01*
X133665390Y-85481091D01*
X133588400Y-85635069D01*
X133440176Y-85783294D01*
X133211145Y-85859638D01*
X133069352Y-85859638D01*
X132840326Y-85783296D01*
X132770127Y-85713096D01*
X132702884Y-85674272D01*
X132625238Y-85674272D01*
X132557995Y-85713094D01*
X132519171Y-85780337D01*
X132519171Y-85857983D01*
X131956917Y-85857983D01*
X131956917Y-84009638D01*
X131936821Y-83934638D01*
X131881917Y-83879734D01*
X131806917Y-83859638D01*
X131731917Y-83879734D01*
X131677013Y-83934638D01*
X131656917Y-84009638D01*
X131656917Y-84790363D01*
X130770126Y-83903572D01*
X130702883Y-83864749D01*
X130625237Y-83864749D01*
X130557994Y-83903572D01*
X130519171Y-83970815D01*
X130519171Y-84048461D01*
X130557994Y-84115704D01*
X131323146Y-84880856D01*
X130544060Y-85919638D01*
X130515137Y-85991696D01*
X128132229Y-85991696D01*
X128293935Y-85829989D01*
X128306009Y-85809074D01*
X128322033Y-85791005D01*
X128417271Y-85600529D01*
X128420591Y-85584304D01*
X128428628Y-85569827D01*
X128523866Y-85188876D01*
X128523554Y-85170372D01*
X128528345Y-85152495D01*
X128528345Y-84866780D01*
X128523554Y-84848902D01*
X128523866Y-84830399D01*
X128428628Y-84449448D01*
X128420591Y-84434970D01*
X128417271Y-84418746D01*
X128322033Y-84228270D01*
X128306009Y-84210200D01*
X128293935Y-84189286D01*
X128103459Y-83998810D01*
X128073602Y-83981572D01*
X128044827Y-83962573D01*
X127759112Y-83867335D01*
X127735003Y-83865887D01*
X127711678Y-83859638D01*
X127521202Y-83859638D01*
X127497873Y-83865888D01*
X127473768Y-83867336D01*
X127188054Y-83962574D01*
X127159284Y-83981568D01*
X127129422Y-83998810D01*
X127034184Y-84094048D01*
X126995361Y-84161291D01*
X126995361Y-84238937D01*
X127034184Y-84306180D01*
X127101427Y-84345003D01*
X127179073Y-84345003D01*
X127246316Y-84306180D01*
X127316516Y-84235980D01*
X127545542Y-84159638D01*
X127687335Y-84159638D01*
X127916366Y-84235981D01*
X128064591Y-84384206D01*
X128141580Y-84538184D01*
X128228345Y-84885244D01*
X128228345Y-85134031D01*
X128141580Y-85481091D01*
X128064590Y-85635069D01*
X127916366Y-85783294D01*
X127687335Y-85859638D01*
X127545542Y-85859638D01*
X127316516Y-85783296D01*
X127246317Y-85713096D01*
X127179074Y-85674272D01*
X127101428Y-85674272D01*
X127034185Y-85713094D01*
X126995361Y-85780337D01*
X126995361Y-85857983D01*
X126433107Y-85857983D01*
X126433107Y-84009638D01*
X126413011Y-83934638D01*
X126358107Y-83879734D01*
X126283107Y-83859638D01*
X126208107Y-83879734D01*
X126153203Y-83934638D01*
X126133107Y-84009638D01*
X126133107Y-85859638D01*
X125330726Y-85859638D01*
X125255726Y-85879734D01*
X125200822Y-85934638D01*
X125180726Y-86009638D01*
X124590477Y-86009638D01*
X124674888Y-85925226D01*
X124686963Y-85904311D01*
X124702985Y-85886243D01*
X124798223Y-85695767D01*
X124805135Y-85661988D01*
X124814059Y-85628685D01*
X124814059Y-84009638D01*
X124793963Y-83934638D01*
X124739059Y-83879734D01*
X124664059Y-83859638D01*
X124589059Y-83879734D01*
X124534155Y-83934638D01*
X124514059Y-84009638D01*
X124514059Y-85593275D01*
X124445542Y-85730307D01*
X124384728Y-85791122D01*
X124247697Y-85859638D01*
X123937564Y-85859638D01*
X123800532Y-85791122D01*
X123739718Y-85730307D01*
X123671202Y-85593275D01*
X123671202Y-84009638D01*
X123651106Y-83934638D01*
X123596202Y-83879734D01*
X123521202Y-83859638D01*
X123446202Y-83879734D01*
X123391298Y-83934638D01*
X123371202Y-84009638D01*
X123371202Y-85628685D01*
X122718821Y-85628685D01*
X122718821Y-84009638D01*
X122698725Y-83934638D01*
X122643821Y-83879734D01*
X122568821Y-83859638D01*
X121902154Y-83859638D01*
X121868850Y-83868561D01*
X121835072Y-83875474D01*
X121644596Y-83970712D01*
X121626526Y-83986735D01*
X121605612Y-83998810D01*
X121510374Y-84094048D01*
X121498298Y-84114963D01*
X121482276Y-84133032D01*
X121387038Y-84323508D01*
X121380125Y-84357288D01*
X121371202Y-84390590D01*
X121371202Y-84581066D01*
X121380125Y-84614367D01*
X121387038Y-84648148D01*
X121482276Y-84838624D01*
X121498298Y-84856692D01*
X121510374Y-84877608D01*
X121556185Y-84923419D01*
X121540236Y-84933949D01*
X121510374Y-84951191D01*
X121415136Y-85046429D01*
X121403060Y-85067344D01*
X121387038Y-85085413D01*
X121291800Y-85275889D01*
X121284887Y-85309669D01*
X121275964Y-85342971D01*
X121275964Y-85628685D01*
X120990250Y-85628685D01*
X120990250Y-83573924D01*
X138052155Y-83573924D01*
X138052155Y-86445352D01*
G37*
D10*
X111047030Y-69339819D02*
X111523220Y-69339819D01*
X111523220Y-69339819D02*
X111570839Y-69816009D01*
X111570839Y-69816009D02*
X111523220Y-69768390D01*
X111523220Y-69768390D02*
X111427982Y-69720771D01*
X111427982Y-69720771D02*
X111189887Y-69720771D01*
X111189887Y-69720771D02*
X111094649Y-69768390D01*
X111094649Y-69768390D02*
X111047030Y-69816009D01*
X111047030Y-69816009D02*
X110999411Y-69911247D01*
X110999411Y-69911247D02*
X110999411Y-70149342D01*
X110999411Y-70149342D02*
X111047030Y-70244580D01*
X111047030Y-70244580D02*
X111094649Y-70292200D01*
X111094649Y-70292200D02*
X111189887Y-70339819D01*
X111189887Y-70339819D02*
X111427982Y-70339819D01*
X111427982Y-70339819D02*
X111523220Y-70292200D01*
X111523220Y-70292200D02*
X111570839Y-70244580D01*
X110713696Y-69339819D02*
X110380363Y-70339819D01*
X110380363Y-70339819D02*
X110047030Y-69339819D01*
X112159411Y-84527438D02*
X112254649Y-84479819D01*
X112254649Y-84479819D02*
X112397506Y-84479819D01*
X112397506Y-84479819D02*
X112540363Y-84527438D01*
X112540363Y-84527438D02*
X112635601Y-84622676D01*
X112635601Y-84622676D02*
X112683220Y-84717914D01*
X112683220Y-84717914D02*
X112730839Y-84908390D01*
X112730839Y-84908390D02*
X112730839Y-85051247D01*
X112730839Y-85051247D02*
X112683220Y-85241723D01*
X112683220Y-85241723D02*
X112635601Y-85336961D01*
X112635601Y-85336961D02*
X112540363Y-85432200D01*
X112540363Y-85432200D02*
X112397506Y-85479819D01*
X112397506Y-85479819D02*
X112302268Y-85479819D01*
X112302268Y-85479819D02*
X112159411Y-85432200D01*
X112159411Y-85432200D02*
X112111792Y-85384580D01*
X112111792Y-85384580D02*
X112111792Y-85051247D01*
X112111792Y-85051247D02*
X112302268Y-85051247D01*
X111683220Y-85479819D02*
X111683220Y-84479819D01*
X111683220Y-84479819D02*
X111111792Y-85479819D01*
X111111792Y-85479819D02*
X111111792Y-84479819D01*
X110635601Y-85479819D02*
X110635601Y-84479819D01*
X110635601Y-84479819D02*
X110397506Y-84479819D01*
X110397506Y-84479819D02*
X110254649Y-84527438D01*
X110254649Y-84527438D02*
X110159411Y-84622676D01*
X110159411Y-84622676D02*
X110111792Y-84717914D01*
X110111792Y-84717914D02*
X110064173Y-84908390D01*
X110064173Y-84908390D02*
X110064173Y-85051247D01*
X110064173Y-85051247D02*
X110111792Y-85241723D01*
X110111792Y-85241723D02*
X110159411Y-85336961D01*
X110159411Y-85336961D02*
X110254649Y-85432200D01*
X110254649Y-85432200D02*
X110397506Y-85479819D01*
X110397506Y-85479819D02*
X110635601Y-85479819D01*
D11*
G36*
X109462155Y-120855352D02*
G01*
X105257394Y-120855352D01*
X105257394Y-120419638D01*
X105543108Y-120419638D01*
X105563204Y-120494638D01*
X105618108Y-120549542D01*
X105693108Y-120569638D01*
X106931203Y-120569638D01*
X106950278Y-120564527D01*
X106970026Y-120564527D01*
X106987128Y-120554653D01*
X107006203Y-120549542D01*
X107020167Y-120535577D01*
X107037269Y-120525704D01*
X107047142Y-120508602D01*
X107061107Y-120494638D01*
X107066218Y-120475563D01*
X107076092Y-120458461D01*
X107076092Y-120438712D01*
X107081203Y-120419638D01*
X107543108Y-120419638D01*
X107563204Y-120494638D01*
X107618108Y-120549542D01*
X107693108Y-120569638D01*
X107768108Y-120549542D01*
X107823012Y-120494638D01*
X107843108Y-120419638D01*
X107843108Y-119095772D01*
X108223846Y-119911641D01*
X108232354Y-119921775D01*
X108236876Y-119934209D01*
X108256931Y-119951047D01*
X108273773Y-119971107D01*
X108286208Y-119975629D01*
X108296341Y-119984136D01*
X108322130Y-119988691D01*
X108346745Y-119997642D01*
X108359774Y-119995340D01*
X108372803Y-119997642D01*
X108397416Y-119988691D01*
X108423207Y-119984136D01*
X108433339Y-119975628D01*
X108445774Y-119971107D01*
X108462614Y-119951049D01*
X108482672Y-119934209D01*
X108487193Y-119921774D01*
X108495701Y-119911642D01*
X108876441Y-119095772D01*
X108876441Y-120419638D01*
X108896537Y-120494638D01*
X108951441Y-120549542D01*
X109026441Y-120569638D01*
X109101441Y-120549542D01*
X109156345Y-120494638D01*
X109176441Y-120419638D01*
X109176441Y-118419638D01*
X109174712Y-118413186D01*
X109175874Y-118406609D01*
X109164761Y-118376049D01*
X109156345Y-118344638D01*
X109151621Y-118339914D01*
X109149339Y-118333637D01*
X109124432Y-118312725D01*
X109101441Y-118289734D01*
X109094990Y-118288005D01*
X109089874Y-118283710D01*
X109057848Y-118278053D01*
X109026441Y-118269638D01*
X109019989Y-118271366D01*
X109013412Y-118270205D01*
X108982850Y-118281318D01*
X108951441Y-118289734D01*
X108946718Y-118294456D01*
X108940441Y-118296739D01*
X108919531Y-118321643D01*
X108896537Y-118344638D01*
X108894808Y-118351090D01*
X108890514Y-118356205D01*
X108359774Y-119493503D01*
X107829035Y-118356205D01*
X107824740Y-118351090D01*
X107823012Y-118344638D01*
X107800014Y-118321640D01*
X107779108Y-118296740D01*
X107772831Y-118294457D01*
X107768108Y-118289734D01*
X107736694Y-118281316D01*
X107706137Y-118270205D01*
X107699559Y-118271366D01*
X107693108Y-118269638D01*
X107661694Y-118278055D01*
X107629675Y-118283711D01*
X107624560Y-118288005D01*
X107618108Y-118289734D01*
X107595110Y-118312731D01*
X107570210Y-118333638D01*
X107567927Y-118339914D01*
X107563204Y-118344638D01*
X107554786Y-118376051D01*
X107543675Y-118406609D01*
X107544836Y-118413186D01*
X107543108Y-118419638D01*
X107543108Y-120419638D01*
X107081203Y-120419638D01*
X107076092Y-120400563D01*
X107076092Y-120380815D01*
X107066218Y-120363712D01*
X107061107Y-120344638D01*
X107047142Y-120330673D01*
X107037269Y-120313572D01*
X105919450Y-119195752D01*
X105843108Y-118966726D01*
X105843108Y-118836000D01*
X105911624Y-118698968D01*
X105972438Y-118638154D01*
X106109470Y-118569638D01*
X106514841Y-118569638D01*
X106651873Y-118638154D01*
X106729899Y-118716180D01*
X106797142Y-118755003D01*
X106874788Y-118755003D01*
X106942031Y-118716180D01*
X106980854Y-118648937D01*
X106980854Y-118571291D01*
X106942031Y-118504048D01*
X106846793Y-118408810D01*
X106825877Y-118396734D01*
X106807809Y-118380712D01*
X106617333Y-118285474D01*
X106583552Y-118278561D01*
X106550251Y-118269638D01*
X106074060Y-118269638D01*
X106040756Y-118278561D01*
X106006978Y-118285474D01*
X105816502Y-118380712D01*
X105798432Y-118396735D01*
X105777518Y-118408810D01*
X105682280Y-118504048D01*
X105670204Y-118524963D01*
X105654182Y-118543032D01*
X105558944Y-118733508D01*
X105552031Y-118767288D01*
X105543108Y-118800590D01*
X105543108Y-118991066D01*
X105549358Y-119014394D01*
X105550806Y-119038500D01*
X105646044Y-119324214D01*
X105665038Y-119352983D01*
X105682280Y-119382846D01*
X106569071Y-120269638D01*
X105693108Y-120269638D01*
X105618108Y-120289734D01*
X105563204Y-120344638D01*
X105543108Y-120419638D01*
X105257394Y-120419638D01*
X105257394Y-117983924D01*
X109462155Y-117983924D01*
X109462155Y-120855352D01*
G37*
D10*
X148019411Y-107477438D02*
X148114649Y-107429819D01*
X148114649Y-107429819D02*
X148257506Y-107429819D01*
X148257506Y-107429819D02*
X148400363Y-107477438D01*
X148400363Y-107477438D02*
X148495601Y-107572676D01*
X148495601Y-107572676D02*
X148543220Y-107667914D01*
X148543220Y-107667914D02*
X148590839Y-107858390D01*
X148590839Y-107858390D02*
X148590839Y-108001247D01*
X148590839Y-108001247D02*
X148543220Y-108191723D01*
X148543220Y-108191723D02*
X148495601Y-108286961D01*
X148495601Y-108286961D02*
X148400363Y-108382200D01*
X148400363Y-108382200D02*
X148257506Y-108429819D01*
X148257506Y-108429819D02*
X148162268Y-108429819D01*
X148162268Y-108429819D02*
X148019411Y-108382200D01*
X148019411Y-108382200D02*
X147971792Y-108334580D01*
X147971792Y-108334580D02*
X147971792Y-108001247D01*
X147971792Y-108001247D02*
X148162268Y-108001247D01*
X147543220Y-108429819D02*
X147543220Y-107429819D01*
X147543220Y-107429819D02*
X146971792Y-108429819D01*
X146971792Y-108429819D02*
X146971792Y-107429819D01*
X146495601Y-108429819D02*
X146495601Y-107429819D01*
X146495601Y-107429819D02*
X146257506Y-107429819D01*
X146257506Y-107429819D02*
X146114649Y-107477438D01*
X146114649Y-107477438D02*
X146019411Y-107572676D01*
X146019411Y-107572676D02*
X145971792Y-107667914D01*
X145971792Y-107667914D02*
X145924173Y-107858390D01*
X145924173Y-107858390D02*
X145924173Y-108001247D01*
X145924173Y-108001247D02*
X145971792Y-108191723D01*
X145971792Y-108191723D02*
X146019411Y-108286961D01*
X146019411Y-108286961D02*
X146114649Y-108382200D01*
X146114649Y-108382200D02*
X146257506Y-108429819D01*
X146257506Y-108429819D02*
X146495601Y-108429819D01*
X112560839Y-80452200D02*
X112417982Y-80499819D01*
X112417982Y-80499819D02*
X112179887Y-80499819D01*
X112179887Y-80499819D02*
X112084649Y-80452200D01*
X112084649Y-80452200D02*
X112037030Y-80404580D01*
X112037030Y-80404580D02*
X111989411Y-80309342D01*
X111989411Y-80309342D02*
X111989411Y-80214104D01*
X111989411Y-80214104D02*
X112037030Y-80118866D01*
X112037030Y-80118866D02*
X112084649Y-80071247D01*
X112084649Y-80071247D02*
X112179887Y-80023628D01*
X112179887Y-80023628D02*
X112370363Y-79976009D01*
X112370363Y-79976009D02*
X112465601Y-79928390D01*
X112465601Y-79928390D02*
X112513220Y-79880771D01*
X112513220Y-79880771D02*
X112560839Y-79785533D01*
X112560839Y-79785533D02*
X112560839Y-79690295D01*
X112560839Y-79690295D02*
X112513220Y-79595057D01*
X112513220Y-79595057D02*
X112465601Y-79547438D01*
X112465601Y-79547438D02*
X112370363Y-79499819D01*
X112370363Y-79499819D02*
X112132268Y-79499819D01*
X112132268Y-79499819D02*
X111989411Y-79547438D01*
X111560839Y-80499819D02*
X111560839Y-79499819D01*
X111560839Y-79499819D02*
X111322744Y-79499819D01*
X111322744Y-79499819D02*
X111179887Y-79547438D01*
X111179887Y-79547438D02*
X111084649Y-79642676D01*
X111084649Y-79642676D02*
X111037030Y-79737914D01*
X111037030Y-79737914D02*
X110989411Y-79928390D01*
X110989411Y-79928390D02*
X110989411Y-80071247D01*
X110989411Y-80071247D02*
X111037030Y-80261723D01*
X111037030Y-80261723D02*
X111084649Y-80356961D01*
X111084649Y-80356961D02*
X111179887Y-80452200D01*
X111179887Y-80452200D02*
X111322744Y-80499819D01*
X111322744Y-80499819D02*
X111560839Y-80499819D01*
X110608458Y-80214104D02*
X110132268Y-80214104D01*
X110703696Y-80499819D02*
X110370363Y-79499819D01*
X110370363Y-79499819D02*
X110037030Y-80499819D01*
X148383220Y-69679819D02*
X148383220Y-68679819D01*
X148383220Y-68679819D02*
X148145125Y-68679819D01*
X148145125Y-68679819D02*
X148002268Y-68727438D01*
X148002268Y-68727438D02*
X147907030Y-68822676D01*
X147907030Y-68822676D02*
X147859411Y-68917914D01*
X147859411Y-68917914D02*
X147811792Y-69108390D01*
X147811792Y-69108390D02*
X147811792Y-69251247D01*
X147811792Y-69251247D02*
X147859411Y-69441723D01*
X147859411Y-69441723D02*
X147907030Y-69536961D01*
X147907030Y-69536961D02*
X148002268Y-69632200D01*
X148002268Y-69632200D02*
X148145125Y-69679819D01*
X148145125Y-69679819D02*
X148383220Y-69679819D01*
X146954649Y-69679819D02*
X146954649Y-69156009D01*
X146954649Y-69156009D02*
X147002268Y-69060771D01*
X147002268Y-69060771D02*
X147097506Y-69013152D01*
X147097506Y-69013152D02*
X147287982Y-69013152D01*
X147287982Y-69013152D02*
X147383220Y-69060771D01*
X146954649Y-69632200D02*
X147049887Y-69679819D01*
X147049887Y-69679819D02*
X147287982Y-69679819D01*
X147287982Y-69679819D02*
X147383220Y-69632200D01*
X147383220Y-69632200D02*
X147430839Y-69536961D01*
X147430839Y-69536961D02*
X147430839Y-69441723D01*
X147430839Y-69441723D02*
X147383220Y-69346485D01*
X147383220Y-69346485D02*
X147287982Y-69298866D01*
X147287982Y-69298866D02*
X147049887Y-69298866D01*
X147049887Y-69298866D02*
X146954649Y-69251247D01*
X146621315Y-69013152D02*
X146240363Y-69013152D01*
X146478458Y-68679819D02*
X146478458Y-69536961D01*
X146478458Y-69536961D02*
X146430839Y-69632200D01*
X146430839Y-69632200D02*
X146335601Y-69679819D01*
X146335601Y-69679819D02*
X146240363Y-69679819D01*
X145478458Y-69679819D02*
X145478458Y-69156009D01*
X145478458Y-69156009D02*
X145526077Y-69060771D01*
X145526077Y-69060771D02*
X145621315Y-69013152D01*
X145621315Y-69013152D02*
X145811791Y-69013152D01*
X145811791Y-69013152D02*
X145907029Y-69060771D01*
X145478458Y-69632200D02*
X145573696Y-69679819D01*
X145573696Y-69679819D02*
X145811791Y-69679819D01*
X145811791Y-69679819D02*
X145907029Y-69632200D01*
X145907029Y-69632200D02*
X145954648Y-69536961D01*
X145954648Y-69536961D02*
X145954648Y-69441723D01*
X145954648Y-69441723D02*
X145907029Y-69346485D01*
X145907029Y-69346485D02*
X145811791Y-69298866D01*
X145811791Y-69298866D02*
X145573696Y-69298866D01*
X145573696Y-69298866D02*
X145478458Y-69251247D01*
X112373220Y-72929819D02*
X112373220Y-71929819D01*
X112373220Y-71929819D02*
X112135125Y-71929819D01*
X112135125Y-71929819D02*
X111992268Y-71977438D01*
X111992268Y-71977438D02*
X111897030Y-72072676D01*
X111897030Y-72072676D02*
X111849411Y-72167914D01*
X111849411Y-72167914D02*
X111801792Y-72358390D01*
X111801792Y-72358390D02*
X111801792Y-72501247D01*
X111801792Y-72501247D02*
X111849411Y-72691723D01*
X111849411Y-72691723D02*
X111897030Y-72786961D01*
X111897030Y-72786961D02*
X111992268Y-72882200D01*
X111992268Y-72882200D02*
X112135125Y-72929819D01*
X112135125Y-72929819D02*
X112373220Y-72929819D01*
X111420839Y-72644104D02*
X110944649Y-72644104D01*
X111516077Y-72929819D02*
X111182744Y-71929819D01*
X111182744Y-71929819D02*
X110849411Y-72929819D01*
X109944649Y-72834580D02*
X109992268Y-72882200D01*
X109992268Y-72882200D02*
X110135125Y-72929819D01*
X110135125Y-72929819D02*
X110230363Y-72929819D01*
X110230363Y-72929819D02*
X110373220Y-72882200D01*
X110373220Y-72882200D02*
X110468458Y-72786961D01*
X110468458Y-72786961D02*
X110516077Y-72691723D01*
X110516077Y-72691723D02*
X110563696Y-72501247D01*
X110563696Y-72501247D02*
X110563696Y-72358390D01*
X110563696Y-72358390D02*
X110516077Y-72167914D01*
X110516077Y-72167914D02*
X110468458Y-72072676D01*
X110468458Y-72072676D02*
X110373220Y-71977438D01*
X110373220Y-71977438D02*
X110230363Y-71929819D01*
X110230363Y-71929819D02*
X110135125Y-71929819D01*
X110135125Y-71929819D02*
X109992268Y-71977438D01*
X109992268Y-71977438D02*
X109944649Y-72025057D01*
X111500839Y-75074104D02*
X111024649Y-75074104D01*
X111596077Y-75359819D02*
X111262744Y-74359819D01*
X111262744Y-74359819D02*
X110929411Y-75359819D01*
X110643696Y-74455057D02*
X110596077Y-74407438D01*
X110596077Y-74407438D02*
X110500839Y-74359819D01*
X110500839Y-74359819D02*
X110262744Y-74359819D01*
X110262744Y-74359819D02*
X110167506Y-74407438D01*
X110167506Y-74407438D02*
X110119887Y-74455057D01*
X110119887Y-74455057D02*
X110072268Y-74550295D01*
X110072268Y-74550295D02*
X110072268Y-74645533D01*
X110072268Y-74645533D02*
X110119887Y-74788390D01*
X110119887Y-74788390D02*
X110691315Y-75359819D01*
X110691315Y-75359819D02*
X110072268Y-75359819D01*
X147193220Y-128739819D02*
X147193220Y-127739819D01*
X147193220Y-127739819D02*
X146859887Y-128454104D01*
X146859887Y-128454104D02*
X146526554Y-127739819D01*
X146526554Y-127739819D02*
X146526554Y-128739819D01*
X146145601Y-127739819D02*
X145526554Y-127739819D01*
X145526554Y-127739819D02*
X145859887Y-128120771D01*
X145859887Y-128120771D02*
X145717030Y-128120771D01*
X145717030Y-128120771D02*
X145621792Y-128168390D01*
X145621792Y-128168390D02*
X145574173Y-128216009D01*
X145574173Y-128216009D02*
X145526554Y-128311247D01*
X145526554Y-128311247D02*
X145526554Y-128549342D01*
X145526554Y-128549342D02*
X145574173Y-128644580D01*
X145574173Y-128644580D02*
X145621792Y-128692200D01*
X145621792Y-128692200D02*
X145717030Y-128739819D01*
X145717030Y-128739819D02*
X146002744Y-128739819D01*
X146002744Y-128739819D02*
X146097982Y-128692200D01*
X146097982Y-128692200D02*
X146145601Y-128644580D01*
X147757030Y-71399819D02*
X148233220Y-71399819D01*
X148233220Y-71399819D02*
X148280839Y-71876009D01*
X148280839Y-71876009D02*
X148233220Y-71828390D01*
X148233220Y-71828390D02*
X148137982Y-71780771D01*
X148137982Y-71780771D02*
X147899887Y-71780771D01*
X147899887Y-71780771D02*
X147804649Y-71828390D01*
X147804649Y-71828390D02*
X147757030Y-71876009D01*
X147757030Y-71876009D02*
X147709411Y-71971247D01*
X147709411Y-71971247D02*
X147709411Y-72209342D01*
X147709411Y-72209342D02*
X147757030Y-72304580D01*
X147757030Y-72304580D02*
X147804649Y-72352200D01*
X147804649Y-72352200D02*
X147899887Y-72399819D01*
X147899887Y-72399819D02*
X148137982Y-72399819D01*
X148137982Y-72399819D02*
X148233220Y-72352200D01*
X148233220Y-72352200D02*
X148280839Y-72304580D01*
X147423696Y-71399819D02*
X147090363Y-72399819D01*
X147090363Y-72399819D02*
X146757030Y-71399819D01*
D12*
X143661428Y-61996142D02*
X143661428Y-62967571D01*
X143661428Y-62967571D02*
X143604285Y-63081857D01*
X143604285Y-63081857D02*
X143547143Y-63139000D01*
X143547143Y-63139000D02*
X143432857Y-63196142D01*
X143432857Y-63196142D02*
X143204285Y-63196142D01*
X143204285Y-63196142D02*
X143090000Y-63139000D01*
X143090000Y-63139000D02*
X143032857Y-63081857D01*
X143032857Y-63081857D02*
X142975714Y-62967571D01*
X142975714Y-62967571D02*
X142975714Y-61996142D01*
X142461428Y-63139000D02*
X142290000Y-63196142D01*
X142290000Y-63196142D02*
X142004285Y-63196142D01*
X142004285Y-63196142D02*
X141890000Y-63139000D01*
X141890000Y-63139000D02*
X141832857Y-63081857D01*
X141832857Y-63081857D02*
X141775714Y-62967571D01*
X141775714Y-62967571D02*
X141775714Y-62853285D01*
X141775714Y-62853285D02*
X141832857Y-62739000D01*
X141832857Y-62739000D02*
X141890000Y-62681857D01*
X141890000Y-62681857D02*
X142004285Y-62624714D01*
X142004285Y-62624714D02*
X142232857Y-62567571D01*
X142232857Y-62567571D02*
X142347142Y-62510428D01*
X142347142Y-62510428D02*
X142404285Y-62453285D01*
X142404285Y-62453285D02*
X142461428Y-62339000D01*
X142461428Y-62339000D02*
X142461428Y-62224714D01*
X142461428Y-62224714D02*
X142404285Y-62110428D01*
X142404285Y-62110428D02*
X142347142Y-62053285D01*
X142347142Y-62053285D02*
X142232857Y-61996142D01*
X142232857Y-61996142D02*
X141947142Y-61996142D01*
X141947142Y-61996142D02*
X141775714Y-62053285D01*
X140861428Y-62567571D02*
X140690000Y-62624714D01*
X140690000Y-62624714D02*
X140632857Y-62681857D01*
X140632857Y-62681857D02*
X140575714Y-62796142D01*
X140575714Y-62796142D02*
X140575714Y-62967571D01*
X140575714Y-62967571D02*
X140632857Y-63081857D01*
X140632857Y-63081857D02*
X140690000Y-63139000D01*
X140690000Y-63139000D02*
X140804285Y-63196142D01*
X140804285Y-63196142D02*
X141261428Y-63196142D01*
X141261428Y-63196142D02*
X141261428Y-61996142D01*
X141261428Y-61996142D02*
X140861428Y-61996142D01*
X140861428Y-61996142D02*
X140747143Y-62053285D01*
X140747143Y-62053285D02*
X140690000Y-62110428D01*
X140690000Y-62110428D02*
X140632857Y-62224714D01*
X140632857Y-62224714D02*
X140632857Y-62339000D01*
X140632857Y-62339000D02*
X140690000Y-62453285D01*
X140690000Y-62453285D02*
X140747143Y-62510428D01*
X140747143Y-62510428D02*
X140861428Y-62567571D01*
X140861428Y-62567571D02*
X141261428Y-62567571D01*
X138461428Y-63081857D02*
X138518571Y-63139000D01*
X138518571Y-63139000D02*
X138689999Y-63196142D01*
X138689999Y-63196142D02*
X138804285Y-63196142D01*
X138804285Y-63196142D02*
X138975714Y-63139000D01*
X138975714Y-63139000D02*
X139089999Y-63024714D01*
X139089999Y-63024714D02*
X139147142Y-62910428D01*
X139147142Y-62910428D02*
X139204285Y-62681857D01*
X139204285Y-62681857D02*
X139204285Y-62510428D01*
X139204285Y-62510428D02*
X139147142Y-62281857D01*
X139147142Y-62281857D02*
X139089999Y-62167571D01*
X139089999Y-62167571D02*
X138975714Y-62053285D01*
X138975714Y-62053285D02*
X138804285Y-61996142D01*
X138804285Y-61996142D02*
X138689999Y-61996142D01*
X138689999Y-61996142D02*
X138518571Y-62053285D01*
X138518571Y-62053285D02*
X138461428Y-62110428D01*
X143461427Y-65128142D02*
X143461427Y-63928142D01*
X143461427Y-63928142D02*
X143004284Y-63928142D01*
X143004284Y-63928142D02*
X142889999Y-63985285D01*
X142889999Y-63985285D02*
X142832856Y-64042428D01*
X142832856Y-64042428D02*
X142775713Y-64156714D01*
X142775713Y-64156714D02*
X142775713Y-64328142D01*
X142775713Y-64328142D02*
X142832856Y-64442428D01*
X142832856Y-64442428D02*
X142889999Y-64499571D01*
X142889999Y-64499571D02*
X143004284Y-64556714D01*
X143004284Y-64556714D02*
X143461427Y-64556714D01*
X142089999Y-65128142D02*
X142204284Y-65071000D01*
X142204284Y-65071000D02*
X142261427Y-65013857D01*
X142261427Y-65013857D02*
X142318570Y-64899571D01*
X142318570Y-64899571D02*
X142318570Y-64556714D01*
X142318570Y-64556714D02*
X142261427Y-64442428D01*
X142261427Y-64442428D02*
X142204284Y-64385285D01*
X142204284Y-64385285D02*
X142089999Y-64328142D01*
X142089999Y-64328142D02*
X141918570Y-64328142D01*
X141918570Y-64328142D02*
X141804284Y-64385285D01*
X141804284Y-64385285D02*
X141747142Y-64442428D01*
X141747142Y-64442428D02*
X141689999Y-64556714D01*
X141689999Y-64556714D02*
X141689999Y-64899571D01*
X141689999Y-64899571D02*
X141747142Y-65013857D01*
X141747142Y-65013857D02*
X141804284Y-65071000D01*
X141804284Y-65071000D02*
X141918570Y-65128142D01*
X141918570Y-65128142D02*
X142089999Y-65128142D01*
X141289999Y-64328142D02*
X141061428Y-65128142D01*
X141061428Y-65128142D02*
X140832856Y-64556714D01*
X140832856Y-64556714D02*
X140604285Y-65128142D01*
X140604285Y-65128142D02*
X140375713Y-64328142D01*
X139461427Y-65071000D02*
X139575713Y-65128142D01*
X139575713Y-65128142D02*
X139804285Y-65128142D01*
X139804285Y-65128142D02*
X139918570Y-65071000D01*
X139918570Y-65071000D02*
X139975713Y-64956714D01*
X139975713Y-64956714D02*
X139975713Y-64499571D01*
X139975713Y-64499571D02*
X139918570Y-64385285D01*
X139918570Y-64385285D02*
X139804285Y-64328142D01*
X139804285Y-64328142D02*
X139575713Y-64328142D01*
X139575713Y-64328142D02*
X139461427Y-64385285D01*
X139461427Y-64385285D02*
X139404285Y-64499571D01*
X139404285Y-64499571D02*
X139404285Y-64613857D01*
X139404285Y-64613857D02*
X139975713Y-64728142D01*
X138889999Y-65128142D02*
X138889999Y-64328142D01*
X138889999Y-64556714D02*
X138832856Y-64442428D01*
X138832856Y-64442428D02*
X138775714Y-64385285D01*
X138775714Y-64385285D02*
X138661428Y-64328142D01*
X138661428Y-64328142D02*
X138547142Y-64328142D01*
X142518571Y-65860142D02*
X142289999Y-65860142D01*
X142289999Y-65860142D02*
X142175714Y-65917285D01*
X142175714Y-65917285D02*
X142061428Y-66031571D01*
X142061428Y-66031571D02*
X142004285Y-66260142D01*
X142004285Y-66260142D02*
X142004285Y-66660142D01*
X142004285Y-66660142D02*
X142061428Y-66888714D01*
X142061428Y-66888714D02*
X142175714Y-67003000D01*
X142175714Y-67003000D02*
X142289999Y-67060142D01*
X142289999Y-67060142D02*
X142518571Y-67060142D01*
X142518571Y-67060142D02*
X142632857Y-67003000D01*
X142632857Y-67003000D02*
X142747142Y-66888714D01*
X142747142Y-66888714D02*
X142804285Y-66660142D01*
X142804285Y-66660142D02*
X142804285Y-66260142D01*
X142804285Y-66260142D02*
X142747142Y-66031571D01*
X142747142Y-66031571D02*
X142632857Y-65917285D01*
X142632857Y-65917285D02*
X142518571Y-65860142D01*
X141489999Y-66260142D02*
X141489999Y-67060142D01*
X141489999Y-66374428D02*
X141432856Y-66317285D01*
X141432856Y-66317285D02*
X141318571Y-66260142D01*
X141318571Y-66260142D02*
X141147142Y-66260142D01*
X141147142Y-66260142D02*
X141032856Y-66317285D01*
X141032856Y-66317285D02*
X140975714Y-66431571D01*
X140975714Y-66431571D02*
X140975714Y-67060142D01*
X140232857Y-67060142D02*
X140347142Y-67003000D01*
X140347142Y-67003000D02*
X140404285Y-66888714D01*
X140404285Y-66888714D02*
X140404285Y-65860142D01*
X139890000Y-66260142D02*
X139604286Y-67060142D01*
X139318571Y-66260142D02*
X139604286Y-67060142D01*
X139604286Y-67060142D02*
X139718571Y-67345857D01*
X139718571Y-67345857D02*
X139775714Y-67403000D01*
X139775714Y-67403000D02*
X139890000Y-67460142D01*
D10*
X112490839Y-82932200D02*
X112347982Y-82979819D01*
X112347982Y-82979819D02*
X112109887Y-82979819D01*
X112109887Y-82979819D02*
X112014649Y-82932200D01*
X112014649Y-82932200D02*
X111967030Y-82884580D01*
X111967030Y-82884580D02*
X111919411Y-82789342D01*
X111919411Y-82789342D02*
X111919411Y-82694104D01*
X111919411Y-82694104D02*
X111967030Y-82598866D01*
X111967030Y-82598866D02*
X112014649Y-82551247D01*
X112014649Y-82551247D02*
X112109887Y-82503628D01*
X112109887Y-82503628D02*
X112300363Y-82456009D01*
X112300363Y-82456009D02*
X112395601Y-82408390D01*
X112395601Y-82408390D02*
X112443220Y-82360771D01*
X112443220Y-82360771D02*
X112490839Y-82265533D01*
X112490839Y-82265533D02*
X112490839Y-82170295D01*
X112490839Y-82170295D02*
X112443220Y-82075057D01*
X112443220Y-82075057D02*
X112395601Y-82027438D01*
X112395601Y-82027438D02*
X112300363Y-81979819D01*
X112300363Y-81979819D02*
X112062268Y-81979819D01*
X112062268Y-81979819D02*
X111919411Y-82027438D01*
X110919411Y-82884580D02*
X110967030Y-82932200D01*
X110967030Y-82932200D02*
X111109887Y-82979819D01*
X111109887Y-82979819D02*
X111205125Y-82979819D01*
X111205125Y-82979819D02*
X111347982Y-82932200D01*
X111347982Y-82932200D02*
X111443220Y-82836961D01*
X111443220Y-82836961D02*
X111490839Y-82741723D01*
X111490839Y-82741723D02*
X111538458Y-82551247D01*
X111538458Y-82551247D02*
X111538458Y-82408390D01*
X111538458Y-82408390D02*
X111490839Y-82217914D01*
X111490839Y-82217914D02*
X111443220Y-82122676D01*
X111443220Y-82122676D02*
X111347982Y-82027438D01*
X111347982Y-82027438D02*
X111205125Y-81979819D01*
X111205125Y-81979819D02*
X111109887Y-81979819D01*
X111109887Y-81979819D02*
X110967030Y-82027438D01*
X110967030Y-82027438D02*
X110919411Y-82075057D01*
X110014649Y-82979819D02*
X110490839Y-82979819D01*
X110490839Y-82979819D02*
X110490839Y-81979819D01*
X148510839Y-113462200D02*
X148367982Y-113509819D01*
X148367982Y-113509819D02*
X148129887Y-113509819D01*
X148129887Y-113509819D02*
X148034649Y-113462200D01*
X148034649Y-113462200D02*
X147987030Y-113414580D01*
X147987030Y-113414580D02*
X147939411Y-113319342D01*
X147939411Y-113319342D02*
X147939411Y-113224104D01*
X147939411Y-113224104D02*
X147987030Y-113128866D01*
X147987030Y-113128866D02*
X148034649Y-113081247D01*
X148034649Y-113081247D02*
X148129887Y-113033628D01*
X148129887Y-113033628D02*
X148320363Y-112986009D01*
X148320363Y-112986009D02*
X148415601Y-112938390D01*
X148415601Y-112938390D02*
X148463220Y-112890771D01*
X148463220Y-112890771D02*
X148510839Y-112795533D01*
X148510839Y-112795533D02*
X148510839Y-112700295D01*
X148510839Y-112700295D02*
X148463220Y-112605057D01*
X148463220Y-112605057D02*
X148415601Y-112557438D01*
X148415601Y-112557438D02*
X148320363Y-112509819D01*
X148320363Y-112509819D02*
X148082268Y-112509819D01*
X148082268Y-112509819D02*
X147939411Y-112557438D01*
X146939411Y-113414580D02*
X146987030Y-113462200D01*
X146987030Y-113462200D02*
X147129887Y-113509819D01*
X147129887Y-113509819D02*
X147225125Y-113509819D01*
X147225125Y-113509819D02*
X147367982Y-113462200D01*
X147367982Y-113462200D02*
X147463220Y-113366961D01*
X147463220Y-113366961D02*
X147510839Y-113271723D01*
X147510839Y-113271723D02*
X147558458Y-113081247D01*
X147558458Y-113081247D02*
X147558458Y-112938390D01*
X147558458Y-112938390D02*
X147510839Y-112747914D01*
X147510839Y-112747914D02*
X147463220Y-112652676D01*
X147463220Y-112652676D02*
X147367982Y-112557438D01*
X147367982Y-112557438D02*
X147225125Y-112509819D01*
X147225125Y-112509819D02*
X147129887Y-112509819D01*
X147129887Y-112509819D02*
X146987030Y-112557438D01*
X146987030Y-112557438D02*
X146939411Y-112605057D01*
X146034649Y-113509819D02*
X146510839Y-113509819D01*
X146510839Y-113509819D02*
X146510839Y-112509819D01*
X132458458Y-91803152D02*
X132220363Y-92469819D01*
X132220363Y-92469819D02*
X131982268Y-91803152D01*
X131648934Y-91565057D02*
X131601315Y-91517438D01*
X131601315Y-91517438D02*
X131506077Y-91469819D01*
X131506077Y-91469819D02*
X131267982Y-91469819D01*
X131267982Y-91469819D02*
X131172744Y-91517438D01*
X131172744Y-91517438D02*
X131125125Y-91565057D01*
X131125125Y-91565057D02*
X131077506Y-91660295D01*
X131077506Y-91660295D02*
X131077506Y-91755533D01*
X131077506Y-91755533D02*
X131125125Y-91898390D01*
X131125125Y-91898390D02*
X131696553Y-92469819D01*
X131696553Y-92469819D02*
X131077506Y-92469819D01*
X130648934Y-92374580D02*
X130601315Y-92422200D01*
X130601315Y-92422200D02*
X130648934Y-92469819D01*
X130648934Y-92469819D02*
X130696553Y-92422200D01*
X130696553Y-92422200D02*
X130648934Y-92374580D01*
X130648934Y-92374580D02*
X130648934Y-92469819D01*
X129648935Y-92469819D02*
X130220363Y-92469819D01*
X129934649Y-92469819D02*
X129934649Y-91469819D01*
X129934649Y-91469819D02*
X130029887Y-91612676D01*
X130029887Y-91612676D02*
X130125125Y-91707914D01*
X130125125Y-91707914D02*
X130220363Y-91755533D01*
X129220363Y-92469819D02*
X129220363Y-91469819D01*
X129220363Y-91850771D02*
X129125125Y-91803152D01*
X129125125Y-91803152D02*
X128934649Y-91803152D01*
X128934649Y-91803152D02*
X128839411Y-91850771D01*
X128839411Y-91850771D02*
X128791792Y-91898390D01*
X128791792Y-91898390D02*
X128744173Y-91993628D01*
X128744173Y-91993628D02*
X128744173Y-92279342D01*
X128744173Y-92279342D02*
X128791792Y-92374580D01*
X128791792Y-92374580D02*
X128839411Y-92422200D01*
X128839411Y-92422200D02*
X128934649Y-92469819D01*
X128934649Y-92469819D02*
X129125125Y-92469819D01*
X129125125Y-92469819D02*
X129220363Y-92422200D01*
X127791792Y-92469819D02*
X128363220Y-92469819D01*
X128077506Y-92469819D02*
X128077506Y-91469819D01*
X128077506Y-91469819D02*
X128172744Y-91612676D01*
X128172744Y-91612676D02*
X128267982Y-91707914D01*
X128267982Y-91707914D02*
X128363220Y-91755533D01*
D11*
G36*
X129248063Y-88528154D02*
G01*
X129391949Y-88672040D01*
X129472631Y-88994768D01*
X129472631Y-89624507D01*
X129391948Y-89947235D01*
X129248062Y-90091122D01*
X129111031Y-90159638D01*
X128800898Y-90159638D01*
X128663866Y-90091122D01*
X128519980Y-89947235D01*
X128439298Y-89624506D01*
X128439298Y-88994768D01*
X128519980Y-88672039D01*
X128663866Y-88528154D01*
X128800898Y-88459638D01*
X129111031Y-88459638D01*
X129248063Y-88528154D01*
G37*
G36*
X132996441Y-90159638D02*
G01*
X132419946Y-90159638D01*
X132282914Y-90091122D01*
X132222100Y-90030307D01*
X132153584Y-89893275D01*
X132153584Y-89678381D01*
X132222100Y-89541349D01*
X132275088Y-89488361D01*
X132504114Y-89412019D01*
X132996441Y-89412019D01*
X132996441Y-90159638D01*
G37*
G36*
X132996441Y-89112019D02*
G01*
X132515185Y-89112019D01*
X132378151Y-89043501D01*
X132317338Y-88982688D01*
X132248822Y-88845656D01*
X132248822Y-88726000D01*
X132317338Y-88588968D01*
X132378152Y-88528154D01*
X132515184Y-88459638D01*
X132996441Y-88459638D01*
X132996441Y-89112019D01*
G37*
G36*
X133582155Y-90745352D02*
G01*
X126139298Y-90745352D01*
X126139298Y-88309638D01*
X126425012Y-88309638D01*
X126445108Y-88384638D01*
X126500012Y-88439542D01*
X126575012Y-88459638D01*
X126996441Y-88459638D01*
X126996441Y-90309638D01*
X127016537Y-90384638D01*
X127071441Y-90439542D01*
X127146441Y-90459638D01*
X127221441Y-90439542D01*
X127276345Y-90384638D01*
X127296441Y-90309638D01*
X127296441Y-89642971D01*
X128139298Y-89642971D01*
X128144088Y-89660847D01*
X128143777Y-89679351D01*
X128239015Y-90060303D01*
X128239647Y-90061441D01*
X128239647Y-90062746D01*
X128258459Y-90095329D01*
X128276701Y-90128190D01*
X128277818Y-90128860D01*
X128278470Y-90129989D01*
X128468945Y-90320465D01*
X128489860Y-90332540D01*
X128507930Y-90348564D01*
X128698406Y-90443802D01*
X128732184Y-90450714D01*
X128765488Y-90459638D01*
X129146441Y-90459638D01*
X129179742Y-90450714D01*
X129213523Y-90443802D01*
X129403999Y-90348564D01*
X129422067Y-90332541D01*
X129442983Y-90320466D01*
X129453811Y-90309638D01*
X130044060Y-90309638D01*
X130064156Y-90384638D01*
X130119060Y-90439542D01*
X130194060Y-90459638D01*
X131146441Y-90459638D01*
X131221441Y-90439542D01*
X131276345Y-90384638D01*
X131296441Y-90309638D01*
X131296441Y-89928685D01*
X131853584Y-89928685D01*
X131862507Y-89961986D01*
X131869420Y-89995767D01*
X131964658Y-90186243D01*
X131980680Y-90204311D01*
X131992755Y-90225226D01*
X132087994Y-90320466D01*
X132108908Y-90332540D01*
X132126978Y-90348564D01*
X132317454Y-90443802D01*
X132351232Y-90450714D01*
X132384536Y-90459638D01*
X133146441Y-90459638D01*
X133221441Y-90439542D01*
X133276345Y-90384638D01*
X133296441Y-90309638D01*
X133296441Y-88309638D01*
X133276345Y-88234638D01*
X133221441Y-88179734D01*
X133146441Y-88159638D01*
X132479774Y-88159638D01*
X132446470Y-88168561D01*
X132412692Y-88175474D01*
X132222216Y-88270712D01*
X132204146Y-88286735D01*
X132183232Y-88298810D01*
X132087994Y-88394048D01*
X132075918Y-88414963D01*
X132059896Y-88433032D01*
X131964658Y-88623508D01*
X131957745Y-88657288D01*
X131948822Y-88690590D01*
X131948822Y-88881066D01*
X131957745Y-88914367D01*
X131964658Y-88948148D01*
X132059896Y-89138624D01*
X132075918Y-89156692D01*
X132087994Y-89177608D01*
X132133805Y-89223419D01*
X132117856Y-89233949D01*
X132087994Y-89251191D01*
X131992756Y-89346429D01*
X131980680Y-89367344D01*
X131964658Y-89385413D01*
X131869420Y-89575889D01*
X131862507Y-89609669D01*
X131853584Y-89642971D01*
X131853584Y-89928685D01*
X131296441Y-89928685D01*
X131296441Y-88309638D01*
X131276345Y-88234638D01*
X131221441Y-88179734D01*
X131146441Y-88159638D01*
X131071441Y-88179734D01*
X131016537Y-88234638D01*
X130996441Y-88309638D01*
X130996441Y-90159638D01*
X130194060Y-90159638D01*
X130119060Y-90179734D01*
X130064156Y-90234638D01*
X130044060Y-90309638D01*
X129453811Y-90309638D01*
X129633459Y-90129989D01*
X129634110Y-90128860D01*
X129635228Y-90128190D01*
X129653469Y-90095329D01*
X129672282Y-90062746D01*
X129672282Y-90061441D01*
X129672914Y-90060303D01*
X129768152Y-89679352D01*
X129767840Y-89660848D01*
X129772631Y-89642971D01*
X129772631Y-88976304D01*
X129767840Y-88958426D01*
X129768152Y-88939923D01*
X129672914Y-88558972D01*
X129672282Y-88557833D01*
X129672282Y-88556529D01*
X129653469Y-88523945D01*
X129635228Y-88491085D01*
X129634110Y-88490414D01*
X129633459Y-88489286D01*
X129442983Y-88298810D01*
X129422067Y-88286734D01*
X129403999Y-88270712D01*
X129213523Y-88175474D01*
X129179742Y-88168561D01*
X129146441Y-88159638D01*
X128765488Y-88159638D01*
X128732184Y-88168561D01*
X128698406Y-88175474D01*
X128507930Y-88270712D01*
X128489860Y-88286735D01*
X128468946Y-88298810D01*
X128278470Y-88489286D01*
X128277818Y-88490414D01*
X128276701Y-88491085D01*
X128258459Y-88523945D01*
X128239647Y-88556529D01*
X128239647Y-88557833D01*
X128239015Y-88558972D01*
X128143777Y-88939924D01*
X128144088Y-88958427D01*
X128139298Y-88976304D01*
X128139298Y-89642971D01*
X127296441Y-89642971D01*
X127296441Y-88459638D01*
X127717869Y-88459638D01*
X127792869Y-88439542D01*
X127847773Y-88384638D01*
X127867869Y-88309638D01*
X127847773Y-88234638D01*
X127792869Y-88179734D01*
X127717869Y-88159638D01*
X126575012Y-88159638D01*
X126500012Y-88179734D01*
X126445108Y-88234638D01*
X126425012Y-88309638D01*
X126139298Y-88309638D01*
X126139298Y-87873924D01*
X133582155Y-87873924D01*
X133582155Y-90745352D01*
G37*
D12*
X126787142Y-64098142D02*
X126787142Y-65069571D01*
X126787142Y-65069571D02*
X126729999Y-65183857D01*
X126729999Y-65183857D02*
X126672857Y-65241000D01*
X126672857Y-65241000D02*
X126558571Y-65298142D01*
X126558571Y-65298142D02*
X126329999Y-65298142D01*
X126329999Y-65298142D02*
X126215714Y-65241000D01*
X126215714Y-65241000D02*
X126158571Y-65183857D01*
X126158571Y-65183857D02*
X126101428Y-65069571D01*
X126101428Y-65069571D02*
X126101428Y-64098142D01*
X125587142Y-65241000D02*
X125415714Y-65298142D01*
X125415714Y-65298142D02*
X125129999Y-65298142D01*
X125129999Y-65298142D02*
X125015714Y-65241000D01*
X125015714Y-65241000D02*
X124958571Y-65183857D01*
X124958571Y-65183857D02*
X124901428Y-65069571D01*
X124901428Y-65069571D02*
X124901428Y-64955285D01*
X124901428Y-64955285D02*
X124958571Y-64841000D01*
X124958571Y-64841000D02*
X125015714Y-64783857D01*
X125015714Y-64783857D02*
X125129999Y-64726714D01*
X125129999Y-64726714D02*
X125358571Y-64669571D01*
X125358571Y-64669571D02*
X125472856Y-64612428D01*
X125472856Y-64612428D02*
X125529999Y-64555285D01*
X125529999Y-64555285D02*
X125587142Y-64441000D01*
X125587142Y-64441000D02*
X125587142Y-64326714D01*
X125587142Y-64326714D02*
X125529999Y-64212428D01*
X125529999Y-64212428D02*
X125472856Y-64155285D01*
X125472856Y-64155285D02*
X125358571Y-64098142D01*
X125358571Y-64098142D02*
X125072856Y-64098142D01*
X125072856Y-64098142D02*
X124901428Y-64155285D01*
X123987142Y-64669571D02*
X123815714Y-64726714D01*
X123815714Y-64726714D02*
X123758571Y-64783857D01*
X123758571Y-64783857D02*
X123701428Y-64898142D01*
X123701428Y-64898142D02*
X123701428Y-65069571D01*
X123701428Y-65069571D02*
X123758571Y-65183857D01*
X123758571Y-65183857D02*
X123815714Y-65241000D01*
X123815714Y-65241000D02*
X123929999Y-65298142D01*
X123929999Y-65298142D02*
X124387142Y-65298142D01*
X124387142Y-65298142D02*
X124387142Y-64098142D01*
X124387142Y-64098142D02*
X123987142Y-64098142D01*
X123987142Y-64098142D02*
X123872857Y-64155285D01*
X123872857Y-64155285D02*
X123815714Y-64212428D01*
X123815714Y-64212428D02*
X123758571Y-64326714D01*
X123758571Y-64326714D02*
X123758571Y-64441000D01*
X123758571Y-64441000D02*
X123815714Y-64555285D01*
X123815714Y-64555285D02*
X123872857Y-64612428D01*
X123872857Y-64612428D02*
X123987142Y-64669571D01*
X123987142Y-64669571D02*
X124387142Y-64669571D01*
X121587142Y-65183857D02*
X121644285Y-65241000D01*
X121644285Y-65241000D02*
X121815713Y-65298142D01*
X121815713Y-65298142D02*
X121929999Y-65298142D01*
X121929999Y-65298142D02*
X122101428Y-65241000D01*
X122101428Y-65241000D02*
X122215713Y-65126714D01*
X122215713Y-65126714D02*
X122272856Y-65012428D01*
X122272856Y-65012428D02*
X122329999Y-64783857D01*
X122329999Y-64783857D02*
X122329999Y-64612428D01*
X122329999Y-64612428D02*
X122272856Y-64383857D01*
X122272856Y-64383857D02*
X122215713Y-64269571D01*
X122215713Y-64269571D02*
X122101428Y-64155285D01*
X122101428Y-64155285D02*
X121929999Y-64098142D01*
X121929999Y-64098142D02*
X121815713Y-64098142D01*
X121815713Y-64098142D02*
X121644285Y-64155285D01*
X121644285Y-64155285D02*
X121587142Y-64212428D01*
X120158570Y-65298142D02*
X120158570Y-64098142D01*
X120158570Y-64098142D02*
X119872856Y-64098142D01*
X119872856Y-64098142D02*
X119701427Y-64155285D01*
X119701427Y-64155285D02*
X119587142Y-64269571D01*
X119587142Y-64269571D02*
X119529999Y-64383857D01*
X119529999Y-64383857D02*
X119472856Y-64612428D01*
X119472856Y-64612428D02*
X119472856Y-64783857D01*
X119472856Y-64783857D02*
X119529999Y-65012428D01*
X119529999Y-65012428D02*
X119587142Y-65126714D01*
X119587142Y-65126714D02*
X119701427Y-65241000D01*
X119701427Y-65241000D02*
X119872856Y-65298142D01*
X119872856Y-65298142D02*
X120158570Y-65298142D01*
X118444285Y-65298142D02*
X118444285Y-64669571D01*
X118444285Y-64669571D02*
X118501427Y-64555285D01*
X118501427Y-64555285D02*
X118615713Y-64498142D01*
X118615713Y-64498142D02*
X118844285Y-64498142D01*
X118844285Y-64498142D02*
X118958570Y-64555285D01*
X118444285Y-65241000D02*
X118558570Y-65298142D01*
X118558570Y-65298142D02*
X118844285Y-65298142D01*
X118844285Y-65298142D02*
X118958570Y-65241000D01*
X118958570Y-65241000D02*
X119015713Y-65126714D01*
X119015713Y-65126714D02*
X119015713Y-65012428D01*
X119015713Y-65012428D02*
X118958570Y-64898142D01*
X118958570Y-64898142D02*
X118844285Y-64841000D01*
X118844285Y-64841000D02*
X118558570Y-64841000D01*
X118558570Y-64841000D02*
X118444285Y-64783857D01*
X118044285Y-64498142D02*
X117587142Y-64498142D01*
X117872856Y-64098142D02*
X117872856Y-65126714D01*
X117872856Y-65126714D02*
X117815713Y-65241000D01*
X117815713Y-65241000D02*
X117701428Y-65298142D01*
X117701428Y-65298142D02*
X117587142Y-65298142D01*
X116672857Y-65298142D02*
X116672857Y-64669571D01*
X116672857Y-64669571D02*
X116729999Y-64555285D01*
X116729999Y-64555285D02*
X116844285Y-64498142D01*
X116844285Y-64498142D02*
X117072857Y-64498142D01*
X117072857Y-64498142D02*
X117187142Y-64555285D01*
X116672857Y-65241000D02*
X116787142Y-65298142D01*
X116787142Y-65298142D02*
X117072857Y-65298142D01*
X117072857Y-65298142D02*
X117187142Y-65241000D01*
X117187142Y-65241000D02*
X117244285Y-65126714D01*
X117244285Y-65126714D02*
X117244285Y-65012428D01*
X117244285Y-65012428D02*
X117187142Y-64898142D01*
X117187142Y-64898142D02*
X117072857Y-64841000D01*
X117072857Y-64841000D02*
X116787142Y-64841000D01*
X116787142Y-64841000D02*
X116672857Y-64783857D01*
X125301427Y-66773000D02*
X124387142Y-66773000D01*
X124844284Y-67230142D02*
X124844284Y-66315857D01*
X122901427Y-67230142D02*
X122901427Y-66030142D01*
X122901427Y-66030142D02*
X122444284Y-66030142D01*
X122444284Y-66030142D02*
X122329999Y-66087285D01*
X122329999Y-66087285D02*
X122272856Y-66144428D01*
X122272856Y-66144428D02*
X122215713Y-66258714D01*
X122215713Y-66258714D02*
X122215713Y-66430142D01*
X122215713Y-66430142D02*
X122272856Y-66544428D01*
X122272856Y-66544428D02*
X122329999Y-66601571D01*
X122329999Y-66601571D02*
X122444284Y-66658714D01*
X122444284Y-66658714D02*
X122901427Y-66658714D01*
X121529999Y-67230142D02*
X121644284Y-67173000D01*
X121644284Y-67173000D02*
X121701427Y-67115857D01*
X121701427Y-67115857D02*
X121758570Y-67001571D01*
X121758570Y-67001571D02*
X121758570Y-66658714D01*
X121758570Y-66658714D02*
X121701427Y-66544428D01*
X121701427Y-66544428D02*
X121644284Y-66487285D01*
X121644284Y-66487285D02*
X121529999Y-66430142D01*
X121529999Y-66430142D02*
X121358570Y-66430142D01*
X121358570Y-66430142D02*
X121244284Y-66487285D01*
X121244284Y-66487285D02*
X121187142Y-66544428D01*
X121187142Y-66544428D02*
X121129999Y-66658714D01*
X121129999Y-66658714D02*
X121129999Y-67001571D01*
X121129999Y-67001571D02*
X121187142Y-67115857D01*
X121187142Y-67115857D02*
X121244284Y-67173000D01*
X121244284Y-67173000D02*
X121358570Y-67230142D01*
X121358570Y-67230142D02*
X121529999Y-67230142D01*
X120729999Y-66430142D02*
X120501428Y-67230142D01*
X120501428Y-67230142D02*
X120272856Y-66658714D01*
X120272856Y-66658714D02*
X120044285Y-67230142D01*
X120044285Y-67230142D02*
X119815713Y-66430142D01*
X118901427Y-67173000D02*
X119015713Y-67230142D01*
X119015713Y-67230142D02*
X119244285Y-67230142D01*
X119244285Y-67230142D02*
X119358570Y-67173000D01*
X119358570Y-67173000D02*
X119415713Y-67058714D01*
X119415713Y-67058714D02*
X119415713Y-66601571D01*
X119415713Y-66601571D02*
X119358570Y-66487285D01*
X119358570Y-66487285D02*
X119244285Y-66430142D01*
X119244285Y-66430142D02*
X119015713Y-66430142D01*
X119015713Y-66430142D02*
X118901427Y-66487285D01*
X118901427Y-66487285D02*
X118844285Y-66601571D01*
X118844285Y-66601571D02*
X118844285Y-66715857D01*
X118844285Y-66715857D02*
X119415713Y-66830142D01*
X118329999Y-67230142D02*
X118329999Y-66430142D01*
X118329999Y-66658714D02*
X118272856Y-66544428D01*
X118272856Y-66544428D02*
X118215714Y-66487285D01*
X118215714Y-66487285D02*
X118101428Y-66430142D01*
X118101428Y-66430142D02*
X117987142Y-66430142D01*
D10*
X147879411Y-73997438D02*
X147974649Y-73949819D01*
X147974649Y-73949819D02*
X148117506Y-73949819D01*
X148117506Y-73949819D02*
X148260363Y-73997438D01*
X148260363Y-73997438D02*
X148355601Y-74092676D01*
X148355601Y-74092676D02*
X148403220Y-74187914D01*
X148403220Y-74187914D02*
X148450839Y-74378390D01*
X148450839Y-74378390D02*
X148450839Y-74521247D01*
X148450839Y-74521247D02*
X148403220Y-74711723D01*
X148403220Y-74711723D02*
X148355601Y-74806961D01*
X148355601Y-74806961D02*
X148260363Y-74902200D01*
X148260363Y-74902200D02*
X148117506Y-74949819D01*
X148117506Y-74949819D02*
X148022268Y-74949819D01*
X148022268Y-74949819D02*
X147879411Y-74902200D01*
X147879411Y-74902200D02*
X147831792Y-74854580D01*
X147831792Y-74854580D02*
X147831792Y-74521247D01*
X147831792Y-74521247D02*
X148022268Y-74521247D01*
X147403220Y-74949819D02*
X147403220Y-73949819D01*
X147403220Y-73949819D02*
X146831792Y-74949819D01*
X146831792Y-74949819D02*
X146831792Y-73949819D01*
X146355601Y-74949819D02*
X146355601Y-73949819D01*
X146355601Y-73949819D02*
X146117506Y-73949819D01*
X146117506Y-73949819D02*
X145974649Y-73997438D01*
X145974649Y-73997438D02*
X145879411Y-74092676D01*
X145879411Y-74092676D02*
X145831792Y-74187914D01*
X145831792Y-74187914D02*
X145784173Y-74378390D01*
X145784173Y-74378390D02*
X145784173Y-74521247D01*
X145784173Y-74521247D02*
X145831792Y-74711723D01*
X145831792Y-74711723D02*
X145879411Y-74806961D01*
X145879411Y-74806961D02*
X145974649Y-74902200D01*
X145974649Y-74902200D02*
X146117506Y-74949819D01*
X146117506Y-74949819D02*
X146355601Y-74949819D01*
D11*
G36*
X109112155Y-98605352D02*
G01*
X104907394Y-98605352D01*
X104907394Y-98169638D01*
X105193108Y-98169638D01*
X105213204Y-98244638D01*
X105268108Y-98299542D01*
X105343108Y-98319638D01*
X105914537Y-98319638D01*
X106485965Y-98319638D01*
X106560965Y-98299542D01*
X106615869Y-98244638D01*
X106635965Y-98169638D01*
X107193108Y-98169638D01*
X107213204Y-98244638D01*
X107268108Y-98299542D01*
X107343108Y-98319638D01*
X107418108Y-98299542D01*
X107473012Y-98244638D01*
X107493108Y-98169638D01*
X107493108Y-96845772D01*
X107873846Y-97661641D01*
X107882354Y-97671775D01*
X107886876Y-97684209D01*
X107906931Y-97701047D01*
X107923773Y-97721107D01*
X107936208Y-97725629D01*
X107946341Y-97734136D01*
X107972130Y-97738691D01*
X107996745Y-97747642D01*
X108009774Y-97745340D01*
X108022803Y-97747642D01*
X108047416Y-97738691D01*
X108073207Y-97734136D01*
X108083339Y-97725628D01*
X108095774Y-97721107D01*
X108112614Y-97701049D01*
X108132672Y-97684209D01*
X108137193Y-97671774D01*
X108145701Y-97661642D01*
X108526441Y-96845772D01*
X108526441Y-98169638D01*
X108546537Y-98244638D01*
X108601441Y-98299542D01*
X108676441Y-98319638D01*
X108751441Y-98299542D01*
X108806345Y-98244638D01*
X108826441Y-98169638D01*
X108826441Y-96169638D01*
X108824712Y-96163186D01*
X108825874Y-96156609D01*
X108814761Y-96126049D01*
X108806345Y-96094638D01*
X108801621Y-96089914D01*
X108799339Y-96083637D01*
X108774432Y-96062725D01*
X108751441Y-96039734D01*
X108744990Y-96038005D01*
X108739874Y-96033710D01*
X108707848Y-96028053D01*
X108676441Y-96019638D01*
X108669989Y-96021366D01*
X108663412Y-96020205D01*
X108632850Y-96031318D01*
X108601441Y-96039734D01*
X108596718Y-96044456D01*
X108590441Y-96046739D01*
X108569531Y-96071643D01*
X108546537Y-96094638D01*
X108544808Y-96101090D01*
X108540514Y-96106205D01*
X108009774Y-97243503D01*
X107479035Y-96106205D01*
X107474740Y-96101090D01*
X107473012Y-96094638D01*
X107450014Y-96071640D01*
X107429108Y-96046740D01*
X107422831Y-96044457D01*
X107418108Y-96039734D01*
X107386694Y-96031316D01*
X107356137Y-96020205D01*
X107349559Y-96021366D01*
X107343108Y-96019638D01*
X107311694Y-96028055D01*
X107279675Y-96033711D01*
X107274560Y-96038005D01*
X107268108Y-96039734D01*
X107245110Y-96062731D01*
X107220210Y-96083638D01*
X107217927Y-96089914D01*
X107213204Y-96094638D01*
X107204786Y-96126051D01*
X107193675Y-96156609D01*
X107194836Y-96163186D01*
X107193108Y-96169638D01*
X107193108Y-98169638D01*
X106635965Y-98169638D01*
X106615869Y-98094638D01*
X106560965Y-98039734D01*
X106485965Y-98019638D01*
X106064537Y-98019638D01*
X106064537Y-96627008D01*
X106189423Y-96751894D01*
X106210337Y-96763968D01*
X106228407Y-96779992D01*
X106418883Y-96875230D01*
X106494953Y-96890797D01*
X106568614Y-96866243D01*
X106620129Y-96808148D01*
X106635696Y-96732079D01*
X106611142Y-96658418D01*
X106553047Y-96606902D01*
X106384343Y-96522550D01*
X106221580Y-96359787D01*
X106039345Y-96086433D01*
X106013686Y-96063883D01*
X105989537Y-96039734D01*
X105984747Y-96038450D01*
X105981021Y-96035176D01*
X105947525Y-96028477D01*
X105914537Y-96019638D01*
X105909746Y-96020921D01*
X105904883Y-96019949D01*
X105872527Y-96030894D01*
X105839537Y-96039734D01*
X105836030Y-96043240D01*
X105831332Y-96044830D01*
X105808782Y-96070488D01*
X105784633Y-96094638D01*
X105783349Y-96099427D01*
X105780075Y-96103154D01*
X105773376Y-96136649D01*
X105764537Y-96169638D01*
X105764537Y-98019638D01*
X105343108Y-98019638D01*
X105268108Y-98039734D01*
X105213204Y-98094638D01*
X105193108Y-98169638D01*
X104907394Y-98169638D01*
X104907394Y-95733924D01*
X109112155Y-95733924D01*
X109112155Y-98605352D01*
G37*
D10*
X148490839Y-115992200D02*
X148347982Y-116039819D01*
X148347982Y-116039819D02*
X148109887Y-116039819D01*
X148109887Y-116039819D02*
X148014649Y-115992200D01*
X148014649Y-115992200D02*
X147967030Y-115944580D01*
X147967030Y-115944580D02*
X147919411Y-115849342D01*
X147919411Y-115849342D02*
X147919411Y-115754104D01*
X147919411Y-115754104D02*
X147967030Y-115658866D01*
X147967030Y-115658866D02*
X148014649Y-115611247D01*
X148014649Y-115611247D02*
X148109887Y-115563628D01*
X148109887Y-115563628D02*
X148300363Y-115516009D01*
X148300363Y-115516009D02*
X148395601Y-115468390D01*
X148395601Y-115468390D02*
X148443220Y-115420771D01*
X148443220Y-115420771D02*
X148490839Y-115325533D01*
X148490839Y-115325533D02*
X148490839Y-115230295D01*
X148490839Y-115230295D02*
X148443220Y-115135057D01*
X148443220Y-115135057D02*
X148395601Y-115087438D01*
X148395601Y-115087438D02*
X148300363Y-115039819D01*
X148300363Y-115039819D02*
X148062268Y-115039819D01*
X148062268Y-115039819D02*
X147919411Y-115087438D01*
X147490839Y-116039819D02*
X147490839Y-115039819D01*
X147490839Y-115039819D02*
X147252744Y-115039819D01*
X147252744Y-115039819D02*
X147109887Y-115087438D01*
X147109887Y-115087438D02*
X147014649Y-115182676D01*
X147014649Y-115182676D02*
X146967030Y-115277914D01*
X146967030Y-115277914D02*
X146919411Y-115468390D01*
X146919411Y-115468390D02*
X146919411Y-115611247D01*
X146919411Y-115611247D02*
X146967030Y-115801723D01*
X146967030Y-115801723D02*
X147014649Y-115896961D01*
X147014649Y-115896961D02*
X147109887Y-115992200D01*
X147109887Y-115992200D02*
X147252744Y-116039819D01*
X147252744Y-116039819D02*
X147490839Y-116039819D01*
X146538458Y-115754104D02*
X146062268Y-115754104D01*
X146633696Y-116039819D02*
X146300363Y-115039819D01*
X146300363Y-115039819D02*
X145967030Y-116039819D01*
M02*
