%TF.GenerationSoftware,KiCad,Pcbnew,7.0.10-7.0.10~ubuntu22.04.1*%
%TF.CreationDate,2024-02-13T17:03:35+08:00*%
%TF.ProjectId,motor-controller-pcb,6d6f746f-722d-4636-9f6e-74726f6c6c65,2.1b1*%
%TF.SameCoordinates,Original*%
%TF.FileFunction,Soldermask,Bot*%
%TF.FilePolarity,Negative*%
%FSLAX46Y46*%
G04 Gerber Fmt 4.6, Leading zero omitted, Abs format (unit mm)*
G04 Created by KiCad (PCBNEW 7.0.10-7.0.10~ubuntu22.04.1) date 2024-02-13 17:03:35*
%MOMM*%
%LPD*%
G01*
G04 APERTURE LIST*
%ADD10R,1.700000X1.700000*%
%ADD11O,1.700000X1.700000*%
%ADD12C,3.200000*%
%ADD13R,1.000000X1.000000*%
%ADD14C,0.650000*%
%ADD15O,1.000000X2.100000*%
%ADD16O,1.000000X1.600000*%
G04 APERTURE END LIST*
D10*
%TO.C,J6*%
X150270000Y-69420000D03*
D11*
X150270000Y-71960000D03*
X150270000Y-74500000D03*
%TD*%
D12*
%TO.C,H5*%
X127060000Y-100780000D03*
%TD*%
D13*
%TO.C,TP1*%
X114580000Y-128080000D03*
%TD*%
D14*
%TO.C,J1*%
X144090000Y-65140000D03*
X138310000Y-65140000D03*
D15*
X145520000Y-65670000D03*
D16*
X145520000Y-61490000D03*
D15*
X136880000Y-65670000D03*
D16*
X136880000Y-61490000D03*
%TD*%
D10*
%TO.C,J2*%
X150420000Y-115710000D03*
D11*
X150420000Y-113170000D03*
X150420000Y-110630000D03*
X150420000Y-108090000D03*
%TD*%
D10*
%TO.C,U4*%
X114290000Y-62120000D03*
D11*
X114290000Y-64660000D03*
X114290000Y-67200000D03*
X114290000Y-69740000D03*
X129540000Y-67200000D03*
X114290000Y-72280000D03*
X114290000Y-74820000D03*
D10*
X129540000Y-62120000D03*
D11*
X114250000Y-77370000D03*
X129540000Y-77360000D03*
X129540000Y-74820000D03*
X129540000Y-72280000D03*
X129540000Y-69740000D03*
X129540000Y-64660000D03*
%TD*%
D12*
%TO.C,H3*%
X107950000Y-125760000D03*
%TD*%
%TO.C,H1*%
X150328000Y-63385000D03*
%TD*%
%TO.C,H4*%
X150290000Y-125780000D03*
%TD*%
D10*
%TO.C,J7*%
X107940000Y-85010000D03*
D11*
X107940000Y-82470000D03*
X107940000Y-79930000D03*
X107940000Y-77390000D03*
X107940000Y-74850000D03*
X107940000Y-72310000D03*
X107940000Y-69770000D03*
%TD*%
D12*
%TO.C,H6*%
X127040000Y-123020000D03*
%TD*%
%TO.C,H2*%
X107948000Y-63385000D03*
%TD*%
D10*
%TO.C,J4*%
X111690000Y-90680000D03*
D11*
X111690000Y-93220000D03*
X111690000Y-95760000D03*
X111690000Y-98300000D03*
%TD*%
D10*
%TO.C,J8*%
X111655000Y-112310000D03*
D11*
X111655000Y-114850000D03*
X111655000Y-117390000D03*
X111655000Y-119930000D03*
%TD*%
M02*
