%TF.GenerationSoftware,KiCad,Pcbnew,7.0.10-7.0.10~ubuntu22.04.1*%
%TF.CreationDate,2024-02-19T22:46:55+08:00*%
%TF.ProjectId,motor-controller-pcb,6d6f746f-722d-4636-9f6e-74726f6c6c65,2.1b1*%
%TF.SameCoordinates,Original*%
%TF.FileFunction,Legend,Top*%
%TF.FilePolarity,Positive*%
%FSLAX46Y46*%
G04 Gerber Fmt 4.6, Leading zero omitted, Abs format (unit mm)*
G04 Created by KiCad (PCBNEW 7.0.10-7.0.10~ubuntu22.04.1) date 2024-02-19 22:46:55*
%MOMM*%
%LPD*%
G01*
G04 APERTURE LIST*
%ADD10C,0.150000*%
%ADD11C,0.300000*%
%ADD12C,0.120000*%
%ADD13C,0.250000*%
%ADD14C,0.100000*%
G04 APERTURE END LIST*
D10*
G36*
X111398020Y-101106672D02*
G01*
X111426541Y-101163714D01*
X111426541Y-101179762D01*
X111100351Y-101244999D01*
X111100351Y-101163714D01*
X111128871Y-101106672D01*
X111185913Y-101078152D01*
X111340979Y-101078152D01*
X111398020Y-101106672D01*
G37*
G36*
X112384926Y-101887676D02*
G01*
X109236093Y-101887676D01*
X109236093Y-100667770D01*
X109378950Y-100667770D01*
X109382771Y-100693536D01*
X109716104Y-101693536D01*
X109717446Y-101695227D01*
X109717505Y-101697386D01*
X109733254Y-101715147D01*
X109747995Y-101733722D01*
X109750108Y-101734154D01*
X109751542Y-101735771D01*
X109775012Y-101739251D01*
X109798256Y-101744008D01*
X109800155Y-101742979D01*
X109802291Y-101743296D01*
X109822504Y-101730877D01*
X109843370Y-101719579D01*
X109844163Y-101717571D01*
X109846003Y-101716441D01*
X109858406Y-101693536D01*
X109866312Y-101669819D01*
X110378922Y-101669819D01*
X110396469Y-101718028D01*
X110440898Y-101743680D01*
X110491422Y-101734771D01*
X110524399Y-101695471D01*
X110528922Y-101669819D01*
X110528922Y-101526961D01*
X110950351Y-101526961D01*
X110951884Y-101531173D01*
X110950842Y-101535535D01*
X110958269Y-101560502D01*
X111005888Y-101655741D01*
X111014041Y-101663460D01*
X111018508Y-101673765D01*
X111039429Y-101689282D01*
X111134667Y-101736901D01*
X111139120Y-101737413D01*
X111142556Y-101740296D01*
X111168208Y-101744819D01*
X111358684Y-101744819D01*
X111362897Y-101743285D01*
X111367258Y-101744327D01*
X111392225Y-101736901D01*
X111487463Y-101689282D01*
X111522735Y-101652028D01*
X111525810Y-101600818D01*
X111495246Y-101559612D01*
X111445347Y-101547692D01*
X111420381Y-101555118D01*
X111340979Y-101594819D01*
X111185913Y-101594819D01*
X111128871Y-101566298D01*
X111100351Y-101509256D01*
X111100351Y-101397970D01*
X111516249Y-101314791D01*
X111526836Y-101308351D01*
X111539041Y-101306199D01*
X111548075Y-101295432D01*
X111560081Y-101288130D01*
X111564051Y-101276392D01*
X111572018Y-101266899D01*
X111576541Y-101241247D01*
X111576541Y-101146009D01*
X111575007Y-101141795D01*
X111576049Y-101137434D01*
X111568623Y-101112468D01*
X111521004Y-101017230D01*
X111512850Y-101009510D01*
X111508384Y-100999206D01*
X111496144Y-100990128D01*
X111713395Y-100990128D01*
X111722304Y-101040652D01*
X111761604Y-101073629D01*
X111787256Y-101078152D01*
X111855113Y-101078152D01*
X111855113Y-101669819D01*
X111872660Y-101718028D01*
X111917089Y-101743680D01*
X111967613Y-101734771D01*
X112000590Y-101695471D01*
X112005113Y-101669819D01*
X112005113Y-101078152D01*
X112168208Y-101078152D01*
X112216417Y-101060605D01*
X112242069Y-101016176D01*
X112233160Y-100965652D01*
X112193860Y-100932675D01*
X112168208Y-100928152D01*
X112005113Y-100928152D01*
X112005113Y-100830381D01*
X112033633Y-100773339D01*
X112090675Y-100744819D01*
X112168208Y-100744819D01*
X112216417Y-100727272D01*
X112242069Y-100682843D01*
X112233160Y-100632319D01*
X112193860Y-100599342D01*
X112168208Y-100594819D01*
X112072970Y-100594819D01*
X112068756Y-100596352D01*
X112064395Y-100595311D01*
X112039429Y-100602737D01*
X111944191Y-100650356D01*
X111936471Y-100658509D01*
X111926167Y-100662976D01*
X111910650Y-100683897D01*
X111863031Y-100779135D01*
X111862518Y-100783588D01*
X111859636Y-100787024D01*
X111855113Y-100812676D01*
X111855113Y-100928152D01*
X111787256Y-100928152D01*
X111739047Y-100945699D01*
X111713395Y-100990128D01*
X111496144Y-100990128D01*
X111487463Y-100983689D01*
X111392225Y-100936070D01*
X111387771Y-100935557D01*
X111384336Y-100932675D01*
X111358684Y-100928152D01*
X111168208Y-100928152D01*
X111163994Y-100929685D01*
X111159633Y-100928644D01*
X111134667Y-100936070D01*
X111039429Y-100983689D01*
X111031709Y-100991842D01*
X111021405Y-100996309D01*
X111005888Y-101017230D01*
X110958269Y-101112468D01*
X110957756Y-101116921D01*
X110954874Y-101120357D01*
X110950351Y-101146009D01*
X110950351Y-101526961D01*
X110528922Y-101526961D01*
X110528922Y-101211333D01*
X110563180Y-101142817D01*
X110593587Y-101112410D01*
X110662103Y-101078152D01*
X110739636Y-101078152D01*
X110787845Y-101060605D01*
X110813497Y-101016176D01*
X110804588Y-100965652D01*
X110765288Y-100932675D01*
X110739636Y-100928152D01*
X110644398Y-100928152D01*
X110640184Y-100929685D01*
X110635823Y-100928644D01*
X110610857Y-100936070D01*
X110520880Y-100981058D01*
X110511375Y-100954943D01*
X110466946Y-100929291D01*
X110416422Y-100938200D01*
X110383445Y-100977500D01*
X110378922Y-101003152D01*
X110378922Y-101669819D01*
X109866312Y-101669819D01*
X110191739Y-100693536D01*
X110190338Y-100642253D01*
X110156300Y-100603867D01*
X110105552Y-100596342D01*
X110061839Y-100623197D01*
X110049437Y-100646102D01*
X109787255Y-101432648D01*
X109525073Y-100646102D01*
X109493182Y-100605916D01*
X109442921Y-100595630D01*
X109397807Y-100620059D01*
X109378950Y-100667770D01*
X109236093Y-100667770D01*
X109236093Y-100451962D01*
X112384926Y-100451962D01*
X112384926Y-101887676D01*
G37*
X105080588Y-65047438D02*
X104985350Y-64999819D01*
X104985350Y-64999819D02*
X104842493Y-64999819D01*
X104842493Y-64999819D02*
X104699636Y-65047438D01*
X104699636Y-65047438D02*
X104604398Y-65142676D01*
X104604398Y-65142676D02*
X104556779Y-65237914D01*
X104556779Y-65237914D02*
X104509160Y-65428390D01*
X104509160Y-65428390D02*
X104509160Y-65571247D01*
X104509160Y-65571247D02*
X104556779Y-65761723D01*
X104556779Y-65761723D02*
X104604398Y-65856961D01*
X104604398Y-65856961D02*
X104699636Y-65952200D01*
X104699636Y-65952200D02*
X104842493Y-65999819D01*
X104842493Y-65999819D02*
X104937731Y-65999819D01*
X104937731Y-65999819D02*
X105080588Y-65952200D01*
X105080588Y-65952200D02*
X105128207Y-65904580D01*
X105128207Y-65904580D02*
X105128207Y-65571247D01*
X105128207Y-65571247D02*
X104937731Y-65571247D01*
X105556779Y-65999819D02*
X105556779Y-64999819D01*
X105556779Y-64999819D02*
X106128207Y-65999819D01*
X106128207Y-65999819D02*
X106128207Y-64999819D01*
X106604398Y-65999819D02*
X106604398Y-64999819D01*
X106604398Y-64999819D02*
X106842493Y-64999819D01*
X106842493Y-64999819D02*
X106985350Y-65047438D01*
X106985350Y-65047438D02*
X107080588Y-65142676D01*
X107080588Y-65142676D02*
X107128207Y-65237914D01*
X107128207Y-65237914D02*
X107175826Y-65428390D01*
X107175826Y-65428390D02*
X107175826Y-65571247D01*
X107175826Y-65571247D02*
X107128207Y-65761723D01*
X107128207Y-65761723D02*
X107080588Y-65856961D01*
X107080588Y-65856961D02*
X106985350Y-65952200D01*
X106985350Y-65952200D02*
X106842493Y-65999819D01*
X106842493Y-65999819D02*
X106604398Y-65999819D01*
G36*
X113528020Y-125006672D02*
G01*
X113556541Y-125063714D01*
X113556541Y-125079762D01*
X113230351Y-125144999D01*
X113230351Y-125063714D01*
X113258871Y-125006672D01*
X113315913Y-124978152D01*
X113470979Y-124978152D01*
X113528020Y-125006672D01*
G37*
G36*
X114514926Y-125787676D02*
G01*
X111366093Y-125787676D01*
X111366093Y-124567770D01*
X111508950Y-124567770D01*
X111512771Y-124593536D01*
X111846104Y-125593536D01*
X111847446Y-125595227D01*
X111847505Y-125597386D01*
X111863254Y-125615147D01*
X111877995Y-125633722D01*
X111880108Y-125634154D01*
X111881542Y-125635771D01*
X111905012Y-125639251D01*
X111928256Y-125644008D01*
X111930155Y-125642979D01*
X111932291Y-125643296D01*
X111952504Y-125630877D01*
X111973370Y-125619579D01*
X111974163Y-125617571D01*
X111976003Y-125616441D01*
X111988406Y-125593536D01*
X111996312Y-125569819D01*
X112508922Y-125569819D01*
X112526469Y-125618028D01*
X112570898Y-125643680D01*
X112621422Y-125634771D01*
X112654399Y-125595471D01*
X112658922Y-125569819D01*
X112658922Y-125426961D01*
X113080351Y-125426961D01*
X113081884Y-125431173D01*
X113080842Y-125435535D01*
X113088269Y-125460502D01*
X113135888Y-125555741D01*
X113144041Y-125563460D01*
X113148508Y-125573765D01*
X113169429Y-125589282D01*
X113264667Y-125636901D01*
X113269120Y-125637413D01*
X113272556Y-125640296D01*
X113298208Y-125644819D01*
X113488684Y-125644819D01*
X113492897Y-125643285D01*
X113497258Y-125644327D01*
X113522225Y-125636901D01*
X113617463Y-125589282D01*
X113652735Y-125552028D01*
X113655810Y-125500818D01*
X113625246Y-125459612D01*
X113575347Y-125447692D01*
X113550381Y-125455118D01*
X113470979Y-125494819D01*
X113315913Y-125494819D01*
X113258871Y-125466298D01*
X113230351Y-125409256D01*
X113230351Y-125297970D01*
X113646249Y-125214791D01*
X113656836Y-125208351D01*
X113669041Y-125206199D01*
X113678075Y-125195432D01*
X113690081Y-125188130D01*
X113694051Y-125176392D01*
X113702018Y-125166899D01*
X113706541Y-125141247D01*
X113706541Y-125046009D01*
X113705007Y-125041795D01*
X113706049Y-125037434D01*
X113698623Y-125012468D01*
X113651004Y-124917230D01*
X113642850Y-124909510D01*
X113638384Y-124899206D01*
X113626144Y-124890128D01*
X113843395Y-124890128D01*
X113852304Y-124940652D01*
X113891604Y-124973629D01*
X113917256Y-124978152D01*
X113985113Y-124978152D01*
X113985113Y-125569819D01*
X114002660Y-125618028D01*
X114047089Y-125643680D01*
X114097613Y-125634771D01*
X114130590Y-125595471D01*
X114135113Y-125569819D01*
X114135113Y-124978152D01*
X114298208Y-124978152D01*
X114346417Y-124960605D01*
X114372069Y-124916176D01*
X114363160Y-124865652D01*
X114323860Y-124832675D01*
X114298208Y-124828152D01*
X114135113Y-124828152D01*
X114135113Y-124730381D01*
X114163633Y-124673339D01*
X114220675Y-124644819D01*
X114298208Y-124644819D01*
X114346417Y-124627272D01*
X114372069Y-124582843D01*
X114363160Y-124532319D01*
X114323860Y-124499342D01*
X114298208Y-124494819D01*
X114202970Y-124494819D01*
X114198756Y-124496352D01*
X114194395Y-124495311D01*
X114169429Y-124502737D01*
X114074191Y-124550356D01*
X114066471Y-124558509D01*
X114056167Y-124562976D01*
X114040650Y-124583897D01*
X113993031Y-124679135D01*
X113992518Y-124683588D01*
X113989636Y-124687024D01*
X113985113Y-124712676D01*
X113985113Y-124828152D01*
X113917256Y-124828152D01*
X113869047Y-124845699D01*
X113843395Y-124890128D01*
X113626144Y-124890128D01*
X113617463Y-124883689D01*
X113522225Y-124836070D01*
X113517771Y-124835557D01*
X113514336Y-124832675D01*
X113488684Y-124828152D01*
X113298208Y-124828152D01*
X113293994Y-124829685D01*
X113289633Y-124828644D01*
X113264667Y-124836070D01*
X113169429Y-124883689D01*
X113161709Y-124891842D01*
X113151405Y-124896309D01*
X113135888Y-124917230D01*
X113088269Y-125012468D01*
X113087756Y-125016921D01*
X113084874Y-125020357D01*
X113080351Y-125046009D01*
X113080351Y-125426961D01*
X112658922Y-125426961D01*
X112658922Y-125111333D01*
X112693180Y-125042817D01*
X112723587Y-125012410D01*
X112792103Y-124978152D01*
X112869636Y-124978152D01*
X112917845Y-124960605D01*
X112943497Y-124916176D01*
X112934588Y-124865652D01*
X112895288Y-124832675D01*
X112869636Y-124828152D01*
X112774398Y-124828152D01*
X112770184Y-124829685D01*
X112765823Y-124828644D01*
X112740857Y-124836070D01*
X112650880Y-124881058D01*
X112641375Y-124854943D01*
X112596946Y-124829291D01*
X112546422Y-124838200D01*
X112513445Y-124877500D01*
X112508922Y-124903152D01*
X112508922Y-125569819D01*
X111996312Y-125569819D01*
X112321739Y-124593536D01*
X112320338Y-124542253D01*
X112286300Y-124503867D01*
X112235552Y-124496342D01*
X112191839Y-124523197D01*
X112179437Y-124546102D01*
X111917255Y-125332648D01*
X111655073Y-124546102D01*
X111623182Y-124505916D01*
X111572921Y-124495630D01*
X111527807Y-124520059D01*
X111508950Y-124567770D01*
X111366093Y-124567770D01*
X111366093Y-124351962D01*
X114514926Y-124351962D01*
X114514926Y-125787676D01*
G37*
X121220000Y-99080000D02*
X120830000Y-98800000D01*
X152796779Y-116269819D02*
X152796779Y-115269819D01*
X152796779Y-115269819D02*
X153034874Y-115269819D01*
X153034874Y-115269819D02*
X153177731Y-115317438D01*
X153177731Y-115317438D02*
X153272969Y-115412676D01*
X153272969Y-115412676D02*
X153320588Y-115507914D01*
X153320588Y-115507914D02*
X153368207Y-115698390D01*
X153368207Y-115698390D02*
X153368207Y-115841247D01*
X153368207Y-115841247D02*
X153320588Y-116031723D01*
X153320588Y-116031723D02*
X153272969Y-116126961D01*
X153272969Y-116126961D02*
X153177731Y-116222200D01*
X153177731Y-116222200D02*
X153034874Y-116269819D01*
X153034874Y-116269819D02*
X152796779Y-116269819D01*
X153220588Y-107717438D02*
X153125350Y-107669819D01*
X153125350Y-107669819D02*
X152982493Y-107669819D01*
X152982493Y-107669819D02*
X152839636Y-107717438D01*
X152839636Y-107717438D02*
X152744398Y-107812676D01*
X152744398Y-107812676D02*
X152696779Y-107907914D01*
X152696779Y-107907914D02*
X152649160Y-108098390D01*
X152649160Y-108098390D02*
X152649160Y-108241247D01*
X152649160Y-108241247D02*
X152696779Y-108431723D01*
X152696779Y-108431723D02*
X152744398Y-108526961D01*
X152744398Y-108526961D02*
X152839636Y-108622200D01*
X152839636Y-108622200D02*
X152982493Y-108669819D01*
X152982493Y-108669819D02*
X153077731Y-108669819D01*
X153077731Y-108669819D02*
X153220588Y-108622200D01*
X153220588Y-108622200D02*
X153268207Y-108574580D01*
X153268207Y-108574580D02*
X153268207Y-108241247D01*
X153268207Y-108241247D02*
X153077731Y-108241247D01*
X142707255Y-104589819D02*
X142897731Y-104589819D01*
X142897731Y-104589819D02*
X142992969Y-104637438D01*
X142992969Y-104637438D02*
X143088207Y-104732676D01*
X143088207Y-104732676D02*
X143135826Y-104923152D01*
X143135826Y-104923152D02*
X143135826Y-105256485D01*
X143135826Y-105256485D02*
X143088207Y-105446961D01*
X143088207Y-105446961D02*
X142992969Y-105542200D01*
X142992969Y-105542200D02*
X142897731Y-105589819D01*
X142897731Y-105589819D02*
X142707255Y-105589819D01*
X142707255Y-105589819D02*
X142612017Y-105542200D01*
X142612017Y-105542200D02*
X142516779Y-105446961D01*
X142516779Y-105446961D02*
X142469160Y-105256485D01*
X142469160Y-105256485D02*
X142469160Y-104923152D01*
X142469160Y-104923152D02*
X142516779Y-104732676D01*
X142516779Y-104732676D02*
X142612017Y-104637438D01*
X142612017Y-104637438D02*
X142707255Y-104589819D01*
X144040588Y-105589819D02*
X143564398Y-105589819D01*
X143564398Y-105589819D02*
X143564398Y-104589819D01*
X144373922Y-105066009D02*
X144707255Y-105066009D01*
X144850112Y-105589819D02*
X144373922Y-105589819D01*
X144373922Y-105589819D02*
X144373922Y-104589819D01*
X144373922Y-104589819D02*
X144850112Y-104589819D01*
X145278684Y-105589819D02*
X145278684Y-104589819D01*
X145278684Y-104589819D02*
X145516779Y-104589819D01*
X145516779Y-104589819D02*
X145659636Y-104637438D01*
X145659636Y-104637438D02*
X145754874Y-104732676D01*
X145754874Y-104732676D02*
X145802493Y-104827914D01*
X145802493Y-104827914D02*
X145850112Y-105018390D01*
X145850112Y-105018390D02*
X145850112Y-105161247D01*
X145850112Y-105161247D02*
X145802493Y-105351723D01*
X145802493Y-105351723D02*
X145754874Y-105446961D01*
X145754874Y-105446961D02*
X145659636Y-105542200D01*
X145659636Y-105542200D02*
X145516779Y-105589819D01*
X145516779Y-105589819D02*
X145278684Y-105589819D01*
X147040589Y-105589819D02*
X147040589Y-104589819D01*
X147040589Y-104589819D02*
X147278684Y-104589819D01*
X147278684Y-104589819D02*
X147421541Y-104637438D01*
X147421541Y-104637438D02*
X147516779Y-104732676D01*
X147516779Y-104732676D02*
X147564398Y-104827914D01*
X147564398Y-104827914D02*
X147612017Y-105018390D01*
X147612017Y-105018390D02*
X147612017Y-105161247D01*
X147612017Y-105161247D02*
X147564398Y-105351723D01*
X147564398Y-105351723D02*
X147516779Y-105446961D01*
X147516779Y-105446961D02*
X147421541Y-105542200D01*
X147421541Y-105542200D02*
X147278684Y-105589819D01*
X147278684Y-105589819D02*
X147040589Y-105589819D01*
X148040589Y-105589819D02*
X148040589Y-104923152D01*
X148040589Y-104589819D02*
X147992970Y-104637438D01*
X147992970Y-104637438D02*
X148040589Y-104685057D01*
X148040589Y-104685057D02*
X148088208Y-104637438D01*
X148088208Y-104637438D02*
X148040589Y-104589819D01*
X148040589Y-104589819D02*
X148040589Y-104685057D01*
X148469160Y-105542200D02*
X148564398Y-105589819D01*
X148564398Y-105589819D02*
X148754874Y-105589819D01*
X148754874Y-105589819D02*
X148850112Y-105542200D01*
X148850112Y-105542200D02*
X148897731Y-105446961D01*
X148897731Y-105446961D02*
X148897731Y-105399342D01*
X148897731Y-105399342D02*
X148850112Y-105304104D01*
X148850112Y-105304104D02*
X148754874Y-105256485D01*
X148754874Y-105256485D02*
X148612017Y-105256485D01*
X148612017Y-105256485D02*
X148516779Y-105208866D01*
X148516779Y-105208866D02*
X148469160Y-105113628D01*
X148469160Y-105113628D02*
X148469160Y-105066009D01*
X148469160Y-105066009D02*
X148516779Y-104970771D01*
X148516779Y-104970771D02*
X148612017Y-104923152D01*
X148612017Y-104923152D02*
X148754874Y-104923152D01*
X148754874Y-104923152D02*
X148850112Y-104970771D01*
X149326303Y-104923152D02*
X149326303Y-105923152D01*
X149326303Y-104970771D02*
X149421541Y-104923152D01*
X149421541Y-104923152D02*
X149612017Y-104923152D01*
X149612017Y-104923152D02*
X149707255Y-104970771D01*
X149707255Y-104970771D02*
X149754874Y-105018390D01*
X149754874Y-105018390D02*
X149802493Y-105113628D01*
X149802493Y-105113628D02*
X149802493Y-105399342D01*
X149802493Y-105399342D02*
X149754874Y-105494580D01*
X149754874Y-105494580D02*
X149707255Y-105542200D01*
X149707255Y-105542200D02*
X149612017Y-105589819D01*
X149612017Y-105589819D02*
X149421541Y-105589819D01*
X149421541Y-105589819D02*
X149326303Y-105542200D01*
X150373922Y-105589819D02*
X150278684Y-105542200D01*
X150278684Y-105542200D02*
X150231065Y-105446961D01*
X150231065Y-105446961D02*
X150231065Y-104589819D01*
X151183446Y-105589819D02*
X151183446Y-105066009D01*
X151183446Y-105066009D02*
X151135827Y-104970771D01*
X151135827Y-104970771D02*
X151040589Y-104923152D01*
X151040589Y-104923152D02*
X150850113Y-104923152D01*
X150850113Y-104923152D02*
X150754875Y-104970771D01*
X151183446Y-105542200D02*
X151088208Y-105589819D01*
X151088208Y-105589819D02*
X150850113Y-105589819D01*
X150850113Y-105589819D02*
X150754875Y-105542200D01*
X150754875Y-105542200D02*
X150707256Y-105446961D01*
X150707256Y-105446961D02*
X150707256Y-105351723D01*
X150707256Y-105351723D02*
X150754875Y-105256485D01*
X150754875Y-105256485D02*
X150850113Y-105208866D01*
X150850113Y-105208866D02*
X151088208Y-105208866D01*
X151088208Y-105208866D02*
X151183446Y-105161247D01*
X151564399Y-104923152D02*
X151802494Y-105589819D01*
X152040589Y-104923152D02*
X151802494Y-105589819D01*
X151802494Y-105589819D02*
X151707256Y-105827914D01*
X151707256Y-105827914D02*
X151659637Y-105875533D01*
X151659637Y-105875533D02*
X151564399Y-105923152D01*
X143040588Y-107199819D02*
X142469160Y-107199819D01*
X142754874Y-107199819D02*
X142754874Y-106199819D01*
X142754874Y-106199819D02*
X142659636Y-106342676D01*
X142659636Y-106342676D02*
X142564398Y-106437914D01*
X142564398Y-106437914D02*
X142469160Y-106485533D01*
X143421541Y-106295057D02*
X143469160Y-106247438D01*
X143469160Y-106247438D02*
X143564398Y-106199819D01*
X143564398Y-106199819D02*
X143802493Y-106199819D01*
X143802493Y-106199819D02*
X143897731Y-106247438D01*
X143897731Y-106247438D02*
X143945350Y-106295057D01*
X143945350Y-106295057D02*
X143992969Y-106390295D01*
X143992969Y-106390295D02*
X143992969Y-106485533D01*
X143992969Y-106485533D02*
X143945350Y-106628390D01*
X143945350Y-106628390D02*
X143373922Y-107199819D01*
X143373922Y-107199819D02*
X143992969Y-107199819D01*
X144564398Y-106628390D02*
X144469160Y-106580771D01*
X144469160Y-106580771D02*
X144421541Y-106533152D01*
X144421541Y-106533152D02*
X144373922Y-106437914D01*
X144373922Y-106437914D02*
X144373922Y-106390295D01*
X144373922Y-106390295D02*
X144421541Y-106295057D01*
X144421541Y-106295057D02*
X144469160Y-106247438D01*
X144469160Y-106247438D02*
X144564398Y-106199819D01*
X144564398Y-106199819D02*
X144754874Y-106199819D01*
X144754874Y-106199819D02*
X144850112Y-106247438D01*
X144850112Y-106247438D02*
X144897731Y-106295057D01*
X144897731Y-106295057D02*
X144945350Y-106390295D01*
X144945350Y-106390295D02*
X144945350Y-106437914D01*
X144945350Y-106437914D02*
X144897731Y-106533152D01*
X144897731Y-106533152D02*
X144850112Y-106580771D01*
X144850112Y-106580771D02*
X144754874Y-106628390D01*
X144754874Y-106628390D02*
X144564398Y-106628390D01*
X144564398Y-106628390D02*
X144469160Y-106676009D01*
X144469160Y-106676009D02*
X144421541Y-106723628D01*
X144421541Y-106723628D02*
X144373922Y-106818866D01*
X144373922Y-106818866D02*
X144373922Y-107009342D01*
X144373922Y-107009342D02*
X144421541Y-107104580D01*
X144421541Y-107104580D02*
X144469160Y-107152200D01*
X144469160Y-107152200D02*
X144564398Y-107199819D01*
X144564398Y-107199819D02*
X144754874Y-107199819D01*
X144754874Y-107199819D02*
X144850112Y-107152200D01*
X144850112Y-107152200D02*
X144897731Y-107104580D01*
X144897731Y-107104580D02*
X144945350Y-107009342D01*
X144945350Y-107009342D02*
X144945350Y-106818866D01*
X144945350Y-106818866D02*
X144897731Y-106723628D01*
X144897731Y-106723628D02*
X144850112Y-106676009D01*
X144850112Y-106676009D02*
X144754874Y-106628390D01*
X145278684Y-107199819D02*
X145802493Y-106533152D01*
X145278684Y-106533152D02*
X145802493Y-107199819D01*
X146612017Y-106199819D02*
X146421541Y-106199819D01*
X146421541Y-106199819D02*
X146326303Y-106247438D01*
X146326303Y-106247438D02*
X146278684Y-106295057D01*
X146278684Y-106295057D02*
X146183446Y-106437914D01*
X146183446Y-106437914D02*
X146135827Y-106628390D01*
X146135827Y-106628390D02*
X146135827Y-107009342D01*
X146135827Y-107009342D02*
X146183446Y-107104580D01*
X146183446Y-107104580D02*
X146231065Y-107152200D01*
X146231065Y-107152200D02*
X146326303Y-107199819D01*
X146326303Y-107199819D02*
X146516779Y-107199819D01*
X146516779Y-107199819D02*
X146612017Y-107152200D01*
X146612017Y-107152200D02*
X146659636Y-107104580D01*
X146659636Y-107104580D02*
X146707255Y-107009342D01*
X146707255Y-107009342D02*
X146707255Y-106771247D01*
X146707255Y-106771247D02*
X146659636Y-106676009D01*
X146659636Y-106676009D02*
X146612017Y-106628390D01*
X146612017Y-106628390D02*
X146516779Y-106580771D01*
X146516779Y-106580771D02*
X146326303Y-106580771D01*
X146326303Y-106580771D02*
X146231065Y-106628390D01*
X146231065Y-106628390D02*
X146183446Y-106676009D01*
X146183446Y-106676009D02*
X146135827Y-106771247D01*
X147564398Y-106533152D02*
X147564398Y-107199819D01*
X147326303Y-106152200D02*
X147088208Y-106866485D01*
X147088208Y-106866485D02*
X147707255Y-106866485D01*
X148409160Y-67392200D02*
X148552017Y-67439819D01*
X148552017Y-67439819D02*
X148790112Y-67439819D01*
X148790112Y-67439819D02*
X148885350Y-67392200D01*
X148885350Y-67392200D02*
X148932969Y-67344580D01*
X148932969Y-67344580D02*
X148980588Y-67249342D01*
X148980588Y-67249342D02*
X148980588Y-67154104D01*
X148980588Y-67154104D02*
X148932969Y-67058866D01*
X148932969Y-67058866D02*
X148885350Y-67011247D01*
X148885350Y-67011247D02*
X148790112Y-66963628D01*
X148790112Y-66963628D02*
X148599636Y-66916009D01*
X148599636Y-66916009D02*
X148504398Y-66868390D01*
X148504398Y-66868390D02*
X148456779Y-66820771D01*
X148456779Y-66820771D02*
X148409160Y-66725533D01*
X148409160Y-66725533D02*
X148409160Y-66630295D01*
X148409160Y-66630295D02*
X148456779Y-66535057D01*
X148456779Y-66535057D02*
X148504398Y-66487438D01*
X148504398Y-66487438D02*
X148599636Y-66439819D01*
X148599636Y-66439819D02*
X148837731Y-66439819D01*
X148837731Y-66439819D02*
X148980588Y-66487438D01*
X149790112Y-67392200D02*
X149694874Y-67439819D01*
X149694874Y-67439819D02*
X149504398Y-67439819D01*
X149504398Y-67439819D02*
X149409160Y-67392200D01*
X149409160Y-67392200D02*
X149361541Y-67296961D01*
X149361541Y-67296961D02*
X149361541Y-66916009D01*
X149361541Y-66916009D02*
X149409160Y-66820771D01*
X149409160Y-66820771D02*
X149504398Y-66773152D01*
X149504398Y-66773152D02*
X149694874Y-66773152D01*
X149694874Y-66773152D02*
X149790112Y-66820771D01*
X149790112Y-66820771D02*
X149837731Y-66916009D01*
X149837731Y-66916009D02*
X149837731Y-67011247D01*
X149837731Y-67011247D02*
X149361541Y-67106485D01*
X150266303Y-67439819D02*
X150266303Y-66773152D01*
X150266303Y-66963628D02*
X150313922Y-66868390D01*
X150313922Y-66868390D02*
X150361541Y-66820771D01*
X150361541Y-66820771D02*
X150456779Y-66773152D01*
X150456779Y-66773152D02*
X150552017Y-66773152D01*
X150790113Y-66773152D02*
X151028208Y-67439819D01*
X151028208Y-67439819D02*
X151266303Y-66773152D01*
X151790113Y-67439819D02*
X151694875Y-67392200D01*
X151694875Y-67392200D02*
X151647256Y-67344580D01*
X151647256Y-67344580D02*
X151599637Y-67249342D01*
X151599637Y-67249342D02*
X151599637Y-66963628D01*
X151599637Y-66963628D02*
X151647256Y-66868390D01*
X151647256Y-66868390D02*
X151694875Y-66820771D01*
X151694875Y-66820771D02*
X151790113Y-66773152D01*
X151790113Y-66773152D02*
X151932970Y-66773152D01*
X151932970Y-66773152D02*
X152028208Y-66820771D01*
X152028208Y-66820771D02*
X152075827Y-66868390D01*
X152075827Y-66868390D02*
X152123446Y-66963628D01*
X152123446Y-66963628D02*
X152123446Y-67249342D01*
X152123446Y-67249342D02*
X152075827Y-67344580D01*
X152075827Y-67344580D02*
X152028208Y-67392200D01*
X152028208Y-67392200D02*
X151932970Y-67439819D01*
X151932970Y-67439819D02*
X151790113Y-67439819D01*
X152651541Y-110089819D02*
X153270588Y-110089819D01*
X153270588Y-110089819D02*
X152937255Y-110470771D01*
X152937255Y-110470771D02*
X153080112Y-110470771D01*
X153080112Y-110470771D02*
X153175350Y-110518390D01*
X153175350Y-110518390D02*
X153222969Y-110566009D01*
X153222969Y-110566009D02*
X153270588Y-110661247D01*
X153270588Y-110661247D02*
X153270588Y-110899342D01*
X153270588Y-110899342D02*
X153222969Y-110994580D01*
X153222969Y-110994580D02*
X153175350Y-111042200D01*
X153175350Y-111042200D02*
X153080112Y-111089819D01*
X153080112Y-111089819D02*
X152794398Y-111089819D01*
X152794398Y-111089819D02*
X152699160Y-111042200D01*
X152699160Y-111042200D02*
X152651541Y-110994580D01*
X153298207Y-113574580D02*
X153250588Y-113622200D01*
X153250588Y-113622200D02*
X153107731Y-113669819D01*
X153107731Y-113669819D02*
X153012493Y-113669819D01*
X153012493Y-113669819D02*
X152869636Y-113622200D01*
X152869636Y-113622200D02*
X152774398Y-113526961D01*
X152774398Y-113526961D02*
X152726779Y-113431723D01*
X152726779Y-113431723D02*
X152679160Y-113241247D01*
X152679160Y-113241247D02*
X152679160Y-113098390D01*
X152679160Y-113098390D02*
X152726779Y-112907914D01*
X152726779Y-112907914D02*
X152774398Y-112812676D01*
X152774398Y-112812676D02*
X152869636Y-112717438D01*
X152869636Y-112717438D02*
X153012493Y-112669819D01*
X153012493Y-112669819D02*
X153107731Y-112669819D01*
X153107731Y-112669819D02*
X153250588Y-112717438D01*
X153250588Y-112717438D02*
X153298207Y-112765057D01*
X105789819Y-73333220D02*
X104789819Y-73333220D01*
X104789819Y-73333220D02*
X104789819Y-73095125D01*
X104789819Y-73095125D02*
X104837438Y-72952268D01*
X104837438Y-72952268D02*
X104932676Y-72857030D01*
X104932676Y-72857030D02*
X105027914Y-72809411D01*
X105027914Y-72809411D02*
X105218390Y-72761792D01*
X105218390Y-72761792D02*
X105361247Y-72761792D01*
X105361247Y-72761792D02*
X105551723Y-72809411D01*
X105551723Y-72809411D02*
X105646961Y-72857030D01*
X105646961Y-72857030D02*
X105742200Y-72952268D01*
X105742200Y-72952268D02*
X105789819Y-73095125D01*
X105789819Y-73095125D02*
X105789819Y-73333220D01*
X105504104Y-72380839D02*
X105504104Y-71904649D01*
X105789819Y-72476077D02*
X104789819Y-72142744D01*
X104789819Y-72142744D02*
X105789819Y-71809411D01*
X105694580Y-70904649D02*
X105742200Y-70952268D01*
X105742200Y-70952268D02*
X105789819Y-71095125D01*
X105789819Y-71095125D02*
X105789819Y-71190363D01*
X105789819Y-71190363D02*
X105742200Y-71333220D01*
X105742200Y-71333220D02*
X105646961Y-71428458D01*
X105646961Y-71428458D02*
X105551723Y-71476077D01*
X105551723Y-71476077D02*
X105361247Y-71523696D01*
X105361247Y-71523696D02*
X105218390Y-71523696D01*
X105218390Y-71523696D02*
X105027914Y-71476077D01*
X105027914Y-71476077D02*
X104932676Y-71428458D01*
X104932676Y-71428458D02*
X104837438Y-71333220D01*
X104837438Y-71333220D02*
X104789819Y-71190363D01*
X104789819Y-71190363D02*
X104789819Y-71095125D01*
X104789819Y-71095125D02*
X104837438Y-70952268D01*
X104837438Y-70952268D02*
X104885057Y-70904649D01*
D11*
G36*
X148267085Y-91028154D02*
G01*
X148410971Y-91172040D01*
X148491653Y-91494768D01*
X148491653Y-92124507D01*
X148410970Y-92447235D01*
X148267084Y-92591122D01*
X148130053Y-92659638D01*
X147819920Y-92659638D01*
X147682888Y-92591122D01*
X147539002Y-92447235D01*
X147458320Y-92124506D01*
X147458320Y-91494768D01*
X147539002Y-91172039D01*
X147682888Y-91028154D01*
X147819920Y-90959638D01*
X148130053Y-90959638D01*
X148267085Y-91028154D01*
G37*
G36*
X152601177Y-93245352D02*
G01*
X146872606Y-93245352D01*
X146872606Y-92142971D01*
X147158320Y-92142971D01*
X147163110Y-92160847D01*
X147162799Y-92179351D01*
X147258037Y-92560303D01*
X147258669Y-92561441D01*
X147258669Y-92562746D01*
X147277481Y-92595329D01*
X147295723Y-92628190D01*
X147296840Y-92628860D01*
X147297492Y-92629989D01*
X147487967Y-92820465D01*
X147508882Y-92832540D01*
X147526952Y-92848564D01*
X147717428Y-92943802D01*
X147751206Y-92950714D01*
X147784510Y-92959638D01*
X148165463Y-92959638D01*
X148198764Y-92950714D01*
X148232545Y-92943802D01*
X148423021Y-92848564D01*
X148441089Y-92832541D01*
X148462005Y-92820466D01*
X148472833Y-92809638D01*
X149348796Y-92809638D01*
X149368892Y-92884638D01*
X149423796Y-92939542D01*
X149498796Y-92959638D01*
X149573796Y-92939542D01*
X149628700Y-92884638D01*
X149648796Y-92809638D01*
X151063082Y-92809638D01*
X151083178Y-92884638D01*
X151138082Y-92939542D01*
X151213082Y-92959638D01*
X151288082Y-92939542D01*
X151342986Y-92884638D01*
X151363082Y-92809638D01*
X151363082Y-91912019D01*
X151879749Y-91912019D01*
X151954749Y-91891923D01*
X152009653Y-91837019D01*
X152029749Y-91762019D01*
X152009653Y-91687019D01*
X151954749Y-91632115D01*
X151879749Y-91612019D01*
X151363082Y-91612019D01*
X151363082Y-90959638D01*
X152165463Y-90959638D01*
X152240463Y-90939542D01*
X152295367Y-90884638D01*
X152315463Y-90809638D01*
X152295367Y-90734638D01*
X152240463Y-90679734D01*
X152165463Y-90659638D01*
X151213082Y-90659638D01*
X151138082Y-90679734D01*
X151083178Y-90734638D01*
X151063082Y-90809638D01*
X151063082Y-92809638D01*
X149648796Y-92809638D01*
X149648796Y-91912019D01*
X150165463Y-91912019D01*
X150240463Y-91891923D01*
X150295367Y-91837019D01*
X150315463Y-91762019D01*
X150295367Y-91687019D01*
X150240463Y-91632115D01*
X150165463Y-91612019D01*
X149648796Y-91612019D01*
X149648796Y-90959638D01*
X150451177Y-90959638D01*
X150526177Y-90939542D01*
X150581081Y-90884638D01*
X150601177Y-90809638D01*
X150581081Y-90734638D01*
X150526177Y-90679734D01*
X150451177Y-90659638D01*
X149498796Y-90659638D01*
X149423796Y-90679734D01*
X149368892Y-90734638D01*
X149348796Y-90809638D01*
X149348796Y-92809638D01*
X148472833Y-92809638D01*
X148652481Y-92629989D01*
X148653132Y-92628860D01*
X148654250Y-92628190D01*
X148672491Y-92595329D01*
X148691304Y-92562746D01*
X148691304Y-92561441D01*
X148691936Y-92560303D01*
X148787174Y-92179352D01*
X148786862Y-92160848D01*
X148791653Y-92142971D01*
X148791653Y-91476304D01*
X148786862Y-91458426D01*
X148787174Y-91439923D01*
X148691936Y-91058972D01*
X148691304Y-91057833D01*
X148691304Y-91056529D01*
X148672491Y-91023945D01*
X148654250Y-90991085D01*
X148653132Y-90990414D01*
X148652481Y-90989286D01*
X148462005Y-90798810D01*
X148441089Y-90786734D01*
X148423021Y-90770712D01*
X148232545Y-90675474D01*
X148198764Y-90668561D01*
X148165463Y-90659638D01*
X147784510Y-90659638D01*
X147751206Y-90668561D01*
X147717428Y-90675474D01*
X147526952Y-90770712D01*
X147508882Y-90786735D01*
X147487968Y-90798810D01*
X147297492Y-90989286D01*
X147296840Y-90990414D01*
X147295723Y-90991085D01*
X147277481Y-91023945D01*
X147258669Y-91056529D01*
X147258669Y-91057833D01*
X147258037Y-91058972D01*
X147162799Y-91439924D01*
X147163110Y-91458427D01*
X147158320Y-91476304D01*
X147158320Y-92142971D01*
X146872606Y-92142971D01*
X146872606Y-90373924D01*
X152601177Y-90373924D01*
X152601177Y-93245352D01*
G37*
D10*
G36*
X108105402Y-102676865D02*
G01*
X104766093Y-102676865D01*
X104766093Y-101457770D01*
X104908950Y-101457770D01*
X104912771Y-101483536D01*
X105246104Y-102483536D01*
X105247446Y-102485227D01*
X105247505Y-102487386D01*
X105263254Y-102505147D01*
X105277995Y-102523722D01*
X105280108Y-102524154D01*
X105281542Y-102525771D01*
X105305012Y-102529251D01*
X105328256Y-102534008D01*
X105330155Y-102532979D01*
X105332291Y-102533296D01*
X105352504Y-102520877D01*
X105373370Y-102509579D01*
X105374163Y-102507571D01*
X105376003Y-102506441D01*
X105388406Y-102483536D01*
X105396312Y-102459819D01*
X105908922Y-102459819D01*
X105926469Y-102508028D01*
X105970898Y-102533680D01*
X106021422Y-102524771D01*
X106054399Y-102485471D01*
X106058922Y-102459819D01*
X106058922Y-101797886D01*
X106249291Y-102205821D01*
X106263057Y-102219579D01*
X106274218Y-102235528D01*
X106280777Y-102237287D01*
X106285579Y-102242086D01*
X106304968Y-102243777D01*
X106323770Y-102248821D01*
X106329923Y-102245953D01*
X106336688Y-102246544D01*
X106352630Y-102235372D01*
X106370272Y-102227153D01*
X106375971Y-102219018D01*
X106378704Y-102217104D01*
X106379563Y-102213891D01*
X106385219Y-102205820D01*
X106575588Y-101797886D01*
X106575588Y-102459819D01*
X106593135Y-102508028D01*
X106637564Y-102533680D01*
X106688088Y-102524771D01*
X106721065Y-102485471D01*
X106725588Y-102459819D01*
X106725588Y-102065842D01*
X107052918Y-102065842D01*
X107061827Y-102116366D01*
X107101127Y-102149343D01*
X107126779Y-102153866D01*
X107432731Y-102153866D01*
X107432731Y-102459819D01*
X107450278Y-102508028D01*
X107494707Y-102533680D01*
X107545231Y-102524771D01*
X107578208Y-102485471D01*
X107582731Y-102459819D01*
X107582731Y-102153866D01*
X107888684Y-102153866D01*
X107936893Y-102136319D01*
X107962545Y-102091890D01*
X107953636Y-102041366D01*
X107914336Y-102008389D01*
X107888684Y-102003866D01*
X107582731Y-102003866D01*
X107582731Y-101697914D01*
X107565184Y-101649705D01*
X107520755Y-101624053D01*
X107470231Y-101632962D01*
X107437254Y-101672262D01*
X107432731Y-101697914D01*
X107432731Y-102003866D01*
X107126779Y-102003866D01*
X107078570Y-102021413D01*
X107052918Y-102065842D01*
X106725588Y-102065842D01*
X106725588Y-101459819D01*
X106722162Y-101450406D01*
X106723038Y-101440429D01*
X106713644Y-101427004D01*
X106708041Y-101411610D01*
X106699368Y-101406602D01*
X106693625Y-101398395D01*
X106677799Y-101394149D01*
X106663612Y-101385958D01*
X106653748Y-101387697D01*
X106644074Y-101385102D01*
X106629222Y-101392021D01*
X106613088Y-101394867D01*
X106606649Y-101402539D01*
X106597571Y-101406770D01*
X106582624Y-101428102D01*
X106317254Y-101996750D01*
X106051886Y-101428103D01*
X106044800Y-101421022D01*
X106041375Y-101411610D01*
X106027185Y-101403417D01*
X106015598Y-101391837D01*
X106005621Y-101390966D01*
X105996946Y-101385958D01*
X105980810Y-101388803D01*
X105964489Y-101387380D01*
X105956285Y-101393127D01*
X105946422Y-101394867D01*
X105935890Y-101407417D01*
X105922473Y-101416819D01*
X105919883Y-101426493D01*
X105913445Y-101434167D01*
X105908922Y-101459819D01*
X105908922Y-102459819D01*
X105396312Y-102459819D01*
X105721739Y-101483536D01*
X105720338Y-101432253D01*
X105686300Y-101393867D01*
X105635552Y-101386342D01*
X105591839Y-101413197D01*
X105579437Y-101436102D01*
X105317255Y-102222648D01*
X105055073Y-101436102D01*
X105023182Y-101395916D01*
X104972921Y-101385630D01*
X104927807Y-101410059D01*
X104908950Y-101457770D01*
X104766093Y-101457770D01*
X104766093Y-101242245D01*
X108105402Y-101242245D01*
X108105402Y-102676865D01*
G37*
X153120588Y-74097438D02*
X153025350Y-74049819D01*
X153025350Y-74049819D02*
X152882493Y-74049819D01*
X152882493Y-74049819D02*
X152739636Y-74097438D01*
X152739636Y-74097438D02*
X152644398Y-74192676D01*
X152644398Y-74192676D02*
X152596779Y-74287914D01*
X152596779Y-74287914D02*
X152549160Y-74478390D01*
X152549160Y-74478390D02*
X152549160Y-74621247D01*
X152549160Y-74621247D02*
X152596779Y-74811723D01*
X152596779Y-74811723D02*
X152644398Y-74906961D01*
X152644398Y-74906961D02*
X152739636Y-75002200D01*
X152739636Y-75002200D02*
X152882493Y-75049819D01*
X152882493Y-75049819D02*
X152977731Y-75049819D01*
X152977731Y-75049819D02*
X153120588Y-75002200D01*
X153120588Y-75002200D02*
X153168207Y-74954580D01*
X153168207Y-74954580D02*
X153168207Y-74621247D01*
X153168207Y-74621247D02*
X152977731Y-74621247D01*
X152616779Y-69909819D02*
X152616779Y-68909819D01*
X152616779Y-68909819D02*
X152854874Y-68909819D01*
X152854874Y-68909819D02*
X152997731Y-68957438D01*
X152997731Y-68957438D02*
X153092969Y-69052676D01*
X153092969Y-69052676D02*
X153140588Y-69147914D01*
X153140588Y-69147914D02*
X153188207Y-69338390D01*
X153188207Y-69338390D02*
X153188207Y-69481247D01*
X153188207Y-69481247D02*
X153140588Y-69671723D01*
X153140588Y-69671723D02*
X153092969Y-69766961D01*
X153092969Y-69766961D02*
X152997731Y-69862200D01*
X152997731Y-69862200D02*
X152854874Y-69909819D01*
X152854874Y-69909819D02*
X152616779Y-69909819D01*
G36*
X107647969Y-109467676D02*
G01*
X104784823Y-109467676D01*
X104784823Y-108236795D01*
X104927680Y-108236795D01*
X104936589Y-108287319D01*
X104975889Y-108320296D01*
X105001541Y-108324819D01*
X105455306Y-108324819D01*
X105230812Y-108581383D01*
X105223505Y-108600234D01*
X105213394Y-108617747D01*
X105214433Y-108623640D01*
X105212271Y-108629219D01*
X105218791Y-108648358D01*
X105222303Y-108668271D01*
X105226886Y-108672116D01*
X105228816Y-108677781D01*
X105246114Y-108688251D01*
X105261603Y-108701248D01*
X105270046Y-108702736D01*
X105272705Y-108704346D01*
X105276146Y-108703812D01*
X105287255Y-108705771D01*
X105412407Y-108705771D01*
X105480923Y-108740029D01*
X105511330Y-108770436D01*
X105545588Y-108838952D01*
X105545588Y-109041637D01*
X105511329Y-109110153D01*
X105480922Y-109140561D01*
X105412407Y-109174819D01*
X105162103Y-109174819D01*
X105093587Y-109140561D01*
X105054575Y-109101548D01*
X105008078Y-109079866D01*
X104958523Y-109093143D01*
X104929097Y-109135168D01*
X104933567Y-109186275D01*
X104948507Y-109207612D01*
X104996126Y-109255232D01*
X104997607Y-109255922D01*
X105015619Y-109269282D01*
X105110857Y-109316901D01*
X105115310Y-109317413D01*
X105118746Y-109320296D01*
X105144398Y-109324819D01*
X105430112Y-109324819D01*
X105434325Y-109323285D01*
X105438686Y-109324327D01*
X105463653Y-109316901D01*
X105558891Y-109269282D01*
X105560015Y-109268094D01*
X105578384Y-109255232D01*
X105626002Y-109207613D01*
X105626692Y-109206131D01*
X105640051Y-109188121D01*
X105687670Y-109092883D01*
X105688182Y-109088429D01*
X105691065Y-109084994D01*
X105695588Y-109059342D01*
X105695588Y-108821247D01*
X105694054Y-108817033D01*
X105695096Y-108812672D01*
X105687670Y-108787706D01*
X105640051Y-108692468D01*
X105638861Y-108691342D01*
X105626002Y-108672976D01*
X105578383Y-108625357D01*
X105576901Y-108624666D01*
X105558891Y-108611308D01*
X105463653Y-108563689D01*
X105459199Y-108563176D01*
X105455764Y-108560294D01*
X105449540Y-108559196D01*
X105677031Y-108299207D01*
X105684337Y-108280355D01*
X105694449Y-108262843D01*
X105693409Y-108256949D01*
X105695572Y-108251371D01*
X105694345Y-108247770D01*
X105831331Y-108247770D01*
X105835152Y-108273536D01*
X106168485Y-109273536D01*
X106169827Y-109275227D01*
X106169886Y-109277386D01*
X106185635Y-109295147D01*
X106200376Y-109313722D01*
X106202489Y-109314154D01*
X106203923Y-109315771D01*
X106227393Y-109319251D01*
X106250637Y-109324008D01*
X106252536Y-109322979D01*
X106254672Y-109323296D01*
X106274885Y-109310877D01*
X106295751Y-109299579D01*
X106296544Y-109297571D01*
X106298384Y-109296441D01*
X106310787Y-109273536D01*
X106644120Y-108273536D01*
X106643116Y-108236795D01*
X106737204Y-108236795D01*
X106746113Y-108287319D01*
X106785413Y-108320296D01*
X106811065Y-108324819D01*
X107264830Y-108324819D01*
X107040336Y-108581383D01*
X107033029Y-108600234D01*
X107022918Y-108617747D01*
X107023957Y-108623640D01*
X107021795Y-108629219D01*
X107028315Y-108648358D01*
X107031827Y-108668271D01*
X107036410Y-108672116D01*
X107038340Y-108677781D01*
X107055638Y-108688251D01*
X107071127Y-108701248D01*
X107079570Y-108702736D01*
X107082229Y-108704346D01*
X107085670Y-108703812D01*
X107096779Y-108705771D01*
X107221931Y-108705771D01*
X107290447Y-108740029D01*
X107320854Y-108770436D01*
X107355112Y-108838952D01*
X107355112Y-109041637D01*
X107320853Y-109110153D01*
X107290446Y-109140561D01*
X107221931Y-109174819D01*
X106971627Y-109174819D01*
X106903111Y-109140561D01*
X106864099Y-109101548D01*
X106817602Y-109079866D01*
X106768047Y-109093143D01*
X106738621Y-109135168D01*
X106743091Y-109186275D01*
X106758031Y-109207612D01*
X106805650Y-109255232D01*
X106807131Y-109255922D01*
X106825143Y-109269282D01*
X106920381Y-109316901D01*
X106924834Y-109317413D01*
X106928270Y-109320296D01*
X106953922Y-109324819D01*
X107239636Y-109324819D01*
X107243849Y-109323285D01*
X107248210Y-109324327D01*
X107273177Y-109316901D01*
X107368415Y-109269282D01*
X107369539Y-109268094D01*
X107387908Y-109255232D01*
X107435526Y-109207613D01*
X107436216Y-109206131D01*
X107449575Y-109188121D01*
X107497194Y-109092883D01*
X107497706Y-109088429D01*
X107500589Y-109084994D01*
X107505112Y-109059342D01*
X107505112Y-108821247D01*
X107503578Y-108817033D01*
X107504620Y-108812672D01*
X107497194Y-108787706D01*
X107449575Y-108692468D01*
X107448385Y-108691342D01*
X107435526Y-108672976D01*
X107387907Y-108625357D01*
X107386425Y-108624666D01*
X107368415Y-108611308D01*
X107273177Y-108563689D01*
X107268723Y-108563176D01*
X107265288Y-108560294D01*
X107259064Y-108559196D01*
X107486555Y-108299207D01*
X107493861Y-108280355D01*
X107503973Y-108262843D01*
X107502933Y-108256949D01*
X107505096Y-108251371D01*
X107498575Y-108232231D01*
X107495064Y-108212319D01*
X107490480Y-108208473D01*
X107488551Y-108202809D01*
X107471252Y-108192338D01*
X107455764Y-108179342D01*
X107447320Y-108177853D01*
X107444662Y-108176244D01*
X107441220Y-108176777D01*
X107430112Y-108174819D01*
X106811065Y-108174819D01*
X106762856Y-108192366D01*
X106737204Y-108236795D01*
X106643116Y-108236795D01*
X106642719Y-108222253D01*
X106608681Y-108183867D01*
X106557933Y-108176342D01*
X106514220Y-108203197D01*
X106501818Y-108226102D01*
X106239636Y-109012648D01*
X105977454Y-108226102D01*
X105945563Y-108185916D01*
X105895302Y-108175630D01*
X105850188Y-108200059D01*
X105831331Y-108247770D01*
X105694345Y-108247770D01*
X105689051Y-108232231D01*
X105685540Y-108212319D01*
X105680956Y-108208473D01*
X105679027Y-108202809D01*
X105661728Y-108192338D01*
X105646240Y-108179342D01*
X105637796Y-108177853D01*
X105635138Y-108176244D01*
X105631696Y-108176777D01*
X105620588Y-108174819D01*
X105001541Y-108174819D01*
X104953332Y-108192366D01*
X104927680Y-108236795D01*
X104784823Y-108236795D01*
X104784823Y-108031962D01*
X107647969Y-108031962D01*
X107647969Y-109467676D01*
G37*
X105608207Y-82834580D02*
X105560588Y-82882200D01*
X105560588Y-82882200D02*
X105417731Y-82929819D01*
X105417731Y-82929819D02*
X105322493Y-82929819D01*
X105322493Y-82929819D02*
X105179636Y-82882200D01*
X105179636Y-82882200D02*
X105084398Y-82786961D01*
X105084398Y-82786961D02*
X105036779Y-82691723D01*
X105036779Y-82691723D02*
X104989160Y-82501247D01*
X104989160Y-82501247D02*
X104989160Y-82358390D01*
X104989160Y-82358390D02*
X105036779Y-82167914D01*
X105036779Y-82167914D02*
X105084398Y-82072676D01*
X105084398Y-82072676D02*
X105179636Y-81977438D01*
X105179636Y-81977438D02*
X105322493Y-81929819D01*
X105322493Y-81929819D02*
X105417731Y-81929819D01*
X105417731Y-81929819D02*
X105560588Y-81977438D01*
X105560588Y-81977438D02*
X105608207Y-82025057D01*
D11*
G36*
X149247085Y-77628154D02*
G01*
X149390971Y-77772040D01*
X149471653Y-78094768D01*
X149471653Y-78724507D01*
X149390970Y-79047235D01*
X149247084Y-79191122D01*
X149110053Y-79259638D01*
X148799920Y-79259638D01*
X148662888Y-79191122D01*
X148519002Y-79047235D01*
X148438320Y-78724506D01*
X148438320Y-78094768D01*
X148519002Y-77772039D01*
X148662888Y-77628154D01*
X148799920Y-77559638D01*
X149110053Y-77559638D01*
X149247085Y-77628154D01*
G37*
G36*
X152057367Y-79845352D02*
G01*
X147852606Y-79845352D01*
X147852606Y-78742971D01*
X148138320Y-78742971D01*
X148143110Y-78760847D01*
X148142799Y-78779351D01*
X148238037Y-79160303D01*
X148238669Y-79161441D01*
X148238669Y-79162746D01*
X148257481Y-79195329D01*
X148275723Y-79228190D01*
X148276840Y-79228860D01*
X148277492Y-79229989D01*
X148467967Y-79420465D01*
X148488882Y-79432540D01*
X148506952Y-79448564D01*
X148697428Y-79543802D01*
X148731206Y-79550714D01*
X148764510Y-79559638D01*
X149145463Y-79559638D01*
X149178764Y-79550714D01*
X149212545Y-79543802D01*
X149403021Y-79448564D01*
X149421089Y-79432541D01*
X149442005Y-79420466D01*
X149452833Y-79409638D01*
X150328796Y-79409638D01*
X150348892Y-79484638D01*
X150403796Y-79539542D01*
X150478796Y-79559638D01*
X150553796Y-79539542D01*
X150608700Y-79484638D01*
X150628796Y-79409638D01*
X150628796Y-77974472D01*
X151491416Y-79484059D01*
X151491659Y-79484304D01*
X151491749Y-79484638D01*
X151518913Y-79511802D01*
X151546075Y-79539207D01*
X151546409Y-79539298D01*
X151546653Y-79539542D01*
X151583753Y-79549482D01*
X151620985Y-79559637D01*
X151621320Y-79559548D01*
X151621653Y-79559638D01*
X151658858Y-79549668D01*
X151696074Y-79539874D01*
X151696318Y-79539631D01*
X151696653Y-79539542D01*
X151723873Y-79512321D01*
X151751222Y-79485216D01*
X151751313Y-79484881D01*
X151751557Y-79484638D01*
X151761497Y-79447537D01*
X151771652Y-79410306D01*
X151771563Y-79409970D01*
X151771653Y-79409638D01*
X151771653Y-77409638D01*
X151751557Y-77334638D01*
X151696653Y-77279734D01*
X151621653Y-77259638D01*
X151546653Y-77279734D01*
X151491749Y-77334638D01*
X151471653Y-77409638D01*
X151471653Y-78844803D01*
X150609032Y-77335217D01*
X150608789Y-77334972D01*
X150608700Y-77334638D01*
X150581479Y-77307417D01*
X150554374Y-77280069D01*
X150554039Y-77279977D01*
X150553796Y-77279734D01*
X150516695Y-77269793D01*
X150479464Y-77259639D01*
X150479128Y-77259727D01*
X150478796Y-77259638D01*
X150441590Y-77269607D01*
X150404375Y-77279402D01*
X150404130Y-77279644D01*
X150403796Y-77279734D01*
X150376575Y-77306954D01*
X150349227Y-77334060D01*
X150349135Y-77334394D01*
X150348892Y-77334638D01*
X150338951Y-77371738D01*
X150328797Y-77408970D01*
X150328885Y-77409305D01*
X150328796Y-77409638D01*
X150328796Y-79409638D01*
X149452833Y-79409638D01*
X149632481Y-79229989D01*
X149633132Y-79228860D01*
X149634250Y-79228190D01*
X149652491Y-79195329D01*
X149671304Y-79162746D01*
X149671304Y-79161441D01*
X149671936Y-79160303D01*
X149767174Y-78779352D01*
X149766862Y-78760848D01*
X149771653Y-78742971D01*
X149771653Y-78076304D01*
X149766862Y-78058426D01*
X149767174Y-78039923D01*
X149671936Y-77658972D01*
X149671304Y-77657833D01*
X149671304Y-77656529D01*
X149652491Y-77623945D01*
X149634250Y-77591085D01*
X149633132Y-77590414D01*
X149632481Y-77589286D01*
X149442005Y-77398810D01*
X149421089Y-77386734D01*
X149403021Y-77370712D01*
X149212545Y-77275474D01*
X149178764Y-77268561D01*
X149145463Y-77259638D01*
X148764510Y-77259638D01*
X148731206Y-77268561D01*
X148697428Y-77275474D01*
X148506952Y-77370712D01*
X148488882Y-77386735D01*
X148467968Y-77398810D01*
X148277492Y-77589286D01*
X148276840Y-77590414D01*
X148275723Y-77591085D01*
X148257481Y-77623945D01*
X148238669Y-77656529D01*
X148238669Y-77657833D01*
X148238037Y-77658972D01*
X148142799Y-78039924D01*
X148143110Y-78058427D01*
X148138320Y-78076304D01*
X148138320Y-78742971D01*
X147852606Y-78742971D01*
X147852606Y-76973924D01*
X152057367Y-76973924D01*
X152057367Y-79845352D01*
G37*
D10*
X105016779Y-80329819D02*
X105016779Y-79329819D01*
X105016779Y-79329819D02*
X105254874Y-79329819D01*
X105254874Y-79329819D02*
X105397731Y-79377438D01*
X105397731Y-79377438D02*
X105492969Y-79472676D01*
X105492969Y-79472676D02*
X105540588Y-79567914D01*
X105540588Y-79567914D02*
X105588207Y-79758390D01*
X105588207Y-79758390D02*
X105588207Y-79901247D01*
X105588207Y-79901247D02*
X105540588Y-80091723D01*
X105540588Y-80091723D02*
X105492969Y-80186961D01*
X105492969Y-80186961D02*
X105397731Y-80282200D01*
X105397731Y-80282200D02*
X105254874Y-80329819D01*
X105254874Y-80329819D02*
X105016779Y-80329819D01*
D11*
G36*
X127852605Y-90835352D02*
G01*
X123647844Y-90835352D01*
X123647844Y-90399638D01*
X123933558Y-90399638D01*
X123953654Y-90474638D01*
X124008558Y-90529542D01*
X124083558Y-90549638D01*
X124158558Y-90529542D01*
X124213462Y-90474638D01*
X124233558Y-90399638D01*
X124233558Y-89075771D01*
X124614298Y-89891642D01*
X124622805Y-89901774D01*
X124627327Y-89914209D01*
X124647382Y-89931047D01*
X124664225Y-89951108D01*
X124676661Y-89955630D01*
X124686792Y-89964136D01*
X124712580Y-89968691D01*
X124737196Y-89977642D01*
X124750225Y-89975340D01*
X124763254Y-89977642D01*
X124787864Y-89968692D01*
X124813658Y-89964137D01*
X124823792Y-89955627D01*
X124836225Y-89951107D01*
X124853062Y-89931052D01*
X124873123Y-89914210D01*
X124877645Y-89901774D01*
X124886152Y-89891642D01*
X125266891Y-89075772D01*
X125266891Y-90399638D01*
X125286987Y-90474638D01*
X125341891Y-90529542D01*
X125416891Y-90549638D01*
X125491891Y-90529542D01*
X125546795Y-90474638D01*
X125566891Y-90399638D01*
X126124034Y-90399638D01*
X126144130Y-90474638D01*
X126199034Y-90529542D01*
X126274034Y-90549638D01*
X126845462Y-90549638D01*
X127416891Y-90549638D01*
X127491891Y-90529542D01*
X127546795Y-90474638D01*
X127566891Y-90399638D01*
X127546795Y-90324638D01*
X127491891Y-90269734D01*
X127416891Y-90249638D01*
X126995462Y-90249638D01*
X126995462Y-88399638D01*
X126986620Y-88366641D01*
X126979923Y-88333154D01*
X126976649Y-88329429D01*
X126975366Y-88324638D01*
X126951208Y-88300480D01*
X126928667Y-88274831D01*
X126923970Y-88273242D01*
X126920462Y-88269734D01*
X126887465Y-88260892D01*
X126855116Y-88249949D01*
X126850252Y-88250921D01*
X126845462Y-88249638D01*
X126812465Y-88258479D01*
X126778978Y-88265177D01*
X126775253Y-88268450D01*
X126770462Y-88269734D01*
X126746308Y-88293887D01*
X126720654Y-88316433D01*
X126538416Y-88589790D01*
X126375656Y-88752550D01*
X126206952Y-88836902D01*
X126148857Y-88888417D01*
X126124303Y-88962079D01*
X126139870Y-89038148D01*
X126191385Y-89096243D01*
X126265047Y-89120797D01*
X126341116Y-89105230D01*
X126531592Y-89009992D01*
X126549660Y-88993969D01*
X126570576Y-88981894D01*
X126695462Y-88857008D01*
X126695462Y-90249638D01*
X126274034Y-90249638D01*
X126199034Y-90269734D01*
X126144130Y-90324638D01*
X126124034Y-90399638D01*
X125566891Y-90399638D01*
X125566891Y-88399638D01*
X125565162Y-88393186D01*
X125566324Y-88386609D01*
X125555212Y-88356051D01*
X125546795Y-88324638D01*
X125542071Y-88319914D01*
X125539789Y-88313638D01*
X125514888Y-88292731D01*
X125491891Y-88269734D01*
X125485438Y-88268005D01*
X125480324Y-88263711D01*
X125448304Y-88258055D01*
X125416891Y-88249638D01*
X125410439Y-88251366D01*
X125403862Y-88250205D01*
X125373302Y-88261317D01*
X125341891Y-88269734D01*
X125337167Y-88274457D01*
X125330890Y-88276740D01*
X125309980Y-88301644D01*
X125286987Y-88324638D01*
X125285258Y-88331090D01*
X125280963Y-88336206D01*
X124750225Y-89473502D01*
X124219485Y-88336205D01*
X124215190Y-88331090D01*
X124213462Y-88324638D01*
X124190464Y-88301640D01*
X124169558Y-88276740D01*
X124163281Y-88274457D01*
X124158558Y-88269734D01*
X124127144Y-88261316D01*
X124096587Y-88250205D01*
X124090009Y-88251366D01*
X124083558Y-88249638D01*
X124052144Y-88258055D01*
X124020125Y-88263711D01*
X124015010Y-88268005D01*
X124008558Y-88269734D01*
X123985560Y-88292731D01*
X123960660Y-88313638D01*
X123958377Y-88319914D01*
X123953654Y-88324638D01*
X123945236Y-88356051D01*
X123934125Y-88386609D01*
X123935286Y-88393186D01*
X123933558Y-88399638D01*
X123933558Y-90399638D01*
X123647844Y-90399638D01*
X123647844Y-87963924D01*
X127852605Y-87963924D01*
X127852605Y-90835352D01*
G37*
D10*
X116140588Y-127697438D02*
X116045350Y-127649819D01*
X116045350Y-127649819D02*
X115902493Y-127649819D01*
X115902493Y-127649819D02*
X115759636Y-127697438D01*
X115759636Y-127697438D02*
X115664398Y-127792676D01*
X115664398Y-127792676D02*
X115616779Y-127887914D01*
X115616779Y-127887914D02*
X115569160Y-128078390D01*
X115569160Y-128078390D02*
X115569160Y-128221247D01*
X115569160Y-128221247D02*
X115616779Y-128411723D01*
X115616779Y-128411723D02*
X115664398Y-128506961D01*
X115664398Y-128506961D02*
X115759636Y-128602200D01*
X115759636Y-128602200D02*
X115902493Y-128649819D01*
X115902493Y-128649819D02*
X115997731Y-128649819D01*
X115997731Y-128649819D02*
X116140588Y-128602200D01*
X116140588Y-128602200D02*
X116188207Y-128554580D01*
X116188207Y-128554580D02*
X116188207Y-128221247D01*
X116188207Y-128221247D02*
X115997731Y-128221247D01*
X116616779Y-128649819D02*
X116616779Y-127649819D01*
X116616779Y-127649819D02*
X117188207Y-128649819D01*
X117188207Y-128649819D02*
X117188207Y-127649819D01*
X117664398Y-128649819D02*
X117664398Y-127649819D01*
X117664398Y-127649819D02*
X117902493Y-127649819D01*
X117902493Y-127649819D02*
X118045350Y-127697438D01*
X118045350Y-127697438D02*
X118140588Y-127792676D01*
X118140588Y-127792676D02*
X118188207Y-127887914D01*
X118188207Y-127887914D02*
X118235826Y-128078390D01*
X118235826Y-128078390D02*
X118235826Y-128221247D01*
X118235826Y-128221247D02*
X118188207Y-128411723D01*
X118188207Y-128411723D02*
X118140588Y-128506961D01*
X118140588Y-128506961D02*
X118045350Y-128602200D01*
X118045350Y-128602200D02*
X117902493Y-128649819D01*
X117902493Y-128649819D02*
X117664398Y-128649819D01*
D11*
G36*
X123982605Y-128675352D02*
G01*
X119777844Y-128675352D01*
X119777844Y-128239638D01*
X120063558Y-128239638D01*
X120083654Y-128314638D01*
X120138558Y-128369542D01*
X120213558Y-128389638D01*
X120288558Y-128369542D01*
X120343462Y-128314638D01*
X120363558Y-128239638D01*
X120363558Y-126915771D01*
X120744298Y-127731642D01*
X120752805Y-127741774D01*
X120757327Y-127754209D01*
X120777382Y-127771047D01*
X120794225Y-127791108D01*
X120806661Y-127795630D01*
X120816792Y-127804136D01*
X120842580Y-127808691D01*
X120867196Y-127817642D01*
X120880225Y-127815340D01*
X120893254Y-127817642D01*
X120917864Y-127808692D01*
X120943658Y-127804137D01*
X120953792Y-127795627D01*
X120966225Y-127791107D01*
X120983062Y-127771052D01*
X121003123Y-127754210D01*
X121007645Y-127741774D01*
X121016152Y-127731642D01*
X121396891Y-126915772D01*
X121396891Y-128239638D01*
X121416987Y-128314638D01*
X121471891Y-128369542D01*
X121546891Y-128389638D01*
X121621891Y-128369542D01*
X121676795Y-128314638D01*
X121696891Y-128239638D01*
X122158796Y-128239638D01*
X122163907Y-128258712D01*
X122163907Y-128278461D01*
X122173780Y-128295563D01*
X122178892Y-128314638D01*
X122192856Y-128328602D01*
X122202730Y-128345704D01*
X122219831Y-128355577D01*
X122233796Y-128369542D01*
X122252870Y-128374653D01*
X122269973Y-128384527D01*
X122289721Y-128384527D01*
X122308796Y-128389638D01*
X123546891Y-128389638D01*
X123621891Y-128369542D01*
X123676795Y-128314638D01*
X123696891Y-128239638D01*
X123676795Y-128164638D01*
X123621891Y-128109734D01*
X123546891Y-128089638D01*
X122670928Y-128089638D01*
X123557719Y-127202846D01*
X123574960Y-127172983D01*
X123593955Y-127144214D01*
X123689193Y-126858500D01*
X123690640Y-126834394D01*
X123696891Y-126811066D01*
X123696891Y-126620590D01*
X123687967Y-126587286D01*
X123681055Y-126553508D01*
X123585817Y-126363032D01*
X123569793Y-126344962D01*
X123557719Y-126324048D01*
X123462481Y-126228810D01*
X123441565Y-126216734D01*
X123423497Y-126200712D01*
X123233021Y-126105474D01*
X123199240Y-126098561D01*
X123165939Y-126089638D01*
X122689748Y-126089638D01*
X122656444Y-126098561D01*
X122622666Y-126105474D01*
X122432190Y-126200712D01*
X122414120Y-126216735D01*
X122393206Y-126228810D01*
X122297968Y-126324048D01*
X122259145Y-126391291D01*
X122259145Y-126468937D01*
X122297968Y-126536180D01*
X122365211Y-126575003D01*
X122442857Y-126575003D01*
X122510100Y-126536180D01*
X122588126Y-126458154D01*
X122725158Y-126389638D01*
X123130529Y-126389638D01*
X123267561Y-126458154D01*
X123328375Y-126518968D01*
X123396891Y-126656000D01*
X123396891Y-126786726D01*
X123320548Y-127015752D01*
X122202730Y-128133572D01*
X122192856Y-128150673D01*
X122178892Y-128164638D01*
X122173780Y-128183712D01*
X122163907Y-128200815D01*
X122163907Y-128220563D01*
X122158796Y-128239638D01*
X121696891Y-128239638D01*
X121696891Y-126239638D01*
X121695162Y-126233186D01*
X121696324Y-126226609D01*
X121685212Y-126196051D01*
X121676795Y-126164638D01*
X121672071Y-126159914D01*
X121669789Y-126153638D01*
X121644888Y-126132731D01*
X121621891Y-126109734D01*
X121615438Y-126108005D01*
X121610324Y-126103711D01*
X121578304Y-126098055D01*
X121546891Y-126089638D01*
X121540439Y-126091366D01*
X121533862Y-126090205D01*
X121503302Y-126101317D01*
X121471891Y-126109734D01*
X121467167Y-126114457D01*
X121460890Y-126116740D01*
X121439980Y-126141644D01*
X121416987Y-126164638D01*
X121415258Y-126171090D01*
X121410963Y-126176206D01*
X120880225Y-127313502D01*
X120349485Y-126176205D01*
X120345190Y-126171090D01*
X120343462Y-126164638D01*
X120320464Y-126141640D01*
X120299558Y-126116740D01*
X120293281Y-126114457D01*
X120288558Y-126109734D01*
X120257144Y-126101316D01*
X120226587Y-126090205D01*
X120220009Y-126091366D01*
X120213558Y-126089638D01*
X120182144Y-126098055D01*
X120150125Y-126103711D01*
X120145010Y-126108005D01*
X120138558Y-126109734D01*
X120115560Y-126132731D01*
X120090660Y-126153638D01*
X120088377Y-126159914D01*
X120083654Y-126164638D01*
X120075236Y-126196051D01*
X120064125Y-126226609D01*
X120065286Y-126233186D01*
X120063558Y-126239638D01*
X120063558Y-128239638D01*
X119777844Y-128239638D01*
X119777844Y-125803924D01*
X123982605Y-125803924D01*
X123982605Y-128675352D01*
G37*
D10*
X145476779Y-128669819D02*
X145476779Y-127669819D01*
X145476779Y-127669819D02*
X145810112Y-128384104D01*
X145810112Y-128384104D02*
X146143445Y-127669819D01*
X146143445Y-127669819D02*
X146143445Y-128669819D01*
X146524398Y-127669819D02*
X147143445Y-127669819D01*
X147143445Y-127669819D02*
X146810112Y-128050771D01*
X146810112Y-128050771D02*
X146952969Y-128050771D01*
X146952969Y-128050771D02*
X147048207Y-128098390D01*
X147048207Y-128098390D02*
X147095826Y-128146009D01*
X147095826Y-128146009D02*
X147143445Y-128241247D01*
X147143445Y-128241247D02*
X147143445Y-128479342D01*
X147143445Y-128479342D02*
X147095826Y-128574580D01*
X147095826Y-128574580D02*
X147048207Y-128622200D01*
X147048207Y-128622200D02*
X146952969Y-128669819D01*
X146952969Y-128669819D02*
X146667255Y-128669819D01*
X146667255Y-128669819D02*
X146572017Y-128622200D01*
X146572017Y-128622200D02*
X146524398Y-128574580D01*
X104649160Y-77474104D02*
X105125350Y-77474104D01*
X104553922Y-77759819D02*
X104887255Y-76759819D01*
X104887255Y-76759819D02*
X105220588Y-77759819D01*
X105458684Y-76759819D02*
X106077731Y-76759819D01*
X106077731Y-76759819D02*
X105744398Y-77140771D01*
X105744398Y-77140771D02*
X105887255Y-77140771D01*
X105887255Y-77140771D02*
X105982493Y-77188390D01*
X105982493Y-77188390D02*
X106030112Y-77236009D01*
X106030112Y-77236009D02*
X106077731Y-77331247D01*
X106077731Y-77331247D02*
X106077731Y-77569342D01*
X106077731Y-77569342D02*
X106030112Y-77664580D01*
X106030112Y-77664580D02*
X105982493Y-77712200D01*
X105982493Y-77712200D02*
X105887255Y-77759819D01*
X105887255Y-77759819D02*
X105601541Y-77759819D01*
X105601541Y-77759819D02*
X105506303Y-77712200D01*
X105506303Y-77712200D02*
X105458684Y-77664580D01*
X104679160Y-75044104D02*
X105155350Y-75044104D01*
X104583922Y-75329819D02*
X104917255Y-74329819D01*
X104917255Y-74329819D02*
X105250588Y-75329819D01*
X105536303Y-74425057D02*
X105583922Y-74377438D01*
X105583922Y-74377438D02*
X105679160Y-74329819D01*
X105679160Y-74329819D02*
X105917255Y-74329819D01*
X105917255Y-74329819D02*
X106012493Y-74377438D01*
X106012493Y-74377438D02*
X106060112Y-74425057D01*
X106060112Y-74425057D02*
X106107731Y-74520295D01*
X106107731Y-74520295D02*
X106107731Y-74615533D01*
X106107731Y-74615533D02*
X106060112Y-74758390D01*
X106060112Y-74758390D02*
X105488684Y-75329819D01*
X105488684Y-75329819D02*
X106107731Y-75329819D01*
D11*
G36*
X117350193Y-67208154D02*
G01*
X117411007Y-67268968D01*
X117479523Y-67406000D01*
X117479523Y-67620894D01*
X117411006Y-67757926D01*
X117350192Y-67818741D01*
X117213161Y-67887257D01*
X116636666Y-67887257D01*
X116636666Y-67139638D01*
X117213161Y-67139638D01*
X117350193Y-67208154D01*
G37*
G36*
X119350193Y-67208154D02*
G01*
X119411007Y-67268968D01*
X119479523Y-67406000D01*
X119479523Y-67620894D01*
X119411006Y-67757926D01*
X119350192Y-67818741D01*
X119213161Y-67887257D01*
X118636666Y-67887257D01*
X118636666Y-67139638D01*
X119213161Y-67139638D01*
X119350193Y-67208154D01*
G37*
G36*
X123064479Y-67208154D02*
G01*
X123125293Y-67268968D01*
X123202282Y-67422946D01*
X123289047Y-67770006D01*
X123289047Y-68209269D01*
X123202282Y-68556329D01*
X123125292Y-68710307D01*
X123064478Y-68771122D01*
X122927447Y-68839638D01*
X122807790Y-68839638D01*
X122670758Y-68771122D01*
X122609944Y-68710307D01*
X122532955Y-68556329D01*
X122446190Y-68209268D01*
X122446190Y-67770006D01*
X122532955Y-67422945D01*
X122609944Y-67268968D01*
X122670758Y-67208154D01*
X122807790Y-67139638D01*
X122927447Y-67139638D01*
X123064479Y-67208154D01*
G37*
G36*
X126874003Y-67208154D02*
G01*
X126934817Y-67268968D01*
X127011806Y-67422946D01*
X127098571Y-67770006D01*
X127098571Y-68209269D01*
X127011806Y-68556329D01*
X126934816Y-68710307D01*
X126874002Y-68771122D01*
X126736971Y-68839638D01*
X126617314Y-68839638D01*
X126480282Y-68771122D01*
X126419468Y-68710307D01*
X126342479Y-68556329D01*
X126255714Y-68209268D01*
X126255714Y-67770006D01*
X126342479Y-67422945D01*
X126419468Y-67268968D01*
X126480282Y-67208154D01*
X126617314Y-67139638D01*
X126736971Y-67139638D01*
X126874003Y-67208154D01*
G37*
G36*
X124397813Y-63988154D02*
G01*
X124541699Y-64132040D01*
X124622381Y-64454768D01*
X124622381Y-65084507D01*
X124541698Y-65407235D01*
X124397812Y-65551122D01*
X124260781Y-65619638D01*
X123950648Y-65619638D01*
X123813616Y-65551122D01*
X123669730Y-65407235D01*
X123589048Y-65084506D01*
X123589048Y-64454768D01*
X123669730Y-64132039D01*
X123813616Y-63988154D01*
X123950648Y-63919638D01*
X124260781Y-63919638D01*
X124397813Y-63988154D01*
G37*
G36*
X122469029Y-65048209D02*
G01*
X121932876Y-65048209D01*
X122200952Y-64243979D01*
X122469029Y-65048209D01*
G37*
G36*
X127684285Y-69425352D02*
G01*
X116050952Y-69425352D01*
X116050952Y-68989638D01*
X116336666Y-68989638D01*
X116356762Y-69064638D01*
X116411666Y-69119542D01*
X116486666Y-69139638D01*
X116561666Y-69119542D01*
X116616570Y-69064638D01*
X116636666Y-68989638D01*
X116636666Y-68187257D01*
X116884758Y-68187257D01*
X117506638Y-69075657D01*
X117566111Y-69125575D01*
X117642575Y-69139069D01*
X117715542Y-69112522D01*
X117765460Y-69053050D01*
X117776650Y-68989638D01*
X118336666Y-68989638D01*
X118356762Y-69064638D01*
X118411666Y-69119542D01*
X118486666Y-69139638D01*
X118561666Y-69119542D01*
X118616570Y-69064638D01*
X118636666Y-68989638D01*
X120146190Y-68989638D01*
X120151301Y-69008712D01*
X120151301Y-69028461D01*
X120161174Y-69045563D01*
X120166286Y-69064638D01*
X120180250Y-69078602D01*
X120190124Y-69095704D01*
X120207225Y-69105577D01*
X120221190Y-69119542D01*
X120240264Y-69124653D01*
X120257367Y-69134527D01*
X120277115Y-69134527D01*
X120296190Y-69139638D01*
X121534285Y-69139638D01*
X121609285Y-69119542D01*
X121664189Y-69064638D01*
X121684285Y-68989638D01*
X121664189Y-68914638D01*
X121609285Y-68859734D01*
X121534285Y-68839638D01*
X120658322Y-68839638D01*
X121270226Y-68227733D01*
X122146190Y-68227733D01*
X122150980Y-68245609D01*
X122150669Y-68264113D01*
X122245907Y-68645065D01*
X122253943Y-68659542D01*
X122257264Y-68675767D01*
X122352502Y-68866243D01*
X122368524Y-68884311D01*
X122380599Y-68905226D01*
X122475838Y-69000466D01*
X122496752Y-69012540D01*
X122514822Y-69028564D01*
X122705298Y-69123802D01*
X122739076Y-69130714D01*
X122772380Y-69139638D01*
X122962857Y-69139638D01*
X122996158Y-69130714D01*
X123029939Y-69123802D01*
X123220415Y-69028564D01*
X123238483Y-69012541D01*
X123259400Y-69000465D01*
X123354638Y-68905226D01*
X123366713Y-68884311D01*
X123382735Y-68866243D01*
X123477973Y-68675767D01*
X123481293Y-68659542D01*
X123489330Y-68645065D01*
X123569854Y-68322971D01*
X124050952Y-68322971D01*
X124054914Y-68337758D01*
X124053997Y-68353043D01*
X124064797Y-68374643D01*
X124071048Y-68397971D01*
X124081874Y-68408797D01*
X124088722Y-68422492D01*
X124108875Y-68435798D01*
X124125952Y-68452875D01*
X124140740Y-68456837D01*
X124153518Y-68465274D01*
X124177626Y-68466721D01*
X124200952Y-68472971D01*
X125003333Y-68472971D01*
X125003333Y-68989638D01*
X125023429Y-69064638D01*
X125078333Y-69119542D01*
X125153333Y-69139638D01*
X125228333Y-69119542D01*
X125283237Y-69064638D01*
X125303333Y-68989638D01*
X125303333Y-68472971D01*
X125439047Y-68472971D01*
X125514047Y-68452875D01*
X125568951Y-68397971D01*
X125589047Y-68322971D01*
X125568951Y-68247971D01*
X125548713Y-68227733D01*
X125955714Y-68227733D01*
X125960504Y-68245609D01*
X125960193Y-68264113D01*
X126055431Y-68645065D01*
X126063467Y-68659542D01*
X126066788Y-68675767D01*
X126162026Y-68866243D01*
X126178048Y-68884311D01*
X126190123Y-68905226D01*
X126285362Y-69000466D01*
X126306276Y-69012540D01*
X126324346Y-69028564D01*
X126514822Y-69123802D01*
X126548600Y-69130714D01*
X126581904Y-69139638D01*
X126772381Y-69139638D01*
X126805682Y-69130714D01*
X126839463Y-69123802D01*
X127029939Y-69028564D01*
X127048007Y-69012541D01*
X127068924Y-69000465D01*
X127164162Y-68905226D01*
X127176237Y-68884311D01*
X127192259Y-68866243D01*
X127287497Y-68675767D01*
X127290817Y-68659542D01*
X127298854Y-68645065D01*
X127394092Y-68264114D01*
X127393780Y-68245610D01*
X127398571Y-68227733D01*
X127398571Y-67751542D01*
X127393780Y-67733664D01*
X127394092Y-67715161D01*
X127298854Y-67334210D01*
X127290817Y-67319732D01*
X127287497Y-67303508D01*
X127192259Y-67113032D01*
X127176235Y-67094962D01*
X127164161Y-67074048D01*
X127068923Y-66978810D01*
X127048007Y-66966734D01*
X127029939Y-66950712D01*
X126839463Y-66855474D01*
X126805682Y-66848561D01*
X126772381Y-66839638D01*
X126581904Y-66839638D01*
X126548600Y-66848561D01*
X126514822Y-66855474D01*
X126324346Y-66950712D01*
X126306276Y-66966735D01*
X126285362Y-66978810D01*
X126190124Y-67074048D01*
X126178048Y-67094963D01*
X126162026Y-67113032D01*
X126066788Y-67303508D01*
X126063467Y-67319732D01*
X126055431Y-67334210D01*
X125960193Y-67715162D01*
X125960504Y-67733665D01*
X125955714Y-67751542D01*
X125955714Y-68227733D01*
X125548713Y-68227733D01*
X125514047Y-68193067D01*
X125439047Y-68172971D01*
X125303333Y-68172971D01*
X125303333Y-67656304D01*
X125283237Y-67581304D01*
X125228333Y-67526400D01*
X125153333Y-67506304D01*
X125078333Y-67526400D01*
X125023429Y-67581304D01*
X125003333Y-67656304D01*
X125003333Y-68172971D01*
X124409066Y-68172971D01*
X124819445Y-66941834D01*
X124824097Y-66864328D01*
X124789372Y-66794879D01*
X124724576Y-66752097D01*
X124647070Y-66747445D01*
X124577621Y-66782169D01*
X124534840Y-66846966D01*
X124058649Y-68275537D01*
X124057201Y-68299645D01*
X124050952Y-68322971D01*
X123569854Y-68322971D01*
X123584568Y-68264114D01*
X123584256Y-68245610D01*
X123589047Y-68227733D01*
X123589047Y-67751542D01*
X123584256Y-67733664D01*
X123584568Y-67715161D01*
X123489330Y-67334210D01*
X123481293Y-67319732D01*
X123477973Y-67303508D01*
X123382735Y-67113032D01*
X123366711Y-67094962D01*
X123354637Y-67074048D01*
X123259399Y-66978810D01*
X123238483Y-66966734D01*
X123220415Y-66950712D01*
X123029939Y-66855474D01*
X122996158Y-66848561D01*
X122962857Y-66839638D01*
X122772380Y-66839638D01*
X122739076Y-66848561D01*
X122705298Y-66855474D01*
X122514822Y-66950712D01*
X122496752Y-66966735D01*
X122475838Y-66978810D01*
X122380600Y-67074048D01*
X122368524Y-67094963D01*
X122352502Y-67113032D01*
X122257264Y-67303508D01*
X122253943Y-67319732D01*
X122245907Y-67334210D01*
X122150669Y-67715162D01*
X122150980Y-67733665D01*
X122146190Y-67751542D01*
X122146190Y-68227733D01*
X121270226Y-68227733D01*
X121545113Y-67952846D01*
X121562354Y-67922983D01*
X121581349Y-67894214D01*
X121676587Y-67608500D01*
X121678034Y-67584394D01*
X121684285Y-67561066D01*
X121684285Y-67370590D01*
X121675361Y-67337286D01*
X121668449Y-67303508D01*
X121573211Y-67113032D01*
X121557187Y-67094962D01*
X121545113Y-67074048D01*
X121449875Y-66978810D01*
X121428959Y-66966734D01*
X121410891Y-66950712D01*
X121220415Y-66855474D01*
X121186634Y-66848561D01*
X121153333Y-66839638D01*
X120677142Y-66839638D01*
X120643838Y-66848561D01*
X120610060Y-66855474D01*
X120419584Y-66950712D01*
X120401514Y-66966735D01*
X120380600Y-66978810D01*
X120285362Y-67074048D01*
X120246539Y-67141291D01*
X120246539Y-67218937D01*
X120285362Y-67286180D01*
X120352605Y-67325003D01*
X120430251Y-67325003D01*
X120497494Y-67286180D01*
X120575520Y-67208154D01*
X120712552Y-67139638D01*
X121117923Y-67139638D01*
X121254955Y-67208154D01*
X121315769Y-67268968D01*
X121384285Y-67406000D01*
X121384285Y-67536726D01*
X121307942Y-67765752D01*
X120190124Y-68883572D01*
X120180250Y-68900673D01*
X120166286Y-68914638D01*
X120161174Y-68933712D01*
X120151301Y-68950815D01*
X120151301Y-68970563D01*
X120146190Y-68989638D01*
X118636666Y-68989638D01*
X118636666Y-68187257D01*
X119248571Y-68187257D01*
X119281872Y-68178333D01*
X119315653Y-68171421D01*
X119506129Y-68076183D01*
X119524197Y-68060160D01*
X119545114Y-68048084D01*
X119640352Y-67952845D01*
X119652427Y-67931930D01*
X119668449Y-67913862D01*
X119763687Y-67723386D01*
X119770599Y-67689607D01*
X119779523Y-67656304D01*
X119779523Y-67370590D01*
X119770599Y-67337286D01*
X119763687Y-67303508D01*
X119668449Y-67113032D01*
X119652425Y-67094962D01*
X119640351Y-67074048D01*
X119545113Y-66978810D01*
X119524197Y-66966734D01*
X119506129Y-66950712D01*
X119315653Y-66855474D01*
X119281872Y-66848561D01*
X119248571Y-66839638D01*
X118486666Y-66839638D01*
X118411666Y-66859734D01*
X118356762Y-66914638D01*
X118336666Y-66989638D01*
X118336666Y-68989638D01*
X117776650Y-68989638D01*
X117778954Y-68976585D01*
X117752408Y-68903618D01*
X117250578Y-68186719D01*
X117281872Y-68178333D01*
X117315653Y-68171421D01*
X117506129Y-68076183D01*
X117524197Y-68060160D01*
X117545114Y-68048084D01*
X117640352Y-67952845D01*
X117652427Y-67931930D01*
X117668449Y-67913862D01*
X117763687Y-67723386D01*
X117770599Y-67689607D01*
X117779523Y-67656304D01*
X117779523Y-67370590D01*
X117770599Y-67337286D01*
X117763687Y-67303508D01*
X117668449Y-67113032D01*
X117652425Y-67094962D01*
X117640351Y-67074048D01*
X117545113Y-66978810D01*
X117524197Y-66966734D01*
X117506129Y-66950712D01*
X117315653Y-66855474D01*
X117281872Y-66848561D01*
X117248571Y-66839638D01*
X116486666Y-66839638D01*
X116411666Y-66859734D01*
X116356762Y-66914638D01*
X116336666Y-66989638D01*
X116336666Y-68989638D01*
X116050952Y-68989638D01*
X116050952Y-65759984D01*
X118622692Y-65759984D01*
X118637919Y-65836122D01*
X118689176Y-65894446D01*
X118762727Y-65919327D01*
X118838865Y-65904100D01*
X118897189Y-65852843D01*
X119439047Y-65040054D01*
X119980907Y-65852843D01*
X120039230Y-65904100D01*
X120115368Y-65919327D01*
X120188919Y-65894446D01*
X120240176Y-65836122D01*
X120253472Y-65769638D01*
X120717619Y-65769638D01*
X120737715Y-65844638D01*
X120792619Y-65899542D01*
X120867619Y-65919638D01*
X120942619Y-65899542D01*
X120997523Y-65844638D01*
X121009561Y-65799710D01*
X121387331Y-65799710D01*
X121422056Y-65869159D01*
X121486852Y-65911941D01*
X121564358Y-65916593D01*
X121633807Y-65881868D01*
X121676589Y-65817072D01*
X121832877Y-65348209D01*
X122569028Y-65348209D01*
X122725316Y-65817072D01*
X122768098Y-65881868D01*
X122837547Y-65916593D01*
X122915053Y-65911940D01*
X122979849Y-65869158D01*
X123014574Y-65799710D01*
X123009921Y-65722204D01*
X122803510Y-65102971D01*
X123289048Y-65102971D01*
X123293838Y-65120847D01*
X123293527Y-65139351D01*
X123388765Y-65520303D01*
X123389397Y-65521441D01*
X123389397Y-65522746D01*
X123408209Y-65555329D01*
X123426451Y-65588190D01*
X123427568Y-65588860D01*
X123428220Y-65589989D01*
X123618695Y-65780465D01*
X123639610Y-65792540D01*
X123657680Y-65808564D01*
X123848156Y-65903802D01*
X123881934Y-65910714D01*
X123915238Y-65919638D01*
X124296191Y-65919638D01*
X124329492Y-65910714D01*
X124363273Y-65903802D01*
X124553749Y-65808564D01*
X124571817Y-65792541D01*
X124592733Y-65780466D01*
X124783209Y-65589989D01*
X124783860Y-65588860D01*
X124784978Y-65588190D01*
X124803219Y-65555329D01*
X124822032Y-65522746D01*
X124822032Y-65521441D01*
X124822664Y-65520303D01*
X124917902Y-65139352D01*
X124917590Y-65120848D01*
X124922381Y-65102971D01*
X124922381Y-64436304D01*
X124917590Y-64418426D01*
X124917902Y-64399923D01*
X124822664Y-64018972D01*
X124822032Y-64017833D01*
X124822032Y-64016529D01*
X124803219Y-63983945D01*
X124784978Y-63951085D01*
X124783860Y-63950414D01*
X124783209Y-63949286D01*
X124592733Y-63758810D01*
X124571817Y-63746734D01*
X124553749Y-63730712D01*
X124363273Y-63635474D01*
X124329492Y-63628561D01*
X124296191Y-63619638D01*
X123915238Y-63619638D01*
X123881934Y-63628561D01*
X123848156Y-63635474D01*
X123657680Y-63730712D01*
X123639610Y-63746735D01*
X123618696Y-63758810D01*
X123428220Y-63949286D01*
X123427568Y-63950414D01*
X123426451Y-63951085D01*
X123408209Y-63983945D01*
X123389397Y-64016529D01*
X123389397Y-64017833D01*
X123388765Y-64018972D01*
X123293527Y-64399924D01*
X123293838Y-64418427D01*
X123289048Y-64436304D01*
X123289048Y-65102971D01*
X122803510Y-65102971D01*
X122343254Y-63722204D01*
X122326657Y-63697067D01*
X122313183Y-63670117D01*
X122305527Y-63665062D01*
X122300473Y-63657407D01*
X122273526Y-63643933D01*
X122248386Y-63627335D01*
X122239228Y-63626785D01*
X122231024Y-63622683D01*
X122200955Y-63624488D01*
X122170880Y-63622683D01*
X122162673Y-63626786D01*
X122153518Y-63627336D01*
X122128381Y-63643932D01*
X122101431Y-63657407D01*
X122096376Y-63665062D01*
X122088721Y-63670117D01*
X122075246Y-63697067D01*
X122058650Y-63722204D01*
X121391983Y-65722204D01*
X121387331Y-65799710D01*
X121009561Y-65799710D01*
X121017619Y-65769638D01*
X121017619Y-63769638D01*
X120997523Y-63694638D01*
X120942619Y-63639734D01*
X120867619Y-63619638D01*
X120792619Y-63639734D01*
X120737715Y-63694638D01*
X120717619Y-63769638D01*
X120717619Y-65769638D01*
X120253472Y-65769638D01*
X120255403Y-65759984D01*
X120230522Y-65686433D01*
X119619325Y-64769638D01*
X120230522Y-63852843D01*
X120255403Y-63779292D01*
X120240176Y-63703154D01*
X120188919Y-63644830D01*
X120115368Y-63619949D01*
X120039230Y-63635176D01*
X119980907Y-63686433D01*
X119439047Y-64499221D01*
X118897189Y-63686433D01*
X118838865Y-63635176D01*
X118762727Y-63619949D01*
X118689176Y-63644830D01*
X118637919Y-63703154D01*
X118622692Y-63779292D01*
X118647573Y-63852843D01*
X119258769Y-64769638D01*
X118647573Y-65686433D01*
X118622692Y-65759984D01*
X116050952Y-65759984D01*
X116050952Y-63333924D01*
X127684285Y-63333924D01*
X127684285Y-69425352D01*
G37*
D10*
X105582969Y-69069819D02*
X105106779Y-69069819D01*
X105106779Y-69069819D02*
X105059160Y-69546009D01*
X105059160Y-69546009D02*
X105106779Y-69498390D01*
X105106779Y-69498390D02*
X105202017Y-69450771D01*
X105202017Y-69450771D02*
X105440112Y-69450771D01*
X105440112Y-69450771D02*
X105535350Y-69498390D01*
X105535350Y-69498390D02*
X105582969Y-69546009D01*
X105582969Y-69546009D02*
X105630588Y-69641247D01*
X105630588Y-69641247D02*
X105630588Y-69879342D01*
X105630588Y-69879342D02*
X105582969Y-69974580D01*
X105582969Y-69974580D02*
X105535350Y-70022200D01*
X105535350Y-70022200D02*
X105440112Y-70069819D01*
X105440112Y-70069819D02*
X105202017Y-70069819D01*
X105202017Y-70069819D02*
X105106779Y-70022200D01*
X105106779Y-70022200D02*
X105059160Y-69974580D01*
X105470588Y-84477438D02*
X105375350Y-84429819D01*
X105375350Y-84429819D02*
X105232493Y-84429819D01*
X105232493Y-84429819D02*
X105089636Y-84477438D01*
X105089636Y-84477438D02*
X104994398Y-84572676D01*
X104994398Y-84572676D02*
X104946779Y-84667914D01*
X104946779Y-84667914D02*
X104899160Y-84858390D01*
X104899160Y-84858390D02*
X104899160Y-85001247D01*
X104899160Y-85001247D02*
X104946779Y-85191723D01*
X104946779Y-85191723D02*
X104994398Y-85286961D01*
X104994398Y-85286961D02*
X105089636Y-85382200D01*
X105089636Y-85382200D02*
X105232493Y-85429819D01*
X105232493Y-85429819D02*
X105327731Y-85429819D01*
X105327731Y-85429819D02*
X105470588Y-85382200D01*
X105470588Y-85382200D02*
X105518207Y-85334580D01*
X105518207Y-85334580D02*
X105518207Y-85001247D01*
X105518207Y-85001247D02*
X105327731Y-85001247D01*
X153062969Y-71569819D02*
X152586779Y-71569819D01*
X152586779Y-71569819D02*
X152539160Y-72046009D01*
X152539160Y-72046009D02*
X152586779Y-71998390D01*
X152586779Y-71998390D02*
X152682017Y-71950771D01*
X152682017Y-71950771D02*
X152920112Y-71950771D01*
X152920112Y-71950771D02*
X153015350Y-71998390D01*
X153015350Y-71998390D02*
X153062969Y-72046009D01*
X153062969Y-72046009D02*
X153110588Y-72141247D01*
X153110588Y-72141247D02*
X153110588Y-72379342D01*
X153110588Y-72379342D02*
X153062969Y-72474580D01*
X153062969Y-72474580D02*
X153015350Y-72522200D01*
X153015350Y-72522200D02*
X152920112Y-72569819D01*
X152920112Y-72569819D02*
X152682017Y-72569819D01*
X152682017Y-72569819D02*
X152586779Y-72522200D01*
X152586779Y-72522200D02*
X152539160Y-72474580D01*
X133639533Y-102822619D02*
X133163343Y-102822619D01*
X133163343Y-102822619D02*
X133163343Y-101822619D01*
X134496676Y-102822619D02*
X133925248Y-102822619D01*
X134210962Y-102822619D02*
X134210962Y-101822619D01*
X134210962Y-101822619D02*
X134115724Y-101965476D01*
X134115724Y-101965476D02*
X134020486Y-102060714D01*
X134020486Y-102060714D02*
X133925248Y-102108333D01*
X133616666Y-114544819D02*
X133616666Y-115259104D01*
X133616666Y-115259104D02*
X133569047Y-115401961D01*
X133569047Y-115401961D02*
X133473809Y-115497200D01*
X133473809Y-115497200D02*
X133330952Y-115544819D01*
X133330952Y-115544819D02*
X133235714Y-115544819D01*
X134092857Y-115544819D02*
X134092857Y-114544819D01*
X134092857Y-114544819D02*
X134473809Y-114544819D01*
X134473809Y-114544819D02*
X134569047Y-114592438D01*
X134569047Y-114592438D02*
X134616666Y-114640057D01*
X134616666Y-114640057D02*
X134664285Y-114735295D01*
X134664285Y-114735295D02*
X134664285Y-114878152D01*
X134664285Y-114878152D02*
X134616666Y-114973390D01*
X134616666Y-114973390D02*
X134569047Y-115021009D01*
X134569047Y-115021009D02*
X134473809Y-115068628D01*
X134473809Y-115068628D02*
X134092857Y-115068628D01*
X135045238Y-114640057D02*
X135092857Y-114592438D01*
X135092857Y-114592438D02*
X135188095Y-114544819D01*
X135188095Y-114544819D02*
X135426190Y-114544819D01*
X135426190Y-114544819D02*
X135521428Y-114592438D01*
X135521428Y-114592438D02*
X135569047Y-114640057D01*
X135569047Y-114640057D02*
X135616666Y-114735295D01*
X135616666Y-114735295D02*
X135616666Y-114830533D01*
X135616666Y-114830533D02*
X135569047Y-114973390D01*
X135569047Y-114973390D02*
X134997619Y-115544819D01*
X134997619Y-115544819D02*
X135616666Y-115544819D01*
X135741266Y-101734819D02*
X135741266Y-102449104D01*
X135741266Y-102449104D02*
X135693647Y-102591961D01*
X135693647Y-102591961D02*
X135598409Y-102687200D01*
X135598409Y-102687200D02*
X135455552Y-102734819D01*
X135455552Y-102734819D02*
X135360314Y-102734819D01*
X136217457Y-102734819D02*
X136217457Y-101734819D01*
X136217457Y-101734819D02*
X136598409Y-101734819D01*
X136598409Y-101734819D02*
X136693647Y-101782438D01*
X136693647Y-101782438D02*
X136741266Y-101830057D01*
X136741266Y-101830057D02*
X136788885Y-101925295D01*
X136788885Y-101925295D02*
X136788885Y-102068152D01*
X136788885Y-102068152D02*
X136741266Y-102163390D01*
X136741266Y-102163390D02*
X136693647Y-102211009D01*
X136693647Y-102211009D02*
X136598409Y-102258628D01*
X136598409Y-102258628D02*
X136217457Y-102258628D01*
X137741266Y-102734819D02*
X137169838Y-102734819D01*
X137455552Y-102734819D02*
X137455552Y-101734819D01*
X137455552Y-101734819D02*
X137360314Y-101877676D01*
X137360314Y-101877676D02*
X137265076Y-101972914D01*
X137265076Y-101972914D02*
X137169838Y-102020533D01*
X130178095Y-114534819D02*
X130178095Y-115344342D01*
X130178095Y-115344342D02*
X130225714Y-115439580D01*
X130225714Y-115439580D02*
X130273333Y-115487200D01*
X130273333Y-115487200D02*
X130368571Y-115534819D01*
X130368571Y-115534819D02*
X130559047Y-115534819D01*
X130559047Y-115534819D02*
X130654285Y-115487200D01*
X130654285Y-115487200D02*
X130701904Y-115439580D01*
X130701904Y-115439580D02*
X130749523Y-115344342D01*
X130749523Y-115344342D02*
X130749523Y-114534819D01*
X131749523Y-115534819D02*
X131178095Y-115534819D01*
X131463809Y-115534819D02*
X131463809Y-114534819D01*
X131463809Y-114534819D02*
X131368571Y-114677676D01*
X131368571Y-114677676D02*
X131273333Y-114772914D01*
X131273333Y-114772914D02*
X131178095Y-114820533D01*
X146159819Y-77704166D02*
X145683628Y-78037499D01*
X146159819Y-78275594D02*
X145159819Y-78275594D01*
X145159819Y-78275594D02*
X145159819Y-77894642D01*
X145159819Y-77894642D02*
X145207438Y-77799404D01*
X145207438Y-77799404D02*
X145255057Y-77751785D01*
X145255057Y-77751785D02*
X145350295Y-77704166D01*
X145350295Y-77704166D02*
X145493152Y-77704166D01*
X145493152Y-77704166D02*
X145588390Y-77751785D01*
X145588390Y-77751785D02*
X145636009Y-77799404D01*
X145636009Y-77799404D02*
X145683628Y-77894642D01*
X145683628Y-77894642D02*
X145683628Y-78275594D01*
X145588390Y-77132737D02*
X145540771Y-77227975D01*
X145540771Y-77227975D02*
X145493152Y-77275594D01*
X145493152Y-77275594D02*
X145397914Y-77323213D01*
X145397914Y-77323213D02*
X145350295Y-77323213D01*
X145350295Y-77323213D02*
X145255057Y-77275594D01*
X145255057Y-77275594D02*
X145207438Y-77227975D01*
X145207438Y-77227975D02*
X145159819Y-77132737D01*
X145159819Y-77132737D02*
X145159819Y-76942261D01*
X145159819Y-76942261D02*
X145207438Y-76847023D01*
X145207438Y-76847023D02*
X145255057Y-76799404D01*
X145255057Y-76799404D02*
X145350295Y-76751785D01*
X145350295Y-76751785D02*
X145397914Y-76751785D01*
X145397914Y-76751785D02*
X145493152Y-76799404D01*
X145493152Y-76799404D02*
X145540771Y-76847023D01*
X145540771Y-76847023D02*
X145588390Y-76942261D01*
X145588390Y-76942261D02*
X145588390Y-77132737D01*
X145588390Y-77132737D02*
X145636009Y-77227975D01*
X145636009Y-77227975D02*
X145683628Y-77275594D01*
X145683628Y-77275594D02*
X145778866Y-77323213D01*
X145778866Y-77323213D02*
X145969342Y-77323213D01*
X145969342Y-77323213D02*
X146064580Y-77275594D01*
X146064580Y-77275594D02*
X146112200Y-77227975D01*
X146112200Y-77227975D02*
X146159819Y-77132737D01*
X146159819Y-77132737D02*
X146159819Y-76942261D01*
X146159819Y-76942261D02*
X146112200Y-76847023D01*
X146112200Y-76847023D02*
X146064580Y-76799404D01*
X146064580Y-76799404D02*
X145969342Y-76751785D01*
X145969342Y-76751785D02*
X145778866Y-76751785D01*
X145778866Y-76751785D02*
X145683628Y-76799404D01*
X145683628Y-76799404D02*
X145636009Y-76847023D01*
X145636009Y-76847023D02*
X145588390Y-76942261D01*
X145670833Y-114684819D02*
X145337500Y-114208628D01*
X145099405Y-114684819D02*
X145099405Y-113684819D01*
X145099405Y-113684819D02*
X145480357Y-113684819D01*
X145480357Y-113684819D02*
X145575595Y-113732438D01*
X145575595Y-113732438D02*
X145623214Y-113780057D01*
X145623214Y-113780057D02*
X145670833Y-113875295D01*
X145670833Y-113875295D02*
X145670833Y-114018152D01*
X145670833Y-114018152D02*
X145623214Y-114113390D01*
X145623214Y-114113390D02*
X145575595Y-114161009D01*
X145575595Y-114161009D02*
X145480357Y-114208628D01*
X145480357Y-114208628D02*
X145099405Y-114208628D01*
X146575595Y-113684819D02*
X146099405Y-113684819D01*
X146099405Y-113684819D02*
X146051786Y-114161009D01*
X146051786Y-114161009D02*
X146099405Y-114113390D01*
X146099405Y-114113390D02*
X146194643Y-114065771D01*
X146194643Y-114065771D02*
X146432738Y-114065771D01*
X146432738Y-114065771D02*
X146527976Y-114113390D01*
X146527976Y-114113390D02*
X146575595Y-114161009D01*
X146575595Y-114161009D02*
X146623214Y-114256247D01*
X146623214Y-114256247D02*
X146623214Y-114494342D01*
X146623214Y-114494342D02*
X146575595Y-114589580D01*
X146575595Y-114589580D02*
X146527976Y-114637200D01*
X146527976Y-114637200D02*
X146432738Y-114684819D01*
X146432738Y-114684819D02*
X146194643Y-114684819D01*
X146194643Y-114684819D02*
X146099405Y-114637200D01*
X146099405Y-114637200D02*
X146051786Y-114589580D01*
X145690833Y-115114819D02*
X145357500Y-114638628D01*
X145119405Y-115114819D02*
X145119405Y-114114819D01*
X145119405Y-114114819D02*
X145500357Y-114114819D01*
X145500357Y-114114819D02*
X145595595Y-114162438D01*
X145595595Y-114162438D02*
X145643214Y-114210057D01*
X145643214Y-114210057D02*
X145690833Y-114305295D01*
X145690833Y-114305295D02*
X145690833Y-114448152D01*
X145690833Y-114448152D02*
X145643214Y-114543390D01*
X145643214Y-114543390D02*
X145595595Y-114591009D01*
X145595595Y-114591009D02*
X145500357Y-114638628D01*
X145500357Y-114638628D02*
X145119405Y-114638628D01*
X146547976Y-114448152D02*
X146547976Y-115114819D01*
X146309881Y-114067200D02*
X146071786Y-114781485D01*
X146071786Y-114781485D02*
X146690833Y-114781485D01*
X134663333Y-64624819D02*
X134330000Y-64148628D01*
X134091905Y-64624819D02*
X134091905Y-63624819D01*
X134091905Y-63624819D02*
X134472857Y-63624819D01*
X134472857Y-63624819D02*
X134568095Y-63672438D01*
X134568095Y-63672438D02*
X134615714Y-63720057D01*
X134615714Y-63720057D02*
X134663333Y-63815295D01*
X134663333Y-63815295D02*
X134663333Y-63958152D01*
X134663333Y-63958152D02*
X134615714Y-64053390D01*
X134615714Y-64053390D02*
X134568095Y-64101009D01*
X134568095Y-64101009D02*
X134472857Y-64148628D01*
X134472857Y-64148628D02*
X134091905Y-64148628D01*
X134996667Y-63624819D02*
X135615714Y-63624819D01*
X135615714Y-63624819D02*
X135282381Y-64005771D01*
X135282381Y-64005771D02*
X135425238Y-64005771D01*
X135425238Y-64005771D02*
X135520476Y-64053390D01*
X135520476Y-64053390D02*
X135568095Y-64101009D01*
X135568095Y-64101009D02*
X135615714Y-64196247D01*
X135615714Y-64196247D02*
X135615714Y-64434342D01*
X135615714Y-64434342D02*
X135568095Y-64529580D01*
X135568095Y-64529580D02*
X135520476Y-64577200D01*
X135520476Y-64577200D02*
X135425238Y-64624819D01*
X135425238Y-64624819D02*
X135139524Y-64624819D01*
X135139524Y-64624819D02*
X135044286Y-64577200D01*
X135044286Y-64577200D02*
X134996667Y-64529580D01*
X132443333Y-64634819D02*
X132110000Y-64158628D01*
X131871905Y-64634819D02*
X131871905Y-63634819D01*
X131871905Y-63634819D02*
X132252857Y-63634819D01*
X132252857Y-63634819D02*
X132348095Y-63682438D01*
X132348095Y-63682438D02*
X132395714Y-63730057D01*
X132395714Y-63730057D02*
X132443333Y-63825295D01*
X132443333Y-63825295D02*
X132443333Y-63968152D01*
X132443333Y-63968152D02*
X132395714Y-64063390D01*
X132395714Y-64063390D02*
X132348095Y-64111009D01*
X132348095Y-64111009D02*
X132252857Y-64158628D01*
X132252857Y-64158628D02*
X131871905Y-64158628D01*
X132824286Y-63730057D02*
X132871905Y-63682438D01*
X132871905Y-63682438D02*
X132967143Y-63634819D01*
X132967143Y-63634819D02*
X133205238Y-63634819D01*
X133205238Y-63634819D02*
X133300476Y-63682438D01*
X133300476Y-63682438D02*
X133348095Y-63730057D01*
X133348095Y-63730057D02*
X133395714Y-63825295D01*
X133395714Y-63825295D02*
X133395714Y-63920533D01*
X133395714Y-63920533D02*
X133348095Y-64063390D01*
X133348095Y-64063390D02*
X132776667Y-64634819D01*
X132776667Y-64634819D02*
X133395714Y-64634819D01*
X131193333Y-105884819D02*
X130860000Y-105408628D01*
X130621905Y-105884819D02*
X130621905Y-104884819D01*
X130621905Y-104884819D02*
X131002857Y-104884819D01*
X131002857Y-104884819D02*
X131098095Y-104932438D01*
X131098095Y-104932438D02*
X131145714Y-104980057D01*
X131145714Y-104980057D02*
X131193333Y-105075295D01*
X131193333Y-105075295D02*
X131193333Y-105218152D01*
X131193333Y-105218152D02*
X131145714Y-105313390D01*
X131145714Y-105313390D02*
X131098095Y-105361009D01*
X131098095Y-105361009D02*
X131002857Y-105408628D01*
X131002857Y-105408628D02*
X130621905Y-105408628D01*
X132145714Y-105884819D02*
X131574286Y-105884819D01*
X131860000Y-105884819D02*
X131860000Y-104884819D01*
X131860000Y-104884819D02*
X131764762Y-105027676D01*
X131764762Y-105027676D02*
X131669524Y-105122914D01*
X131669524Y-105122914D02*
X131574286Y-105170533D01*
X130406666Y-107511009D02*
X130073333Y-107511009D01*
X130073333Y-108034819D02*
X130073333Y-107034819D01*
X130073333Y-107034819D02*
X130549523Y-107034819D01*
X131263809Y-107511009D02*
X131406666Y-107558628D01*
X131406666Y-107558628D02*
X131454285Y-107606247D01*
X131454285Y-107606247D02*
X131501904Y-107701485D01*
X131501904Y-107701485D02*
X131501904Y-107844342D01*
X131501904Y-107844342D02*
X131454285Y-107939580D01*
X131454285Y-107939580D02*
X131406666Y-107987200D01*
X131406666Y-107987200D02*
X131311428Y-108034819D01*
X131311428Y-108034819D02*
X130930476Y-108034819D01*
X130930476Y-108034819D02*
X130930476Y-107034819D01*
X130930476Y-107034819D02*
X131263809Y-107034819D01*
X131263809Y-107034819D02*
X131359047Y-107082438D01*
X131359047Y-107082438D02*
X131406666Y-107130057D01*
X131406666Y-107130057D02*
X131454285Y-107225295D01*
X131454285Y-107225295D02*
X131454285Y-107320533D01*
X131454285Y-107320533D02*
X131406666Y-107415771D01*
X131406666Y-107415771D02*
X131359047Y-107463390D01*
X131359047Y-107463390D02*
X131263809Y-107511009D01*
X131263809Y-107511009D02*
X130930476Y-107511009D01*
X132454285Y-108034819D02*
X131882857Y-108034819D01*
X132168571Y-108034819D02*
X132168571Y-107034819D01*
X132168571Y-107034819D02*
X132073333Y-107177676D01*
X132073333Y-107177676D02*
X131978095Y-107272914D01*
X131978095Y-107272914D02*
X131882857Y-107320533D01*
X134323333Y-109609580D02*
X134275714Y-109657200D01*
X134275714Y-109657200D02*
X134132857Y-109704819D01*
X134132857Y-109704819D02*
X134037619Y-109704819D01*
X134037619Y-109704819D02*
X133894762Y-109657200D01*
X133894762Y-109657200D02*
X133799524Y-109561961D01*
X133799524Y-109561961D02*
X133751905Y-109466723D01*
X133751905Y-109466723D02*
X133704286Y-109276247D01*
X133704286Y-109276247D02*
X133704286Y-109133390D01*
X133704286Y-109133390D02*
X133751905Y-108942914D01*
X133751905Y-108942914D02*
X133799524Y-108847676D01*
X133799524Y-108847676D02*
X133894762Y-108752438D01*
X133894762Y-108752438D02*
X134037619Y-108704819D01*
X134037619Y-108704819D02*
X134132857Y-108704819D01*
X134132857Y-108704819D02*
X134275714Y-108752438D01*
X134275714Y-108752438D02*
X134323333Y-108800057D01*
X134704286Y-108800057D02*
X134751905Y-108752438D01*
X134751905Y-108752438D02*
X134847143Y-108704819D01*
X134847143Y-108704819D02*
X135085238Y-108704819D01*
X135085238Y-108704819D02*
X135180476Y-108752438D01*
X135180476Y-108752438D02*
X135228095Y-108800057D01*
X135228095Y-108800057D02*
X135275714Y-108895295D01*
X135275714Y-108895295D02*
X135275714Y-108990533D01*
X135275714Y-108990533D02*
X135228095Y-109133390D01*
X135228095Y-109133390D02*
X134656667Y-109704819D01*
X134656667Y-109704819D02*
X135275714Y-109704819D01*
X137923333Y-107169580D02*
X137875714Y-107217200D01*
X137875714Y-107217200D02*
X137732857Y-107264819D01*
X137732857Y-107264819D02*
X137637619Y-107264819D01*
X137637619Y-107264819D02*
X137494762Y-107217200D01*
X137494762Y-107217200D02*
X137399524Y-107121961D01*
X137399524Y-107121961D02*
X137351905Y-107026723D01*
X137351905Y-107026723D02*
X137304286Y-106836247D01*
X137304286Y-106836247D02*
X137304286Y-106693390D01*
X137304286Y-106693390D02*
X137351905Y-106502914D01*
X137351905Y-106502914D02*
X137399524Y-106407676D01*
X137399524Y-106407676D02*
X137494762Y-106312438D01*
X137494762Y-106312438D02*
X137637619Y-106264819D01*
X137637619Y-106264819D02*
X137732857Y-106264819D01*
X137732857Y-106264819D02*
X137875714Y-106312438D01*
X137875714Y-106312438D02*
X137923333Y-106360057D01*
X138875714Y-107264819D02*
X138304286Y-107264819D01*
X138590000Y-107264819D02*
X138590000Y-106264819D01*
X138590000Y-106264819D02*
X138494762Y-106407676D01*
X138494762Y-106407676D02*
X138399524Y-106502914D01*
X138399524Y-106502914D02*
X138304286Y-106550533D01*
X105136666Y-87744819D02*
X105136666Y-88459104D01*
X105136666Y-88459104D02*
X105089047Y-88601961D01*
X105089047Y-88601961D02*
X104993809Y-88697200D01*
X104993809Y-88697200D02*
X104850952Y-88744819D01*
X104850952Y-88744819D02*
X104755714Y-88744819D01*
X105517619Y-87744819D02*
X106136666Y-87744819D01*
X106136666Y-87744819D02*
X105803333Y-88125771D01*
X105803333Y-88125771D02*
X105946190Y-88125771D01*
X105946190Y-88125771D02*
X106041428Y-88173390D01*
X106041428Y-88173390D02*
X106089047Y-88221009D01*
X106089047Y-88221009D02*
X106136666Y-88316247D01*
X106136666Y-88316247D02*
X106136666Y-88554342D01*
X106136666Y-88554342D02*
X106089047Y-88649580D01*
X106089047Y-88649580D02*
X106041428Y-88697200D01*
X106041428Y-88697200D02*
X105946190Y-88744819D01*
X105946190Y-88744819D02*
X105660476Y-88744819D01*
X105660476Y-88744819D02*
X105565238Y-88697200D01*
X105565238Y-88697200D02*
X105517619Y-88649580D01*
X147096666Y-74434819D02*
X147096666Y-75149104D01*
X147096666Y-75149104D02*
X147049047Y-75291961D01*
X147049047Y-75291961D02*
X146953809Y-75387200D01*
X146953809Y-75387200D02*
X146810952Y-75434819D01*
X146810952Y-75434819D02*
X146715714Y-75434819D01*
X148049047Y-74434819D02*
X147572857Y-74434819D01*
X147572857Y-74434819D02*
X147525238Y-74911009D01*
X147525238Y-74911009D02*
X147572857Y-74863390D01*
X147572857Y-74863390D02*
X147668095Y-74815771D01*
X147668095Y-74815771D02*
X147906190Y-74815771D01*
X147906190Y-74815771D02*
X148001428Y-74863390D01*
X148001428Y-74863390D02*
X148049047Y-74911009D01*
X148049047Y-74911009D02*
X148096666Y-75006247D01*
X148096666Y-75006247D02*
X148096666Y-75244342D01*
X148096666Y-75244342D02*
X148049047Y-75339580D01*
X148049047Y-75339580D02*
X148001428Y-75387200D01*
X148001428Y-75387200D02*
X147906190Y-75434819D01*
X147906190Y-75434819D02*
X147668095Y-75434819D01*
X147668095Y-75434819D02*
X147572857Y-75387200D01*
X147572857Y-75387200D02*
X147525238Y-75339580D01*
X143953333Y-85539580D02*
X143905714Y-85587200D01*
X143905714Y-85587200D02*
X143762857Y-85634819D01*
X143762857Y-85634819D02*
X143667619Y-85634819D01*
X143667619Y-85634819D02*
X143524762Y-85587200D01*
X143524762Y-85587200D02*
X143429524Y-85491961D01*
X143429524Y-85491961D02*
X143381905Y-85396723D01*
X143381905Y-85396723D02*
X143334286Y-85206247D01*
X143334286Y-85206247D02*
X143334286Y-85063390D01*
X143334286Y-85063390D02*
X143381905Y-84872914D01*
X143381905Y-84872914D02*
X143429524Y-84777676D01*
X143429524Y-84777676D02*
X143524762Y-84682438D01*
X143524762Y-84682438D02*
X143667619Y-84634819D01*
X143667619Y-84634819D02*
X143762857Y-84634819D01*
X143762857Y-84634819D02*
X143905714Y-84682438D01*
X143905714Y-84682438D02*
X143953333Y-84730057D01*
X144429524Y-85634819D02*
X144620000Y-85634819D01*
X144620000Y-85634819D02*
X144715238Y-85587200D01*
X144715238Y-85587200D02*
X144762857Y-85539580D01*
X144762857Y-85539580D02*
X144858095Y-85396723D01*
X144858095Y-85396723D02*
X144905714Y-85206247D01*
X144905714Y-85206247D02*
X144905714Y-84825295D01*
X144905714Y-84825295D02*
X144858095Y-84730057D01*
X144858095Y-84730057D02*
X144810476Y-84682438D01*
X144810476Y-84682438D02*
X144715238Y-84634819D01*
X144715238Y-84634819D02*
X144524762Y-84634819D01*
X144524762Y-84634819D02*
X144429524Y-84682438D01*
X144429524Y-84682438D02*
X144381905Y-84730057D01*
X144381905Y-84730057D02*
X144334286Y-84825295D01*
X144334286Y-84825295D02*
X144334286Y-85063390D01*
X144334286Y-85063390D02*
X144381905Y-85158628D01*
X144381905Y-85158628D02*
X144429524Y-85206247D01*
X144429524Y-85206247D02*
X144524762Y-85253866D01*
X144524762Y-85253866D02*
X144715238Y-85253866D01*
X144715238Y-85253866D02*
X144810476Y-85206247D01*
X144810476Y-85206247D02*
X144858095Y-85158628D01*
X144858095Y-85158628D02*
X144905714Y-85063390D01*
X146993333Y-71464819D02*
X146660000Y-70988628D01*
X146421905Y-71464819D02*
X146421905Y-70464819D01*
X146421905Y-70464819D02*
X146802857Y-70464819D01*
X146802857Y-70464819D02*
X146898095Y-70512438D01*
X146898095Y-70512438D02*
X146945714Y-70560057D01*
X146945714Y-70560057D02*
X146993333Y-70655295D01*
X146993333Y-70655295D02*
X146993333Y-70798152D01*
X146993333Y-70798152D02*
X146945714Y-70893390D01*
X146945714Y-70893390D02*
X146898095Y-70941009D01*
X146898095Y-70941009D02*
X146802857Y-70988628D01*
X146802857Y-70988628D02*
X146421905Y-70988628D01*
X147326667Y-70464819D02*
X147993333Y-70464819D01*
X147993333Y-70464819D02*
X147564762Y-71464819D01*
X113828095Y-117414819D02*
X113828095Y-118224342D01*
X113828095Y-118224342D02*
X113875714Y-118319580D01*
X113875714Y-118319580D02*
X113923333Y-118367200D01*
X113923333Y-118367200D02*
X114018571Y-118414819D01*
X114018571Y-118414819D02*
X114209047Y-118414819D01*
X114209047Y-118414819D02*
X114304285Y-118367200D01*
X114304285Y-118367200D02*
X114351904Y-118319580D01*
X114351904Y-118319580D02*
X114399523Y-118224342D01*
X114399523Y-118224342D02*
X114399523Y-117414819D01*
X115351904Y-117414819D02*
X114875714Y-117414819D01*
X114875714Y-117414819D02*
X114828095Y-117891009D01*
X114828095Y-117891009D02*
X114875714Y-117843390D01*
X114875714Y-117843390D02*
X114970952Y-117795771D01*
X114970952Y-117795771D02*
X115209047Y-117795771D01*
X115209047Y-117795771D02*
X115304285Y-117843390D01*
X115304285Y-117843390D02*
X115351904Y-117891009D01*
X115351904Y-117891009D02*
X115399523Y-117986247D01*
X115399523Y-117986247D02*
X115399523Y-118224342D01*
X115399523Y-118224342D02*
X115351904Y-118319580D01*
X115351904Y-118319580D02*
X115304285Y-118367200D01*
X115304285Y-118367200D02*
X115209047Y-118414819D01*
X115209047Y-118414819D02*
X114970952Y-118414819D01*
X114970952Y-118414819D02*
X114875714Y-118367200D01*
X114875714Y-118367200D02*
X114828095Y-118319580D01*
D12*
X140689999Y-92167593D02*
X140456666Y-91834260D01*
X140289999Y-92167593D02*
X140289999Y-91467593D01*
X140289999Y-91467593D02*
X140556666Y-91467593D01*
X140556666Y-91467593D02*
X140623333Y-91500926D01*
X140623333Y-91500926D02*
X140656666Y-91534260D01*
X140656666Y-91534260D02*
X140689999Y-91600926D01*
X140689999Y-91600926D02*
X140689999Y-91700926D01*
X140689999Y-91700926D02*
X140656666Y-91767593D01*
X140656666Y-91767593D02*
X140623333Y-91800926D01*
X140623333Y-91800926D02*
X140556666Y-91834260D01*
X140556666Y-91834260D02*
X140289999Y-91834260D01*
X141356666Y-92167593D02*
X140956666Y-92167593D01*
X141156666Y-92167593D02*
X141156666Y-91467593D01*
X141156666Y-91467593D02*
X141089999Y-91567593D01*
X141089999Y-91567593D02*
X141023333Y-91634260D01*
X141023333Y-91634260D02*
X140956666Y-91667593D01*
X141990000Y-91467593D02*
X141656666Y-91467593D01*
X141656666Y-91467593D02*
X141623333Y-91800926D01*
X141623333Y-91800926D02*
X141656666Y-91767593D01*
X141656666Y-91767593D02*
X141723333Y-91734260D01*
X141723333Y-91734260D02*
X141890000Y-91734260D01*
X141890000Y-91734260D02*
X141956666Y-91767593D01*
X141956666Y-91767593D02*
X141990000Y-91800926D01*
X141990000Y-91800926D02*
X142023333Y-91867593D01*
X142023333Y-91867593D02*
X142023333Y-92034260D01*
X142023333Y-92034260D02*
X141990000Y-92100926D01*
X141990000Y-92100926D02*
X141956666Y-92134260D01*
X141956666Y-92134260D02*
X141890000Y-92167593D01*
X141890000Y-92167593D02*
X141723333Y-92167593D01*
X141723333Y-92167593D02*
X141656666Y-92134260D01*
X141656666Y-92134260D02*
X141623333Y-92100926D01*
D10*
X104906666Y-122134819D02*
X104906666Y-122849104D01*
X104906666Y-122849104D02*
X104859047Y-122991961D01*
X104859047Y-122991961D02*
X104763809Y-123087200D01*
X104763809Y-123087200D02*
X104620952Y-123134819D01*
X104620952Y-123134819D02*
X104525714Y-123134819D01*
X105287619Y-122134819D02*
X105954285Y-122134819D01*
X105954285Y-122134819D02*
X105525714Y-123134819D01*
X150366667Y-102177200D02*
X150509524Y-102224819D01*
X150509524Y-102224819D02*
X150747619Y-102224819D01*
X150747619Y-102224819D02*
X150842857Y-102177200D01*
X150842857Y-102177200D02*
X150890476Y-102129580D01*
X150890476Y-102129580D02*
X150938095Y-102034342D01*
X150938095Y-102034342D02*
X150938095Y-101939104D01*
X150938095Y-101939104D02*
X150890476Y-101843866D01*
X150890476Y-101843866D02*
X150842857Y-101796247D01*
X150842857Y-101796247D02*
X150747619Y-101748628D01*
X150747619Y-101748628D02*
X150557143Y-101701009D01*
X150557143Y-101701009D02*
X150461905Y-101653390D01*
X150461905Y-101653390D02*
X150414286Y-101605771D01*
X150414286Y-101605771D02*
X150366667Y-101510533D01*
X150366667Y-101510533D02*
X150366667Y-101415295D01*
X150366667Y-101415295D02*
X150414286Y-101320057D01*
X150414286Y-101320057D02*
X150461905Y-101272438D01*
X150461905Y-101272438D02*
X150557143Y-101224819D01*
X150557143Y-101224819D02*
X150795238Y-101224819D01*
X150795238Y-101224819D02*
X150938095Y-101272438D01*
X151271429Y-101224819D02*
X151509524Y-102224819D01*
X151509524Y-102224819D02*
X151700000Y-101510533D01*
X151700000Y-101510533D02*
X151890476Y-102224819D01*
X151890476Y-102224819D02*
X152128572Y-101224819D01*
X152461905Y-101320057D02*
X152509524Y-101272438D01*
X152509524Y-101272438D02*
X152604762Y-101224819D01*
X152604762Y-101224819D02*
X152842857Y-101224819D01*
X152842857Y-101224819D02*
X152938095Y-101272438D01*
X152938095Y-101272438D02*
X152985714Y-101320057D01*
X152985714Y-101320057D02*
X153033333Y-101415295D01*
X153033333Y-101415295D02*
X153033333Y-101510533D01*
X153033333Y-101510533D02*
X152985714Y-101653390D01*
X152985714Y-101653390D02*
X152414286Y-102224819D01*
X152414286Y-102224819D02*
X153033333Y-102224819D01*
X141518333Y-82529580D02*
X141470714Y-82577200D01*
X141470714Y-82577200D02*
X141327857Y-82624819D01*
X141327857Y-82624819D02*
X141232619Y-82624819D01*
X141232619Y-82624819D02*
X141089762Y-82577200D01*
X141089762Y-82577200D02*
X140994524Y-82481961D01*
X140994524Y-82481961D02*
X140946905Y-82386723D01*
X140946905Y-82386723D02*
X140899286Y-82196247D01*
X140899286Y-82196247D02*
X140899286Y-82053390D01*
X140899286Y-82053390D02*
X140946905Y-81862914D01*
X140946905Y-81862914D02*
X140994524Y-81767676D01*
X140994524Y-81767676D02*
X141089762Y-81672438D01*
X141089762Y-81672438D02*
X141232619Y-81624819D01*
X141232619Y-81624819D02*
X141327857Y-81624819D01*
X141327857Y-81624819D02*
X141470714Y-81672438D01*
X141470714Y-81672438D02*
X141518333Y-81720057D01*
X142089762Y-82053390D02*
X141994524Y-82005771D01*
X141994524Y-82005771D02*
X141946905Y-81958152D01*
X141946905Y-81958152D02*
X141899286Y-81862914D01*
X141899286Y-81862914D02*
X141899286Y-81815295D01*
X141899286Y-81815295D02*
X141946905Y-81720057D01*
X141946905Y-81720057D02*
X141994524Y-81672438D01*
X141994524Y-81672438D02*
X142089762Y-81624819D01*
X142089762Y-81624819D02*
X142280238Y-81624819D01*
X142280238Y-81624819D02*
X142375476Y-81672438D01*
X142375476Y-81672438D02*
X142423095Y-81720057D01*
X142423095Y-81720057D02*
X142470714Y-81815295D01*
X142470714Y-81815295D02*
X142470714Y-81862914D01*
X142470714Y-81862914D02*
X142423095Y-81958152D01*
X142423095Y-81958152D02*
X142375476Y-82005771D01*
X142375476Y-82005771D02*
X142280238Y-82053390D01*
X142280238Y-82053390D02*
X142089762Y-82053390D01*
X142089762Y-82053390D02*
X141994524Y-82101009D01*
X141994524Y-82101009D02*
X141946905Y-82148628D01*
X141946905Y-82148628D02*
X141899286Y-82243866D01*
X141899286Y-82243866D02*
X141899286Y-82434342D01*
X141899286Y-82434342D02*
X141946905Y-82529580D01*
X141946905Y-82529580D02*
X141994524Y-82577200D01*
X141994524Y-82577200D02*
X142089762Y-82624819D01*
X142089762Y-82624819D02*
X142280238Y-82624819D01*
X142280238Y-82624819D02*
X142375476Y-82577200D01*
X142375476Y-82577200D02*
X142423095Y-82529580D01*
X142423095Y-82529580D02*
X142470714Y-82434342D01*
X142470714Y-82434342D02*
X142470714Y-82243866D01*
X142470714Y-82243866D02*
X142423095Y-82148628D01*
X142423095Y-82148628D02*
X142375476Y-82101009D01*
X142375476Y-82101009D02*
X142280238Y-82053390D01*
X119306666Y-99464819D02*
X119306666Y-100179104D01*
X119306666Y-100179104D02*
X119259047Y-100321961D01*
X119259047Y-100321961D02*
X119163809Y-100417200D01*
X119163809Y-100417200D02*
X119020952Y-100464819D01*
X119020952Y-100464819D02*
X118925714Y-100464819D01*
X119782857Y-100464819D02*
X119782857Y-99464819D01*
X119782857Y-99464819D02*
X120163809Y-99464819D01*
X120163809Y-99464819D02*
X120259047Y-99512438D01*
X120259047Y-99512438D02*
X120306666Y-99560057D01*
X120306666Y-99560057D02*
X120354285Y-99655295D01*
X120354285Y-99655295D02*
X120354285Y-99798152D01*
X120354285Y-99798152D02*
X120306666Y-99893390D01*
X120306666Y-99893390D02*
X120259047Y-99941009D01*
X120259047Y-99941009D02*
X120163809Y-99988628D01*
X120163809Y-99988628D02*
X119782857Y-99988628D01*
X120687619Y-99464819D02*
X121306666Y-99464819D01*
X121306666Y-99464819D02*
X120973333Y-99845771D01*
X120973333Y-99845771D02*
X121116190Y-99845771D01*
X121116190Y-99845771D02*
X121211428Y-99893390D01*
X121211428Y-99893390D02*
X121259047Y-99941009D01*
X121259047Y-99941009D02*
X121306666Y-100036247D01*
X121306666Y-100036247D02*
X121306666Y-100274342D01*
X121306666Y-100274342D02*
X121259047Y-100369580D01*
X121259047Y-100369580D02*
X121211428Y-100417200D01*
X121211428Y-100417200D02*
X121116190Y-100464819D01*
X121116190Y-100464819D02*
X120830476Y-100464819D01*
X120830476Y-100464819D02*
X120735238Y-100417200D01*
X120735238Y-100417200D02*
X120687619Y-100369580D01*
X121094761Y-103174819D02*
X120761428Y-102698628D01*
X120523333Y-103174819D02*
X120523333Y-102174819D01*
X120523333Y-102174819D02*
X120904285Y-102174819D01*
X120904285Y-102174819D02*
X120999523Y-102222438D01*
X120999523Y-102222438D02*
X121047142Y-102270057D01*
X121047142Y-102270057D02*
X121094761Y-102365295D01*
X121094761Y-102365295D02*
X121094761Y-102508152D01*
X121094761Y-102508152D02*
X121047142Y-102603390D01*
X121047142Y-102603390D02*
X120999523Y-102651009D01*
X120999523Y-102651009D02*
X120904285Y-102698628D01*
X120904285Y-102698628D02*
X120523333Y-102698628D01*
X121380476Y-102174819D02*
X121713809Y-103174819D01*
X121713809Y-103174819D02*
X122047142Y-102174819D01*
X122904285Y-103174819D02*
X122332857Y-103174819D01*
X122618571Y-103174819D02*
X122618571Y-102174819D01*
X122618571Y-102174819D02*
X122523333Y-102317676D01*
X122523333Y-102317676D02*
X122428095Y-102412914D01*
X122428095Y-102412914D02*
X122332857Y-102460533D01*
X146943333Y-69809580D02*
X146895714Y-69857200D01*
X146895714Y-69857200D02*
X146752857Y-69904819D01*
X146752857Y-69904819D02*
X146657619Y-69904819D01*
X146657619Y-69904819D02*
X146514762Y-69857200D01*
X146514762Y-69857200D02*
X146419524Y-69761961D01*
X146419524Y-69761961D02*
X146371905Y-69666723D01*
X146371905Y-69666723D02*
X146324286Y-69476247D01*
X146324286Y-69476247D02*
X146324286Y-69333390D01*
X146324286Y-69333390D02*
X146371905Y-69142914D01*
X146371905Y-69142914D02*
X146419524Y-69047676D01*
X146419524Y-69047676D02*
X146514762Y-68952438D01*
X146514762Y-68952438D02*
X146657619Y-68904819D01*
X146657619Y-68904819D02*
X146752857Y-68904819D01*
X146752857Y-68904819D02*
X146895714Y-68952438D01*
X146895714Y-68952438D02*
X146943333Y-69000057D01*
X147276667Y-68904819D02*
X147895714Y-68904819D01*
X147895714Y-68904819D02*
X147562381Y-69285771D01*
X147562381Y-69285771D02*
X147705238Y-69285771D01*
X147705238Y-69285771D02*
X147800476Y-69333390D01*
X147800476Y-69333390D02*
X147848095Y-69381009D01*
X147848095Y-69381009D02*
X147895714Y-69476247D01*
X147895714Y-69476247D02*
X147895714Y-69714342D01*
X147895714Y-69714342D02*
X147848095Y-69809580D01*
X147848095Y-69809580D02*
X147800476Y-69857200D01*
X147800476Y-69857200D02*
X147705238Y-69904819D01*
X147705238Y-69904819D02*
X147419524Y-69904819D01*
X147419524Y-69904819D02*
X147324286Y-69857200D01*
X147324286Y-69857200D02*
X147276667Y-69809580D01*
X121767142Y-107439580D02*
X121719523Y-107487200D01*
X121719523Y-107487200D02*
X121576666Y-107534819D01*
X121576666Y-107534819D02*
X121481428Y-107534819D01*
X121481428Y-107534819D02*
X121338571Y-107487200D01*
X121338571Y-107487200D02*
X121243333Y-107391961D01*
X121243333Y-107391961D02*
X121195714Y-107296723D01*
X121195714Y-107296723D02*
X121148095Y-107106247D01*
X121148095Y-107106247D02*
X121148095Y-106963390D01*
X121148095Y-106963390D02*
X121195714Y-106772914D01*
X121195714Y-106772914D02*
X121243333Y-106677676D01*
X121243333Y-106677676D02*
X121338571Y-106582438D01*
X121338571Y-106582438D02*
X121481428Y-106534819D01*
X121481428Y-106534819D02*
X121576666Y-106534819D01*
X121576666Y-106534819D02*
X121719523Y-106582438D01*
X121719523Y-106582438D02*
X121767142Y-106630057D01*
X122719523Y-107534819D02*
X122148095Y-107534819D01*
X122433809Y-107534819D02*
X122433809Y-106534819D01*
X122433809Y-106534819D02*
X122338571Y-106677676D01*
X122338571Y-106677676D02*
X122243333Y-106772914D01*
X122243333Y-106772914D02*
X122148095Y-106820533D01*
X123576666Y-106534819D02*
X123386190Y-106534819D01*
X123386190Y-106534819D02*
X123290952Y-106582438D01*
X123290952Y-106582438D02*
X123243333Y-106630057D01*
X123243333Y-106630057D02*
X123148095Y-106772914D01*
X123148095Y-106772914D02*
X123100476Y-106963390D01*
X123100476Y-106963390D02*
X123100476Y-107344342D01*
X123100476Y-107344342D02*
X123148095Y-107439580D01*
X123148095Y-107439580D02*
X123195714Y-107487200D01*
X123195714Y-107487200D02*
X123290952Y-107534819D01*
X123290952Y-107534819D02*
X123481428Y-107534819D01*
X123481428Y-107534819D02*
X123576666Y-107487200D01*
X123576666Y-107487200D02*
X123624285Y-107439580D01*
X123624285Y-107439580D02*
X123671904Y-107344342D01*
X123671904Y-107344342D02*
X123671904Y-107106247D01*
X123671904Y-107106247D02*
X123624285Y-107011009D01*
X123624285Y-107011009D02*
X123576666Y-106963390D01*
X123576666Y-106963390D02*
X123481428Y-106915771D01*
X123481428Y-106915771D02*
X123290952Y-106915771D01*
X123290952Y-106915771D02*
X123195714Y-106963390D01*
X123195714Y-106963390D02*
X123148095Y-107011009D01*
X123148095Y-107011009D02*
X123100476Y-107106247D01*
X123233333Y-97999580D02*
X123185714Y-98047200D01*
X123185714Y-98047200D02*
X123042857Y-98094819D01*
X123042857Y-98094819D02*
X122947619Y-98094819D01*
X122947619Y-98094819D02*
X122804762Y-98047200D01*
X122804762Y-98047200D02*
X122709524Y-97951961D01*
X122709524Y-97951961D02*
X122661905Y-97856723D01*
X122661905Y-97856723D02*
X122614286Y-97666247D01*
X122614286Y-97666247D02*
X122614286Y-97523390D01*
X122614286Y-97523390D02*
X122661905Y-97332914D01*
X122661905Y-97332914D02*
X122709524Y-97237676D01*
X122709524Y-97237676D02*
X122804762Y-97142438D01*
X122804762Y-97142438D02*
X122947619Y-97094819D01*
X122947619Y-97094819D02*
X123042857Y-97094819D01*
X123042857Y-97094819D02*
X123185714Y-97142438D01*
X123185714Y-97142438D02*
X123233333Y-97190057D01*
X124090476Y-97428152D02*
X124090476Y-98094819D01*
X123852381Y-97047200D02*
X123614286Y-97761485D01*
X123614286Y-97761485D02*
X124233333Y-97761485D01*
X122287142Y-118669580D02*
X122239523Y-118717200D01*
X122239523Y-118717200D02*
X122096666Y-118764819D01*
X122096666Y-118764819D02*
X122001428Y-118764819D01*
X122001428Y-118764819D02*
X121858571Y-118717200D01*
X121858571Y-118717200D02*
X121763333Y-118621961D01*
X121763333Y-118621961D02*
X121715714Y-118526723D01*
X121715714Y-118526723D02*
X121668095Y-118336247D01*
X121668095Y-118336247D02*
X121668095Y-118193390D01*
X121668095Y-118193390D02*
X121715714Y-118002914D01*
X121715714Y-118002914D02*
X121763333Y-117907676D01*
X121763333Y-117907676D02*
X121858571Y-117812438D01*
X121858571Y-117812438D02*
X122001428Y-117764819D01*
X122001428Y-117764819D02*
X122096666Y-117764819D01*
X122096666Y-117764819D02*
X122239523Y-117812438D01*
X122239523Y-117812438D02*
X122287142Y-117860057D01*
X123239523Y-118764819D02*
X122668095Y-118764819D01*
X122953809Y-118764819D02*
X122953809Y-117764819D01*
X122953809Y-117764819D02*
X122858571Y-117907676D01*
X122858571Y-117907676D02*
X122763333Y-118002914D01*
X122763333Y-118002914D02*
X122668095Y-118050533D01*
X124191904Y-118764819D02*
X123620476Y-118764819D01*
X123906190Y-118764819D02*
X123906190Y-117764819D01*
X123906190Y-117764819D02*
X123810952Y-117907676D01*
X123810952Y-117907676D02*
X123715714Y-118002914D01*
X123715714Y-118002914D02*
X123620476Y-118050533D01*
X140776666Y-63264819D02*
X140776666Y-63979104D01*
X140776666Y-63979104D02*
X140729047Y-64121961D01*
X140729047Y-64121961D02*
X140633809Y-64217200D01*
X140633809Y-64217200D02*
X140490952Y-64264819D01*
X140490952Y-64264819D02*
X140395714Y-64264819D01*
X141776666Y-64264819D02*
X141205238Y-64264819D01*
X141490952Y-64264819D02*
X141490952Y-63264819D01*
X141490952Y-63264819D02*
X141395714Y-63407676D01*
X141395714Y-63407676D02*
X141300476Y-63502914D01*
X141300476Y-63502914D02*
X141205238Y-63550533D01*
X150086666Y-117934819D02*
X150086666Y-118649104D01*
X150086666Y-118649104D02*
X150039047Y-118791961D01*
X150039047Y-118791961D02*
X149943809Y-118887200D01*
X149943809Y-118887200D02*
X149800952Y-118934819D01*
X149800952Y-118934819D02*
X149705714Y-118934819D01*
X150515238Y-118030057D02*
X150562857Y-117982438D01*
X150562857Y-117982438D02*
X150658095Y-117934819D01*
X150658095Y-117934819D02*
X150896190Y-117934819D01*
X150896190Y-117934819D02*
X150991428Y-117982438D01*
X150991428Y-117982438D02*
X151039047Y-118030057D01*
X151039047Y-118030057D02*
X151086666Y-118125295D01*
X151086666Y-118125295D02*
X151086666Y-118220533D01*
X151086666Y-118220533D02*
X151039047Y-118363390D01*
X151039047Y-118363390D02*
X150467619Y-118934819D01*
X150467619Y-118934819D02*
X151086666Y-118934819D01*
X121218095Y-61304819D02*
X121218095Y-62114342D01*
X121218095Y-62114342D02*
X121265714Y-62209580D01*
X121265714Y-62209580D02*
X121313333Y-62257200D01*
X121313333Y-62257200D02*
X121408571Y-62304819D01*
X121408571Y-62304819D02*
X121599047Y-62304819D01*
X121599047Y-62304819D02*
X121694285Y-62257200D01*
X121694285Y-62257200D02*
X121741904Y-62209580D01*
X121741904Y-62209580D02*
X121789523Y-62114342D01*
X121789523Y-62114342D02*
X121789523Y-61304819D01*
X122694285Y-61638152D02*
X122694285Y-62304819D01*
X122456190Y-61257200D02*
X122218095Y-61971485D01*
X122218095Y-61971485D02*
X122837142Y-61971485D01*
X137848095Y-84734819D02*
X137848095Y-85544342D01*
X137848095Y-85544342D02*
X137895714Y-85639580D01*
X137895714Y-85639580D02*
X137943333Y-85687200D01*
X137943333Y-85687200D02*
X138038571Y-85734819D01*
X138038571Y-85734819D02*
X138229047Y-85734819D01*
X138229047Y-85734819D02*
X138324285Y-85687200D01*
X138324285Y-85687200D02*
X138371904Y-85639580D01*
X138371904Y-85639580D02*
X138419523Y-85544342D01*
X138419523Y-85544342D02*
X138419523Y-84734819D01*
X138800476Y-84734819D02*
X139419523Y-84734819D01*
X139419523Y-84734819D02*
X139086190Y-85115771D01*
X139086190Y-85115771D02*
X139229047Y-85115771D01*
X139229047Y-85115771D02*
X139324285Y-85163390D01*
X139324285Y-85163390D02*
X139371904Y-85211009D01*
X139371904Y-85211009D02*
X139419523Y-85306247D01*
X139419523Y-85306247D02*
X139419523Y-85544342D01*
X139419523Y-85544342D02*
X139371904Y-85639580D01*
X139371904Y-85639580D02*
X139324285Y-85687200D01*
X139324285Y-85687200D02*
X139229047Y-85734819D01*
X139229047Y-85734819D02*
X138943333Y-85734819D01*
X138943333Y-85734819D02*
X138848095Y-85687200D01*
X138848095Y-85687200D02*
X138800476Y-85639580D01*
X111457142Y-104104819D02*
X111123809Y-103628628D01*
X110885714Y-104104819D02*
X110885714Y-103104819D01*
X110885714Y-103104819D02*
X111266666Y-103104819D01*
X111266666Y-103104819D02*
X111361904Y-103152438D01*
X111361904Y-103152438D02*
X111409523Y-103200057D01*
X111409523Y-103200057D02*
X111457142Y-103295295D01*
X111457142Y-103295295D02*
X111457142Y-103438152D01*
X111457142Y-103438152D02*
X111409523Y-103533390D01*
X111409523Y-103533390D02*
X111361904Y-103581009D01*
X111361904Y-103581009D02*
X111266666Y-103628628D01*
X111266666Y-103628628D02*
X110885714Y-103628628D01*
X112409523Y-104104819D02*
X111838095Y-104104819D01*
X112123809Y-104104819D02*
X112123809Y-103104819D01*
X112123809Y-103104819D02*
X112028571Y-103247676D01*
X112028571Y-103247676D02*
X111933333Y-103342914D01*
X111933333Y-103342914D02*
X111838095Y-103390533D01*
X113028571Y-103104819D02*
X113123809Y-103104819D01*
X113123809Y-103104819D02*
X113219047Y-103152438D01*
X113219047Y-103152438D02*
X113266666Y-103200057D01*
X113266666Y-103200057D02*
X113314285Y-103295295D01*
X113314285Y-103295295D02*
X113361904Y-103485771D01*
X113361904Y-103485771D02*
X113361904Y-103723866D01*
X113361904Y-103723866D02*
X113314285Y-103914342D01*
X113314285Y-103914342D02*
X113266666Y-104009580D01*
X113266666Y-104009580D02*
X113219047Y-104057200D01*
X113219047Y-104057200D02*
X113123809Y-104104819D01*
X113123809Y-104104819D02*
X113028571Y-104104819D01*
X113028571Y-104104819D02*
X112933333Y-104057200D01*
X112933333Y-104057200D02*
X112885714Y-104009580D01*
X112885714Y-104009580D02*
X112838095Y-103914342D01*
X112838095Y-103914342D02*
X112790476Y-103723866D01*
X112790476Y-103723866D02*
X112790476Y-103485771D01*
X112790476Y-103485771D02*
X112838095Y-103295295D01*
X112838095Y-103295295D02*
X112885714Y-103200057D01*
X112885714Y-103200057D02*
X112933333Y-103152438D01*
X112933333Y-103152438D02*
X113028571Y-103104819D01*
X106476905Y-106364819D02*
X106476905Y-105364819D01*
X106476905Y-105364819D02*
X106715000Y-105364819D01*
X106715000Y-105364819D02*
X106857857Y-105412438D01*
X106857857Y-105412438D02*
X106953095Y-105507676D01*
X106953095Y-105507676D02*
X107000714Y-105602914D01*
X107000714Y-105602914D02*
X107048333Y-105793390D01*
X107048333Y-105793390D02*
X107048333Y-105936247D01*
X107048333Y-105936247D02*
X107000714Y-106126723D01*
X107000714Y-106126723D02*
X106953095Y-106221961D01*
X106953095Y-106221961D02*
X106857857Y-106317200D01*
X106857857Y-106317200D02*
X106715000Y-106364819D01*
X106715000Y-106364819D02*
X106476905Y-106364819D01*
X107381667Y-105364819D02*
X108000714Y-105364819D01*
X108000714Y-105364819D02*
X107667381Y-105745771D01*
X107667381Y-105745771D02*
X107810238Y-105745771D01*
X107810238Y-105745771D02*
X107905476Y-105793390D01*
X107905476Y-105793390D02*
X107953095Y-105841009D01*
X107953095Y-105841009D02*
X108000714Y-105936247D01*
X108000714Y-105936247D02*
X108000714Y-106174342D01*
X108000714Y-106174342D02*
X107953095Y-106269580D01*
X107953095Y-106269580D02*
X107905476Y-106317200D01*
X107905476Y-106317200D02*
X107810238Y-106364819D01*
X107810238Y-106364819D02*
X107524524Y-106364819D01*
X107524524Y-106364819D02*
X107429286Y-106317200D01*
X107429286Y-106317200D02*
X107381667Y-106269580D01*
X144057142Y-86914819D02*
X143723809Y-86438628D01*
X143485714Y-86914819D02*
X143485714Y-85914819D01*
X143485714Y-85914819D02*
X143866666Y-85914819D01*
X143866666Y-85914819D02*
X143961904Y-85962438D01*
X143961904Y-85962438D02*
X144009523Y-86010057D01*
X144009523Y-86010057D02*
X144057142Y-86105295D01*
X144057142Y-86105295D02*
X144057142Y-86248152D01*
X144057142Y-86248152D02*
X144009523Y-86343390D01*
X144009523Y-86343390D02*
X143961904Y-86391009D01*
X143961904Y-86391009D02*
X143866666Y-86438628D01*
X143866666Y-86438628D02*
X143485714Y-86438628D01*
X145009523Y-86914819D02*
X144438095Y-86914819D01*
X144723809Y-86914819D02*
X144723809Y-85914819D01*
X144723809Y-85914819D02*
X144628571Y-86057676D01*
X144628571Y-86057676D02*
X144533333Y-86152914D01*
X144533333Y-86152914D02*
X144438095Y-86200533D01*
X145390476Y-86010057D02*
X145438095Y-85962438D01*
X145438095Y-85962438D02*
X145533333Y-85914819D01*
X145533333Y-85914819D02*
X145771428Y-85914819D01*
X145771428Y-85914819D02*
X145866666Y-85962438D01*
X145866666Y-85962438D02*
X145914285Y-86010057D01*
X145914285Y-86010057D02*
X145961904Y-86105295D01*
X145961904Y-86105295D02*
X145961904Y-86200533D01*
X145961904Y-86200533D02*
X145914285Y-86343390D01*
X145914285Y-86343390D02*
X145342857Y-86914819D01*
X145342857Y-86914819D02*
X145961904Y-86914819D01*
X141587142Y-97099580D02*
X141539523Y-97147200D01*
X141539523Y-97147200D02*
X141396666Y-97194819D01*
X141396666Y-97194819D02*
X141301428Y-97194819D01*
X141301428Y-97194819D02*
X141158571Y-97147200D01*
X141158571Y-97147200D02*
X141063333Y-97051961D01*
X141063333Y-97051961D02*
X141015714Y-96956723D01*
X141015714Y-96956723D02*
X140968095Y-96766247D01*
X140968095Y-96766247D02*
X140968095Y-96623390D01*
X140968095Y-96623390D02*
X141015714Y-96432914D01*
X141015714Y-96432914D02*
X141063333Y-96337676D01*
X141063333Y-96337676D02*
X141158571Y-96242438D01*
X141158571Y-96242438D02*
X141301428Y-96194819D01*
X141301428Y-96194819D02*
X141396666Y-96194819D01*
X141396666Y-96194819D02*
X141539523Y-96242438D01*
X141539523Y-96242438D02*
X141587142Y-96290057D01*
X142539523Y-97194819D02*
X141968095Y-97194819D01*
X142253809Y-97194819D02*
X142253809Y-96194819D01*
X142253809Y-96194819D02*
X142158571Y-96337676D01*
X142158571Y-96337676D02*
X142063333Y-96432914D01*
X142063333Y-96432914D02*
X141968095Y-96480533D01*
X142872857Y-96194819D02*
X143491904Y-96194819D01*
X143491904Y-96194819D02*
X143158571Y-96575771D01*
X143158571Y-96575771D02*
X143301428Y-96575771D01*
X143301428Y-96575771D02*
X143396666Y-96623390D01*
X143396666Y-96623390D02*
X143444285Y-96671009D01*
X143444285Y-96671009D02*
X143491904Y-96766247D01*
X143491904Y-96766247D02*
X143491904Y-97004342D01*
X143491904Y-97004342D02*
X143444285Y-97099580D01*
X143444285Y-97099580D02*
X143396666Y-97147200D01*
X143396666Y-97147200D02*
X143301428Y-97194819D01*
X143301428Y-97194819D02*
X143015714Y-97194819D01*
X143015714Y-97194819D02*
X142920476Y-97147200D01*
X142920476Y-97147200D02*
X142872857Y-97099580D01*
X138171905Y-96764819D02*
X138171905Y-95764819D01*
X138171905Y-95764819D02*
X138410000Y-95764819D01*
X138410000Y-95764819D02*
X138552857Y-95812438D01*
X138552857Y-95812438D02*
X138648095Y-95907676D01*
X138648095Y-95907676D02*
X138695714Y-96002914D01*
X138695714Y-96002914D02*
X138743333Y-96193390D01*
X138743333Y-96193390D02*
X138743333Y-96336247D01*
X138743333Y-96336247D02*
X138695714Y-96526723D01*
X138695714Y-96526723D02*
X138648095Y-96621961D01*
X138648095Y-96621961D02*
X138552857Y-96717200D01*
X138552857Y-96717200D02*
X138410000Y-96764819D01*
X138410000Y-96764819D02*
X138171905Y-96764819D01*
X139600476Y-96098152D02*
X139600476Y-96764819D01*
X139362381Y-95717200D02*
X139124286Y-96431485D01*
X139124286Y-96431485D02*
X139743333Y-96431485D01*
X139284761Y-77550057D02*
X139189523Y-77502438D01*
X139189523Y-77502438D02*
X139094285Y-77407200D01*
X139094285Y-77407200D02*
X138951428Y-77264342D01*
X138951428Y-77264342D02*
X138856190Y-77216723D01*
X138856190Y-77216723D02*
X138760952Y-77216723D01*
X138808571Y-77454819D02*
X138713333Y-77407200D01*
X138713333Y-77407200D02*
X138618095Y-77311961D01*
X138618095Y-77311961D02*
X138570476Y-77121485D01*
X138570476Y-77121485D02*
X138570476Y-76788152D01*
X138570476Y-76788152D02*
X138618095Y-76597676D01*
X138618095Y-76597676D02*
X138713333Y-76502438D01*
X138713333Y-76502438D02*
X138808571Y-76454819D01*
X138808571Y-76454819D02*
X138999047Y-76454819D01*
X138999047Y-76454819D02*
X139094285Y-76502438D01*
X139094285Y-76502438D02*
X139189523Y-76597676D01*
X139189523Y-76597676D02*
X139237142Y-76788152D01*
X139237142Y-76788152D02*
X139237142Y-77121485D01*
X139237142Y-77121485D02*
X139189523Y-77311961D01*
X139189523Y-77311961D02*
X139094285Y-77407200D01*
X139094285Y-77407200D02*
X138999047Y-77454819D01*
X138999047Y-77454819D02*
X138808571Y-77454819D01*
X139618095Y-76550057D02*
X139665714Y-76502438D01*
X139665714Y-76502438D02*
X139760952Y-76454819D01*
X139760952Y-76454819D02*
X139999047Y-76454819D01*
X139999047Y-76454819D02*
X140094285Y-76502438D01*
X140094285Y-76502438D02*
X140141904Y-76550057D01*
X140141904Y-76550057D02*
X140189523Y-76645295D01*
X140189523Y-76645295D02*
X140189523Y-76740533D01*
X140189523Y-76740533D02*
X140141904Y-76883390D01*
X140141904Y-76883390D02*
X139570476Y-77454819D01*
X139570476Y-77454819D02*
X140189523Y-77454819D01*
X134283333Y-88214819D02*
X133807143Y-88214819D01*
X133807143Y-88214819D02*
X133807143Y-87214819D01*
X134569048Y-87310057D02*
X134616667Y-87262438D01*
X134616667Y-87262438D02*
X134711905Y-87214819D01*
X134711905Y-87214819D02*
X134950000Y-87214819D01*
X134950000Y-87214819D02*
X135045238Y-87262438D01*
X135045238Y-87262438D02*
X135092857Y-87310057D01*
X135092857Y-87310057D02*
X135140476Y-87405295D01*
X135140476Y-87405295D02*
X135140476Y-87500533D01*
X135140476Y-87500533D02*
X135092857Y-87643390D01*
X135092857Y-87643390D02*
X134521429Y-88214819D01*
X134521429Y-88214819D02*
X135140476Y-88214819D01*
X134901905Y-74924819D02*
X134901905Y-73924819D01*
X134901905Y-73924819D02*
X135140000Y-73924819D01*
X135140000Y-73924819D02*
X135282857Y-73972438D01*
X135282857Y-73972438D02*
X135378095Y-74067676D01*
X135378095Y-74067676D02*
X135425714Y-74162914D01*
X135425714Y-74162914D02*
X135473333Y-74353390D01*
X135473333Y-74353390D02*
X135473333Y-74496247D01*
X135473333Y-74496247D02*
X135425714Y-74686723D01*
X135425714Y-74686723D02*
X135378095Y-74781961D01*
X135378095Y-74781961D02*
X135282857Y-74877200D01*
X135282857Y-74877200D02*
X135140000Y-74924819D01*
X135140000Y-74924819D02*
X134901905Y-74924819D01*
X136425714Y-74924819D02*
X135854286Y-74924819D01*
X136140000Y-74924819D02*
X136140000Y-73924819D01*
X136140000Y-73924819D02*
X136044762Y-74067676D01*
X136044762Y-74067676D02*
X135949524Y-74162914D01*
X135949524Y-74162914D02*
X135854286Y-74210533D01*
X144367142Y-93939580D02*
X144319523Y-93987200D01*
X144319523Y-93987200D02*
X144176666Y-94034819D01*
X144176666Y-94034819D02*
X144081428Y-94034819D01*
X144081428Y-94034819D02*
X143938571Y-93987200D01*
X143938571Y-93987200D02*
X143843333Y-93891961D01*
X143843333Y-93891961D02*
X143795714Y-93796723D01*
X143795714Y-93796723D02*
X143748095Y-93606247D01*
X143748095Y-93606247D02*
X143748095Y-93463390D01*
X143748095Y-93463390D02*
X143795714Y-93272914D01*
X143795714Y-93272914D02*
X143843333Y-93177676D01*
X143843333Y-93177676D02*
X143938571Y-93082438D01*
X143938571Y-93082438D02*
X144081428Y-93034819D01*
X144081428Y-93034819D02*
X144176666Y-93034819D01*
X144176666Y-93034819D02*
X144319523Y-93082438D01*
X144319523Y-93082438D02*
X144367142Y-93130057D01*
X145319523Y-94034819D02*
X144748095Y-94034819D01*
X145033809Y-94034819D02*
X145033809Y-93034819D01*
X145033809Y-93034819D02*
X144938571Y-93177676D01*
X144938571Y-93177676D02*
X144843333Y-93272914D01*
X144843333Y-93272914D02*
X144748095Y-93320533D01*
X146176666Y-93368152D02*
X146176666Y-94034819D01*
X145938571Y-92987200D02*
X145700476Y-93701485D01*
X145700476Y-93701485D02*
X146319523Y-93701485D01*
X113628095Y-93604819D02*
X113628095Y-94414342D01*
X113628095Y-94414342D02*
X113675714Y-94509580D01*
X113675714Y-94509580D02*
X113723333Y-94557200D01*
X113723333Y-94557200D02*
X113818571Y-94604819D01*
X113818571Y-94604819D02*
X114009047Y-94604819D01*
X114009047Y-94604819D02*
X114104285Y-94557200D01*
X114104285Y-94557200D02*
X114151904Y-94509580D01*
X114151904Y-94509580D02*
X114199523Y-94414342D01*
X114199523Y-94414342D02*
X114199523Y-93604819D01*
X114628095Y-93700057D02*
X114675714Y-93652438D01*
X114675714Y-93652438D02*
X114770952Y-93604819D01*
X114770952Y-93604819D02*
X115009047Y-93604819D01*
X115009047Y-93604819D02*
X115104285Y-93652438D01*
X115104285Y-93652438D02*
X115151904Y-93700057D01*
X115151904Y-93700057D02*
X115199523Y-93795295D01*
X115199523Y-93795295D02*
X115199523Y-93890533D01*
X115199523Y-93890533D02*
X115151904Y-94033390D01*
X115151904Y-94033390D02*
X114580476Y-94604819D01*
X114580476Y-94604819D02*
X115199523Y-94604819D01*
X111887142Y-107594819D02*
X111553809Y-107118628D01*
X111315714Y-107594819D02*
X111315714Y-106594819D01*
X111315714Y-106594819D02*
X111696666Y-106594819D01*
X111696666Y-106594819D02*
X111791904Y-106642438D01*
X111791904Y-106642438D02*
X111839523Y-106690057D01*
X111839523Y-106690057D02*
X111887142Y-106785295D01*
X111887142Y-106785295D02*
X111887142Y-106928152D01*
X111887142Y-106928152D02*
X111839523Y-107023390D01*
X111839523Y-107023390D02*
X111791904Y-107071009D01*
X111791904Y-107071009D02*
X111696666Y-107118628D01*
X111696666Y-107118628D02*
X111315714Y-107118628D01*
X112839523Y-107594819D02*
X112268095Y-107594819D01*
X112553809Y-107594819D02*
X112553809Y-106594819D01*
X112553809Y-106594819D02*
X112458571Y-106737676D01*
X112458571Y-106737676D02*
X112363333Y-106832914D01*
X112363333Y-106832914D02*
X112268095Y-106880533D01*
X113791904Y-107594819D02*
X113220476Y-107594819D01*
X113506190Y-107594819D02*
X113506190Y-106594819D01*
X113506190Y-106594819D02*
X113410952Y-106737676D01*
X113410952Y-106737676D02*
X113315714Y-106832914D01*
X113315714Y-106832914D02*
X113220476Y-106880533D01*
X110496666Y-68274819D02*
X110496666Y-68989104D01*
X110496666Y-68989104D02*
X110449047Y-69131961D01*
X110449047Y-69131961D02*
X110353809Y-69227200D01*
X110353809Y-69227200D02*
X110210952Y-69274819D01*
X110210952Y-69274819D02*
X110115714Y-69274819D01*
X111401428Y-68274819D02*
X111210952Y-68274819D01*
X111210952Y-68274819D02*
X111115714Y-68322438D01*
X111115714Y-68322438D02*
X111068095Y-68370057D01*
X111068095Y-68370057D02*
X110972857Y-68512914D01*
X110972857Y-68512914D02*
X110925238Y-68703390D01*
X110925238Y-68703390D02*
X110925238Y-69084342D01*
X110925238Y-69084342D02*
X110972857Y-69179580D01*
X110972857Y-69179580D02*
X111020476Y-69227200D01*
X111020476Y-69227200D02*
X111115714Y-69274819D01*
X111115714Y-69274819D02*
X111306190Y-69274819D01*
X111306190Y-69274819D02*
X111401428Y-69227200D01*
X111401428Y-69227200D02*
X111449047Y-69179580D01*
X111449047Y-69179580D02*
X111496666Y-69084342D01*
X111496666Y-69084342D02*
X111496666Y-68846247D01*
X111496666Y-68846247D02*
X111449047Y-68751009D01*
X111449047Y-68751009D02*
X111401428Y-68703390D01*
X111401428Y-68703390D02*
X111306190Y-68655771D01*
X111306190Y-68655771D02*
X111115714Y-68655771D01*
X111115714Y-68655771D02*
X111020476Y-68703390D01*
X111020476Y-68703390D02*
X110972857Y-68751009D01*
X110972857Y-68751009D02*
X110925238Y-68846247D01*
X146687142Y-100219580D02*
X146639523Y-100267200D01*
X146639523Y-100267200D02*
X146496666Y-100314819D01*
X146496666Y-100314819D02*
X146401428Y-100314819D01*
X146401428Y-100314819D02*
X146258571Y-100267200D01*
X146258571Y-100267200D02*
X146163333Y-100171961D01*
X146163333Y-100171961D02*
X146115714Y-100076723D01*
X146115714Y-100076723D02*
X146068095Y-99886247D01*
X146068095Y-99886247D02*
X146068095Y-99743390D01*
X146068095Y-99743390D02*
X146115714Y-99552914D01*
X146115714Y-99552914D02*
X146163333Y-99457676D01*
X146163333Y-99457676D02*
X146258571Y-99362438D01*
X146258571Y-99362438D02*
X146401428Y-99314819D01*
X146401428Y-99314819D02*
X146496666Y-99314819D01*
X146496666Y-99314819D02*
X146639523Y-99362438D01*
X146639523Y-99362438D02*
X146687142Y-99410057D01*
X147639523Y-100314819D02*
X147068095Y-100314819D01*
X147353809Y-100314819D02*
X147353809Y-99314819D01*
X147353809Y-99314819D02*
X147258571Y-99457676D01*
X147258571Y-99457676D02*
X147163333Y-99552914D01*
X147163333Y-99552914D02*
X147068095Y-99600533D01*
X148258571Y-99314819D02*
X148353809Y-99314819D01*
X148353809Y-99314819D02*
X148449047Y-99362438D01*
X148449047Y-99362438D02*
X148496666Y-99410057D01*
X148496666Y-99410057D02*
X148544285Y-99505295D01*
X148544285Y-99505295D02*
X148591904Y-99695771D01*
X148591904Y-99695771D02*
X148591904Y-99933866D01*
X148591904Y-99933866D02*
X148544285Y-100124342D01*
X148544285Y-100124342D02*
X148496666Y-100219580D01*
X148496666Y-100219580D02*
X148449047Y-100267200D01*
X148449047Y-100267200D02*
X148353809Y-100314819D01*
X148353809Y-100314819D02*
X148258571Y-100314819D01*
X148258571Y-100314819D02*
X148163333Y-100267200D01*
X148163333Y-100267200D02*
X148115714Y-100219580D01*
X148115714Y-100219580D02*
X148068095Y-100124342D01*
X148068095Y-100124342D02*
X148020476Y-99933866D01*
X148020476Y-99933866D02*
X148020476Y-99695771D01*
X148020476Y-99695771D02*
X148068095Y-99505295D01*
X148068095Y-99505295D02*
X148115714Y-99410057D01*
X148115714Y-99410057D02*
X148163333Y-99362438D01*
X148163333Y-99362438D02*
X148258571Y-99314819D01*
X113957142Y-113349580D02*
X113909523Y-113397200D01*
X113909523Y-113397200D02*
X113766666Y-113444819D01*
X113766666Y-113444819D02*
X113671428Y-113444819D01*
X113671428Y-113444819D02*
X113528571Y-113397200D01*
X113528571Y-113397200D02*
X113433333Y-113301961D01*
X113433333Y-113301961D02*
X113385714Y-113206723D01*
X113385714Y-113206723D02*
X113338095Y-113016247D01*
X113338095Y-113016247D02*
X113338095Y-112873390D01*
X113338095Y-112873390D02*
X113385714Y-112682914D01*
X113385714Y-112682914D02*
X113433333Y-112587676D01*
X113433333Y-112587676D02*
X113528571Y-112492438D01*
X113528571Y-112492438D02*
X113671428Y-112444819D01*
X113671428Y-112444819D02*
X113766666Y-112444819D01*
X113766666Y-112444819D02*
X113909523Y-112492438D01*
X113909523Y-112492438D02*
X113957142Y-112540057D01*
X114909523Y-113444819D02*
X114338095Y-113444819D01*
X114623809Y-113444819D02*
X114623809Y-112444819D01*
X114623809Y-112444819D02*
X114528571Y-112587676D01*
X114528571Y-112587676D02*
X114433333Y-112682914D01*
X114433333Y-112682914D02*
X114338095Y-112730533D01*
X115814285Y-112444819D02*
X115338095Y-112444819D01*
X115338095Y-112444819D02*
X115290476Y-112921009D01*
X115290476Y-112921009D02*
X115338095Y-112873390D01*
X115338095Y-112873390D02*
X115433333Y-112825771D01*
X115433333Y-112825771D02*
X115671428Y-112825771D01*
X115671428Y-112825771D02*
X115766666Y-112873390D01*
X115766666Y-112873390D02*
X115814285Y-112921009D01*
X115814285Y-112921009D02*
X115861904Y-113016247D01*
X115861904Y-113016247D02*
X115861904Y-113254342D01*
X115861904Y-113254342D02*
X115814285Y-113349580D01*
X115814285Y-113349580D02*
X115766666Y-113397200D01*
X115766666Y-113397200D02*
X115671428Y-113444819D01*
X115671428Y-113444819D02*
X115433333Y-113444819D01*
X115433333Y-113444819D02*
X115338095Y-113397200D01*
X115338095Y-113397200D02*
X115290476Y-113349580D01*
X146297142Y-96164819D02*
X145963809Y-95688628D01*
X145725714Y-96164819D02*
X145725714Y-95164819D01*
X145725714Y-95164819D02*
X146106666Y-95164819D01*
X146106666Y-95164819D02*
X146201904Y-95212438D01*
X146201904Y-95212438D02*
X146249523Y-95260057D01*
X146249523Y-95260057D02*
X146297142Y-95355295D01*
X146297142Y-95355295D02*
X146297142Y-95498152D01*
X146297142Y-95498152D02*
X146249523Y-95593390D01*
X146249523Y-95593390D02*
X146201904Y-95641009D01*
X146201904Y-95641009D02*
X146106666Y-95688628D01*
X146106666Y-95688628D02*
X145725714Y-95688628D01*
X147249523Y-96164819D02*
X146678095Y-96164819D01*
X146963809Y-96164819D02*
X146963809Y-95164819D01*
X146963809Y-95164819D02*
X146868571Y-95307676D01*
X146868571Y-95307676D02*
X146773333Y-95402914D01*
X146773333Y-95402914D02*
X146678095Y-95450533D01*
X147582857Y-95164819D02*
X148201904Y-95164819D01*
X148201904Y-95164819D02*
X147868571Y-95545771D01*
X147868571Y-95545771D02*
X148011428Y-95545771D01*
X148011428Y-95545771D02*
X148106666Y-95593390D01*
X148106666Y-95593390D02*
X148154285Y-95641009D01*
X148154285Y-95641009D02*
X148201904Y-95736247D01*
X148201904Y-95736247D02*
X148201904Y-95974342D01*
X148201904Y-95974342D02*
X148154285Y-96069580D01*
X148154285Y-96069580D02*
X148106666Y-96117200D01*
X148106666Y-96117200D02*
X148011428Y-96164819D01*
X148011428Y-96164819D02*
X147725714Y-96164819D01*
X147725714Y-96164819D02*
X147630476Y-96117200D01*
X147630476Y-96117200D02*
X147582857Y-96069580D01*
X136704761Y-70260057D02*
X136609523Y-70212438D01*
X136609523Y-70212438D02*
X136514285Y-70117200D01*
X136514285Y-70117200D02*
X136371428Y-69974342D01*
X136371428Y-69974342D02*
X136276190Y-69926723D01*
X136276190Y-69926723D02*
X136180952Y-69926723D01*
X136228571Y-70164819D02*
X136133333Y-70117200D01*
X136133333Y-70117200D02*
X136038095Y-70021961D01*
X136038095Y-70021961D02*
X135990476Y-69831485D01*
X135990476Y-69831485D02*
X135990476Y-69498152D01*
X135990476Y-69498152D02*
X136038095Y-69307676D01*
X136038095Y-69307676D02*
X136133333Y-69212438D01*
X136133333Y-69212438D02*
X136228571Y-69164819D01*
X136228571Y-69164819D02*
X136419047Y-69164819D01*
X136419047Y-69164819D02*
X136514285Y-69212438D01*
X136514285Y-69212438D02*
X136609523Y-69307676D01*
X136609523Y-69307676D02*
X136657142Y-69498152D01*
X136657142Y-69498152D02*
X136657142Y-69831485D01*
X136657142Y-69831485D02*
X136609523Y-70021961D01*
X136609523Y-70021961D02*
X136514285Y-70117200D01*
X136514285Y-70117200D02*
X136419047Y-70164819D01*
X136419047Y-70164819D02*
X136228571Y-70164819D01*
X137609523Y-70164819D02*
X137038095Y-70164819D01*
X137323809Y-70164819D02*
X137323809Y-69164819D01*
X137323809Y-69164819D02*
X137228571Y-69307676D01*
X137228571Y-69307676D02*
X137133333Y-69402914D01*
X137133333Y-69402914D02*
X137038095Y-69450533D01*
X119213333Y-91779580D02*
X119165714Y-91827200D01*
X119165714Y-91827200D02*
X119022857Y-91874819D01*
X119022857Y-91874819D02*
X118927619Y-91874819D01*
X118927619Y-91874819D02*
X118784762Y-91827200D01*
X118784762Y-91827200D02*
X118689524Y-91731961D01*
X118689524Y-91731961D02*
X118641905Y-91636723D01*
X118641905Y-91636723D02*
X118594286Y-91446247D01*
X118594286Y-91446247D02*
X118594286Y-91303390D01*
X118594286Y-91303390D02*
X118641905Y-91112914D01*
X118641905Y-91112914D02*
X118689524Y-91017676D01*
X118689524Y-91017676D02*
X118784762Y-90922438D01*
X118784762Y-90922438D02*
X118927619Y-90874819D01*
X118927619Y-90874819D02*
X119022857Y-90874819D01*
X119022857Y-90874819D02*
X119165714Y-90922438D01*
X119165714Y-90922438D02*
X119213333Y-90970057D01*
X120070476Y-90874819D02*
X119880000Y-90874819D01*
X119880000Y-90874819D02*
X119784762Y-90922438D01*
X119784762Y-90922438D02*
X119737143Y-90970057D01*
X119737143Y-90970057D02*
X119641905Y-91112914D01*
X119641905Y-91112914D02*
X119594286Y-91303390D01*
X119594286Y-91303390D02*
X119594286Y-91684342D01*
X119594286Y-91684342D02*
X119641905Y-91779580D01*
X119641905Y-91779580D02*
X119689524Y-91827200D01*
X119689524Y-91827200D02*
X119784762Y-91874819D01*
X119784762Y-91874819D02*
X119975238Y-91874819D01*
X119975238Y-91874819D02*
X120070476Y-91827200D01*
X120070476Y-91827200D02*
X120118095Y-91779580D01*
X120118095Y-91779580D02*
X120165714Y-91684342D01*
X120165714Y-91684342D02*
X120165714Y-91446247D01*
X120165714Y-91446247D02*
X120118095Y-91351009D01*
X120118095Y-91351009D02*
X120070476Y-91303390D01*
X120070476Y-91303390D02*
X119975238Y-91255771D01*
X119975238Y-91255771D02*
X119784762Y-91255771D01*
X119784762Y-91255771D02*
X119689524Y-91303390D01*
X119689524Y-91303390D02*
X119641905Y-91351009D01*
X119641905Y-91351009D02*
X119594286Y-91446247D01*
X123323333Y-94464819D02*
X122990000Y-93988628D01*
X122751905Y-94464819D02*
X122751905Y-93464819D01*
X122751905Y-93464819D02*
X123132857Y-93464819D01*
X123132857Y-93464819D02*
X123228095Y-93512438D01*
X123228095Y-93512438D02*
X123275714Y-93560057D01*
X123275714Y-93560057D02*
X123323333Y-93655295D01*
X123323333Y-93655295D02*
X123323333Y-93798152D01*
X123323333Y-93798152D02*
X123275714Y-93893390D01*
X123275714Y-93893390D02*
X123228095Y-93941009D01*
X123228095Y-93941009D02*
X123132857Y-93988628D01*
X123132857Y-93988628D02*
X122751905Y-93988628D01*
X124180476Y-93464819D02*
X123990000Y-93464819D01*
X123990000Y-93464819D02*
X123894762Y-93512438D01*
X123894762Y-93512438D02*
X123847143Y-93560057D01*
X123847143Y-93560057D02*
X123751905Y-93702914D01*
X123751905Y-93702914D02*
X123704286Y-93893390D01*
X123704286Y-93893390D02*
X123704286Y-94274342D01*
X123704286Y-94274342D02*
X123751905Y-94369580D01*
X123751905Y-94369580D02*
X123799524Y-94417200D01*
X123799524Y-94417200D02*
X123894762Y-94464819D01*
X123894762Y-94464819D02*
X124085238Y-94464819D01*
X124085238Y-94464819D02*
X124180476Y-94417200D01*
X124180476Y-94417200D02*
X124228095Y-94369580D01*
X124228095Y-94369580D02*
X124275714Y-94274342D01*
X124275714Y-94274342D02*
X124275714Y-94036247D01*
X124275714Y-94036247D02*
X124228095Y-93941009D01*
X124228095Y-93941009D02*
X124180476Y-93893390D01*
X124180476Y-93893390D02*
X124085238Y-93845771D01*
X124085238Y-93845771D02*
X123894762Y-93845771D01*
X123894762Y-93845771D02*
X123799524Y-93893390D01*
X123799524Y-93893390D02*
X123751905Y-93941009D01*
X123751905Y-93941009D02*
X123704286Y-94036247D01*
X121757142Y-120474819D02*
X121423809Y-119998628D01*
X121185714Y-120474819D02*
X121185714Y-119474819D01*
X121185714Y-119474819D02*
X121566666Y-119474819D01*
X121566666Y-119474819D02*
X121661904Y-119522438D01*
X121661904Y-119522438D02*
X121709523Y-119570057D01*
X121709523Y-119570057D02*
X121757142Y-119665295D01*
X121757142Y-119665295D02*
X121757142Y-119808152D01*
X121757142Y-119808152D02*
X121709523Y-119903390D01*
X121709523Y-119903390D02*
X121661904Y-119951009D01*
X121661904Y-119951009D02*
X121566666Y-119998628D01*
X121566666Y-119998628D02*
X121185714Y-119998628D01*
X122709523Y-120474819D02*
X122138095Y-120474819D01*
X122423809Y-120474819D02*
X122423809Y-119474819D01*
X122423809Y-119474819D02*
X122328571Y-119617676D01*
X122328571Y-119617676D02*
X122233333Y-119712914D01*
X122233333Y-119712914D02*
X122138095Y-119760533D01*
X123042857Y-119474819D02*
X123709523Y-119474819D01*
X123709523Y-119474819D02*
X123280952Y-120474819D01*
X111356666Y-87364819D02*
X111356666Y-88079104D01*
X111356666Y-88079104D02*
X111309047Y-88221961D01*
X111309047Y-88221961D02*
X111213809Y-88317200D01*
X111213809Y-88317200D02*
X111070952Y-88364819D01*
X111070952Y-88364819D02*
X110975714Y-88364819D01*
X112261428Y-87698152D02*
X112261428Y-88364819D01*
X112023333Y-87317200D02*
X111785238Y-88031485D01*
X111785238Y-88031485D02*
X112404285Y-88031485D01*
X111321666Y-108994819D02*
X111321666Y-109709104D01*
X111321666Y-109709104D02*
X111274047Y-109851961D01*
X111274047Y-109851961D02*
X111178809Y-109947200D01*
X111178809Y-109947200D02*
X111035952Y-109994819D01*
X111035952Y-109994819D02*
X110940714Y-109994819D01*
X111940714Y-109423390D02*
X111845476Y-109375771D01*
X111845476Y-109375771D02*
X111797857Y-109328152D01*
X111797857Y-109328152D02*
X111750238Y-109232914D01*
X111750238Y-109232914D02*
X111750238Y-109185295D01*
X111750238Y-109185295D02*
X111797857Y-109090057D01*
X111797857Y-109090057D02*
X111845476Y-109042438D01*
X111845476Y-109042438D02*
X111940714Y-108994819D01*
X111940714Y-108994819D02*
X112131190Y-108994819D01*
X112131190Y-108994819D02*
X112226428Y-109042438D01*
X112226428Y-109042438D02*
X112274047Y-109090057D01*
X112274047Y-109090057D02*
X112321666Y-109185295D01*
X112321666Y-109185295D02*
X112321666Y-109232914D01*
X112321666Y-109232914D02*
X112274047Y-109328152D01*
X112274047Y-109328152D02*
X112226428Y-109375771D01*
X112226428Y-109375771D02*
X112131190Y-109423390D01*
X112131190Y-109423390D02*
X111940714Y-109423390D01*
X111940714Y-109423390D02*
X111845476Y-109471009D01*
X111845476Y-109471009D02*
X111797857Y-109518628D01*
X111797857Y-109518628D02*
X111750238Y-109613866D01*
X111750238Y-109613866D02*
X111750238Y-109804342D01*
X111750238Y-109804342D02*
X111797857Y-109899580D01*
X111797857Y-109899580D02*
X111845476Y-109947200D01*
X111845476Y-109947200D02*
X111940714Y-109994819D01*
X111940714Y-109994819D02*
X112131190Y-109994819D01*
X112131190Y-109994819D02*
X112226428Y-109947200D01*
X112226428Y-109947200D02*
X112274047Y-109899580D01*
X112274047Y-109899580D02*
X112321666Y-109804342D01*
X112321666Y-109804342D02*
X112321666Y-109613866D01*
X112321666Y-109613866D02*
X112274047Y-109518628D01*
X112274047Y-109518628D02*
X112226428Y-109471009D01*
X112226428Y-109471009D02*
X112131190Y-109423390D01*
X122093333Y-88789580D02*
X122045714Y-88837200D01*
X122045714Y-88837200D02*
X121902857Y-88884819D01*
X121902857Y-88884819D02*
X121807619Y-88884819D01*
X121807619Y-88884819D02*
X121664762Y-88837200D01*
X121664762Y-88837200D02*
X121569524Y-88741961D01*
X121569524Y-88741961D02*
X121521905Y-88646723D01*
X121521905Y-88646723D02*
X121474286Y-88456247D01*
X121474286Y-88456247D02*
X121474286Y-88313390D01*
X121474286Y-88313390D02*
X121521905Y-88122914D01*
X121521905Y-88122914D02*
X121569524Y-88027676D01*
X121569524Y-88027676D02*
X121664762Y-87932438D01*
X121664762Y-87932438D02*
X121807619Y-87884819D01*
X121807619Y-87884819D02*
X121902857Y-87884819D01*
X121902857Y-87884819D02*
X122045714Y-87932438D01*
X122045714Y-87932438D02*
X122093333Y-87980057D01*
X122426667Y-87884819D02*
X123093333Y-87884819D01*
X123093333Y-87884819D02*
X122664762Y-88884819D01*
X113963333Y-100059580D02*
X113915714Y-100107200D01*
X113915714Y-100107200D02*
X113772857Y-100154819D01*
X113772857Y-100154819D02*
X113677619Y-100154819D01*
X113677619Y-100154819D02*
X113534762Y-100107200D01*
X113534762Y-100107200D02*
X113439524Y-100011961D01*
X113439524Y-100011961D02*
X113391905Y-99916723D01*
X113391905Y-99916723D02*
X113344286Y-99726247D01*
X113344286Y-99726247D02*
X113344286Y-99583390D01*
X113344286Y-99583390D02*
X113391905Y-99392914D01*
X113391905Y-99392914D02*
X113439524Y-99297676D01*
X113439524Y-99297676D02*
X113534762Y-99202438D01*
X113534762Y-99202438D02*
X113677619Y-99154819D01*
X113677619Y-99154819D02*
X113772857Y-99154819D01*
X113772857Y-99154819D02*
X113915714Y-99202438D01*
X113915714Y-99202438D02*
X113963333Y-99250057D01*
X114868095Y-99154819D02*
X114391905Y-99154819D01*
X114391905Y-99154819D02*
X114344286Y-99631009D01*
X114344286Y-99631009D02*
X114391905Y-99583390D01*
X114391905Y-99583390D02*
X114487143Y-99535771D01*
X114487143Y-99535771D02*
X114725238Y-99535771D01*
X114725238Y-99535771D02*
X114820476Y-99583390D01*
X114820476Y-99583390D02*
X114868095Y-99631009D01*
X114868095Y-99631009D02*
X114915714Y-99726247D01*
X114915714Y-99726247D02*
X114915714Y-99964342D01*
X114915714Y-99964342D02*
X114868095Y-100059580D01*
X114868095Y-100059580D02*
X114820476Y-100107200D01*
X114820476Y-100107200D02*
X114725238Y-100154819D01*
X114725238Y-100154819D02*
X114487143Y-100154819D01*
X114487143Y-100154819D02*
X114391905Y-100107200D01*
X114391905Y-100107200D02*
X114344286Y-100059580D01*
X122737142Y-114674819D02*
X122403809Y-114198628D01*
X122165714Y-114674819D02*
X122165714Y-113674819D01*
X122165714Y-113674819D02*
X122546666Y-113674819D01*
X122546666Y-113674819D02*
X122641904Y-113722438D01*
X122641904Y-113722438D02*
X122689523Y-113770057D01*
X122689523Y-113770057D02*
X122737142Y-113865295D01*
X122737142Y-113865295D02*
X122737142Y-114008152D01*
X122737142Y-114008152D02*
X122689523Y-114103390D01*
X122689523Y-114103390D02*
X122641904Y-114151009D01*
X122641904Y-114151009D02*
X122546666Y-114198628D01*
X122546666Y-114198628D02*
X122165714Y-114198628D01*
X123689523Y-114674819D02*
X123118095Y-114674819D01*
X123403809Y-114674819D02*
X123403809Y-113674819D01*
X123403809Y-113674819D02*
X123308571Y-113817676D01*
X123308571Y-113817676D02*
X123213333Y-113912914D01*
X123213333Y-113912914D02*
X123118095Y-113960533D01*
X124546666Y-114008152D02*
X124546666Y-114674819D01*
X124308571Y-113627200D02*
X124070476Y-114341485D01*
X124070476Y-114341485D02*
X124689523Y-114341485D01*
X119016666Y-120994819D02*
X119016666Y-121709104D01*
X119016666Y-121709104D02*
X118969047Y-121851961D01*
X118969047Y-121851961D02*
X118873809Y-121947200D01*
X118873809Y-121947200D02*
X118730952Y-121994819D01*
X118730952Y-121994819D02*
X118635714Y-121994819D01*
X119492857Y-121994819D02*
X119492857Y-120994819D01*
X119492857Y-120994819D02*
X119873809Y-120994819D01*
X119873809Y-120994819D02*
X119969047Y-121042438D01*
X119969047Y-121042438D02*
X120016666Y-121090057D01*
X120016666Y-121090057D02*
X120064285Y-121185295D01*
X120064285Y-121185295D02*
X120064285Y-121328152D01*
X120064285Y-121328152D02*
X120016666Y-121423390D01*
X120016666Y-121423390D02*
X119969047Y-121471009D01*
X119969047Y-121471009D02*
X119873809Y-121518628D01*
X119873809Y-121518628D02*
X119492857Y-121518628D01*
X120921428Y-121328152D02*
X120921428Y-121994819D01*
X120683333Y-120947200D02*
X120445238Y-121661485D01*
X120445238Y-121661485D02*
X121064285Y-121661485D01*
X113847142Y-121639580D02*
X113799523Y-121687200D01*
X113799523Y-121687200D02*
X113656666Y-121734819D01*
X113656666Y-121734819D02*
X113561428Y-121734819D01*
X113561428Y-121734819D02*
X113418571Y-121687200D01*
X113418571Y-121687200D02*
X113323333Y-121591961D01*
X113323333Y-121591961D02*
X113275714Y-121496723D01*
X113275714Y-121496723D02*
X113228095Y-121306247D01*
X113228095Y-121306247D02*
X113228095Y-121163390D01*
X113228095Y-121163390D02*
X113275714Y-120972914D01*
X113275714Y-120972914D02*
X113323333Y-120877676D01*
X113323333Y-120877676D02*
X113418571Y-120782438D01*
X113418571Y-120782438D02*
X113561428Y-120734819D01*
X113561428Y-120734819D02*
X113656666Y-120734819D01*
X113656666Y-120734819D02*
X113799523Y-120782438D01*
X113799523Y-120782438D02*
X113847142Y-120830057D01*
X114799523Y-121734819D02*
X114228095Y-121734819D01*
X114513809Y-121734819D02*
X114513809Y-120734819D01*
X114513809Y-120734819D02*
X114418571Y-120877676D01*
X114418571Y-120877676D02*
X114323333Y-120972914D01*
X114323333Y-120972914D02*
X114228095Y-121020533D01*
X115180476Y-120830057D02*
X115228095Y-120782438D01*
X115228095Y-120782438D02*
X115323333Y-120734819D01*
X115323333Y-120734819D02*
X115561428Y-120734819D01*
X115561428Y-120734819D02*
X115656666Y-120782438D01*
X115656666Y-120782438D02*
X115704285Y-120830057D01*
X115704285Y-120830057D02*
X115751904Y-120925295D01*
X115751904Y-120925295D02*
X115751904Y-121020533D01*
X115751904Y-121020533D02*
X115704285Y-121163390D01*
X115704285Y-121163390D02*
X115132857Y-121734819D01*
X115132857Y-121734819D02*
X115751904Y-121734819D01*
X104791905Y-105364819D02*
X104791905Y-104364819D01*
X104791905Y-104364819D02*
X105030000Y-104364819D01*
X105030000Y-104364819D02*
X105172857Y-104412438D01*
X105172857Y-104412438D02*
X105268095Y-104507676D01*
X105268095Y-104507676D02*
X105315714Y-104602914D01*
X105315714Y-104602914D02*
X105363333Y-104793390D01*
X105363333Y-104793390D02*
X105363333Y-104936247D01*
X105363333Y-104936247D02*
X105315714Y-105126723D01*
X105315714Y-105126723D02*
X105268095Y-105221961D01*
X105268095Y-105221961D02*
X105172857Y-105317200D01*
X105172857Y-105317200D02*
X105030000Y-105364819D01*
X105030000Y-105364819D02*
X104791905Y-105364819D01*
X105744286Y-104460057D02*
X105791905Y-104412438D01*
X105791905Y-104412438D02*
X105887143Y-104364819D01*
X105887143Y-104364819D02*
X106125238Y-104364819D01*
X106125238Y-104364819D02*
X106220476Y-104412438D01*
X106220476Y-104412438D02*
X106268095Y-104460057D01*
X106268095Y-104460057D02*
X106315714Y-104555295D01*
X106315714Y-104555295D02*
X106315714Y-104650533D01*
X106315714Y-104650533D02*
X106268095Y-104793390D01*
X106268095Y-104793390D02*
X105696667Y-105364819D01*
X105696667Y-105364819D02*
X106315714Y-105364819D01*
X120974761Y-124414819D02*
X120641428Y-123938628D01*
X120403333Y-124414819D02*
X120403333Y-123414819D01*
X120403333Y-123414819D02*
X120784285Y-123414819D01*
X120784285Y-123414819D02*
X120879523Y-123462438D01*
X120879523Y-123462438D02*
X120927142Y-123510057D01*
X120927142Y-123510057D02*
X120974761Y-123605295D01*
X120974761Y-123605295D02*
X120974761Y-123748152D01*
X120974761Y-123748152D02*
X120927142Y-123843390D01*
X120927142Y-123843390D02*
X120879523Y-123891009D01*
X120879523Y-123891009D02*
X120784285Y-123938628D01*
X120784285Y-123938628D02*
X120403333Y-123938628D01*
X121260476Y-123414819D02*
X121593809Y-124414819D01*
X121593809Y-124414819D02*
X121927142Y-123414819D01*
X122212857Y-123510057D02*
X122260476Y-123462438D01*
X122260476Y-123462438D02*
X122355714Y-123414819D01*
X122355714Y-123414819D02*
X122593809Y-123414819D01*
X122593809Y-123414819D02*
X122689047Y-123462438D01*
X122689047Y-123462438D02*
X122736666Y-123510057D01*
X122736666Y-123510057D02*
X122784285Y-123605295D01*
X122784285Y-123605295D02*
X122784285Y-123700533D01*
X122784285Y-123700533D02*
X122736666Y-123843390D01*
X122736666Y-123843390D02*
X122165238Y-124414819D01*
X122165238Y-124414819D02*
X122784285Y-124414819D01*
X138596666Y-79991009D02*
X138263333Y-79991009D01*
X138263333Y-80514819D02*
X138263333Y-79514819D01*
X138263333Y-79514819D02*
X138739523Y-79514819D01*
X139644285Y-80514819D02*
X139072857Y-80514819D01*
X139358571Y-80514819D02*
X139358571Y-79514819D01*
X139358571Y-79514819D02*
X139263333Y-79657676D01*
X139263333Y-79657676D02*
X139168095Y-79752914D01*
X139168095Y-79752914D02*
X139072857Y-79800533D01*
X122083333Y-100074819D02*
X121750000Y-99598628D01*
X121511905Y-100074819D02*
X121511905Y-99074819D01*
X121511905Y-99074819D02*
X121892857Y-99074819D01*
X121892857Y-99074819D02*
X121988095Y-99122438D01*
X121988095Y-99122438D02*
X122035714Y-99170057D01*
X122035714Y-99170057D02*
X122083333Y-99265295D01*
X122083333Y-99265295D02*
X122083333Y-99408152D01*
X122083333Y-99408152D02*
X122035714Y-99503390D01*
X122035714Y-99503390D02*
X121988095Y-99551009D01*
X121988095Y-99551009D02*
X121892857Y-99598628D01*
X121892857Y-99598628D02*
X121511905Y-99598628D01*
X122559524Y-100074819D02*
X122750000Y-100074819D01*
X122750000Y-100074819D02*
X122845238Y-100027200D01*
X122845238Y-100027200D02*
X122892857Y-99979580D01*
X122892857Y-99979580D02*
X122988095Y-99836723D01*
X122988095Y-99836723D02*
X123035714Y-99646247D01*
X123035714Y-99646247D02*
X123035714Y-99265295D01*
X123035714Y-99265295D02*
X122988095Y-99170057D01*
X122988095Y-99170057D02*
X122940476Y-99122438D01*
X122940476Y-99122438D02*
X122845238Y-99074819D01*
X122845238Y-99074819D02*
X122654762Y-99074819D01*
X122654762Y-99074819D02*
X122559524Y-99122438D01*
X122559524Y-99122438D02*
X122511905Y-99170057D01*
X122511905Y-99170057D02*
X122464286Y-99265295D01*
X122464286Y-99265295D02*
X122464286Y-99503390D01*
X122464286Y-99503390D02*
X122511905Y-99598628D01*
X122511905Y-99598628D02*
X122559524Y-99646247D01*
X122559524Y-99646247D02*
X122654762Y-99693866D01*
X122654762Y-99693866D02*
X122845238Y-99693866D01*
X122845238Y-99693866D02*
X122940476Y-99646247D01*
X122940476Y-99646247D02*
X122988095Y-99598628D01*
X122988095Y-99598628D02*
X123035714Y-99503390D01*
X145347142Y-90204819D02*
X145013809Y-89728628D01*
X144775714Y-90204819D02*
X144775714Y-89204819D01*
X144775714Y-89204819D02*
X145156666Y-89204819D01*
X145156666Y-89204819D02*
X145251904Y-89252438D01*
X145251904Y-89252438D02*
X145299523Y-89300057D01*
X145299523Y-89300057D02*
X145347142Y-89395295D01*
X145347142Y-89395295D02*
X145347142Y-89538152D01*
X145347142Y-89538152D02*
X145299523Y-89633390D01*
X145299523Y-89633390D02*
X145251904Y-89681009D01*
X145251904Y-89681009D02*
X145156666Y-89728628D01*
X145156666Y-89728628D02*
X144775714Y-89728628D01*
X146299523Y-90204819D02*
X145728095Y-90204819D01*
X146013809Y-90204819D02*
X146013809Y-89204819D01*
X146013809Y-89204819D02*
X145918571Y-89347676D01*
X145918571Y-89347676D02*
X145823333Y-89442914D01*
X145823333Y-89442914D02*
X145728095Y-89490533D01*
X147156666Y-89204819D02*
X146966190Y-89204819D01*
X146966190Y-89204819D02*
X146870952Y-89252438D01*
X146870952Y-89252438D02*
X146823333Y-89300057D01*
X146823333Y-89300057D02*
X146728095Y-89442914D01*
X146728095Y-89442914D02*
X146680476Y-89633390D01*
X146680476Y-89633390D02*
X146680476Y-90014342D01*
X146680476Y-90014342D02*
X146728095Y-90109580D01*
X146728095Y-90109580D02*
X146775714Y-90157200D01*
X146775714Y-90157200D02*
X146870952Y-90204819D01*
X146870952Y-90204819D02*
X147061428Y-90204819D01*
X147061428Y-90204819D02*
X147156666Y-90157200D01*
X147156666Y-90157200D02*
X147204285Y-90109580D01*
X147204285Y-90109580D02*
X147251904Y-90014342D01*
X147251904Y-90014342D02*
X147251904Y-89776247D01*
X147251904Y-89776247D02*
X147204285Y-89681009D01*
X147204285Y-89681009D02*
X147156666Y-89633390D01*
X147156666Y-89633390D02*
X147061428Y-89585771D01*
X147061428Y-89585771D02*
X146870952Y-89585771D01*
X146870952Y-89585771D02*
X146775714Y-89633390D01*
X146775714Y-89633390D02*
X146728095Y-89681009D01*
X146728095Y-89681009D02*
X146680476Y-89776247D01*
D12*
%TO.C,L1*%
X133643421Y-104307800D02*
X133968979Y-104307800D01*
X133643421Y-103287800D02*
X133968979Y-103287800D01*
%TO.C,JP2*%
X134174600Y-113170000D02*
X135204600Y-113170000D01*
X135204600Y-114190000D02*
X134174600Y-114190000D01*
X134161200Y-113170000D02*
G75*
G03*
X134161200Y-114190000I0J-510000D01*
G01*
X135204600Y-114190000D02*
G75*
G03*
X135204600Y-113170000I0J510000D01*
G01*
%TO.C,JP1*%
X136064600Y-103260000D02*
X137094600Y-103260000D01*
X137094600Y-104280000D02*
X136064600Y-104280000D01*
X136051200Y-103260000D02*
G75*
G03*
X136051200Y-104280000I0J-510000D01*
G01*
X137094600Y-104280000D02*
G75*
G03*
X137094600Y-103260000I0J510000D01*
G01*
D13*
%TO.C,U1*%
X129970000Y-111130000D02*
X131770000Y-111130000D01*
X129970000Y-114230000D02*
X131770000Y-114230000D01*
X132400000Y-114330000D02*
G75*
G03*
X132140000Y-114330000I-130000J0D01*
G01*
X132140000Y-114330000D02*
G75*
G03*
X132400000Y-114330000I130000J0D01*
G01*
D12*
%TO.C,TP4*%
X113550000Y-124000000D02*
X112150000Y-124000000D01*
X113550000Y-122600000D02*
X113550000Y-124000000D01*
X112150000Y-124000000D02*
X112150000Y-122600000D01*
X112150000Y-122600000D02*
X113550000Y-122600000D01*
%TO.C,TP2*%
X105880000Y-67860000D02*
X104480000Y-67860000D01*
X105880000Y-66460000D02*
X105880000Y-67860000D01*
X104480000Y-67860000D02*
X104480000Y-66460000D01*
X104480000Y-66460000D02*
X105880000Y-66460000D01*
%TO.C,TP1*%
X113980000Y-102180000D02*
X112580000Y-102180000D01*
X113980000Y-100780000D02*
X113980000Y-102180000D01*
X112580000Y-102180000D02*
X112580000Y-100780000D01*
X112580000Y-100780000D02*
X113980000Y-100780000D01*
%TO.C,R8*%
X143752500Y-77300242D02*
X143752500Y-77774758D01*
X144797500Y-77300242D02*
X144797500Y-77774758D01*
%TO.C,R5*%
X145600242Y-116182500D02*
X146074758Y-116182500D01*
X145600242Y-115137500D02*
X146074758Y-115137500D01*
%TO.C,R4*%
X146094758Y-112707500D02*
X145620242Y-112707500D01*
X146094758Y-113752500D02*
X145620242Y-113752500D01*
%TO.C,R3*%
X135082500Y-62209758D02*
X135082500Y-61735242D01*
X134037500Y-62209758D02*
X134037500Y-61735242D01*
%TO.C,R2*%
X132527500Y-61730242D02*
X132527500Y-62204758D01*
X133572500Y-61730242D02*
X133572500Y-62204758D01*
%TO.C,R1*%
X133557742Y-105892500D02*
X134032258Y-105892500D01*
X133557742Y-104847500D02*
X134032258Y-104847500D01*
%TO.C,FB1*%
X130039758Y-108570000D02*
X131710242Y-108570000D01*
X130039758Y-110390000D02*
X131710242Y-110390000D01*
%TO.C,C2*%
X133810000Y-111284420D02*
X133810000Y-111565580D01*
X134830000Y-111284420D02*
X134830000Y-111565580D01*
%TO.C,C1*%
X136744420Y-105850000D02*
X137025580Y-105850000D01*
X136744420Y-104830000D02*
X137025580Y-104830000D01*
D13*
%TO.C,SW1*%
X151600000Y-80550000D02*
X148020000Y-80550000D01*
X151600000Y-80550000D02*
X151600000Y-81820000D01*
X148020000Y-81830000D02*
X148020000Y-80550000D01*
X151070000Y-82100000D02*
X151070000Y-88200000D01*
X148530000Y-82100000D02*
X151070000Y-82100000D01*
X150310000Y-82610000D02*
X150310000Y-83630000D01*
X149290000Y-82610000D02*
X150310000Y-82610000D01*
X151600000Y-83480000D02*
X151600000Y-84320000D01*
X150310000Y-83630000D02*
X149290000Y-83630000D01*
X149290000Y-83630000D02*
X149290000Y-82610000D01*
X148020000Y-84330000D02*
X148020000Y-83470000D01*
X151600000Y-85980000D02*
X151600000Y-86820000D01*
X148020000Y-86830000D02*
X148020000Y-85970000D01*
X151070000Y-88200000D02*
X148530000Y-88200000D01*
X148530000Y-88200000D02*
X148530000Y-82100000D01*
X151600000Y-88480000D02*
X151580000Y-89720000D01*
X148020000Y-89720000D02*
X148020000Y-88470000D01*
X148020000Y-89720000D02*
X151600000Y-89720000D01*
%TO.C,J3*%
X108850000Y-91340000D02*
X108010000Y-91340000D01*
X108850000Y-91340000D02*
X108850000Y-92220000D01*
X108850000Y-97230000D02*
X108850000Y-98030000D01*
X105050000Y-97870000D02*
X105050000Y-91580000D01*
X108850000Y-98110000D02*
X108010000Y-98110000D01*
D12*
%TO.C,J5*%
X148940000Y-70690000D02*
X148940000Y-75830000D01*
X148940000Y-70690000D02*
X151600000Y-70690000D01*
X148940000Y-75830000D02*
X151600000Y-75830000D01*
X150270000Y-68090000D02*
X151600000Y-68090000D01*
X151600000Y-68090000D02*
X151600000Y-69420000D01*
X151600000Y-70690000D02*
X151600000Y-75830000D01*
%TO.C,C9*%
X141815580Y-85630000D02*
X141534420Y-85630000D01*
X141815580Y-84610000D02*
X141534420Y-84610000D01*
%TO.C,R7*%
X144422742Y-70407500D02*
X144897258Y-70407500D01*
X144422742Y-71452500D02*
X144897258Y-71452500D01*
D14*
%TO.C,U5*%
X118905000Y-114990000D02*
X118445000Y-114990000D01*
X118905000Y-114990000D02*
X118905000Y-115440000D01*
X116165000Y-114990000D02*
X115705000Y-114990000D01*
X115705000Y-114990000D02*
X115705000Y-115440000D01*
X118905000Y-117730000D02*
X118905000Y-118190000D01*
X115705000Y-117730000D02*
X115705000Y-118190000D01*
X118445000Y-118190000D02*
X118905000Y-118190000D01*
X115705000Y-118190000D02*
X116165000Y-118190000D01*
D13*
X115455000Y-115250000D02*
G75*
G03*
X115455000Y-115250000I0J0D01*
G01*
X115455000Y-115250000D02*
G75*
G03*
X115455000Y-115250000I0J0D01*
G01*
D12*
%TO.C,R15*%
X142147500Y-91422258D02*
X142147500Y-90947742D01*
X143192500Y-91422258D02*
X143192500Y-90947742D01*
D13*
%TO.C,J7*%
X108820000Y-112950000D02*
X107980000Y-112950000D01*
X108820000Y-112950000D02*
X108820000Y-113830000D01*
X108820000Y-118840000D02*
X108820000Y-119640000D01*
X105020000Y-119480000D02*
X105020000Y-113190000D01*
X108820000Y-119720000D02*
X107980000Y-119720000D01*
D12*
%TO.C,TP3*%
X113880000Y-127380000D02*
X115280000Y-127380000D01*
X113880000Y-128780000D02*
X113880000Y-127380000D01*
X115280000Y-127380000D02*
X115280000Y-128780000D01*
X115280000Y-128780000D02*
X113880000Y-128780000D01*
%TO.C,SW2*%
X153200000Y-95120000D02*
X153000000Y-95120000D01*
X150400000Y-95120000D02*
X150200000Y-95120000D01*
X150200000Y-95120000D02*
X150200000Y-100120000D01*
X153200000Y-100120000D02*
X153200000Y-95120000D01*
X153000000Y-100120000D02*
X153200000Y-100120000D01*
X150200000Y-100120000D02*
X150400000Y-100120000D01*
%TO.C,C8*%
X141544420Y-83090000D02*
X141825580Y-83090000D01*
X141544420Y-84110000D02*
X141825580Y-84110000D01*
%TO.C,JP3*%
X117564600Y-99280000D02*
X118594600Y-99280000D01*
X118594600Y-100300000D02*
X117564600Y-100300000D01*
X116789200Y-99280000D02*
G75*
G03*
X116789200Y-100300000I0J-510000D01*
G01*
X118594600Y-100300000D02*
G75*
G03*
X118594600Y-99280000I0J510000D01*
G01*
D13*
%TO.C,RV1*%
X119440000Y-103680000D02*
X119440000Y-103230000D01*
X119410000Y-101120000D02*
X119410000Y-100670000D01*
X117240000Y-103680000D02*
X119440000Y-103680000D01*
X117170000Y-100660000D02*
X119370000Y-100660000D01*
X115700000Y-102070000D02*
X115700000Y-102270000D01*
X115090000Y-101110000D02*
G75*
G03*
X114770000Y-101110000I-160000J0D01*
G01*
X114770000Y-101110000D02*
G75*
G03*
X115090000Y-101110000I160000J0D01*
G01*
D12*
%TO.C,C3*%
X144504420Y-68860000D02*
X144785580Y-68860000D01*
X144504420Y-69880000D02*
X144785580Y-69880000D01*
D10*
%TO.C,C16*%
X120735000Y-110680000D02*
X120735000Y-109390000D01*
X120735000Y-106720000D02*
X120725000Y-108020000D01*
X119345000Y-105330000D02*
X120735000Y-106720000D01*
X119335000Y-112080000D02*
X120735000Y-110680000D01*
X114005000Y-107970000D02*
X113985000Y-105330000D01*
X113995000Y-109410000D02*
X113985000Y-112080000D01*
X113985000Y-112080000D02*
X119335000Y-112080000D01*
X113985000Y-105330000D02*
X119345000Y-105330000D01*
D12*
%TO.C,C4*%
X122250000Y-96824420D02*
X122250000Y-97105580D01*
X121230000Y-96824420D02*
X121230000Y-97105580D01*
%TO.C,C11*%
X121735000Y-117104420D02*
X121735000Y-117385580D01*
X120715000Y-117104420D02*
X120715000Y-117385580D01*
%TO.C,J1*%
X145900000Y-64440000D02*
X145900000Y-62440000D01*
X145900000Y-60540000D02*
X145900000Y-58640000D01*
X145900000Y-58640000D02*
X136500000Y-58640000D01*
X136500000Y-64440000D02*
X136500000Y-62440000D01*
X136500000Y-60540000D02*
X136500000Y-58640000D01*
%TO.C,J2*%
X151750000Y-114440000D02*
X151750000Y-106760000D01*
X151750000Y-114440000D02*
X149090000Y-114440000D01*
X151750000Y-106760000D02*
X149090000Y-106760000D01*
X150420000Y-117040000D02*
X149090000Y-117040000D01*
X149090000Y-117040000D02*
X149090000Y-115710000D01*
X149090000Y-114440000D02*
X149090000Y-106760000D01*
%TO.C,U4*%
X112230000Y-60070000D02*
X131280000Y-60070000D01*
X112230000Y-79120000D02*
X112230000Y-60070000D01*
X112920000Y-76040000D02*
X112920000Y-78700000D01*
X112960000Y-63390000D02*
X112960000Y-78690000D01*
X112960000Y-63390000D02*
X115620000Y-63390000D01*
X112960000Y-78690000D02*
X115620000Y-78690000D01*
X114290000Y-60790000D02*
X115620000Y-60790000D01*
X115620000Y-60790000D02*
X115620000Y-62120000D01*
X115620000Y-63390000D02*
X115620000Y-78690000D01*
X128210000Y-63390000D02*
X128210000Y-78690000D01*
X128210000Y-63390000D02*
X130870000Y-63390000D01*
X128210000Y-78690000D02*
X130870000Y-78690000D01*
X128220000Y-76040000D02*
X128220000Y-78700000D01*
X129540000Y-60790000D02*
X130870000Y-60790000D01*
X130820000Y-77370000D02*
X130820000Y-78700000D01*
X130820000Y-78700000D02*
X129490000Y-78700000D01*
X130870000Y-60790000D02*
X130870000Y-62120000D01*
X130870000Y-63390000D02*
X130870000Y-78690000D01*
X131280000Y-60070000D02*
X131280000Y-79120000D01*
X131280000Y-79120000D02*
X112230000Y-79120000D01*
D13*
%TO.C,U3*%
X141820000Y-87282500D02*
X141820000Y-89082500D01*
X138720000Y-87282500D02*
X138720000Y-89082500D01*
X138750000Y-89582500D02*
G75*
G03*
X138490000Y-89582500I-130000J0D01*
G01*
X138490000Y-89582500D02*
G75*
G03*
X138750000Y-89582500I130000J0D01*
G01*
D12*
%TO.C,R10*%
X109497258Y-104112500D02*
X109022742Y-104112500D01*
X109497258Y-103067500D02*
X109022742Y-103067500D01*
%TO.C,D3*%
X104787500Y-106375000D02*
X104787500Y-107845000D01*
X104787500Y-107845000D02*
X107072500Y-107845000D01*
X107072500Y-106375000D02*
X104787500Y-106375000D01*
%TO.C,R12*%
X142267500Y-88392258D02*
X142267500Y-87917742D01*
X143312500Y-88392258D02*
X143312500Y-87917742D01*
%TO.C,C13*%
X142084420Y-94760000D02*
X142365580Y-94760000D01*
X142084420Y-95780000D02*
X142365580Y-95780000D01*
%TO.C,D4*%
X138050000Y-95530000D02*
X140050000Y-95530000D01*
X138050000Y-95530000D02*
X138050000Y-91520000D01*
X140050000Y-95530000D02*
X140050000Y-91520000D01*
D10*
%TO.C,Q2*%
X141245000Y-78710000D02*
X142475000Y-78710000D01*
X142475000Y-78710000D02*
X142485000Y-78710000D01*
X141245000Y-78090000D02*
X141245000Y-78710000D01*
X142495000Y-77860000D02*
X142495000Y-77440000D01*
X141245000Y-76590000D02*
X141245000Y-77210000D01*
X141245000Y-76590000D02*
X142485000Y-76590000D01*
X142855000Y-78850000D02*
G75*
G03*
X142715000Y-78850000I-70000J0D01*
G01*
X142715000Y-78850000D02*
G75*
G03*
X142855000Y-78850000I70000J0D01*
G01*
%TO.C,L2*%
X137790000Y-85750000D02*
X138060000Y-86010000D01*
X135730000Y-85750000D02*
X137790000Y-85750000D01*
X135490000Y-85990000D02*
X135730000Y-85750000D01*
X138060000Y-86010000D02*
X138060000Y-87390000D01*
X135490000Y-87390000D02*
X135490000Y-85990000D01*
X135490000Y-87390000D02*
X135490000Y-87390000D01*
X138060000Y-88660000D02*
X138060000Y-88660000D01*
X138060000Y-88660000D02*
X138060000Y-90050000D01*
X135490000Y-90030000D02*
X135490000Y-88660000D01*
X138060000Y-90050000D02*
X137810000Y-90290000D01*
X137810000Y-90290000D02*
X135760000Y-90290000D01*
X135760000Y-90290000D02*
X135490000Y-90030000D01*
D12*
%TO.C,D1*%
X136825000Y-73415000D02*
X136825000Y-75415000D01*
X136825000Y-73415000D02*
X140835000Y-73415000D01*
X136825000Y-75415000D02*
X140835000Y-75415000D01*
%TO.C,C14*%
X142365580Y-94240000D02*
X142084420Y-94240000D01*
X142365580Y-93220000D02*
X142084420Y-93220000D01*
D14*
%TO.C,U2*%
X119160000Y-93320000D02*
X118700000Y-93320000D01*
X119160000Y-93320000D02*
X119160000Y-93770000D01*
X116420000Y-93320000D02*
X115960000Y-93320000D01*
X115960000Y-93320000D02*
X115960000Y-93770000D01*
X119160000Y-96060000D02*
X119160000Y-96520000D01*
X115960000Y-96060000D02*
X115960000Y-96520000D01*
X118700000Y-96520000D02*
X119160000Y-96520000D01*
X115960000Y-96520000D02*
X116420000Y-96520000D01*
D13*
X115710000Y-93580000D02*
G75*
G03*
X115710000Y-93580000I0J0D01*
G01*
X115710000Y-93580000D02*
G75*
G03*
X115710000Y-93580000I0J0D01*
G01*
D12*
%TO.C,R11*%
X109477258Y-107632500D02*
X109002742Y-107632500D01*
X109477258Y-106587500D02*
X109002742Y-106587500D01*
%TO.C,J6*%
X109270000Y-83740000D02*
X109270000Y-68440000D01*
X109270000Y-83740000D02*
X106610000Y-83740000D01*
X109270000Y-68440000D02*
X106610000Y-68440000D01*
X107940000Y-86340000D02*
X106610000Y-86340000D01*
X106610000Y-86340000D02*
X106610000Y-85010000D01*
X106610000Y-83740000D02*
X106610000Y-68440000D01*
%TO.C,C10*%
X148610000Y-99225580D02*
X148610000Y-98944420D01*
X149630000Y-99225580D02*
X149630000Y-98944420D01*
%TO.C,C15*%
X117390580Y-113610000D02*
X117109420Y-113610000D01*
X117390580Y-112590000D02*
X117109420Y-112590000D01*
%TO.C,R13*%
X148607500Y-96322258D02*
X148607500Y-95847742D01*
X149652500Y-96322258D02*
X149652500Y-95847742D01*
D13*
%TO.C,Q1*%
X141035000Y-70125000D02*
X141035000Y-71925000D01*
X137935000Y-70125000D02*
X137935000Y-71925000D01*
X137965000Y-72425000D02*
G75*
G03*
X137705000Y-72425000I-130000J0D01*
G01*
X137705000Y-72425000D02*
G75*
G03*
X137965000Y-72425000I130000J0D01*
G01*
D12*
%TO.C,C6*%
X117045580Y-91900000D02*
X116764420Y-91900000D01*
X117045580Y-90880000D02*
X116764420Y-90880000D01*
%TO.C,R6*%
X122262500Y-93687742D02*
X122262500Y-94162258D01*
X121217500Y-93687742D02*
X121217500Y-94162258D01*
%TO.C,R17*%
X119457258Y-120372500D02*
X118982742Y-120372500D01*
X119457258Y-119327500D02*
X118982742Y-119327500D01*
%TO.C,J4*%
X110360000Y-91950000D02*
X110360000Y-99630000D01*
X110360000Y-91950000D02*
X113020000Y-91950000D01*
X110360000Y-99630000D02*
X113020000Y-99630000D01*
X111690000Y-89350000D02*
X113020000Y-89350000D01*
X113020000Y-89350000D02*
X113020000Y-90680000D01*
X113020000Y-91950000D02*
X113020000Y-99630000D01*
%TO.C,J8*%
X110325000Y-113580000D02*
X110325000Y-121260000D01*
X110325000Y-113580000D02*
X112985000Y-113580000D01*
X110325000Y-121260000D02*
X112985000Y-121260000D01*
X111655000Y-110980000D02*
X112985000Y-110980000D01*
X112985000Y-110980000D02*
X112985000Y-112310000D01*
X112985000Y-113580000D02*
X112985000Y-121260000D01*
D10*
%TO.C,C7*%
X121170000Y-88920000D02*
X121170000Y-87630000D01*
X121170000Y-84960000D02*
X121160000Y-86260000D01*
X119780000Y-83570000D02*
X121170000Y-84960000D01*
X119770000Y-90320000D02*
X121170000Y-88920000D01*
X114440000Y-86210000D02*
X114420000Y-83570000D01*
X114430000Y-87650000D02*
X114420000Y-90320000D01*
X114420000Y-90320000D02*
X119770000Y-90320000D01*
X114420000Y-83570000D02*
X119780000Y-83570000D01*
D12*
%TO.C,C5*%
X116225580Y-98950000D02*
X115944420Y-98950000D01*
X116225580Y-97930000D02*
X115944420Y-97930000D01*
%TO.C,R14*%
X121777500Y-113987742D02*
X121777500Y-114462258D01*
X120732500Y-113987742D02*
X120732500Y-114462258D01*
%TO.C,JP4*%
X117284600Y-120810000D02*
X118314600Y-120810000D01*
X118314600Y-121830000D02*
X117284600Y-121830000D01*
X116509200Y-120810000D02*
G75*
G03*
X116509200Y-121830000I0J-510000D01*
G01*
X118314600Y-121830000D02*
G75*
G03*
X118314600Y-120810000I0J510000D01*
G01*
%TO.C,C12*%
X115820580Y-120360000D02*
X115539420Y-120360000D01*
X115820580Y-119340000D02*
X115539420Y-119340000D01*
%TO.C,D2*%
X104800000Y-102855000D02*
X104800000Y-104325000D01*
X104800000Y-104325000D02*
X107085000Y-104325000D01*
X107085000Y-102855000D02*
X104800000Y-102855000D01*
D13*
%TO.C,RV2*%
X119180000Y-125280000D02*
X119180000Y-124830000D01*
X119150000Y-122720000D02*
X119150000Y-122270000D01*
X116980000Y-125280000D02*
X119180000Y-125280000D01*
X116910000Y-122260000D02*
X119110000Y-122260000D01*
X115440000Y-123670000D02*
X115440000Y-123870000D01*
X114830000Y-122710000D02*
G75*
G03*
X114510000Y-122710000I-160000J0D01*
G01*
X114510000Y-122710000D02*
G75*
G03*
X114830000Y-122710000I160000J0D01*
G01*
D12*
%TO.C,F1*%
X141348922Y-79300000D02*
X141866078Y-79300000D01*
X141348922Y-80720000D02*
X141866078Y-80720000D01*
%TO.C,R9*%
X119692258Y-98982500D02*
X119217742Y-98982500D01*
X119692258Y-97937500D02*
X119217742Y-97937500D01*
%TO.C,R16*%
X144692500Y-90947742D02*
X144692500Y-91422258D01*
X143647500Y-90947742D02*
X143647500Y-91422258D01*
%TD*%
M02*
