M48
; DRILL file {KiCad 7.0.10-7.0.10~ubuntu22.04.1} date Mon 19 Feb 2024 22:46:58
; FORMAT={-:-/ absolute / metric / decimal}
; #@! TF.CreationDate,2024-02-19T22:46:58+08:00
; #@! TF.GenerationSoftware,Kicad,Pcbnew,7.0.10-7.0.10~ubuntu22.04.1
; #@! TF.FileFunction,MixedPlating,1,4
FMAT,2
METRIC
; #@! TA.AperFunction,Plated,PTH,ViaDrill
T1C0.300
; #@! TA.AperFunction,Plated,PTH,ViaDrill
T2C0.400
; #@! TA.AperFunction,Plated,PTH,ComponentDrill
T3C0.500
; #@! TA.AperFunction,Plated,PTH,ComponentDrill
T4C0.600
; #@! TA.AperFunction,Plated,PTH,ComponentDrill
T5C1.000
; #@! TA.AperFunction,NonPlated,NPTH,ComponentDrill
T6C0.650
; #@! TA.AperFunction,NonPlated,NPTH,ComponentDrill
T7C3.200
%
G90
G05
T1
X105.47Y-105.81
X110.835Y-103.61
X110.845Y-107.12
X114.89Y-124.75
X114.93Y-120.65
X116.74Y-117.16
X116.84Y-116.12
X116.85Y-119.03
X116.99Y-95.51
X117.09Y-94.48
X117.135Y-97.568
X117.29Y-100.77
X117.591Y-122.65
X117.86Y-116.04
X117.88Y-117.16
X117.98Y-94.5
X118.13Y-95.49
X118.211Y-92.495
X118.27Y-114.12
X119.077Y-115.257
X119.77Y-115.9
X119.81Y-93.21
X120.11Y-116.84
X120.15Y-94.23
X120.57Y-95.17
X120.78Y-119.86
X121.23Y-118.84
X123.94Y-103.31
X127.13Y-110.43
X128.01Y-111.68
X128.08Y-112.7
X128.39Y-81.5
X138.76Y-67.59
X138.85Y-86.175
X139.36Y-88.1
X140.41Y-90.61
X140.51Y-88.36
X141.0Y-91.16
X141.24Y-88.36
X142.77Y-88.27
X143.17Y-81.48
X144.045Y-113.22
X144.18Y-80.43
X144.21Y-81.5
X144.275Y-114.91
X144.45Y-68.38
X149.14Y-94.52
X151.75Y-98.81
T2
X105.49Y-94.67
X106.04Y-116.41
X106.24Y-127.58
X106.29Y-61.52
X110.18Y-67.46
X110.94Y-81.08
X111.045Y-105.3
X113.66Y-98.63
X114.61Y-110.14
X114.62Y-111.06
X115.06Y-89.39
X115.08Y-88.43
X115.22Y-99.36
X115.26Y-91.37
X116.56Y-78.41
X116.78Y-72.07
X116.81Y-88.51
X117.06Y-76.27
X117.08Y-103.23
X117.4Y-110.28
X117.42Y-107.08
X117.68Y-85.16
X118.01Y-80.1
X118.22Y-82.81
X118.78Y-88.71
X118.83Y-74.67
X118.96Y-61.56
X119.45Y-88.06
X120.05Y-111.05
X120.07Y-110.03
X120.55Y-79.83
X120.83Y-76.35
X121.73Y-98.52
X123.58Y-108.81
X124.06Y-79.6
X124.27Y-86.62
X124.84Y-61.56
X124.98Y-91.59
X125.01Y-105.26
X125.29Y-112.09
X127.01Y-80.16
X128.12Y-83.33
X128.2Y-87.46
X128.4Y-98.61
X130.5Y-89.64
X132.57Y-94.91
X132.62Y-80.1
X132.89Y-83.12
X133.03Y-100.0
X134.16Y-89.57
X134.63Y-93.76
X135.25Y-65.48
X135.34Y-112.23
X136.61Y-71.37
X136.81Y-115.57
X138.23Y-82.54
X138.68Y-105.33
X139.04Y-78.01
X139.16Y-84.42
X139.5Y-93.96
X139.83Y-83.58
X139.83Y-85.15
X140.23Y-94.67
X140.25Y-93.35
X140.95Y-92.59
X141.01Y-61.52
X141.88Y-99.51
X142.15Y-86.02
X142.39Y-73.83
X142.88Y-86.57
X142.95Y-84.37
X144.03Y-89.04
X144.17Y-87.76
X144.47Y-96.31
X144.6Y-94.33
X144.69Y-95.38
X146.08Y-97.0
X146.1Y-72.3
X146.49Y-68.24
X147.16Y-109.61
X148.37Y-106.58
X149.78Y-86.97
X149.8Y-81.15
X149.81Y-85.17
X152.01Y-61.56
X152.01Y-127.68
T3
X105.18Y-67.16
X112.85Y-123.3
X113.28Y-101.48
X114.58Y-128.08
T5
X107.94Y-69.77
X107.94Y-72.31
X107.94Y-74.85
X107.94Y-77.39
X107.94Y-79.93
X107.94Y-82.47
X107.94Y-85.01
X111.655Y-112.31
X111.655Y-114.85
X111.655Y-117.39
X111.655Y-119.93
X111.69Y-90.68
X111.69Y-93.22
X111.69Y-95.76
X111.69Y-98.3
X114.25Y-77.37
X114.29Y-62.12
X114.29Y-64.66
X114.29Y-67.2
X114.29Y-69.74
X114.29Y-72.28
X114.29Y-74.82
X129.54Y-62.12
X129.54Y-64.66
X129.54Y-67.2
X129.54Y-69.74
X129.54Y-72.28
X129.54Y-74.82
X129.54Y-77.36
X150.27Y-69.42
X150.27Y-71.96
X150.27Y-74.5
X150.42Y-108.09
X150.42Y-110.63
X150.42Y-113.17
X150.42Y-115.71
T6
X138.31Y-65.14
X144.09Y-65.14
T7
X107.948Y-63.385
X107.95Y-125.76
X127.04Y-123.02
X127.06Y-100.78
X150.29Y-125.78
X150.328Y-63.385
T4
X136.88Y-61.79G85X136.88Y-61.19
G05
X136.88Y-66.22G85X136.88Y-65.12
G05
X145.52Y-61.79G85X145.52Y-61.19
G05
X145.52Y-66.22G85X145.52Y-65.12
G05
M30
